G04 #@! TF.GenerationSoftware,KiCad,Pcbnew,(5.1.0-0)*
G04 #@! TF.CreationDate,2019-05-28T11:35:41+09:30*
G04 #@! TF.ProjectId,triax-loadwing,74726961-782d-46c6-9f61-6477696e672e,V1.0*
G04 #@! TF.SameCoordinates,Original*
G04 #@! TF.FileFunction,Legend,Top*
G04 #@! TF.FilePolarity,Positive*
%FSLAX46Y46*%
G04 Gerber Fmt 4.6, Leading zero omitted, Abs format (unit mm)*
G04 Created by KiCad (PCBNEW (5.1.0-0)) date 2019-05-28 11:35:41*
%MOMM*%
%LPD*%
G04 APERTURE LIST*
%ADD10C,0.150000*%
%ADD11C,0.180000*%
%ADD12C,0.120000*%
%ADD13C,0.200000*%
%ADD14C,0.160000*%
G04 APERTURE END LIST*
D10*
X169714285Y-85047619D02*
X169761904Y-85000000D01*
X169857142Y-84952380D01*
X170095238Y-84952380D01*
X170190476Y-85000000D01*
X170238095Y-85047619D01*
X170285714Y-85142857D01*
X170285714Y-85238095D01*
X170238095Y-85380952D01*
X169666666Y-85952380D01*
X170285714Y-85952380D01*
X167585714Y-85952380D02*
X167014285Y-85952380D01*
X167300000Y-85952380D02*
X167300000Y-84952380D01*
X167204761Y-85095238D01*
X167109523Y-85190476D01*
X167014285Y-85238095D01*
X164452380Y-84952380D02*
X164547619Y-84952380D01*
X164642857Y-85000000D01*
X164690476Y-85047619D01*
X164738095Y-85142857D01*
X164785714Y-85333333D01*
X164785714Y-85571428D01*
X164738095Y-85761904D01*
X164690476Y-85857142D01*
X164642857Y-85904761D01*
X164547619Y-85952380D01*
X164452380Y-85952380D01*
X164357142Y-85904761D01*
X164309523Y-85857142D01*
X164261904Y-85761904D01*
X164214285Y-85571428D01*
X164214285Y-85333333D01*
X164261904Y-85142857D01*
X164309523Y-85047619D01*
X164357142Y-85000000D01*
X164452380Y-84952380D01*
X139535714Y-80202380D02*
X139202381Y-79726190D01*
X138964285Y-80202380D02*
X138964285Y-79202380D01*
X139345238Y-79202380D01*
X139440476Y-79250000D01*
X139488095Y-79297619D01*
X139535714Y-79392857D01*
X139535714Y-79535714D01*
X139488095Y-79630952D01*
X139440476Y-79678571D01*
X139345238Y-79726190D01*
X138964285Y-79726190D01*
X139869047Y-79202380D02*
X140488095Y-79202380D01*
X140154761Y-79583333D01*
X140297619Y-79583333D01*
X140392857Y-79630952D01*
X140440476Y-79678571D01*
X140488095Y-79773809D01*
X140488095Y-80011904D01*
X140440476Y-80107142D01*
X140392857Y-80154761D01*
X140297619Y-80202380D01*
X140011904Y-80202380D01*
X139916666Y-80154761D01*
X139869047Y-80107142D01*
X139535714Y-77708806D02*
X139202381Y-77232616D01*
X138964285Y-77708806D02*
X138964285Y-76708806D01*
X139345238Y-76708806D01*
X139440476Y-76756426D01*
X139488095Y-76804045D01*
X139535714Y-76899283D01*
X139535714Y-77042140D01*
X139488095Y-77137378D01*
X139440476Y-77184997D01*
X139345238Y-77232616D01*
X138964285Y-77232616D01*
X139916666Y-76804045D02*
X139964285Y-76756426D01*
X140059523Y-76708806D01*
X140297619Y-76708806D01*
X140392857Y-76756426D01*
X140440476Y-76804045D01*
X140488095Y-76899283D01*
X140488095Y-76994521D01*
X140440476Y-77137378D01*
X139869047Y-77708806D01*
X140488095Y-77708806D01*
X139535714Y-75215235D02*
X139202381Y-74739045D01*
X138964285Y-75215235D02*
X138964285Y-74215235D01*
X139345238Y-74215235D01*
X139440476Y-74262855D01*
X139488095Y-74310474D01*
X139535714Y-74405712D01*
X139535714Y-74548569D01*
X139488095Y-74643807D01*
X139440476Y-74691426D01*
X139345238Y-74739045D01*
X138964285Y-74739045D01*
X140488095Y-75215235D02*
X139916666Y-75215235D01*
X140202381Y-75215235D02*
X140202381Y-74215235D01*
X140107142Y-74358093D01*
X140011904Y-74453331D01*
X139916666Y-74500950D01*
X138726190Y-71354284D02*
X139726190Y-71354284D01*
X139535714Y-72721664D02*
X139202381Y-72245474D01*
X138964285Y-72721664D02*
X138964285Y-71721664D01*
X139345238Y-71721664D01*
X139440476Y-71769284D01*
X139488095Y-71816903D01*
X139535714Y-71912141D01*
X139535714Y-72054998D01*
X139488095Y-72150236D01*
X139440476Y-72197855D01*
X139345238Y-72245474D01*
X138964285Y-72245474D01*
X139726190Y-71354284D02*
X140678571Y-71354284D01*
X139916666Y-72674045D02*
X140059523Y-72721664D01*
X140297619Y-72721664D01*
X140392857Y-72674045D01*
X140440476Y-72626426D01*
X140488095Y-72531188D01*
X140488095Y-72435950D01*
X140440476Y-72340712D01*
X140392857Y-72293093D01*
X140297619Y-72245474D01*
X140107142Y-72197855D01*
X140011904Y-72150236D01*
X139964285Y-72102617D01*
X139916666Y-72007379D01*
X139916666Y-71912141D01*
X139964285Y-71816903D01*
X140011904Y-71769284D01*
X140107142Y-71721664D01*
X140345238Y-71721664D01*
X140488095Y-71769284D01*
X138916666Y-69885474D02*
X139059523Y-69933093D01*
X139297619Y-69933093D01*
X139392857Y-69885474D01*
X139440476Y-69837855D01*
X139488095Y-69742617D01*
X139488095Y-69647379D01*
X139440476Y-69552141D01*
X139392857Y-69504522D01*
X139297619Y-69456903D01*
X139107143Y-69409284D01*
X139011904Y-69361665D01*
X138964285Y-69314046D01*
X138916666Y-69218808D01*
X138916666Y-69123570D01*
X138964285Y-69028332D01*
X139011904Y-68980713D01*
X139107143Y-68933093D01*
X139345238Y-68933093D01*
X139488095Y-68980713D01*
X140488095Y-69837855D02*
X140440476Y-69885474D01*
X140297619Y-69933093D01*
X140202381Y-69933093D01*
X140059523Y-69885474D01*
X139964285Y-69790236D01*
X139916666Y-69694998D01*
X139869047Y-69504522D01*
X139869047Y-69361665D01*
X139916666Y-69171189D01*
X139964285Y-69075951D01*
X140059523Y-68980713D01*
X140202381Y-68933093D01*
X140297619Y-68933093D01*
X140440476Y-68980713D01*
X140488095Y-69028332D01*
X141392857Y-69933093D02*
X140916666Y-69933093D01*
X140916666Y-68933093D01*
X138916667Y-67391903D02*
X139059524Y-67439522D01*
X139297619Y-67439522D01*
X139392857Y-67391903D01*
X139440476Y-67344284D01*
X139488095Y-67249046D01*
X139488095Y-67153808D01*
X139440476Y-67058570D01*
X139392857Y-67010951D01*
X139297619Y-66963332D01*
X139107143Y-66915713D01*
X139011905Y-66868094D01*
X138964286Y-66820475D01*
X138916667Y-66725237D01*
X138916667Y-66629999D01*
X138964286Y-66534761D01*
X139011905Y-66487142D01*
X139107143Y-66439522D01*
X139345238Y-66439522D01*
X139488095Y-66487142D01*
X139916667Y-67439522D02*
X139916667Y-66439522D01*
X140154762Y-66439522D01*
X140297619Y-66487142D01*
X140392857Y-66582380D01*
X140440476Y-66677618D01*
X140488095Y-66868094D01*
X140488095Y-67010951D01*
X140440476Y-67201427D01*
X140392857Y-67296665D01*
X140297619Y-67391903D01*
X140154762Y-67439522D01*
X139916667Y-67439522D01*
X140869048Y-67153808D02*
X141345238Y-67153808D01*
X140773810Y-67439522D02*
X141107143Y-66439522D01*
X141440476Y-67439522D01*
X138869047Y-63945951D02*
X139488095Y-63945951D01*
X139154762Y-64326904D01*
X139297619Y-64326904D01*
X139392857Y-64374523D01*
X139440476Y-64422142D01*
X139488095Y-64517380D01*
X139488095Y-64755475D01*
X139440476Y-64850713D01*
X139392857Y-64898332D01*
X139297619Y-64945951D01*
X139011904Y-64945951D01*
X138916666Y-64898332D01*
X138869047Y-64850713D01*
X139773809Y-63945951D02*
X140107143Y-64945951D01*
X140440476Y-63945951D01*
X140678571Y-63945951D02*
X141297619Y-63945951D01*
X140964285Y-64326904D01*
X141107143Y-64326904D01*
X141202381Y-64374523D01*
X141250000Y-64422142D01*
X141297619Y-64517380D01*
X141297619Y-64755475D01*
X141250000Y-64850713D01*
X141202381Y-64898332D01*
X141107143Y-64945951D01*
X140821428Y-64945951D01*
X140726190Y-64898332D01*
X140678571Y-64850713D01*
X139488095Y-61500000D02*
X139392857Y-61452380D01*
X139250000Y-61452380D01*
X139107142Y-61500000D01*
X139011904Y-61595238D01*
X138964285Y-61690476D01*
X138916666Y-61880952D01*
X138916666Y-62023809D01*
X138964285Y-62214285D01*
X139011904Y-62309523D01*
X139107142Y-62404761D01*
X139250000Y-62452380D01*
X139345238Y-62452380D01*
X139488095Y-62404761D01*
X139535714Y-62357142D01*
X139535714Y-62023809D01*
X139345238Y-62023809D01*
X139964285Y-62452380D02*
X139964285Y-61452380D01*
X140535714Y-62452380D01*
X140535714Y-61452380D01*
X141011904Y-62452380D02*
X141011904Y-61452380D01*
X141250000Y-61452380D01*
X141392857Y-61500000D01*
X141488095Y-61595238D01*
X141535714Y-61690476D01*
X141583333Y-61880952D01*
X141583333Y-62023809D01*
X141535714Y-62214285D01*
X141488095Y-62309523D01*
X141392857Y-62404761D01*
X141250000Y-62452380D01*
X141011904Y-62452380D01*
D11*
X189800000Y-88407142D02*
X189800000Y-87507142D01*
X190142857Y-87507142D01*
X190228571Y-87550000D01*
X190271428Y-87592857D01*
X190314285Y-87678571D01*
X190314285Y-87807142D01*
X190271428Y-87892857D01*
X190228571Y-87935714D01*
X190142857Y-87978571D01*
X189800000Y-87978571D01*
X190614285Y-87507142D02*
X190828571Y-88407142D01*
X191000000Y-87764285D01*
X191171428Y-88407142D01*
X191385714Y-87507142D01*
X192242857Y-88407142D02*
X191942857Y-87978571D01*
X191728571Y-88407142D02*
X191728571Y-87507142D01*
X192071428Y-87507142D01*
X192157142Y-87550000D01*
X192200000Y-87592857D01*
X192242857Y-87678571D01*
X192242857Y-87807142D01*
X192200000Y-87892857D01*
X192157142Y-87935714D01*
X192071428Y-87978571D01*
X191728571Y-87978571D01*
D12*
X169335000Y-86380000D02*
X170665000Y-86380000D01*
X169335000Y-89220000D02*
X170665000Y-89220000D01*
X169335000Y-89250000D02*
X169335000Y-86350000D01*
X170665000Y-89250000D02*
X170665000Y-86350000D01*
X166635000Y-86380000D02*
X167965000Y-86380000D01*
X166635000Y-89220000D02*
X167965000Y-89220000D01*
X166635000Y-89250000D02*
X166635000Y-86350000D01*
X167965000Y-89250000D02*
X167965000Y-86350000D01*
X163835000Y-86380000D02*
X165165000Y-86380000D01*
X163835000Y-89220000D02*
X165165000Y-89220000D01*
X163835000Y-89250000D02*
X163835000Y-86350000D01*
X165165000Y-89250000D02*
X165165000Y-86350000D01*
D10*
X177150000Y-84875000D02*
X176350000Y-84875000D01*
X177150000Y-88125000D02*
X176350000Y-88125000D01*
D12*
X135815000Y-84060000D02*
X135815000Y-87940000D01*
X140285000Y-89110000D02*
X140285000Y-88060000D01*
X137785000Y-89110000D02*
X140285000Y-89110000D01*
X140285000Y-83940000D02*
X141275000Y-83940000D01*
X140285000Y-82890000D02*
X140285000Y-83940000D01*
X137785000Y-82890000D02*
X140285000Y-82890000D01*
D10*
X135450000Y-60450000D02*
X138550000Y-60450000D01*
X135450000Y-62000000D02*
X135450000Y-60450000D01*
X138270000Y-63270000D02*
X135730000Y-63270000D01*
X138550000Y-60450000D02*
X138550000Y-62000000D01*
X135730000Y-81050000D02*
X135730000Y-63270000D01*
X138270000Y-81050000D02*
X135730000Y-81050000D01*
X138270000Y-63270000D02*
X138270000Y-81050000D01*
D12*
X145000000Y-83585000D02*
X147000000Y-83585000D01*
X145000000Y-85415000D02*
X147000000Y-85415000D01*
D10*
X157670000Y-60450000D02*
X157670000Y-63550000D01*
X156120000Y-60450000D02*
X157670000Y-60450000D01*
X154850000Y-63270000D02*
X154850000Y-60730000D01*
X157670000Y-63550000D02*
X156120000Y-63550000D01*
X142150000Y-60730000D02*
X154850000Y-60730000D01*
X142150000Y-63270000D02*
X142150000Y-60730000D01*
X154850000Y-63270000D02*
X142150000Y-63270000D01*
X176170000Y-60450000D02*
X176170000Y-63550000D01*
X174620000Y-60450000D02*
X176170000Y-60450000D01*
X173350000Y-63270000D02*
X173350000Y-60730000D01*
X176170000Y-63550000D02*
X174620000Y-63550000D01*
X160650000Y-60730000D02*
X173350000Y-60730000D01*
X160650000Y-63270000D02*
X160650000Y-60730000D01*
X173350000Y-63270000D02*
X160650000Y-63270000D01*
X194670000Y-60450000D02*
X194670000Y-63550000D01*
X193120000Y-60450000D02*
X194670000Y-60450000D01*
X191850000Y-63270000D02*
X191850000Y-60730000D01*
X194670000Y-63550000D02*
X193120000Y-63550000D01*
X179150000Y-60730000D02*
X191850000Y-60730000D01*
X179150000Y-63270000D02*
X179150000Y-60730000D01*
X191850000Y-63270000D02*
X179150000Y-63270000D01*
D12*
X156420000Y-84580000D02*
X156940000Y-84580000D01*
X156420000Y-84060000D02*
X156420000Y-84580000D01*
X156420000Y-80420000D02*
X156940000Y-80420000D01*
X156420000Y-80940000D02*
X156420000Y-80420000D01*
X160580000Y-80420000D02*
X160060000Y-80420000D01*
X160580000Y-80940000D02*
X160580000Y-80420000D01*
D13*
X160580000Y-84580000D02*
X160060000Y-84580000D01*
X160580000Y-84150000D02*
X160580000Y-84580000D01*
X160580000Y-84150000D02*
X160800000Y-84150000D01*
D12*
X153425000Y-72000000D02*
X153425000Y-70600000D01*
X143500000Y-72000000D02*
X143500000Y-76000000D01*
X153500000Y-72000000D02*
X153500000Y-76000000D01*
X171925000Y-72000000D02*
X171925000Y-70600000D01*
X162000000Y-72000000D02*
X162000000Y-76000000D01*
X172000000Y-72000000D02*
X172000000Y-76000000D01*
X190425000Y-72000000D02*
X190425000Y-70600000D01*
X180500000Y-72000000D02*
X180500000Y-76000000D01*
X190500000Y-72000000D02*
X190500000Y-76000000D01*
X188300000Y-86920000D02*
X186700000Y-86920000D01*
X188300000Y-85580000D02*
X186700000Y-85580000D01*
X145670000Y-86700000D02*
X145670000Y-88300000D01*
X144330000Y-86700000D02*
X144330000Y-88300000D01*
X146330000Y-88300000D02*
X146330000Y-86700000D01*
X147670000Y-88300000D02*
X147670000Y-86700000D01*
X149300000Y-80670000D02*
X147700000Y-80670000D01*
X149300000Y-79330000D02*
X147700000Y-79330000D01*
X167800000Y-80670000D02*
X166200000Y-80670000D01*
X167800000Y-79330000D02*
X166200000Y-79330000D01*
X186300000Y-80670000D02*
X184700000Y-80670000D01*
X186300000Y-79330000D02*
X184700000Y-79330000D01*
X147700000Y-81080000D02*
X149300000Y-81080000D01*
X147700000Y-82420000D02*
X149300000Y-82420000D01*
X166200000Y-81080000D02*
X167800000Y-81080000D01*
X166200000Y-82420000D02*
X167800000Y-82420000D01*
X184700000Y-81080000D02*
X186300000Y-81080000D01*
X184700000Y-82420000D02*
X186300000Y-82420000D01*
X144330000Y-66800000D02*
X144330000Y-65200000D01*
X145670000Y-66800000D02*
X145670000Y-65200000D01*
X162830000Y-66800000D02*
X162830000Y-65200000D01*
X164170000Y-66800000D02*
X164170000Y-65200000D01*
X181330000Y-66800000D02*
X181330000Y-65200000D01*
X182670000Y-66800000D02*
X182670000Y-65200000D01*
X150670000Y-65200000D02*
X150670000Y-66800000D01*
X149330000Y-65200000D02*
X149330000Y-66800000D01*
X152670000Y-65200000D02*
X152670000Y-66800000D01*
X151330000Y-65200000D02*
X151330000Y-66800000D01*
X169170000Y-65200000D02*
X169170000Y-66800000D01*
X167830000Y-65200000D02*
X167830000Y-66800000D01*
X171170000Y-65200000D02*
X171170000Y-66800000D01*
X169830000Y-65200000D02*
X169830000Y-66800000D01*
X187670000Y-65200000D02*
X187670000Y-66800000D01*
X186330000Y-65200000D02*
X186330000Y-66800000D01*
X189670000Y-65200000D02*
X189670000Y-66800000D01*
X188330000Y-65200000D02*
X188330000Y-66800000D01*
X192395000Y-85605000D02*
X190200000Y-85605000D01*
X192395000Y-86895000D02*
X192395000Y-85605000D01*
X190200000Y-86895000D02*
X192395000Y-86895000D01*
X160050000Y-88165000D02*
X158450000Y-88165000D01*
X160050000Y-86835000D02*
X158450000Y-86835000D01*
X156800000Y-73665000D02*
X155200000Y-73665000D01*
X156800000Y-72335000D02*
X155200000Y-72335000D01*
X175300000Y-75665000D02*
X173700000Y-75665000D01*
X175300000Y-74335000D02*
X173700000Y-74335000D01*
X193800000Y-75665000D02*
X192200000Y-75665000D01*
X193800000Y-74335000D02*
X192200000Y-74335000D01*
X155200000Y-74335000D02*
X156800000Y-74335000D01*
X155200000Y-75665000D02*
X156800000Y-75665000D01*
X173700000Y-72335000D02*
X175300000Y-72335000D01*
X173700000Y-73665000D02*
X175300000Y-73665000D01*
X192200000Y-72335000D02*
X193800000Y-72335000D01*
X192200000Y-73665000D02*
X193800000Y-73665000D01*
X153300000Y-80665000D02*
X151700000Y-80665000D01*
X153300000Y-79335000D02*
X151700000Y-79335000D01*
X171825000Y-80665000D02*
X170225000Y-80665000D01*
X171825000Y-79335000D02*
X170225000Y-79335000D01*
X190300000Y-80665000D02*
X188700000Y-80665000D01*
X190300000Y-79335000D02*
X188700000Y-79335000D01*
X146800000Y-69165000D02*
X145200000Y-69165000D01*
X146800000Y-67835000D02*
X145200000Y-67835000D01*
X165300000Y-69165000D02*
X163700000Y-69165000D01*
X165300000Y-67835000D02*
X163700000Y-67835000D01*
X183800000Y-69165000D02*
X182200000Y-69165000D01*
X183800000Y-67835000D02*
X182200000Y-67835000D01*
X146335000Y-66800000D02*
X146335000Y-65200000D01*
X147665000Y-66800000D02*
X147665000Y-65200000D01*
X150200000Y-67835000D02*
X151800000Y-67835000D01*
X150200000Y-69165000D02*
X151800000Y-69165000D01*
X164835000Y-66800000D02*
X164835000Y-65200000D01*
X166165000Y-66800000D02*
X166165000Y-65200000D01*
X168700000Y-67835000D02*
X170300000Y-67835000D01*
X168700000Y-69165000D02*
X170300000Y-69165000D01*
X183335000Y-66800000D02*
X183335000Y-65200000D01*
X184665000Y-66800000D02*
X184665000Y-65200000D01*
X187200000Y-67835000D02*
X188800000Y-67835000D01*
X187200000Y-69165000D02*
X188800000Y-69165000D01*
D14*
X176171428Y-84307142D02*
X175871428Y-83878571D01*
X175657142Y-84307142D02*
X175657142Y-83407142D01*
X176000000Y-83407142D01*
X176085714Y-83450000D01*
X176128571Y-83492857D01*
X176171428Y-83578571D01*
X176171428Y-83707142D01*
X176128571Y-83792857D01*
X176085714Y-83835714D01*
X176000000Y-83878571D01*
X175657142Y-83878571D01*
X177028571Y-84307142D02*
X176514285Y-84307142D01*
X176771428Y-84307142D02*
X176771428Y-83407142D01*
X176685714Y-83535714D01*
X176600000Y-83621428D01*
X176514285Y-83664285D01*
X177800000Y-83407142D02*
X177628571Y-83407142D01*
X177542857Y-83450000D01*
X177500000Y-83492857D01*
X177414285Y-83621428D01*
X177371428Y-83792857D01*
X177371428Y-84135714D01*
X177414285Y-84221428D01*
X177457142Y-84264285D01*
X177542857Y-84307142D01*
X177714285Y-84307142D01*
X177800000Y-84264285D01*
X177842857Y-84221428D01*
X177885714Y-84135714D01*
X177885714Y-83921428D01*
X177842857Y-83835714D01*
X177800000Y-83792857D01*
X177714285Y-83750000D01*
X177542857Y-83750000D01*
X177457142Y-83792857D01*
X177414285Y-83835714D01*
X177371428Y-83921428D01*
X148671428Y-84821428D02*
X148628571Y-84864285D01*
X148500000Y-84907142D01*
X148414285Y-84907142D01*
X148285714Y-84864285D01*
X148200000Y-84778571D01*
X148157142Y-84692857D01*
X148114285Y-84521428D01*
X148114285Y-84392857D01*
X148157142Y-84221428D01*
X148200000Y-84135714D01*
X148285714Y-84050000D01*
X148414285Y-84007142D01*
X148500000Y-84007142D01*
X148628571Y-84050000D01*
X148671428Y-84092857D01*
X149014285Y-84092857D02*
X149057142Y-84050000D01*
X149142857Y-84007142D01*
X149357142Y-84007142D01*
X149442857Y-84050000D01*
X149485714Y-84092857D01*
X149528571Y-84178571D01*
X149528571Y-84264285D01*
X149485714Y-84392857D01*
X148971428Y-84907142D01*
X149528571Y-84907142D01*
X150085714Y-84007142D02*
X150171428Y-84007142D01*
X150257142Y-84050000D01*
X150300000Y-84092857D01*
X150342857Y-84178571D01*
X150385714Y-84350000D01*
X150385714Y-84564285D01*
X150342857Y-84735714D01*
X150300000Y-84821428D01*
X150257142Y-84864285D01*
X150171428Y-84907142D01*
X150085714Y-84907142D01*
X150000000Y-84864285D01*
X149957142Y-84821428D01*
X149914285Y-84735714D01*
X149871428Y-84564285D01*
X149871428Y-84350000D01*
X149914285Y-84178571D01*
X149957142Y-84092857D01*
X150000000Y-84050000D01*
X150085714Y-84007142D01*
X161564285Y-84257142D02*
X161564285Y-84985714D01*
X161607142Y-85071428D01*
X161650000Y-85114285D01*
X161735714Y-85157142D01*
X161907142Y-85157142D01*
X161992857Y-85114285D01*
X162035714Y-85071428D01*
X162078571Y-84985714D01*
X162078571Y-84257142D01*
X162892857Y-84557142D02*
X162892857Y-85157142D01*
X162678571Y-84214285D02*
X162464285Y-84857142D01*
X163021428Y-84857142D01*
X147814285Y-73507142D02*
X147814285Y-74235714D01*
X147857142Y-74321428D01*
X147900000Y-74364285D01*
X147985714Y-74407142D01*
X148157142Y-74407142D01*
X148242857Y-74364285D01*
X148285714Y-74321428D01*
X148328571Y-74235714D01*
X148328571Y-73507142D01*
X148671428Y-73507142D02*
X149228571Y-73507142D01*
X148928571Y-73850000D01*
X149057142Y-73850000D01*
X149142857Y-73892857D01*
X149185714Y-73935714D01*
X149228571Y-74021428D01*
X149228571Y-74235714D01*
X149185714Y-74321428D01*
X149142857Y-74364285D01*
X149057142Y-74407142D01*
X148800000Y-74407142D01*
X148714285Y-74364285D01*
X148671428Y-74321428D01*
X166314285Y-73507142D02*
X166314285Y-74235714D01*
X166357142Y-74321428D01*
X166400000Y-74364285D01*
X166485714Y-74407142D01*
X166657142Y-74407142D01*
X166742857Y-74364285D01*
X166785714Y-74321428D01*
X166828571Y-74235714D01*
X166828571Y-73507142D01*
X167214285Y-73592857D02*
X167257142Y-73550000D01*
X167342857Y-73507142D01*
X167557142Y-73507142D01*
X167642857Y-73550000D01*
X167685714Y-73592857D01*
X167728571Y-73678571D01*
X167728571Y-73764285D01*
X167685714Y-73892857D01*
X167171428Y-74407142D01*
X167728571Y-74407142D01*
X184814285Y-73507142D02*
X184814285Y-74235714D01*
X184857142Y-74321428D01*
X184900000Y-74364285D01*
X184985714Y-74407142D01*
X185157142Y-74407142D01*
X185242857Y-74364285D01*
X185285714Y-74321428D01*
X185328571Y-74235714D01*
X185328571Y-73507142D01*
X186228571Y-74407142D02*
X185714285Y-74407142D01*
X185971428Y-74407142D02*
X185971428Y-73507142D01*
X185885714Y-73635714D01*
X185800000Y-73721428D01*
X185714285Y-73764285D01*
X186921428Y-88407142D02*
X186621428Y-87978571D01*
X186407142Y-88407142D02*
X186407142Y-87507142D01*
X186750000Y-87507142D01*
X186835714Y-87550000D01*
X186878571Y-87592857D01*
X186921428Y-87678571D01*
X186921428Y-87807142D01*
X186878571Y-87892857D01*
X186835714Y-87935714D01*
X186750000Y-87978571D01*
X186407142Y-87978571D01*
X187778571Y-88407142D02*
X187264285Y-88407142D01*
X187521428Y-88407142D02*
X187521428Y-87507142D01*
X187435714Y-87635714D01*
X187350000Y-87721428D01*
X187264285Y-87764285D01*
X188207142Y-88407142D02*
X188378571Y-88407142D01*
X188464285Y-88364285D01*
X188507142Y-88321428D01*
X188592857Y-88192857D01*
X188635714Y-88021428D01*
X188635714Y-87678571D01*
X188592857Y-87592857D01*
X188550000Y-87550000D01*
X188464285Y-87507142D01*
X188292857Y-87507142D01*
X188207142Y-87550000D01*
X188164285Y-87592857D01*
X188121428Y-87678571D01*
X188121428Y-87892857D01*
X188164285Y-87978571D01*
X188207142Y-88021428D01*
X188292857Y-88064285D01*
X188464285Y-88064285D01*
X188550000Y-88021428D01*
X188592857Y-87978571D01*
X188635714Y-87892857D01*
X149407142Y-88078571D02*
X148978571Y-88378571D01*
X149407142Y-88592857D02*
X148507142Y-88592857D01*
X148507142Y-88250000D01*
X148550000Y-88164285D01*
X148592857Y-88121428D01*
X148678571Y-88078571D01*
X148807142Y-88078571D01*
X148892857Y-88121428D01*
X148935714Y-88164285D01*
X148978571Y-88250000D01*
X148978571Y-88592857D01*
X149407142Y-87221428D02*
X149407142Y-87735714D01*
X149407142Y-87478571D02*
X148507142Y-87478571D01*
X148635714Y-87564285D01*
X148721428Y-87650000D01*
X148764285Y-87735714D01*
X148892857Y-86707142D02*
X148850000Y-86792857D01*
X148807142Y-86835714D01*
X148721428Y-86878571D01*
X148678571Y-86878571D01*
X148592857Y-86835714D01*
X148550000Y-86792857D01*
X148507142Y-86707142D01*
X148507142Y-86535714D01*
X148550000Y-86450000D01*
X148592857Y-86407142D01*
X148678571Y-86364285D01*
X148721428Y-86364285D01*
X148807142Y-86407142D01*
X148850000Y-86450000D01*
X148892857Y-86535714D01*
X148892857Y-86707142D01*
X148935714Y-86792857D01*
X148978571Y-86835714D01*
X149064285Y-86878571D01*
X149235714Y-86878571D01*
X149321428Y-86835714D01*
X149364285Y-86792857D01*
X149407142Y-86707142D01*
X149407142Y-86535714D01*
X149364285Y-86450000D01*
X149321428Y-86407142D01*
X149235714Y-86364285D01*
X149064285Y-86364285D01*
X148978571Y-86407142D01*
X148935714Y-86450000D01*
X148892857Y-86535714D01*
X150907142Y-88078571D02*
X150478571Y-88378571D01*
X150907142Y-88592857D02*
X150007142Y-88592857D01*
X150007142Y-88250000D01*
X150050000Y-88164285D01*
X150092857Y-88121428D01*
X150178571Y-88078571D01*
X150307142Y-88078571D01*
X150392857Y-88121428D01*
X150435714Y-88164285D01*
X150478571Y-88250000D01*
X150478571Y-88592857D01*
X150907142Y-87221428D02*
X150907142Y-87735714D01*
X150907142Y-87478571D02*
X150007142Y-87478571D01*
X150135714Y-87564285D01*
X150221428Y-87650000D01*
X150264285Y-87735714D01*
X150007142Y-86921428D02*
X150007142Y-86321428D01*
X150907142Y-86707142D01*
X144921428Y-80507142D02*
X144621428Y-80078571D01*
X144407142Y-80507142D02*
X144407142Y-79607142D01*
X144750000Y-79607142D01*
X144835714Y-79650000D01*
X144878571Y-79692857D01*
X144921428Y-79778571D01*
X144921428Y-79907142D01*
X144878571Y-79992857D01*
X144835714Y-80035714D01*
X144750000Y-80078571D01*
X144407142Y-80078571D01*
X145778571Y-80507142D02*
X145264285Y-80507142D01*
X145521428Y-80507142D02*
X145521428Y-79607142D01*
X145435714Y-79735714D01*
X145350000Y-79821428D01*
X145264285Y-79864285D01*
X146592857Y-79607142D02*
X146164285Y-79607142D01*
X146121428Y-80035714D01*
X146164285Y-79992857D01*
X146250000Y-79950000D01*
X146464285Y-79950000D01*
X146550000Y-79992857D01*
X146592857Y-80035714D01*
X146635714Y-80121428D01*
X146635714Y-80335714D01*
X146592857Y-80421428D01*
X146550000Y-80464285D01*
X146464285Y-80507142D01*
X146250000Y-80507142D01*
X146164285Y-80464285D01*
X146121428Y-80421428D01*
X163421428Y-80507142D02*
X163121428Y-80078571D01*
X162907142Y-80507142D02*
X162907142Y-79607142D01*
X163250000Y-79607142D01*
X163335714Y-79650000D01*
X163378571Y-79692857D01*
X163421428Y-79778571D01*
X163421428Y-79907142D01*
X163378571Y-79992857D01*
X163335714Y-80035714D01*
X163250000Y-80078571D01*
X162907142Y-80078571D01*
X164278571Y-80507142D02*
X163764285Y-80507142D01*
X164021428Y-80507142D02*
X164021428Y-79607142D01*
X163935714Y-79735714D01*
X163850000Y-79821428D01*
X163764285Y-79864285D01*
X165050000Y-79907142D02*
X165050000Y-80507142D01*
X164835714Y-79564285D02*
X164621428Y-80207142D01*
X165178571Y-80207142D01*
X181921428Y-80507142D02*
X181621428Y-80078571D01*
X181407142Y-80507142D02*
X181407142Y-79607142D01*
X181750000Y-79607142D01*
X181835714Y-79650000D01*
X181878571Y-79692857D01*
X181921428Y-79778571D01*
X181921428Y-79907142D01*
X181878571Y-79992857D01*
X181835714Y-80035714D01*
X181750000Y-80078571D01*
X181407142Y-80078571D01*
X182778571Y-80507142D02*
X182264285Y-80507142D01*
X182521428Y-80507142D02*
X182521428Y-79607142D01*
X182435714Y-79735714D01*
X182350000Y-79821428D01*
X182264285Y-79864285D01*
X183078571Y-79607142D02*
X183635714Y-79607142D01*
X183335714Y-79950000D01*
X183464285Y-79950000D01*
X183550000Y-79992857D01*
X183592857Y-80035714D01*
X183635714Y-80121428D01*
X183635714Y-80335714D01*
X183592857Y-80421428D01*
X183550000Y-80464285D01*
X183464285Y-80507142D01*
X183207142Y-80507142D01*
X183121428Y-80464285D01*
X183078571Y-80421428D01*
X144921428Y-82307142D02*
X144621428Y-81878571D01*
X144407142Y-82307142D02*
X144407142Y-81407142D01*
X144750000Y-81407142D01*
X144835714Y-81450000D01*
X144878571Y-81492857D01*
X144921428Y-81578571D01*
X144921428Y-81707142D01*
X144878571Y-81792857D01*
X144835714Y-81835714D01*
X144750000Y-81878571D01*
X144407142Y-81878571D01*
X145778571Y-82307142D02*
X145264285Y-82307142D01*
X145521428Y-82307142D02*
X145521428Y-81407142D01*
X145435714Y-81535714D01*
X145350000Y-81621428D01*
X145264285Y-81664285D01*
X146121428Y-81492857D02*
X146164285Y-81450000D01*
X146250000Y-81407142D01*
X146464285Y-81407142D01*
X146550000Y-81450000D01*
X146592857Y-81492857D01*
X146635714Y-81578571D01*
X146635714Y-81664285D01*
X146592857Y-81792857D01*
X146078571Y-82307142D01*
X146635714Y-82307142D01*
X163421428Y-82307142D02*
X163121428Y-81878571D01*
X162907142Y-82307142D02*
X162907142Y-81407142D01*
X163250000Y-81407142D01*
X163335714Y-81450000D01*
X163378571Y-81492857D01*
X163421428Y-81578571D01*
X163421428Y-81707142D01*
X163378571Y-81792857D01*
X163335714Y-81835714D01*
X163250000Y-81878571D01*
X162907142Y-81878571D01*
X164278571Y-82307142D02*
X163764285Y-82307142D01*
X164021428Y-82307142D02*
X164021428Y-81407142D01*
X163935714Y-81535714D01*
X163850000Y-81621428D01*
X163764285Y-81664285D01*
X165135714Y-82307142D02*
X164621428Y-82307142D01*
X164878571Y-82307142D02*
X164878571Y-81407142D01*
X164792857Y-81535714D01*
X164707142Y-81621428D01*
X164621428Y-81664285D01*
X181921428Y-82307142D02*
X181621428Y-81878571D01*
X181407142Y-82307142D02*
X181407142Y-81407142D01*
X181750000Y-81407142D01*
X181835714Y-81450000D01*
X181878571Y-81492857D01*
X181921428Y-81578571D01*
X181921428Y-81707142D01*
X181878571Y-81792857D01*
X181835714Y-81835714D01*
X181750000Y-81878571D01*
X181407142Y-81878571D01*
X182778571Y-82307142D02*
X182264285Y-82307142D01*
X182521428Y-82307142D02*
X182521428Y-81407142D01*
X182435714Y-81535714D01*
X182350000Y-81621428D01*
X182264285Y-81664285D01*
X183335714Y-81407142D02*
X183421428Y-81407142D01*
X183507142Y-81450000D01*
X183550000Y-81492857D01*
X183592857Y-81578571D01*
X183635714Y-81750000D01*
X183635714Y-81964285D01*
X183592857Y-82135714D01*
X183550000Y-82221428D01*
X183507142Y-82264285D01*
X183421428Y-82307142D01*
X183335714Y-82307142D01*
X183250000Y-82264285D01*
X183207142Y-82221428D01*
X183164285Y-82135714D01*
X183121428Y-81964285D01*
X183121428Y-81750000D01*
X183164285Y-81578571D01*
X183207142Y-81492857D01*
X183250000Y-81450000D01*
X183335714Y-81407142D01*
X142407142Y-66150000D02*
X141978571Y-66450000D01*
X142407142Y-66664285D02*
X141507142Y-66664285D01*
X141507142Y-66321428D01*
X141550000Y-66235714D01*
X141592857Y-66192857D01*
X141678571Y-66150000D01*
X141807142Y-66150000D01*
X141892857Y-66192857D01*
X141935714Y-66235714D01*
X141978571Y-66321428D01*
X141978571Y-66664285D01*
X142407142Y-65721428D02*
X142407142Y-65550000D01*
X142364285Y-65464285D01*
X142321428Y-65421428D01*
X142192857Y-65335714D01*
X142021428Y-65292857D01*
X141678571Y-65292857D01*
X141592857Y-65335714D01*
X141550000Y-65378571D01*
X141507142Y-65464285D01*
X141507142Y-65635714D01*
X141550000Y-65721428D01*
X141592857Y-65764285D01*
X141678571Y-65807142D01*
X141892857Y-65807142D01*
X141978571Y-65764285D01*
X142021428Y-65721428D01*
X142064285Y-65635714D01*
X142064285Y-65464285D01*
X142021428Y-65378571D01*
X141978571Y-65335714D01*
X141892857Y-65292857D01*
X160907142Y-66150000D02*
X160478571Y-66450000D01*
X160907142Y-66664285D02*
X160007142Y-66664285D01*
X160007142Y-66321428D01*
X160050000Y-66235714D01*
X160092857Y-66192857D01*
X160178571Y-66150000D01*
X160307142Y-66150000D01*
X160392857Y-66192857D01*
X160435714Y-66235714D01*
X160478571Y-66321428D01*
X160478571Y-66664285D01*
X160392857Y-65635714D02*
X160350000Y-65721428D01*
X160307142Y-65764285D01*
X160221428Y-65807142D01*
X160178571Y-65807142D01*
X160092857Y-65764285D01*
X160050000Y-65721428D01*
X160007142Y-65635714D01*
X160007142Y-65464285D01*
X160050000Y-65378571D01*
X160092857Y-65335714D01*
X160178571Y-65292857D01*
X160221428Y-65292857D01*
X160307142Y-65335714D01*
X160350000Y-65378571D01*
X160392857Y-65464285D01*
X160392857Y-65635714D01*
X160435714Y-65721428D01*
X160478571Y-65764285D01*
X160564285Y-65807142D01*
X160735714Y-65807142D01*
X160821428Y-65764285D01*
X160864285Y-65721428D01*
X160907142Y-65635714D01*
X160907142Y-65464285D01*
X160864285Y-65378571D01*
X160821428Y-65335714D01*
X160735714Y-65292857D01*
X160564285Y-65292857D01*
X160478571Y-65335714D01*
X160435714Y-65378571D01*
X160392857Y-65464285D01*
X179407142Y-66150000D02*
X178978571Y-66450000D01*
X179407142Y-66664285D02*
X178507142Y-66664285D01*
X178507142Y-66321428D01*
X178550000Y-66235714D01*
X178592857Y-66192857D01*
X178678571Y-66150000D01*
X178807142Y-66150000D01*
X178892857Y-66192857D01*
X178935714Y-66235714D01*
X178978571Y-66321428D01*
X178978571Y-66664285D01*
X178507142Y-65850000D02*
X178507142Y-65250000D01*
X179407142Y-65635714D01*
X154157142Y-66150000D02*
X153728571Y-66450000D01*
X154157142Y-66664285D02*
X153257142Y-66664285D01*
X153257142Y-66321428D01*
X153300000Y-66235714D01*
X153342857Y-66192857D01*
X153428571Y-66150000D01*
X153557142Y-66150000D01*
X153642857Y-66192857D01*
X153685714Y-66235714D01*
X153728571Y-66321428D01*
X153728571Y-66664285D01*
X153257142Y-65378571D02*
X153257142Y-65550000D01*
X153300000Y-65635714D01*
X153342857Y-65678571D01*
X153471428Y-65764285D01*
X153642857Y-65807142D01*
X153985714Y-65807142D01*
X154071428Y-65764285D01*
X154114285Y-65721428D01*
X154157142Y-65635714D01*
X154157142Y-65464285D01*
X154114285Y-65378571D01*
X154071428Y-65335714D01*
X153985714Y-65292857D01*
X153771428Y-65292857D01*
X153685714Y-65335714D01*
X153642857Y-65378571D01*
X153600000Y-65464285D01*
X153600000Y-65635714D01*
X153642857Y-65721428D01*
X153685714Y-65764285D01*
X153771428Y-65807142D01*
X155657142Y-66150000D02*
X155228571Y-66450000D01*
X155657142Y-66664285D02*
X154757142Y-66664285D01*
X154757142Y-66321428D01*
X154800000Y-66235714D01*
X154842857Y-66192857D01*
X154928571Y-66150000D01*
X155057142Y-66150000D01*
X155142857Y-66192857D01*
X155185714Y-66235714D01*
X155228571Y-66321428D01*
X155228571Y-66664285D01*
X154757142Y-65335714D02*
X154757142Y-65764285D01*
X155185714Y-65807142D01*
X155142857Y-65764285D01*
X155100000Y-65678571D01*
X155100000Y-65464285D01*
X155142857Y-65378571D01*
X155185714Y-65335714D01*
X155271428Y-65292857D01*
X155485714Y-65292857D01*
X155571428Y-65335714D01*
X155614285Y-65378571D01*
X155657142Y-65464285D01*
X155657142Y-65678571D01*
X155614285Y-65764285D01*
X155571428Y-65807142D01*
X172657142Y-66150000D02*
X172228571Y-66450000D01*
X172657142Y-66664285D02*
X171757142Y-66664285D01*
X171757142Y-66321428D01*
X171800000Y-66235714D01*
X171842857Y-66192857D01*
X171928571Y-66150000D01*
X172057142Y-66150000D01*
X172142857Y-66192857D01*
X172185714Y-66235714D01*
X172228571Y-66321428D01*
X172228571Y-66664285D01*
X172057142Y-65378571D02*
X172657142Y-65378571D01*
X171714285Y-65592857D02*
X172357142Y-65807142D01*
X172357142Y-65250000D01*
X174157142Y-66150000D02*
X173728571Y-66450000D01*
X174157142Y-66664285D02*
X173257142Y-66664285D01*
X173257142Y-66321428D01*
X173300000Y-66235714D01*
X173342857Y-66192857D01*
X173428571Y-66150000D01*
X173557142Y-66150000D01*
X173642857Y-66192857D01*
X173685714Y-66235714D01*
X173728571Y-66321428D01*
X173728571Y-66664285D01*
X173257142Y-65850000D02*
X173257142Y-65292857D01*
X173600000Y-65592857D01*
X173600000Y-65464285D01*
X173642857Y-65378571D01*
X173685714Y-65335714D01*
X173771428Y-65292857D01*
X173985714Y-65292857D01*
X174071428Y-65335714D01*
X174114285Y-65378571D01*
X174157142Y-65464285D01*
X174157142Y-65721428D01*
X174114285Y-65807142D01*
X174071428Y-65850000D01*
X191157142Y-66150000D02*
X190728571Y-66450000D01*
X191157142Y-66664285D02*
X190257142Y-66664285D01*
X190257142Y-66321428D01*
X190300000Y-66235714D01*
X190342857Y-66192857D01*
X190428571Y-66150000D01*
X190557142Y-66150000D01*
X190642857Y-66192857D01*
X190685714Y-66235714D01*
X190728571Y-66321428D01*
X190728571Y-66664285D01*
X190342857Y-65807142D02*
X190300000Y-65764285D01*
X190257142Y-65678571D01*
X190257142Y-65464285D01*
X190300000Y-65378571D01*
X190342857Y-65335714D01*
X190428571Y-65292857D01*
X190514285Y-65292857D01*
X190642857Y-65335714D01*
X191157142Y-65850000D01*
X191157142Y-65292857D01*
X192657142Y-66150000D02*
X192228571Y-66450000D01*
X192657142Y-66664285D02*
X191757142Y-66664285D01*
X191757142Y-66321428D01*
X191800000Y-66235714D01*
X191842857Y-66192857D01*
X191928571Y-66150000D01*
X192057142Y-66150000D01*
X192142857Y-66192857D01*
X192185714Y-66235714D01*
X192228571Y-66321428D01*
X192228571Y-66664285D01*
X192657142Y-65292857D02*
X192657142Y-65807142D01*
X192657142Y-65550000D02*
X191757142Y-65550000D01*
X191885714Y-65635714D01*
X191971428Y-65721428D01*
X192014285Y-65807142D01*
X155671428Y-87821428D02*
X155628571Y-87864285D01*
X155500000Y-87907142D01*
X155414285Y-87907142D01*
X155285714Y-87864285D01*
X155200000Y-87778571D01*
X155157142Y-87692857D01*
X155114285Y-87521428D01*
X155114285Y-87392857D01*
X155157142Y-87221428D01*
X155200000Y-87135714D01*
X155285714Y-87050000D01*
X155414285Y-87007142D01*
X155500000Y-87007142D01*
X155628571Y-87050000D01*
X155671428Y-87092857D01*
X156528571Y-87907142D02*
X156014285Y-87907142D01*
X156271428Y-87907142D02*
X156271428Y-87007142D01*
X156185714Y-87135714D01*
X156100000Y-87221428D01*
X156014285Y-87264285D01*
X156957142Y-87907142D02*
X157128571Y-87907142D01*
X157214285Y-87864285D01*
X157257142Y-87821428D01*
X157342857Y-87692857D01*
X157385714Y-87521428D01*
X157385714Y-87178571D01*
X157342857Y-87092857D01*
X157300000Y-87050000D01*
X157214285Y-87007142D01*
X157042857Y-87007142D01*
X156957142Y-87050000D01*
X156914285Y-87092857D01*
X156871428Y-87178571D01*
X156871428Y-87392857D01*
X156914285Y-87478571D01*
X156957142Y-87521428D01*
X157042857Y-87564285D01*
X157214285Y-87564285D01*
X157300000Y-87521428D01*
X157342857Y-87478571D01*
X157385714Y-87392857D01*
X155421428Y-70321428D02*
X155378571Y-70364285D01*
X155250000Y-70407142D01*
X155164285Y-70407142D01*
X155035714Y-70364285D01*
X154950000Y-70278571D01*
X154907142Y-70192857D01*
X154864285Y-70021428D01*
X154864285Y-69892857D01*
X154907142Y-69721428D01*
X154950000Y-69635714D01*
X155035714Y-69550000D01*
X155164285Y-69507142D01*
X155250000Y-69507142D01*
X155378571Y-69550000D01*
X155421428Y-69592857D01*
X156278571Y-70407142D02*
X155764285Y-70407142D01*
X156021428Y-70407142D02*
X156021428Y-69507142D01*
X155935714Y-69635714D01*
X155850000Y-69721428D01*
X155764285Y-69764285D01*
X156792857Y-69892857D02*
X156707142Y-69850000D01*
X156664285Y-69807142D01*
X156621428Y-69721428D01*
X156621428Y-69678571D01*
X156664285Y-69592857D01*
X156707142Y-69550000D01*
X156792857Y-69507142D01*
X156964285Y-69507142D01*
X157050000Y-69550000D01*
X157092857Y-69592857D01*
X157135714Y-69678571D01*
X157135714Y-69721428D01*
X157092857Y-69807142D01*
X157050000Y-69850000D01*
X156964285Y-69892857D01*
X156792857Y-69892857D01*
X156707142Y-69935714D01*
X156664285Y-69978571D01*
X156621428Y-70064285D01*
X156621428Y-70235714D01*
X156664285Y-70321428D01*
X156707142Y-70364285D01*
X156792857Y-70407142D01*
X156964285Y-70407142D01*
X157050000Y-70364285D01*
X157092857Y-70321428D01*
X157135714Y-70235714D01*
X157135714Y-70064285D01*
X157092857Y-69978571D01*
X157050000Y-69935714D01*
X156964285Y-69892857D01*
X173921428Y-71821428D02*
X173878571Y-71864285D01*
X173750000Y-71907142D01*
X173664285Y-71907142D01*
X173535714Y-71864285D01*
X173450000Y-71778571D01*
X173407142Y-71692857D01*
X173364285Y-71521428D01*
X173364285Y-71392857D01*
X173407142Y-71221428D01*
X173450000Y-71135714D01*
X173535714Y-71050000D01*
X173664285Y-71007142D01*
X173750000Y-71007142D01*
X173878571Y-71050000D01*
X173921428Y-71092857D01*
X174778571Y-71907142D02*
X174264285Y-71907142D01*
X174521428Y-71907142D02*
X174521428Y-71007142D01*
X174435714Y-71135714D01*
X174350000Y-71221428D01*
X174264285Y-71264285D01*
X175078571Y-71007142D02*
X175678571Y-71007142D01*
X175292857Y-71907142D01*
X192421428Y-71821428D02*
X192378571Y-71864285D01*
X192250000Y-71907142D01*
X192164285Y-71907142D01*
X192035714Y-71864285D01*
X191950000Y-71778571D01*
X191907142Y-71692857D01*
X191864285Y-71521428D01*
X191864285Y-71392857D01*
X191907142Y-71221428D01*
X191950000Y-71135714D01*
X192035714Y-71050000D01*
X192164285Y-71007142D01*
X192250000Y-71007142D01*
X192378571Y-71050000D01*
X192421428Y-71092857D01*
X193278571Y-71907142D02*
X192764285Y-71907142D01*
X193021428Y-71907142D02*
X193021428Y-71007142D01*
X192935714Y-71135714D01*
X192850000Y-71221428D01*
X192764285Y-71264285D01*
X194050000Y-71007142D02*
X193878571Y-71007142D01*
X193792857Y-71050000D01*
X193750000Y-71092857D01*
X193664285Y-71221428D01*
X193621428Y-71392857D01*
X193621428Y-71735714D01*
X193664285Y-71821428D01*
X193707142Y-71864285D01*
X193792857Y-71907142D01*
X193964285Y-71907142D01*
X194050000Y-71864285D01*
X194092857Y-71821428D01*
X194135714Y-71735714D01*
X194135714Y-71521428D01*
X194092857Y-71435714D01*
X194050000Y-71392857D01*
X193964285Y-71350000D01*
X193792857Y-71350000D01*
X193707142Y-71392857D01*
X193664285Y-71435714D01*
X193621428Y-71521428D01*
X155421428Y-71821428D02*
X155378571Y-71864285D01*
X155250000Y-71907142D01*
X155164285Y-71907142D01*
X155035714Y-71864285D01*
X154950000Y-71778571D01*
X154907142Y-71692857D01*
X154864285Y-71521428D01*
X154864285Y-71392857D01*
X154907142Y-71221428D01*
X154950000Y-71135714D01*
X155035714Y-71050000D01*
X155164285Y-71007142D01*
X155250000Y-71007142D01*
X155378571Y-71050000D01*
X155421428Y-71092857D01*
X156278571Y-71907142D02*
X155764285Y-71907142D01*
X156021428Y-71907142D02*
X156021428Y-71007142D01*
X155935714Y-71135714D01*
X155850000Y-71221428D01*
X155764285Y-71264285D01*
X157092857Y-71007142D02*
X156664285Y-71007142D01*
X156621428Y-71435714D01*
X156664285Y-71392857D01*
X156750000Y-71350000D01*
X156964285Y-71350000D01*
X157050000Y-71392857D01*
X157092857Y-71435714D01*
X157135714Y-71521428D01*
X157135714Y-71735714D01*
X157092857Y-71821428D01*
X157050000Y-71864285D01*
X156964285Y-71907142D01*
X156750000Y-71907142D01*
X156664285Y-71864285D01*
X156621428Y-71821428D01*
X173921428Y-70321428D02*
X173878571Y-70364285D01*
X173750000Y-70407142D01*
X173664285Y-70407142D01*
X173535714Y-70364285D01*
X173450000Y-70278571D01*
X173407142Y-70192857D01*
X173364285Y-70021428D01*
X173364285Y-69892857D01*
X173407142Y-69721428D01*
X173450000Y-69635714D01*
X173535714Y-69550000D01*
X173664285Y-69507142D01*
X173750000Y-69507142D01*
X173878571Y-69550000D01*
X173921428Y-69592857D01*
X174778571Y-70407142D02*
X174264285Y-70407142D01*
X174521428Y-70407142D02*
X174521428Y-69507142D01*
X174435714Y-69635714D01*
X174350000Y-69721428D01*
X174264285Y-69764285D01*
X175550000Y-69807142D02*
X175550000Y-70407142D01*
X175335714Y-69464285D02*
X175121428Y-70107142D01*
X175678571Y-70107142D01*
X192421428Y-70321428D02*
X192378571Y-70364285D01*
X192250000Y-70407142D01*
X192164285Y-70407142D01*
X192035714Y-70364285D01*
X191950000Y-70278571D01*
X191907142Y-70192857D01*
X191864285Y-70021428D01*
X191864285Y-69892857D01*
X191907142Y-69721428D01*
X191950000Y-69635714D01*
X192035714Y-69550000D01*
X192164285Y-69507142D01*
X192250000Y-69507142D01*
X192378571Y-69550000D01*
X192421428Y-69592857D01*
X193278571Y-70407142D02*
X192764285Y-70407142D01*
X193021428Y-70407142D02*
X193021428Y-69507142D01*
X192935714Y-69635714D01*
X192850000Y-69721428D01*
X192764285Y-69764285D01*
X193578571Y-69507142D02*
X194135714Y-69507142D01*
X193835714Y-69850000D01*
X193964285Y-69850000D01*
X194050000Y-69892857D01*
X194092857Y-69935714D01*
X194135714Y-70021428D01*
X194135714Y-70235714D01*
X194092857Y-70321428D01*
X194050000Y-70364285D01*
X193964285Y-70407142D01*
X193707142Y-70407142D01*
X193621428Y-70364285D01*
X193578571Y-70321428D01*
X151921428Y-82121428D02*
X151878571Y-82164285D01*
X151750000Y-82207142D01*
X151664285Y-82207142D01*
X151535714Y-82164285D01*
X151450000Y-82078571D01*
X151407142Y-81992857D01*
X151364285Y-81821428D01*
X151364285Y-81692857D01*
X151407142Y-81521428D01*
X151450000Y-81435714D01*
X151535714Y-81350000D01*
X151664285Y-81307142D01*
X151750000Y-81307142D01*
X151878571Y-81350000D01*
X151921428Y-81392857D01*
X152778571Y-82207142D02*
X152264285Y-82207142D01*
X152521428Y-82207142D02*
X152521428Y-81307142D01*
X152435714Y-81435714D01*
X152350000Y-81521428D01*
X152264285Y-81564285D01*
X153121428Y-81392857D02*
X153164285Y-81350000D01*
X153250000Y-81307142D01*
X153464285Y-81307142D01*
X153550000Y-81350000D01*
X153592857Y-81392857D01*
X153635714Y-81478571D01*
X153635714Y-81564285D01*
X153592857Y-81692857D01*
X153078571Y-82207142D01*
X153635714Y-82207142D01*
X170446428Y-82121428D02*
X170403571Y-82164285D01*
X170275000Y-82207142D01*
X170189285Y-82207142D01*
X170060714Y-82164285D01*
X169975000Y-82078571D01*
X169932142Y-81992857D01*
X169889285Y-81821428D01*
X169889285Y-81692857D01*
X169932142Y-81521428D01*
X169975000Y-81435714D01*
X170060714Y-81350000D01*
X170189285Y-81307142D01*
X170275000Y-81307142D01*
X170403571Y-81350000D01*
X170446428Y-81392857D01*
X171303571Y-82207142D02*
X170789285Y-82207142D01*
X171046428Y-82207142D02*
X171046428Y-81307142D01*
X170960714Y-81435714D01*
X170875000Y-81521428D01*
X170789285Y-81564285D01*
X172160714Y-82207142D02*
X171646428Y-82207142D01*
X171903571Y-82207142D02*
X171903571Y-81307142D01*
X171817857Y-81435714D01*
X171732142Y-81521428D01*
X171646428Y-81564285D01*
X188921428Y-82121428D02*
X188878571Y-82164285D01*
X188750000Y-82207142D01*
X188664285Y-82207142D01*
X188535714Y-82164285D01*
X188450000Y-82078571D01*
X188407142Y-81992857D01*
X188364285Y-81821428D01*
X188364285Y-81692857D01*
X188407142Y-81521428D01*
X188450000Y-81435714D01*
X188535714Y-81350000D01*
X188664285Y-81307142D01*
X188750000Y-81307142D01*
X188878571Y-81350000D01*
X188921428Y-81392857D01*
X189778571Y-82207142D02*
X189264285Y-82207142D01*
X189521428Y-82207142D02*
X189521428Y-81307142D01*
X189435714Y-81435714D01*
X189350000Y-81521428D01*
X189264285Y-81564285D01*
X190335714Y-81307142D02*
X190421428Y-81307142D01*
X190507142Y-81350000D01*
X190550000Y-81392857D01*
X190592857Y-81478571D01*
X190635714Y-81650000D01*
X190635714Y-81864285D01*
X190592857Y-82035714D01*
X190550000Y-82121428D01*
X190507142Y-82164285D01*
X190421428Y-82207142D01*
X190335714Y-82207142D01*
X190250000Y-82164285D01*
X190207142Y-82121428D01*
X190164285Y-82035714D01*
X190121428Y-81864285D01*
X190121428Y-81650000D01*
X190164285Y-81478571D01*
X190207142Y-81392857D01*
X190250000Y-81350000D01*
X190335714Y-81307142D01*
X143350000Y-68821428D02*
X143307142Y-68864285D01*
X143178571Y-68907142D01*
X143092857Y-68907142D01*
X142964285Y-68864285D01*
X142878571Y-68778571D01*
X142835714Y-68692857D01*
X142792857Y-68521428D01*
X142792857Y-68392857D01*
X142835714Y-68221428D01*
X142878571Y-68135714D01*
X142964285Y-68050000D01*
X143092857Y-68007142D01*
X143178571Y-68007142D01*
X143307142Y-68050000D01*
X143350000Y-68092857D01*
X143778571Y-68907142D02*
X143950000Y-68907142D01*
X144035714Y-68864285D01*
X144078571Y-68821428D01*
X144164285Y-68692857D01*
X144207142Y-68521428D01*
X144207142Y-68178571D01*
X144164285Y-68092857D01*
X144121428Y-68050000D01*
X144035714Y-68007142D01*
X143864285Y-68007142D01*
X143778571Y-68050000D01*
X143735714Y-68092857D01*
X143692857Y-68178571D01*
X143692857Y-68392857D01*
X143735714Y-68478571D01*
X143778571Y-68521428D01*
X143864285Y-68564285D01*
X144035714Y-68564285D01*
X144121428Y-68521428D01*
X144164285Y-68478571D01*
X144207142Y-68392857D01*
X161850000Y-68821428D02*
X161807142Y-68864285D01*
X161678571Y-68907142D01*
X161592857Y-68907142D01*
X161464285Y-68864285D01*
X161378571Y-68778571D01*
X161335714Y-68692857D01*
X161292857Y-68521428D01*
X161292857Y-68392857D01*
X161335714Y-68221428D01*
X161378571Y-68135714D01*
X161464285Y-68050000D01*
X161592857Y-68007142D01*
X161678571Y-68007142D01*
X161807142Y-68050000D01*
X161850000Y-68092857D01*
X162364285Y-68392857D02*
X162278571Y-68350000D01*
X162235714Y-68307142D01*
X162192857Y-68221428D01*
X162192857Y-68178571D01*
X162235714Y-68092857D01*
X162278571Y-68050000D01*
X162364285Y-68007142D01*
X162535714Y-68007142D01*
X162621428Y-68050000D01*
X162664285Y-68092857D01*
X162707142Y-68178571D01*
X162707142Y-68221428D01*
X162664285Y-68307142D01*
X162621428Y-68350000D01*
X162535714Y-68392857D01*
X162364285Y-68392857D01*
X162278571Y-68435714D01*
X162235714Y-68478571D01*
X162192857Y-68564285D01*
X162192857Y-68735714D01*
X162235714Y-68821428D01*
X162278571Y-68864285D01*
X162364285Y-68907142D01*
X162535714Y-68907142D01*
X162621428Y-68864285D01*
X162664285Y-68821428D01*
X162707142Y-68735714D01*
X162707142Y-68564285D01*
X162664285Y-68478571D01*
X162621428Y-68435714D01*
X162535714Y-68392857D01*
X180350000Y-68821428D02*
X180307142Y-68864285D01*
X180178571Y-68907142D01*
X180092857Y-68907142D01*
X179964285Y-68864285D01*
X179878571Y-68778571D01*
X179835714Y-68692857D01*
X179792857Y-68521428D01*
X179792857Y-68392857D01*
X179835714Y-68221428D01*
X179878571Y-68135714D01*
X179964285Y-68050000D01*
X180092857Y-68007142D01*
X180178571Y-68007142D01*
X180307142Y-68050000D01*
X180350000Y-68092857D01*
X180650000Y-68007142D02*
X181250000Y-68007142D01*
X180864285Y-68907142D01*
X143821428Y-66150000D02*
X143864285Y-66192857D01*
X143907142Y-66321428D01*
X143907142Y-66407142D01*
X143864285Y-66535714D01*
X143778571Y-66621428D01*
X143692857Y-66664285D01*
X143521428Y-66707142D01*
X143392857Y-66707142D01*
X143221428Y-66664285D01*
X143135714Y-66621428D01*
X143050000Y-66535714D01*
X143007142Y-66407142D01*
X143007142Y-66321428D01*
X143050000Y-66192857D01*
X143092857Y-66150000D01*
X143007142Y-65378571D02*
X143007142Y-65550000D01*
X143050000Y-65635714D01*
X143092857Y-65678571D01*
X143221428Y-65764285D01*
X143392857Y-65807142D01*
X143735714Y-65807142D01*
X143821428Y-65764285D01*
X143864285Y-65721428D01*
X143907142Y-65635714D01*
X143907142Y-65464285D01*
X143864285Y-65378571D01*
X143821428Y-65335714D01*
X143735714Y-65292857D01*
X143521428Y-65292857D01*
X143435714Y-65335714D01*
X143392857Y-65378571D01*
X143350000Y-65464285D01*
X143350000Y-65635714D01*
X143392857Y-65721428D01*
X143435714Y-65764285D01*
X143521428Y-65807142D01*
X153350000Y-68821428D02*
X153307142Y-68864285D01*
X153178571Y-68907142D01*
X153092857Y-68907142D01*
X152964285Y-68864285D01*
X152878571Y-68778571D01*
X152835714Y-68692857D01*
X152792857Y-68521428D01*
X152792857Y-68392857D01*
X152835714Y-68221428D01*
X152878571Y-68135714D01*
X152964285Y-68050000D01*
X153092857Y-68007142D01*
X153178571Y-68007142D01*
X153307142Y-68050000D01*
X153350000Y-68092857D01*
X154164285Y-68007142D02*
X153735714Y-68007142D01*
X153692857Y-68435714D01*
X153735714Y-68392857D01*
X153821428Y-68350000D01*
X154035714Y-68350000D01*
X154121428Y-68392857D01*
X154164285Y-68435714D01*
X154207142Y-68521428D01*
X154207142Y-68735714D01*
X154164285Y-68821428D01*
X154121428Y-68864285D01*
X154035714Y-68907142D01*
X153821428Y-68907142D01*
X153735714Y-68864285D01*
X153692857Y-68821428D01*
X162321428Y-66150000D02*
X162364285Y-66192857D01*
X162407142Y-66321428D01*
X162407142Y-66407142D01*
X162364285Y-66535714D01*
X162278571Y-66621428D01*
X162192857Y-66664285D01*
X162021428Y-66707142D01*
X161892857Y-66707142D01*
X161721428Y-66664285D01*
X161635714Y-66621428D01*
X161550000Y-66535714D01*
X161507142Y-66407142D01*
X161507142Y-66321428D01*
X161550000Y-66192857D01*
X161592857Y-66150000D01*
X161807142Y-65378571D02*
X162407142Y-65378571D01*
X161464285Y-65592857D02*
X162107142Y-65807142D01*
X162107142Y-65250000D01*
X171850000Y-68821428D02*
X171807142Y-68864285D01*
X171678571Y-68907142D01*
X171592857Y-68907142D01*
X171464285Y-68864285D01*
X171378571Y-68778571D01*
X171335714Y-68692857D01*
X171292857Y-68521428D01*
X171292857Y-68392857D01*
X171335714Y-68221428D01*
X171378571Y-68135714D01*
X171464285Y-68050000D01*
X171592857Y-68007142D01*
X171678571Y-68007142D01*
X171807142Y-68050000D01*
X171850000Y-68092857D01*
X172150000Y-68007142D02*
X172707142Y-68007142D01*
X172407142Y-68350000D01*
X172535714Y-68350000D01*
X172621428Y-68392857D01*
X172664285Y-68435714D01*
X172707142Y-68521428D01*
X172707142Y-68735714D01*
X172664285Y-68821428D01*
X172621428Y-68864285D01*
X172535714Y-68907142D01*
X172278571Y-68907142D01*
X172192857Y-68864285D01*
X172150000Y-68821428D01*
X180821428Y-66150000D02*
X180864285Y-66192857D01*
X180907142Y-66321428D01*
X180907142Y-66407142D01*
X180864285Y-66535714D01*
X180778571Y-66621428D01*
X180692857Y-66664285D01*
X180521428Y-66707142D01*
X180392857Y-66707142D01*
X180221428Y-66664285D01*
X180135714Y-66621428D01*
X180050000Y-66535714D01*
X180007142Y-66407142D01*
X180007142Y-66321428D01*
X180050000Y-66192857D01*
X180092857Y-66150000D01*
X180092857Y-65807142D02*
X180050000Y-65764285D01*
X180007142Y-65678571D01*
X180007142Y-65464285D01*
X180050000Y-65378571D01*
X180092857Y-65335714D01*
X180178571Y-65292857D01*
X180264285Y-65292857D01*
X180392857Y-65335714D01*
X180907142Y-65850000D01*
X180907142Y-65292857D01*
X190350000Y-68821428D02*
X190307142Y-68864285D01*
X190178571Y-68907142D01*
X190092857Y-68907142D01*
X189964285Y-68864285D01*
X189878571Y-68778571D01*
X189835714Y-68692857D01*
X189792857Y-68521428D01*
X189792857Y-68392857D01*
X189835714Y-68221428D01*
X189878571Y-68135714D01*
X189964285Y-68050000D01*
X190092857Y-68007142D01*
X190178571Y-68007142D01*
X190307142Y-68050000D01*
X190350000Y-68092857D01*
X191207142Y-68907142D02*
X190692857Y-68907142D01*
X190950000Y-68907142D02*
X190950000Y-68007142D01*
X190864285Y-68135714D01*
X190778571Y-68221428D01*
X190692857Y-68264285D01*
M02*
