G04 #@! TF.GenerationSoftware,KiCad,Pcbnew,(5.1.0-0)*
G04 #@! TF.CreationDate,2019-05-28T11:35:41+09:30*
G04 #@! TF.ProjectId,triax-loadwing,74726961-782d-46c6-9f61-6477696e672e,V1.0*
G04 #@! TF.SameCoordinates,Original*
G04 #@! TF.FileFunction,Legend,Bot*
G04 #@! TF.FilePolarity,Positive*
%FSLAX46Y46*%
G04 Gerber Fmt 4.6, Leading zero omitted, Abs format (unit mm)*
G04 Created by KiCad (PCBNEW (5.1.0-0)) date 2019-05-28 11:35:41*
%MOMM*%
%LPD*%
G04 APERTURE LIST*
%ADD10C,0.250000*%
%ADD11C,0.200000*%
G04 APERTURE END LIST*
D10*
X150628571Y-69328571D02*
X150685714Y-69385714D01*
X150857142Y-69442857D01*
X150971428Y-69442857D01*
X151142857Y-69385714D01*
X151257142Y-69271428D01*
X151314285Y-69157142D01*
X151371428Y-68928571D01*
X151371428Y-68757142D01*
X151314285Y-68528571D01*
X151257142Y-68414285D01*
X151142857Y-68300000D01*
X150971428Y-68242857D01*
X150857142Y-68242857D01*
X150685714Y-68300000D01*
X150628571Y-68357142D01*
X150114285Y-69442857D02*
X150114285Y-68242857D01*
X150114285Y-68814285D02*
X149428571Y-68814285D01*
X149428571Y-69442857D02*
X149428571Y-68242857D01*
X148971428Y-68242857D02*
X148228571Y-68242857D01*
X148628571Y-68700000D01*
X148457142Y-68700000D01*
X148342857Y-68757142D01*
X148285714Y-68814285D01*
X148228571Y-68928571D01*
X148228571Y-69214285D01*
X148285714Y-69328571D01*
X148342857Y-69385714D01*
X148457142Y-69442857D01*
X148800000Y-69442857D01*
X148914285Y-69385714D01*
X148971428Y-69328571D01*
X169128571Y-69328571D02*
X169185714Y-69385714D01*
X169357142Y-69442857D01*
X169471428Y-69442857D01*
X169642857Y-69385714D01*
X169757142Y-69271428D01*
X169814285Y-69157142D01*
X169871428Y-68928571D01*
X169871428Y-68757142D01*
X169814285Y-68528571D01*
X169757142Y-68414285D01*
X169642857Y-68300000D01*
X169471428Y-68242857D01*
X169357142Y-68242857D01*
X169185714Y-68300000D01*
X169128571Y-68357142D01*
X168614285Y-69442857D02*
X168614285Y-68242857D01*
X168614285Y-68814285D02*
X167928571Y-68814285D01*
X167928571Y-69442857D02*
X167928571Y-68242857D01*
X167414285Y-68357142D02*
X167357142Y-68300000D01*
X167242857Y-68242857D01*
X166957142Y-68242857D01*
X166842857Y-68300000D01*
X166785714Y-68357142D01*
X166728571Y-68471428D01*
X166728571Y-68585714D01*
X166785714Y-68757142D01*
X167471428Y-69442857D01*
X166728571Y-69442857D01*
X187628571Y-69328571D02*
X187685714Y-69385714D01*
X187857142Y-69442857D01*
X187971428Y-69442857D01*
X188142857Y-69385714D01*
X188257142Y-69271428D01*
X188314285Y-69157142D01*
X188371428Y-68928571D01*
X188371428Y-68757142D01*
X188314285Y-68528571D01*
X188257142Y-68414285D01*
X188142857Y-68300000D01*
X187971428Y-68242857D01*
X187857142Y-68242857D01*
X187685714Y-68300000D01*
X187628571Y-68357142D01*
X187114285Y-69442857D02*
X187114285Y-68242857D01*
X187114285Y-68814285D02*
X186428571Y-68814285D01*
X186428571Y-69442857D02*
X186428571Y-68242857D01*
X185228571Y-69442857D02*
X185914285Y-69442857D01*
X185571428Y-69442857D02*
X185571428Y-68242857D01*
X185685714Y-68414285D01*
X185800000Y-68528571D01*
X185914285Y-68585714D01*
D11*
X139623809Y-87552380D02*
X139290476Y-88552380D01*
X138957142Y-87552380D01*
X138100000Y-88552380D02*
X138671428Y-88552380D01*
X138385714Y-88552380D02*
X138385714Y-87552380D01*
X138480952Y-87695238D01*
X138576190Y-87790476D01*
X138671428Y-87838095D01*
X137671428Y-88457142D02*
X137623809Y-88504761D01*
X137671428Y-88552380D01*
X137719047Y-88504761D01*
X137671428Y-88457142D01*
X137671428Y-88552380D01*
X137004761Y-87552380D02*
X136909523Y-87552380D01*
X136814285Y-87600000D01*
X136766666Y-87647619D01*
X136719047Y-87742857D01*
X136671428Y-87933333D01*
X136671428Y-88171428D01*
X136719047Y-88361904D01*
X136766666Y-88457142D01*
X136814285Y-88504761D01*
X136909523Y-88552380D01*
X137004761Y-88552380D01*
X137100000Y-88504761D01*
X137147619Y-88457142D01*
X137195238Y-88361904D01*
X137242857Y-88171428D01*
X137242857Y-87933333D01*
X137195238Y-87742857D01*
X137147619Y-87647619D01*
X137100000Y-87600000D01*
X137004761Y-87552380D01*
D10*
X190100000Y-71700000D02*
X190100000Y-72100000D01*
X190100000Y-75700000D02*
X190100000Y-76100000D01*
X190100000Y-78200000D02*
X190100000Y-78600000D01*
X190100000Y-80700000D02*
X190100000Y-81100000D01*
D11*
X192904761Y-81204761D02*
X192761904Y-81252380D01*
X192523809Y-81252380D01*
X192428571Y-81204761D01*
X192380952Y-81157142D01*
X192333333Y-81061904D01*
X192333333Y-80966666D01*
X192380952Y-80871428D01*
X192428571Y-80823809D01*
X192523809Y-80776190D01*
X192714285Y-80728571D01*
X192809523Y-80680952D01*
X192857142Y-80633333D01*
X192904761Y-80538095D01*
X192904761Y-80442857D01*
X192857142Y-80347619D01*
X192809523Y-80300000D01*
X192714285Y-80252380D01*
X192476190Y-80252380D01*
X192333333Y-80300000D01*
X191904761Y-80871428D02*
X191142857Y-80871428D01*
X192904761Y-76204761D02*
X192761904Y-76252380D01*
X192523809Y-76252380D01*
X192428571Y-76204761D01*
X192380952Y-76157142D01*
X192333333Y-76061904D01*
X192333333Y-75966666D01*
X192380952Y-75871428D01*
X192428571Y-75823809D01*
X192523809Y-75776190D01*
X192714285Y-75728571D01*
X192809523Y-75680952D01*
X192857142Y-75633333D01*
X192904761Y-75538095D01*
X192904761Y-75442857D01*
X192857142Y-75347619D01*
X192809523Y-75300000D01*
X192714285Y-75252380D01*
X192476190Y-75252380D01*
X192333333Y-75300000D01*
X191904761Y-75871428D02*
X191142857Y-75871428D01*
X191523809Y-76252380D02*
X191523809Y-75490476D01*
X192833333Y-78228571D02*
X192500000Y-78228571D01*
X192357142Y-78752380D02*
X192833333Y-78752380D01*
X192833333Y-77752380D01*
X192357142Y-77752380D01*
X191928571Y-78371428D02*
X191166666Y-78371428D01*
X192833333Y-71828571D02*
X192500000Y-71828571D01*
X192357142Y-72352380D02*
X192833333Y-72352380D01*
X192833333Y-71352380D01*
X192357142Y-71352380D01*
X191928571Y-71971428D02*
X191166666Y-71971428D01*
X191547619Y-72352380D02*
X191547619Y-71590476D01*
D10*
X189100000Y-78400000D02*
X189100000Y-79900000D01*
X190100000Y-78400000D02*
X189100000Y-78400000D01*
X182100000Y-80900000D02*
X190100000Y-80900000D01*
X182100000Y-75900000D02*
X182100000Y-80900000D01*
X183100000Y-75900000D02*
X182100000Y-75900000D01*
X186100000Y-79900000D02*
X189100000Y-79900000D01*
X186100000Y-78900000D02*
X186100000Y-79900000D01*
X189100000Y-75900000D02*
X190100000Y-75900000D01*
X186100000Y-71900000D02*
X190100000Y-71900000D01*
X186100000Y-72900000D02*
X186100000Y-71900000D01*
X184100000Y-76900000D02*
X183900000Y-77100000D01*
X184300000Y-76700000D02*
X184100000Y-76900000D01*
X185100000Y-77900000D02*
X186100000Y-78900000D01*
X184900000Y-78100000D02*
X185300000Y-77700000D01*
X183100000Y-75900000D02*
X184100000Y-76900000D01*
X183900000Y-77100000D02*
X184900000Y-78100000D01*
X185300000Y-77700000D02*
X184300000Y-76700000D01*
X188100000Y-76900000D02*
X187900000Y-76700000D01*
X188300000Y-77100000D02*
X188100000Y-76900000D01*
X187100000Y-77900000D02*
X186100000Y-78900000D01*
X186900000Y-77700000D02*
X187300000Y-78100000D01*
X189100000Y-75900000D02*
X188100000Y-76900000D01*
X187900000Y-76700000D02*
X186900000Y-77700000D01*
X187300000Y-78100000D02*
X188300000Y-77100000D01*
X187100000Y-73900000D02*
X186900000Y-74100000D01*
X187300000Y-73700000D02*
X187100000Y-73900000D01*
X188100000Y-74900000D02*
X189100000Y-75900000D01*
X187900000Y-75100000D02*
X188300000Y-74700000D01*
X186100000Y-72900000D02*
X187100000Y-73900000D01*
X186900000Y-74100000D02*
X187900000Y-75100000D01*
X188300000Y-74700000D02*
X187300000Y-73700000D01*
X185300000Y-74100000D02*
X185100000Y-73900000D01*
X184300000Y-75100000D02*
X185300000Y-74100000D01*
X183900000Y-74700000D02*
X184300000Y-75100000D01*
X184900000Y-73700000D02*
X183900000Y-74700000D01*
X185100000Y-73900000D02*
X184900000Y-73700000D01*
X184100000Y-74900000D02*
X183100000Y-75900000D01*
X186100000Y-72900000D02*
X185100000Y-73900000D01*
X179800000Y-63700000D02*
X183700000Y-63700000D01*
X184900000Y-63700000D02*
X193900000Y-63700000D01*
D11*
X190171904Y-66633333D02*
X190124285Y-66490476D01*
X190124285Y-66252381D01*
X190171904Y-66157143D01*
X190219523Y-66109524D01*
X190314761Y-66061905D01*
X190409999Y-66061905D01*
X190505237Y-66109524D01*
X190552856Y-66157143D01*
X190600475Y-66252381D01*
X190648094Y-66442857D01*
X190695713Y-66538095D01*
X190743332Y-66585714D01*
X190838570Y-66633333D01*
X190933808Y-66633333D01*
X191029046Y-66585714D01*
X191076666Y-66538095D01*
X191124285Y-66442857D01*
X191124285Y-66204762D01*
X191076666Y-66061905D01*
X190505237Y-65633333D02*
X190505237Y-64871429D01*
X187683571Y-66680952D02*
X187635952Y-66538095D01*
X187635952Y-66300000D01*
X187683571Y-66204762D01*
X187731190Y-66157143D01*
X187826428Y-66109524D01*
X187921666Y-66109524D01*
X188016904Y-66157143D01*
X188064523Y-66204762D01*
X188112142Y-66300000D01*
X188159761Y-66490476D01*
X188207380Y-66585714D01*
X188254999Y-66633333D01*
X188350237Y-66680952D01*
X188445475Y-66680952D01*
X188540713Y-66633333D01*
X188588333Y-66585714D01*
X188635952Y-66490476D01*
X188635952Y-66252381D01*
X188588333Y-66109524D01*
X188016904Y-65680952D02*
X188016904Y-64919048D01*
X187635952Y-65300000D02*
X188397856Y-65300000D01*
X185671428Y-66490477D02*
X185671428Y-66157144D01*
X185147619Y-66014286D02*
X185147619Y-66490477D01*
X186147619Y-66490477D01*
X186147619Y-66014286D01*
X185528571Y-65585715D02*
X185528571Y-64823810D01*
X183509523Y-64852380D02*
X182938095Y-64852380D01*
X183223809Y-65852380D02*
X183223809Y-64852380D01*
X182604761Y-65328571D02*
X182271428Y-65328571D01*
X182128571Y-65852380D02*
X182604761Y-65852380D01*
X182604761Y-64852380D01*
X182128571Y-64852380D01*
X181700000Y-65852380D02*
X181700000Y-64852380D01*
X181366666Y-65566666D01*
X181033333Y-64852380D01*
X181033333Y-65852380D01*
X180557142Y-65852380D02*
X180557142Y-64852380D01*
X180176190Y-64852380D01*
X180080952Y-64900000D01*
X180033333Y-64947619D01*
X179985714Y-65042857D01*
X179985714Y-65185714D01*
X180033333Y-65280952D01*
X180080952Y-65328571D01*
X180176190Y-65376190D01*
X180557142Y-65376190D01*
X193271428Y-66538096D02*
X193271428Y-66204763D01*
X192747619Y-66061905D02*
X192747619Y-66538096D01*
X193747619Y-66538096D01*
X193747619Y-66061905D01*
X193128571Y-65633334D02*
X193128571Y-64871429D01*
X192747619Y-65252382D02*
X193509523Y-65252382D01*
D10*
X161300000Y-63700000D02*
X165200000Y-63700000D01*
X166400000Y-63700000D02*
X175400000Y-63700000D01*
D11*
X171671904Y-66633333D02*
X171624285Y-66490476D01*
X171624285Y-66252381D01*
X171671904Y-66157143D01*
X171719523Y-66109524D01*
X171814761Y-66061905D01*
X171909999Y-66061905D01*
X172005237Y-66109524D01*
X172052856Y-66157143D01*
X172100475Y-66252381D01*
X172148094Y-66442857D01*
X172195713Y-66538095D01*
X172243332Y-66585714D01*
X172338570Y-66633333D01*
X172433808Y-66633333D01*
X172529046Y-66585714D01*
X172576666Y-66538095D01*
X172624285Y-66442857D01*
X172624285Y-66204762D01*
X172576666Y-66061905D01*
X172005237Y-65633333D02*
X172005237Y-64871429D01*
X169183571Y-66680952D02*
X169135952Y-66538095D01*
X169135952Y-66300000D01*
X169183571Y-66204762D01*
X169231190Y-66157143D01*
X169326428Y-66109524D01*
X169421666Y-66109524D01*
X169516904Y-66157143D01*
X169564523Y-66204762D01*
X169612142Y-66300000D01*
X169659761Y-66490476D01*
X169707380Y-66585714D01*
X169754999Y-66633333D01*
X169850237Y-66680952D01*
X169945475Y-66680952D01*
X170040713Y-66633333D01*
X170088333Y-66585714D01*
X170135952Y-66490476D01*
X170135952Y-66252381D01*
X170088333Y-66109524D01*
X169516904Y-65680952D02*
X169516904Y-64919048D01*
X169135952Y-65300000D02*
X169897856Y-65300000D01*
X167171428Y-66490477D02*
X167171428Y-66157144D01*
X166647619Y-66014286D02*
X166647619Y-66490477D01*
X167647619Y-66490477D01*
X167647619Y-66014286D01*
X167028571Y-65585715D02*
X167028571Y-64823810D01*
X165009523Y-64852380D02*
X164438095Y-64852380D01*
X164723809Y-65852380D02*
X164723809Y-64852380D01*
X164104761Y-65328571D02*
X163771428Y-65328571D01*
X163628571Y-65852380D02*
X164104761Y-65852380D01*
X164104761Y-64852380D01*
X163628571Y-64852380D01*
X163200000Y-65852380D02*
X163200000Y-64852380D01*
X162866666Y-65566666D01*
X162533333Y-64852380D01*
X162533333Y-65852380D01*
X162057142Y-65852380D02*
X162057142Y-64852380D01*
X161676190Y-64852380D01*
X161580952Y-64900000D01*
X161533333Y-64947619D01*
X161485714Y-65042857D01*
X161485714Y-65185714D01*
X161533333Y-65280952D01*
X161580952Y-65328571D01*
X161676190Y-65376190D01*
X162057142Y-65376190D01*
X174771428Y-66538096D02*
X174771428Y-66204763D01*
X174247619Y-66061905D02*
X174247619Y-66538096D01*
X175247619Y-66538096D01*
X175247619Y-66061905D01*
X174628571Y-65633334D02*
X174628571Y-64871429D01*
X174247619Y-65252382D02*
X175009523Y-65252382D01*
X193461904Y-88504761D02*
X193319047Y-88552380D01*
X193080952Y-88552380D01*
X192985714Y-88504761D01*
X192938095Y-88457142D01*
X192890476Y-88361904D01*
X192890476Y-88266666D01*
X192938095Y-88171428D01*
X192985714Y-88123809D01*
X193080952Y-88076190D01*
X193271428Y-88028571D01*
X193366666Y-87980952D01*
X193414285Y-87933333D01*
X193461904Y-87838095D01*
X193461904Y-87742857D01*
X193414285Y-87647619D01*
X193366666Y-87600000D01*
X193271428Y-87552380D01*
X193033333Y-87552380D01*
X192890476Y-87600000D01*
X192461904Y-88457142D02*
X192414285Y-88504761D01*
X192461904Y-88552380D01*
X192509523Y-88504761D01*
X192461904Y-88457142D01*
X192461904Y-88552380D01*
X191414285Y-88552380D02*
X191747619Y-88076190D01*
X191985714Y-88552380D02*
X191985714Y-87552380D01*
X191604761Y-87552380D01*
X191509523Y-87600000D01*
X191461904Y-87647619D01*
X191414285Y-87742857D01*
X191414285Y-87885714D01*
X191461904Y-87980952D01*
X191509523Y-88028571D01*
X191604761Y-88076190D01*
X191985714Y-88076190D01*
X191033333Y-88266666D02*
X190557142Y-88266666D01*
X191128571Y-88552380D02*
X190795238Y-87552380D01*
X190461904Y-88552380D01*
X190128571Y-88552380D02*
X190128571Y-87552380D01*
X189747619Y-87552380D01*
X189652380Y-87600000D01*
X189604761Y-87647619D01*
X189557142Y-87742857D01*
X189557142Y-87885714D01*
X189604761Y-87980952D01*
X189652380Y-88028571D01*
X189747619Y-88076190D01*
X190128571Y-88076190D01*
X189176190Y-88504761D02*
X189033333Y-88552380D01*
X188795238Y-88552380D01*
X188700000Y-88504761D01*
X188652380Y-88457142D01*
X188604761Y-88361904D01*
X188604761Y-88266666D01*
X188652380Y-88171428D01*
X188700000Y-88123809D01*
X188795238Y-88076190D01*
X188985714Y-88028571D01*
X189080952Y-87980952D01*
X189128571Y-87933333D01*
X189176190Y-87838095D01*
X189176190Y-87742857D01*
X189128571Y-87647619D01*
X189080952Y-87600000D01*
X188985714Y-87552380D01*
X188747619Y-87552380D01*
X188604761Y-87600000D01*
X187985714Y-87552380D02*
X187795238Y-87552380D01*
X187700000Y-87600000D01*
X187604761Y-87695238D01*
X187557142Y-87885714D01*
X187557142Y-88219047D01*
X187604761Y-88409523D01*
X187700000Y-88504761D01*
X187795238Y-88552380D01*
X187985714Y-88552380D01*
X188080952Y-88504761D01*
X188176190Y-88409523D01*
X188223809Y-88219047D01*
X188223809Y-87885714D01*
X188176190Y-87695238D01*
X188080952Y-87600000D01*
X187985714Y-87552380D01*
X187128571Y-88552380D02*
X187128571Y-87552380D01*
X186557142Y-88552380D01*
X186557142Y-87552380D01*
X185366666Y-87647619D02*
X185319047Y-87600000D01*
X185223809Y-87552380D01*
X184985714Y-87552380D01*
X184890476Y-87600000D01*
X184842857Y-87647619D01*
X184795238Y-87742857D01*
X184795238Y-87838095D01*
X184842857Y-87980952D01*
X185414285Y-88552380D01*
X184795238Y-88552380D01*
X184176190Y-87552380D02*
X184080952Y-87552380D01*
X183985714Y-87600000D01*
X183938095Y-87647619D01*
X183890476Y-87742857D01*
X183842857Y-87933333D01*
X183842857Y-88171428D01*
X183890476Y-88361904D01*
X183938095Y-88457142D01*
X183985714Y-88504761D01*
X184080952Y-88552380D01*
X184176190Y-88552380D01*
X184271428Y-88504761D01*
X184319047Y-88457142D01*
X184366666Y-88361904D01*
X184414285Y-88171428D01*
X184414285Y-87933333D01*
X184366666Y-87742857D01*
X184319047Y-87647619D01*
X184271428Y-87600000D01*
X184176190Y-87552380D01*
X182890476Y-88552380D02*
X183461904Y-88552380D01*
X183176190Y-88552380D02*
X183176190Y-87552380D01*
X183271428Y-87695238D01*
X183366666Y-87790476D01*
X183461904Y-87838095D01*
X182414285Y-88552380D02*
X182223809Y-88552380D01*
X182128571Y-88504761D01*
X182080952Y-88457142D01*
X181985714Y-88314285D01*
X181938095Y-88123809D01*
X181938095Y-87742857D01*
X181985714Y-87647619D01*
X182033333Y-87600000D01*
X182128571Y-87552380D01*
X182319047Y-87552380D01*
X182414285Y-87600000D01*
X182461904Y-87647619D01*
X182509523Y-87742857D01*
X182509523Y-87980952D01*
X182461904Y-88076190D01*
X182414285Y-88123809D01*
X182319047Y-88171428D01*
X182128571Y-88171428D01*
X182033333Y-88123809D01*
X181985714Y-88076190D01*
X181938095Y-87980952D01*
D10*
X171857142Y-87242857D02*
X171171428Y-87242857D01*
X171514285Y-88442857D02*
X171514285Y-87242857D01*
X170085714Y-88442857D02*
X170485714Y-87871428D01*
X170771428Y-88442857D02*
X170771428Y-87242857D01*
X170314285Y-87242857D01*
X170200000Y-87300000D01*
X170142857Y-87357142D01*
X170085714Y-87471428D01*
X170085714Y-87642857D01*
X170142857Y-87757142D01*
X170200000Y-87814285D01*
X170314285Y-87871428D01*
X170771428Y-87871428D01*
X169571428Y-88442857D02*
X169571428Y-87242857D01*
X169057142Y-88100000D02*
X168485714Y-88100000D01*
X169171428Y-88442857D02*
X168771428Y-87242857D01*
X168371428Y-88442857D01*
X168085714Y-87242857D02*
X167285714Y-88442857D01*
X167285714Y-87242857D02*
X168085714Y-88442857D01*
X166828571Y-88442857D02*
X166828571Y-87242857D01*
X166314285Y-88100000D02*
X165742857Y-88100000D01*
X166428571Y-88442857D02*
X166028571Y-87242857D01*
X165628571Y-88442857D01*
X164657142Y-88442857D02*
X165228571Y-88442857D01*
X165228571Y-87242857D01*
X162771428Y-88442857D02*
X163342857Y-88442857D01*
X163342857Y-87242857D01*
X162142857Y-87242857D02*
X161914285Y-87242857D01*
X161800000Y-87300000D01*
X161685714Y-87414285D01*
X161628571Y-87642857D01*
X161628571Y-88042857D01*
X161685714Y-88271428D01*
X161800000Y-88385714D01*
X161914285Y-88442857D01*
X162142857Y-88442857D01*
X162257142Y-88385714D01*
X162371428Y-88271428D01*
X162428571Y-88042857D01*
X162428571Y-87642857D01*
X162371428Y-87414285D01*
X162257142Y-87300000D01*
X162142857Y-87242857D01*
X161171428Y-88100000D02*
X160600000Y-88100000D01*
X161285714Y-88442857D02*
X160885714Y-87242857D01*
X160485714Y-88442857D01*
X160085714Y-88442857D02*
X160085714Y-87242857D01*
X159800000Y-87242857D01*
X159628571Y-87300000D01*
X159514285Y-87414285D01*
X159457142Y-87528571D01*
X159400000Y-87757142D01*
X159400000Y-87928571D01*
X159457142Y-88157142D01*
X159514285Y-88271428D01*
X159628571Y-88385714D01*
X159800000Y-88442857D01*
X160085714Y-88442857D01*
X157285714Y-88328571D02*
X157342857Y-88385714D01*
X157514285Y-88442857D01*
X157628571Y-88442857D01*
X157800000Y-88385714D01*
X157914285Y-88271428D01*
X157971428Y-88157142D01*
X158028571Y-87928571D01*
X158028571Y-87757142D01*
X157971428Y-87528571D01*
X157914285Y-87414285D01*
X157800000Y-87300000D01*
X157628571Y-87242857D01*
X157514285Y-87242857D01*
X157342857Y-87300000D01*
X157285714Y-87357142D01*
X156771428Y-87814285D02*
X156371428Y-87814285D01*
X156200000Y-88442857D02*
X156771428Y-88442857D01*
X156771428Y-87242857D01*
X156200000Y-87242857D01*
X155114285Y-88442857D02*
X155685714Y-88442857D01*
X155685714Y-87242857D01*
X154142857Y-88442857D02*
X154714285Y-88442857D01*
X154714285Y-87242857D01*
D11*
X153071904Y-66633333D02*
X153024285Y-66490476D01*
X153024285Y-66252381D01*
X153071904Y-66157143D01*
X153119523Y-66109524D01*
X153214761Y-66061905D01*
X153309999Y-66061905D01*
X153405237Y-66109524D01*
X153452856Y-66157143D01*
X153500475Y-66252381D01*
X153548094Y-66442857D01*
X153595713Y-66538095D01*
X153643332Y-66585714D01*
X153738570Y-66633333D01*
X153833808Y-66633333D01*
X153929046Y-66585714D01*
X153976666Y-66538095D01*
X154024285Y-66442857D01*
X154024285Y-66204762D01*
X153976666Y-66061905D01*
X153405237Y-65633333D02*
X153405237Y-64871429D01*
X150583571Y-66680952D02*
X150535952Y-66538095D01*
X150535952Y-66300000D01*
X150583571Y-66204762D01*
X150631190Y-66157143D01*
X150726428Y-66109524D01*
X150821666Y-66109524D01*
X150916904Y-66157143D01*
X150964523Y-66204762D01*
X151012142Y-66300000D01*
X151059761Y-66490476D01*
X151107380Y-66585714D01*
X151154999Y-66633333D01*
X151250237Y-66680952D01*
X151345475Y-66680952D01*
X151440713Y-66633333D01*
X151488333Y-66585714D01*
X151535952Y-66490476D01*
X151535952Y-66252381D01*
X151488333Y-66109524D01*
X150916904Y-65680952D02*
X150916904Y-64919048D01*
X150535952Y-65300000D02*
X151297856Y-65300000D01*
X156171428Y-66538096D02*
X156171428Y-66204763D01*
X155647619Y-66061905D02*
X155647619Y-66538096D01*
X156647619Y-66538096D01*
X156647619Y-66061905D01*
X156028571Y-65633334D02*
X156028571Y-64871429D01*
X155647619Y-65252382D02*
X156409523Y-65252382D01*
X148571428Y-66490477D02*
X148571428Y-66157144D01*
X148047619Y-66014286D02*
X148047619Y-66490477D01*
X149047619Y-66490477D01*
X149047619Y-66014286D01*
X148428571Y-65585715D02*
X148428571Y-64823810D01*
X146409523Y-64852380D02*
X145838095Y-64852380D01*
X146123809Y-65852380D02*
X146123809Y-64852380D01*
X145504761Y-65328571D02*
X145171428Y-65328571D01*
X145028571Y-65852380D02*
X145504761Y-65852380D01*
X145504761Y-64852380D01*
X145028571Y-64852380D01*
X144600000Y-65852380D02*
X144600000Y-64852380D01*
X144266666Y-65566666D01*
X143933333Y-64852380D01*
X143933333Y-65852380D01*
X143457142Y-65852380D02*
X143457142Y-64852380D01*
X143076190Y-64852380D01*
X142980952Y-64900000D01*
X142933333Y-64947619D01*
X142885714Y-65042857D01*
X142885714Y-65185714D01*
X142933333Y-65280952D01*
X142980952Y-65328571D01*
X143076190Y-65376190D01*
X143457142Y-65376190D01*
D10*
X147800000Y-63700000D02*
X156800000Y-63700000D01*
X142700000Y-63700000D02*
X146600000Y-63700000D01*
D11*
X140673809Y-71189284D02*
X139673809Y-71189284D01*
X139864285Y-72621664D02*
X140197619Y-72145474D01*
X140435714Y-72621664D02*
X140435714Y-71621664D01*
X140054761Y-71621664D01*
X139959523Y-71669284D01*
X139911904Y-71716903D01*
X139864285Y-71812141D01*
X139864285Y-71954998D01*
X139911904Y-72050236D01*
X139959523Y-72097855D01*
X140054761Y-72145474D01*
X140435714Y-72145474D01*
X139673809Y-71189284D02*
X138721428Y-71189284D01*
X139483333Y-72574045D02*
X139340476Y-72621664D01*
X139102380Y-72621664D01*
X139007142Y-72574045D01*
X138959523Y-72526426D01*
X138911904Y-72431188D01*
X138911904Y-72335950D01*
X138959523Y-72240712D01*
X139007142Y-72193093D01*
X139102380Y-72145474D01*
X139292857Y-72097855D01*
X139388095Y-72050236D01*
X139435714Y-72002617D01*
X139483333Y-71907379D01*
X139483333Y-71812141D01*
X139435714Y-71716903D01*
X139388095Y-71669284D01*
X139292857Y-71621664D01*
X139054761Y-71621664D01*
X138911904Y-71669284D01*
X139864285Y-75115235D02*
X140197619Y-74639045D01*
X140435714Y-75115235D02*
X140435714Y-74115235D01*
X140054761Y-74115235D01*
X139959523Y-74162855D01*
X139911904Y-74210474D01*
X139864285Y-74305712D01*
X139864285Y-74448569D01*
X139911904Y-74543807D01*
X139959523Y-74591426D01*
X140054761Y-74639045D01*
X140435714Y-74639045D01*
X138911904Y-75115235D02*
X139483333Y-75115235D01*
X139197619Y-75115235D02*
X139197619Y-74115235D01*
X139292857Y-74258093D01*
X139388095Y-74353331D01*
X139483333Y-74400950D01*
X139864285Y-80102380D02*
X140197619Y-79626190D01*
X140435714Y-80102380D02*
X140435714Y-79102380D01*
X140054761Y-79102380D01*
X139959523Y-79150000D01*
X139911904Y-79197619D01*
X139864285Y-79292857D01*
X139864285Y-79435714D01*
X139911904Y-79530952D01*
X139959523Y-79578571D01*
X140054761Y-79626190D01*
X140435714Y-79626190D01*
X139530952Y-79102380D02*
X138911904Y-79102380D01*
X139245238Y-79483333D01*
X139102380Y-79483333D01*
X139007142Y-79530952D01*
X138959523Y-79578571D01*
X138911904Y-79673809D01*
X138911904Y-79911904D01*
X138959523Y-80007142D01*
X139007142Y-80054761D01*
X139102380Y-80102380D01*
X139388095Y-80102380D01*
X139483333Y-80054761D01*
X139530952Y-80007142D01*
X141292857Y-69785474D02*
X141150000Y-69833093D01*
X140911904Y-69833093D01*
X140816666Y-69785474D01*
X140769047Y-69737855D01*
X140721428Y-69642617D01*
X140721428Y-69547379D01*
X140769047Y-69452141D01*
X140816666Y-69404522D01*
X140911904Y-69356903D01*
X141102381Y-69309284D01*
X141197619Y-69261665D01*
X141245238Y-69214046D01*
X141292857Y-69118808D01*
X141292857Y-69023570D01*
X141245238Y-68928332D01*
X141197619Y-68880713D01*
X141102381Y-68833093D01*
X140864285Y-68833093D01*
X140721428Y-68880713D01*
X139721428Y-69737855D02*
X139769047Y-69785474D01*
X139911904Y-69833093D01*
X140007142Y-69833093D01*
X140150000Y-69785474D01*
X140245238Y-69690236D01*
X140292857Y-69594998D01*
X140340476Y-69404522D01*
X140340476Y-69261665D01*
X140292857Y-69071189D01*
X140245238Y-68975951D01*
X140150000Y-68880713D01*
X140007142Y-68833093D01*
X139911904Y-68833093D01*
X139769047Y-68880713D01*
X139721428Y-68928332D01*
X138816666Y-69833093D02*
X139292857Y-69833093D01*
X139292857Y-68833093D01*
X141340476Y-63845951D02*
X140721428Y-63845951D01*
X141054761Y-64226904D01*
X140911904Y-64226904D01*
X140816666Y-64274523D01*
X140769047Y-64322142D01*
X140721428Y-64417380D01*
X140721428Y-64655475D01*
X140769047Y-64750713D01*
X140816666Y-64798332D01*
X140911904Y-64845951D01*
X141197619Y-64845951D01*
X141292857Y-64798332D01*
X141340476Y-64750713D01*
X140435714Y-63845951D02*
X140102381Y-64845951D01*
X139769047Y-63845951D01*
X139530952Y-63845951D02*
X138911904Y-63845951D01*
X139245238Y-64226904D01*
X139102381Y-64226904D01*
X139007142Y-64274523D01*
X138959523Y-64322142D01*
X138911904Y-64417380D01*
X138911904Y-64655475D01*
X138959523Y-64750713D01*
X139007142Y-64798332D01*
X139102381Y-64845951D01*
X139388095Y-64845951D01*
X139483333Y-64798332D01*
X139530952Y-64750713D01*
X141007142Y-61400000D02*
X141102380Y-61352380D01*
X141245238Y-61352380D01*
X141388095Y-61400000D01*
X141483333Y-61495238D01*
X141530952Y-61590476D01*
X141578571Y-61780952D01*
X141578571Y-61923809D01*
X141530952Y-62114285D01*
X141483333Y-62209523D01*
X141388095Y-62304761D01*
X141245238Y-62352380D01*
X141149999Y-62352380D01*
X141007142Y-62304761D01*
X140959523Y-62257142D01*
X140959523Y-61923809D01*
X141149999Y-61923809D01*
X140530952Y-62352380D02*
X140530952Y-61352380D01*
X139959523Y-62352380D01*
X139959523Y-61352380D01*
X139483333Y-62352380D02*
X139483333Y-61352380D01*
X139245238Y-61352380D01*
X139102380Y-61400000D01*
X139007142Y-61495238D01*
X138959523Y-61590476D01*
X138911904Y-61780952D01*
X138911904Y-61923809D01*
X138959523Y-62114285D01*
X139007142Y-62209523D01*
X139102380Y-62304761D01*
X139245238Y-62352380D01*
X139483333Y-62352380D01*
X139864285Y-77608806D02*
X140197619Y-77132616D01*
X140435714Y-77608806D02*
X140435714Y-76608806D01*
X140054761Y-76608806D01*
X139959523Y-76656426D01*
X139911904Y-76704045D01*
X139864285Y-76799283D01*
X139864285Y-76942140D01*
X139911904Y-77037378D01*
X139959523Y-77084997D01*
X140054761Y-77132616D01*
X140435714Y-77132616D01*
X139483333Y-76704045D02*
X139435714Y-76656426D01*
X139340476Y-76608806D01*
X139102380Y-76608806D01*
X139007142Y-76656426D01*
X138959523Y-76704045D01*
X138911904Y-76799283D01*
X138911904Y-76894521D01*
X138959523Y-77037378D01*
X139530952Y-77608806D01*
X138911904Y-77608806D01*
X141340475Y-67291903D02*
X141197618Y-67339522D01*
X140959523Y-67339522D01*
X140864285Y-67291903D01*
X140816666Y-67244284D01*
X140769047Y-67149046D01*
X140769047Y-67053808D01*
X140816666Y-66958570D01*
X140864285Y-66910951D01*
X140959523Y-66863332D01*
X141149999Y-66815713D01*
X141245237Y-66768094D01*
X141292856Y-66720475D01*
X141340475Y-66625237D01*
X141340475Y-66529999D01*
X141292856Y-66434761D01*
X141245237Y-66387142D01*
X141149999Y-66339522D01*
X140911904Y-66339522D01*
X140769047Y-66387142D01*
X140340475Y-67339522D02*
X140340475Y-66339522D01*
X140102380Y-66339522D01*
X139959523Y-66387142D01*
X139864285Y-66482380D01*
X139816666Y-66577618D01*
X139769047Y-66768094D01*
X139769047Y-66910951D01*
X139816666Y-67101427D01*
X139864285Y-67196665D01*
X139959523Y-67291903D01*
X140102380Y-67339522D01*
X140340475Y-67339522D01*
X139388094Y-67053808D02*
X138911904Y-67053808D01*
X139483332Y-67339522D02*
X139149999Y-66339522D01*
X138816666Y-67339522D01*
M02*
