G04 #@! TF.GenerationSoftware,KiCad,Pcbnew,(5.1.0-0)*
G04 #@! TF.CreationDate,2019-05-28T11:35:41+09:30*
G04 #@! TF.ProjectId,triax-loadwing,74726961-782d-46c6-9f61-6477696e672e,V1.0*
G04 #@! TF.SameCoordinates,Original*
G04 #@! TF.FileFunction,Soldermask,Top*
G04 #@! TF.FilePolarity,Negative*
%FSLAX46Y46*%
G04 Gerber Fmt 4.6, Leading zero omitted, Abs format (unit mm)*
G04 Created by KiCad (PCBNEW (5.1.0-0)) date 2019-05-28 11:35:41*
%MOMM*%
%LPD*%
G04 APERTURE LIST*
%ADD10C,0.100000*%
G04 APERTURE END LIST*
D10*
G36*
X137416656Y-88153394D02*
G01*
X137453656Y-88164618D01*
X137487748Y-88182840D01*
X137517634Y-88207366D01*
X137542160Y-88237252D01*
X137560382Y-88271344D01*
X137571606Y-88308344D01*
X137576000Y-88352956D01*
X137576000Y-89247044D01*
X137571606Y-89291656D01*
X137560382Y-89328656D01*
X137542160Y-89362748D01*
X137517634Y-89392634D01*
X137487748Y-89417160D01*
X137453656Y-89435382D01*
X137416656Y-89446606D01*
X137372044Y-89451000D01*
X135877956Y-89451000D01*
X135833344Y-89446606D01*
X135796344Y-89435382D01*
X135762252Y-89417160D01*
X135732366Y-89392634D01*
X135707840Y-89362748D01*
X135689618Y-89328656D01*
X135678394Y-89291656D01*
X135674000Y-89247044D01*
X135674000Y-88352956D01*
X135678394Y-88308344D01*
X135689618Y-88271344D01*
X135707840Y-88237252D01*
X135732366Y-88207366D01*
X135762252Y-88182840D01*
X135796344Y-88164618D01*
X135833344Y-88153394D01*
X135877956Y-88149000D01*
X137372044Y-88149000D01*
X137416656Y-88153394D01*
X137416656Y-88153394D01*
G37*
G36*
X167836000Y-89086000D02*
G01*
X166764000Y-89086000D01*
X166764000Y-86514000D01*
X167836000Y-86514000D01*
X167836000Y-89086000D01*
X167836000Y-89086000D01*
G37*
G36*
X165036000Y-89086000D02*
G01*
X163964000Y-89086000D01*
X163964000Y-86514000D01*
X165036000Y-86514000D01*
X165036000Y-89086000D01*
X165036000Y-89086000D01*
G37*
G36*
X170536000Y-89086000D02*
G01*
X169464000Y-89086000D01*
X169464000Y-86514000D01*
X170536000Y-86514000D01*
X170536000Y-89086000D01*
X170536000Y-89086000D01*
G37*
G36*
X145399618Y-87802965D02*
G01*
X145432433Y-87812919D01*
X145462664Y-87829078D01*
X145489170Y-87850830D01*
X145510921Y-87877335D01*
X145527081Y-87907567D01*
X145537035Y-87940382D01*
X145541000Y-87980640D01*
X145541000Y-88569360D01*
X145537035Y-88609618D01*
X145527081Y-88642433D01*
X145510921Y-88672665D01*
X145489170Y-88699170D01*
X145462665Y-88720921D01*
X145432433Y-88737081D01*
X145399618Y-88747035D01*
X145359360Y-88751000D01*
X144640640Y-88751000D01*
X144600382Y-88747035D01*
X144567567Y-88737081D01*
X144537335Y-88720921D01*
X144510830Y-88699170D01*
X144489079Y-88672665D01*
X144472919Y-88642433D01*
X144462965Y-88609618D01*
X144459000Y-88569360D01*
X144459000Y-87980640D01*
X144462965Y-87940382D01*
X144472919Y-87907567D01*
X144489079Y-87877335D01*
X144510830Y-87850830D01*
X144537336Y-87829078D01*
X144567567Y-87812919D01*
X144600382Y-87802965D01*
X144640640Y-87799000D01*
X145359360Y-87799000D01*
X145399618Y-87802965D01*
X145399618Y-87802965D01*
G37*
G36*
X147399618Y-87802965D02*
G01*
X147432433Y-87812919D01*
X147462664Y-87829078D01*
X147489170Y-87850830D01*
X147510921Y-87877335D01*
X147527081Y-87907567D01*
X147537035Y-87940382D01*
X147541000Y-87980640D01*
X147541000Y-88569360D01*
X147537035Y-88609618D01*
X147527081Y-88642433D01*
X147510921Y-88672665D01*
X147489170Y-88699170D01*
X147462665Y-88720921D01*
X147432433Y-88737081D01*
X147399618Y-88747035D01*
X147359360Y-88751000D01*
X146640640Y-88751000D01*
X146600382Y-88747035D01*
X146567567Y-88737081D01*
X146537335Y-88720921D01*
X146510830Y-88699170D01*
X146489079Y-88672665D01*
X146472919Y-88642433D01*
X146462965Y-88609618D01*
X146459000Y-88569360D01*
X146459000Y-87980640D01*
X146462965Y-87940382D01*
X146472919Y-87907567D01*
X146489079Y-87877335D01*
X146510830Y-87850830D01*
X146537336Y-87829078D01*
X146567567Y-87812919D01*
X146600382Y-87802965D01*
X146640640Y-87799000D01*
X147359360Y-87799000D01*
X147399618Y-87802965D01*
X147399618Y-87802965D01*
G37*
G36*
X160380536Y-86968301D02*
G01*
X160416622Y-86979248D01*
X160449892Y-86997031D01*
X160479044Y-87020956D01*
X160502969Y-87050108D01*
X160520752Y-87083378D01*
X160531699Y-87119464D01*
X160536000Y-87163138D01*
X160536000Y-87836862D01*
X160531699Y-87880536D01*
X160520752Y-87916622D01*
X160502969Y-87949892D01*
X160479044Y-87979044D01*
X160449892Y-88002969D01*
X160416622Y-88020752D01*
X160380536Y-88031699D01*
X160336862Y-88036000D01*
X159713138Y-88036000D01*
X159669464Y-88031699D01*
X159633378Y-88020752D01*
X159600108Y-88002969D01*
X159570956Y-87979044D01*
X159547031Y-87949892D01*
X159529248Y-87916622D01*
X159518301Y-87880536D01*
X159514000Y-87836862D01*
X159514000Y-87163138D01*
X159518301Y-87119464D01*
X159529248Y-87083378D01*
X159547031Y-87050108D01*
X159570956Y-87020956D01*
X159600108Y-86997031D01*
X159633378Y-86979248D01*
X159669464Y-86968301D01*
X159713138Y-86964000D01*
X160336862Y-86964000D01*
X160380536Y-86968301D01*
X160380536Y-86968301D01*
G37*
G36*
X158830536Y-86968301D02*
G01*
X158866622Y-86979248D01*
X158899892Y-86997031D01*
X158929044Y-87020956D01*
X158952969Y-87050108D01*
X158970752Y-87083378D01*
X158981699Y-87119464D01*
X158986000Y-87163138D01*
X158986000Y-87836862D01*
X158981699Y-87880536D01*
X158970752Y-87916622D01*
X158952969Y-87949892D01*
X158929044Y-87979044D01*
X158899892Y-88002969D01*
X158866622Y-88020752D01*
X158830536Y-88031699D01*
X158786862Y-88036000D01*
X158163138Y-88036000D01*
X158119464Y-88031699D01*
X158083378Y-88020752D01*
X158050108Y-88002969D01*
X158020956Y-87979044D01*
X157997031Y-87949892D01*
X157979248Y-87916622D01*
X157968301Y-87880536D01*
X157964000Y-87836862D01*
X157964000Y-87163138D01*
X157968301Y-87119464D01*
X157979248Y-87083378D01*
X157997031Y-87050108D01*
X158020956Y-87020956D01*
X158050108Y-86997031D01*
X158083378Y-86979248D01*
X158119464Y-86968301D01*
X158163138Y-86964000D01*
X158786862Y-86964000D01*
X158830536Y-86968301D01*
X158830536Y-86968301D01*
G37*
G36*
X176350170Y-87450803D02*
G01*
X176361875Y-87454354D01*
X176372665Y-87460121D01*
X176382119Y-87467881D01*
X176389879Y-87477335D01*
X176395646Y-87488125D01*
X176399197Y-87499830D01*
X176401000Y-87518138D01*
X176401000Y-87881862D01*
X176399197Y-87900170D01*
X176395646Y-87911875D01*
X176389879Y-87922665D01*
X176382119Y-87932119D01*
X176372665Y-87939879D01*
X176361875Y-87945646D01*
X176350170Y-87949197D01*
X176331862Y-87951000D01*
X175468138Y-87951000D01*
X175449830Y-87949197D01*
X175438125Y-87945646D01*
X175427335Y-87939879D01*
X175417881Y-87932119D01*
X175410121Y-87922665D01*
X175404354Y-87911875D01*
X175400803Y-87900170D01*
X175399000Y-87881862D01*
X175399000Y-87518138D01*
X175400803Y-87499830D01*
X175404354Y-87488125D01*
X175410121Y-87477335D01*
X175417881Y-87467881D01*
X175427335Y-87460121D01*
X175438125Y-87454354D01*
X175449830Y-87450803D01*
X175468138Y-87449000D01*
X176331862Y-87449000D01*
X176350170Y-87450803D01*
X176350170Y-87450803D01*
G37*
G36*
X178050170Y-87450803D02*
G01*
X178061875Y-87454354D01*
X178072665Y-87460121D01*
X178082119Y-87467881D01*
X178089879Y-87477335D01*
X178095646Y-87488125D01*
X178099197Y-87499830D01*
X178101000Y-87518138D01*
X178101000Y-87881862D01*
X178099197Y-87900170D01*
X178095646Y-87911875D01*
X178089879Y-87922665D01*
X178082119Y-87932119D01*
X178072665Y-87939879D01*
X178061875Y-87945646D01*
X178050170Y-87949197D01*
X178031862Y-87951000D01*
X177168138Y-87951000D01*
X177149830Y-87949197D01*
X177138125Y-87945646D01*
X177127335Y-87939879D01*
X177117881Y-87932119D01*
X177110121Y-87922665D01*
X177104354Y-87911875D01*
X177100803Y-87900170D01*
X177099000Y-87881862D01*
X177099000Y-87518138D01*
X177100803Y-87499830D01*
X177104354Y-87488125D01*
X177110121Y-87477335D01*
X177117881Y-87467881D01*
X177127335Y-87460121D01*
X177138125Y-87454354D01*
X177149830Y-87450803D01*
X177168138Y-87449000D01*
X178031862Y-87449000D01*
X178050170Y-87450803D01*
X178050170Y-87450803D01*
G37*
G36*
X141234928Y-87151764D02*
G01*
X141256009Y-87158160D01*
X141275445Y-87168548D01*
X141292476Y-87182524D01*
X141306452Y-87199555D01*
X141316840Y-87218991D01*
X141323236Y-87240072D01*
X141326000Y-87268140D01*
X141326000Y-87731860D01*
X141323236Y-87759928D01*
X141316840Y-87781009D01*
X141306452Y-87800445D01*
X141292476Y-87817476D01*
X141275445Y-87831452D01*
X141256009Y-87841840D01*
X141234928Y-87848236D01*
X141206860Y-87851000D01*
X139793140Y-87851000D01*
X139765072Y-87848236D01*
X139743991Y-87841840D01*
X139724555Y-87831452D01*
X139707524Y-87817476D01*
X139693548Y-87800445D01*
X139683160Y-87781009D01*
X139676764Y-87759928D01*
X139674000Y-87731860D01*
X139674000Y-87268140D01*
X139676764Y-87240072D01*
X139683160Y-87218991D01*
X139693548Y-87199555D01*
X139707524Y-87182524D01*
X139724555Y-87168548D01*
X139743991Y-87158160D01*
X139765072Y-87151764D01*
X139793140Y-87149000D01*
X141206860Y-87149000D01*
X141234928Y-87151764D01*
X141234928Y-87151764D01*
G37*
G36*
X147399618Y-86252965D02*
G01*
X147432433Y-86262919D01*
X147462665Y-86279079D01*
X147489170Y-86300830D01*
X147510921Y-86327335D01*
X147527081Y-86357567D01*
X147537035Y-86390382D01*
X147541000Y-86430640D01*
X147541000Y-87019360D01*
X147537035Y-87059618D01*
X147527081Y-87092433D01*
X147510921Y-87122665D01*
X147489170Y-87149170D01*
X147462665Y-87170921D01*
X147432433Y-87187081D01*
X147399618Y-87197035D01*
X147359360Y-87201000D01*
X146640640Y-87201000D01*
X146600382Y-87197035D01*
X146567567Y-87187081D01*
X146537335Y-87170921D01*
X146510830Y-87149170D01*
X146489079Y-87122665D01*
X146472919Y-87092433D01*
X146462965Y-87059618D01*
X146459000Y-87019360D01*
X146459000Y-86430640D01*
X146462965Y-86390382D01*
X146472919Y-86357567D01*
X146489079Y-86327335D01*
X146510830Y-86300830D01*
X146537335Y-86279079D01*
X146567567Y-86262919D01*
X146600382Y-86252965D01*
X146640640Y-86249000D01*
X147359360Y-86249000D01*
X147399618Y-86252965D01*
X147399618Y-86252965D01*
G37*
G36*
X145399618Y-86252965D02*
G01*
X145432433Y-86262919D01*
X145462665Y-86279079D01*
X145489170Y-86300830D01*
X145510921Y-86327335D01*
X145527081Y-86357567D01*
X145537035Y-86390382D01*
X145541000Y-86430640D01*
X145541000Y-87019360D01*
X145537035Y-87059618D01*
X145527081Y-87092433D01*
X145510921Y-87122665D01*
X145489170Y-87149170D01*
X145462665Y-87170921D01*
X145432433Y-87187081D01*
X145399618Y-87197035D01*
X145359360Y-87201000D01*
X144640640Y-87201000D01*
X144600382Y-87197035D01*
X144567567Y-87187081D01*
X144537335Y-87170921D01*
X144510830Y-87149170D01*
X144489079Y-87122665D01*
X144472919Y-87092433D01*
X144462965Y-87059618D01*
X144459000Y-87019360D01*
X144459000Y-86430640D01*
X144462965Y-86390382D01*
X144472919Y-86357567D01*
X144489079Y-86327335D01*
X144510830Y-86300830D01*
X144537335Y-86279079D01*
X144567567Y-86262919D01*
X144600382Y-86252965D01*
X144640640Y-86249000D01*
X145359360Y-86249000D01*
X145399618Y-86252965D01*
X145399618Y-86252965D01*
G37*
G36*
X176350170Y-86650803D02*
G01*
X176361875Y-86654354D01*
X176372665Y-86660121D01*
X176382119Y-86667881D01*
X176389879Y-86677335D01*
X176395646Y-86688125D01*
X176399197Y-86699830D01*
X176401000Y-86718138D01*
X176401000Y-87081862D01*
X176399197Y-87100170D01*
X176395646Y-87111875D01*
X176389879Y-87122665D01*
X176382119Y-87132119D01*
X176372665Y-87139879D01*
X176361875Y-87145646D01*
X176350170Y-87149197D01*
X176331862Y-87151000D01*
X175468138Y-87151000D01*
X175449830Y-87149197D01*
X175438125Y-87145646D01*
X175427335Y-87139879D01*
X175417881Y-87132119D01*
X175410121Y-87122665D01*
X175404354Y-87111875D01*
X175400803Y-87100170D01*
X175399000Y-87081862D01*
X175399000Y-86718138D01*
X175400803Y-86699830D01*
X175404354Y-86688125D01*
X175410121Y-86677335D01*
X175417881Y-86667881D01*
X175427335Y-86660121D01*
X175438125Y-86654354D01*
X175449830Y-86650803D01*
X175468138Y-86649000D01*
X176331862Y-86649000D01*
X176350170Y-86650803D01*
X176350170Y-86650803D01*
G37*
G36*
X178050170Y-86650803D02*
G01*
X178061875Y-86654354D01*
X178072665Y-86660121D01*
X178082119Y-86667881D01*
X178089879Y-86677335D01*
X178095646Y-86688125D01*
X178099197Y-86699830D01*
X178101000Y-86718138D01*
X178101000Y-87081862D01*
X178099197Y-87100170D01*
X178095646Y-87111875D01*
X178089879Y-87122665D01*
X178082119Y-87132119D01*
X178072665Y-87139879D01*
X178061875Y-87145646D01*
X178050170Y-87149197D01*
X178031862Y-87151000D01*
X177168138Y-87151000D01*
X177149830Y-87149197D01*
X177138125Y-87145646D01*
X177127335Y-87139879D01*
X177117881Y-87132119D01*
X177110121Y-87122665D01*
X177104354Y-87111875D01*
X177100803Y-87100170D01*
X177099000Y-87081862D01*
X177099000Y-86718138D01*
X177100803Y-86699830D01*
X177104354Y-86688125D01*
X177110121Y-86677335D01*
X177117881Y-86667881D01*
X177127335Y-86660121D01*
X177138125Y-86654354D01*
X177149830Y-86650803D01*
X177168138Y-86649000D01*
X178031862Y-86649000D01*
X178050170Y-86650803D01*
X178050170Y-86650803D01*
G37*
G36*
X141234928Y-86151764D02*
G01*
X141256009Y-86158160D01*
X141275445Y-86168548D01*
X141292476Y-86182524D01*
X141306452Y-86199555D01*
X141316840Y-86218991D01*
X141323236Y-86240072D01*
X141326000Y-86268140D01*
X141326000Y-86731860D01*
X141323236Y-86759928D01*
X141316840Y-86781009D01*
X141306452Y-86800445D01*
X141292476Y-86817476D01*
X141275445Y-86831452D01*
X141256009Y-86841840D01*
X141234928Y-86848236D01*
X141206860Y-86851000D01*
X139793140Y-86851000D01*
X139765072Y-86848236D01*
X139743991Y-86841840D01*
X139724555Y-86831452D01*
X139707524Y-86817476D01*
X139693548Y-86800445D01*
X139683160Y-86781009D01*
X139676764Y-86759928D01*
X139674000Y-86731860D01*
X139674000Y-86268140D01*
X139676764Y-86240072D01*
X139683160Y-86218991D01*
X139693548Y-86199555D01*
X139707524Y-86182524D01*
X139724555Y-86168548D01*
X139743991Y-86158160D01*
X139765072Y-86151764D01*
X139793140Y-86149000D01*
X141206860Y-86149000D01*
X141234928Y-86151764D01*
X141234928Y-86151764D01*
G37*
G36*
X188609618Y-85712965D02*
G01*
X188642433Y-85722919D01*
X188672665Y-85739079D01*
X188699170Y-85760830D01*
X188720921Y-85787335D01*
X188737081Y-85817567D01*
X188747035Y-85850382D01*
X188751000Y-85890640D01*
X188751000Y-86609360D01*
X188747035Y-86649618D01*
X188737081Y-86682433D01*
X188720921Y-86712665D01*
X188699170Y-86739170D01*
X188672665Y-86760921D01*
X188642433Y-86777081D01*
X188609618Y-86787035D01*
X188569360Y-86791000D01*
X187980640Y-86791000D01*
X187940382Y-86787035D01*
X187907567Y-86777081D01*
X187877335Y-86760921D01*
X187850830Y-86739170D01*
X187829079Y-86712665D01*
X187812919Y-86682433D01*
X187802965Y-86649618D01*
X187799000Y-86609360D01*
X187799000Y-85890640D01*
X187802965Y-85850382D01*
X187812919Y-85817567D01*
X187829079Y-85787335D01*
X187850830Y-85760830D01*
X187877335Y-85739079D01*
X187907567Y-85722919D01*
X187940382Y-85712965D01*
X187980640Y-85709000D01*
X188569360Y-85709000D01*
X188609618Y-85712965D01*
X188609618Y-85712965D01*
G37*
G36*
X187059618Y-85712965D02*
G01*
X187092433Y-85722919D01*
X187122665Y-85739079D01*
X187149170Y-85760830D01*
X187170921Y-85787335D01*
X187187081Y-85817567D01*
X187197035Y-85850382D01*
X187201000Y-85890640D01*
X187201000Y-86609360D01*
X187197035Y-86649618D01*
X187187081Y-86682433D01*
X187170921Y-86712665D01*
X187149170Y-86739170D01*
X187122665Y-86760921D01*
X187092433Y-86777081D01*
X187059618Y-86787035D01*
X187019360Y-86791000D01*
X186430640Y-86791000D01*
X186390382Y-86787035D01*
X186357567Y-86777081D01*
X186327335Y-86760921D01*
X186300830Y-86739170D01*
X186279079Y-86712665D01*
X186262919Y-86682433D01*
X186252965Y-86649618D01*
X186249000Y-86609360D01*
X186249000Y-85890640D01*
X186252965Y-85850382D01*
X186262919Y-85817567D01*
X186279079Y-85787335D01*
X186300830Y-85760830D01*
X186327335Y-85739079D01*
X186357567Y-85722919D01*
X186390382Y-85712965D01*
X186430640Y-85709000D01*
X187019360Y-85709000D01*
X187059618Y-85712965D01*
X187059618Y-85712965D01*
G37*
G36*
X192112548Y-85738253D02*
G01*
X192148167Y-85749059D01*
X192181001Y-85766609D01*
X192209776Y-85790224D01*
X192233391Y-85818999D01*
X192250941Y-85851833D01*
X192261747Y-85887452D01*
X192266000Y-85930640D01*
X192266000Y-86569360D01*
X192261747Y-86612548D01*
X192250941Y-86648167D01*
X192233391Y-86681001D01*
X192209776Y-86709776D01*
X192181001Y-86733391D01*
X192148167Y-86750941D01*
X192112548Y-86761747D01*
X192069360Y-86766000D01*
X191450640Y-86766000D01*
X191407452Y-86761747D01*
X191371833Y-86750941D01*
X191338999Y-86733391D01*
X191310224Y-86709776D01*
X191286609Y-86681001D01*
X191269059Y-86648167D01*
X191258253Y-86612548D01*
X191254000Y-86569360D01*
X191254000Y-85930640D01*
X191258253Y-85887452D01*
X191269059Y-85851833D01*
X191286609Y-85818999D01*
X191310224Y-85790224D01*
X191338999Y-85766609D01*
X191371833Y-85749059D01*
X191407452Y-85738253D01*
X191450640Y-85734000D01*
X192069360Y-85734000D01*
X192112548Y-85738253D01*
X192112548Y-85738253D01*
G37*
G36*
X190592548Y-85738253D02*
G01*
X190628167Y-85749059D01*
X190661001Y-85766609D01*
X190689776Y-85790224D01*
X190713391Y-85818999D01*
X190730941Y-85851833D01*
X190741747Y-85887452D01*
X190746000Y-85930640D01*
X190746000Y-86569360D01*
X190741747Y-86612548D01*
X190730941Y-86648167D01*
X190713391Y-86681001D01*
X190689776Y-86709776D01*
X190661001Y-86733391D01*
X190628167Y-86750941D01*
X190592548Y-86761747D01*
X190549360Y-86766000D01*
X189930640Y-86766000D01*
X189887452Y-86761747D01*
X189851833Y-86750941D01*
X189818999Y-86733391D01*
X189790224Y-86709776D01*
X189766609Y-86681001D01*
X189749059Y-86648167D01*
X189738253Y-86612548D01*
X189734000Y-86569360D01*
X189734000Y-85930640D01*
X189738253Y-85887452D01*
X189749059Y-85851833D01*
X189766609Y-85818999D01*
X189790224Y-85790224D01*
X189818999Y-85766609D01*
X189851833Y-85749059D01*
X189887452Y-85738253D01*
X189930640Y-85734000D01*
X190549360Y-85734000D01*
X190592548Y-85738253D01*
X190592548Y-85738253D01*
G37*
G36*
X178050170Y-85850803D02*
G01*
X178061875Y-85854354D01*
X178072665Y-85860121D01*
X178082119Y-85867881D01*
X178089879Y-85877335D01*
X178095646Y-85888125D01*
X178099197Y-85899830D01*
X178101000Y-85918138D01*
X178101000Y-86281862D01*
X178099197Y-86300170D01*
X178095646Y-86311875D01*
X178089879Y-86322665D01*
X178082119Y-86332119D01*
X178072665Y-86339879D01*
X178061875Y-86345646D01*
X178050170Y-86349197D01*
X178031862Y-86351000D01*
X177168138Y-86351000D01*
X177149830Y-86349197D01*
X177138125Y-86345646D01*
X177127335Y-86339879D01*
X177117881Y-86332119D01*
X177110121Y-86322665D01*
X177104354Y-86311875D01*
X177100803Y-86300170D01*
X177099000Y-86281862D01*
X177099000Y-85918138D01*
X177100803Y-85899830D01*
X177104354Y-85888125D01*
X177110121Y-85877335D01*
X177117881Y-85867881D01*
X177127335Y-85860121D01*
X177138125Y-85854354D01*
X177149830Y-85850803D01*
X177168138Y-85849000D01*
X178031862Y-85849000D01*
X178050170Y-85850803D01*
X178050170Y-85850803D01*
G37*
G36*
X176350170Y-85850803D02*
G01*
X176361875Y-85854354D01*
X176372665Y-85860121D01*
X176382119Y-85867881D01*
X176389879Y-85877335D01*
X176395646Y-85888125D01*
X176399197Y-85899830D01*
X176401000Y-85918138D01*
X176401000Y-86281862D01*
X176399197Y-86300170D01*
X176395646Y-86311875D01*
X176389879Y-86322665D01*
X176382119Y-86332119D01*
X176372665Y-86339879D01*
X176361875Y-86345646D01*
X176350170Y-86349197D01*
X176331862Y-86351000D01*
X175468138Y-86351000D01*
X175449830Y-86349197D01*
X175438125Y-86345646D01*
X175427335Y-86339879D01*
X175417881Y-86332119D01*
X175410121Y-86322665D01*
X175404354Y-86311875D01*
X175400803Y-86300170D01*
X175399000Y-86281862D01*
X175399000Y-85918138D01*
X175400803Y-85899830D01*
X175404354Y-85888125D01*
X175410121Y-85877335D01*
X175417881Y-85867881D01*
X175427335Y-85860121D01*
X175438125Y-85854354D01*
X175449830Y-85850803D01*
X175468138Y-85849000D01*
X176331862Y-85849000D01*
X176350170Y-85850803D01*
X176350170Y-85850803D01*
G37*
G36*
X141234928Y-85151764D02*
G01*
X141256009Y-85158160D01*
X141275445Y-85168548D01*
X141292476Y-85182524D01*
X141306452Y-85199555D01*
X141316840Y-85218991D01*
X141323236Y-85240072D01*
X141326000Y-85268140D01*
X141326000Y-85731860D01*
X141323236Y-85759928D01*
X141316840Y-85781009D01*
X141306452Y-85800445D01*
X141292476Y-85817476D01*
X141275445Y-85831452D01*
X141256009Y-85841840D01*
X141234928Y-85848236D01*
X141206860Y-85851000D01*
X139793140Y-85851000D01*
X139765072Y-85848236D01*
X139743991Y-85841840D01*
X139724555Y-85831452D01*
X139707524Y-85817476D01*
X139693548Y-85800445D01*
X139683160Y-85781009D01*
X139676764Y-85759928D01*
X139674000Y-85731860D01*
X139674000Y-85268140D01*
X139676764Y-85240072D01*
X139683160Y-85218991D01*
X139693548Y-85199555D01*
X139707524Y-85182524D01*
X139724555Y-85168548D01*
X139743991Y-85158160D01*
X139765072Y-85151764D01*
X139793140Y-85149000D01*
X141206860Y-85149000D01*
X141234928Y-85151764D01*
X141234928Y-85151764D01*
G37*
G36*
X176350170Y-85050803D02*
G01*
X176361875Y-85054354D01*
X176372665Y-85060121D01*
X176382119Y-85067881D01*
X176389879Y-85077335D01*
X176395646Y-85088125D01*
X176399197Y-85099830D01*
X176401000Y-85118138D01*
X176401000Y-85481862D01*
X176399197Y-85500170D01*
X176395646Y-85511875D01*
X176389879Y-85522665D01*
X176382119Y-85532119D01*
X176372665Y-85539879D01*
X176361875Y-85545646D01*
X176350170Y-85549197D01*
X176331862Y-85551000D01*
X175468138Y-85551000D01*
X175449830Y-85549197D01*
X175438125Y-85545646D01*
X175427335Y-85539879D01*
X175417881Y-85532119D01*
X175410121Y-85522665D01*
X175404354Y-85511875D01*
X175400803Y-85500170D01*
X175399000Y-85481862D01*
X175399000Y-85118138D01*
X175400803Y-85099830D01*
X175404354Y-85088125D01*
X175410121Y-85077335D01*
X175417881Y-85067881D01*
X175427335Y-85060121D01*
X175438125Y-85054354D01*
X175449830Y-85050803D01*
X175468138Y-85049000D01*
X176331862Y-85049000D01*
X176350170Y-85050803D01*
X176350170Y-85050803D01*
G37*
G36*
X178050170Y-85050803D02*
G01*
X178061875Y-85054354D01*
X178072665Y-85060121D01*
X178082119Y-85067881D01*
X178089879Y-85077335D01*
X178095646Y-85088125D01*
X178099197Y-85099830D01*
X178101000Y-85118138D01*
X178101000Y-85481862D01*
X178099197Y-85500170D01*
X178095646Y-85511875D01*
X178089879Y-85522665D01*
X178082119Y-85532119D01*
X178072665Y-85539879D01*
X178061875Y-85545646D01*
X178050170Y-85549197D01*
X178031862Y-85551000D01*
X177168138Y-85551000D01*
X177149830Y-85549197D01*
X177138125Y-85545646D01*
X177127335Y-85539879D01*
X177117881Y-85532119D01*
X177110121Y-85522665D01*
X177104354Y-85511875D01*
X177100803Y-85500170D01*
X177099000Y-85481862D01*
X177099000Y-85118138D01*
X177100803Y-85099830D01*
X177104354Y-85088125D01*
X177110121Y-85077335D01*
X177117881Y-85067881D01*
X177127335Y-85060121D01*
X177138125Y-85054354D01*
X177149830Y-85050803D01*
X177168138Y-85049000D01*
X178031862Y-85049000D01*
X178050170Y-85050803D01*
X178050170Y-85050803D01*
G37*
G36*
X147302238Y-83719454D02*
G01*
X147349590Y-83733818D01*
X147393222Y-83757140D01*
X147431471Y-83788529D01*
X147462860Y-83826778D01*
X147486182Y-83870410D01*
X147500546Y-83917762D01*
X147506000Y-83973140D01*
X147506000Y-85026860D01*
X147500546Y-85082238D01*
X147486182Y-85129590D01*
X147462860Y-85173222D01*
X147431471Y-85211471D01*
X147393222Y-85242860D01*
X147349590Y-85266182D01*
X147302238Y-85280546D01*
X147246860Y-85286000D01*
X146503140Y-85286000D01*
X146447762Y-85280546D01*
X146400410Y-85266182D01*
X146356778Y-85242860D01*
X146318529Y-85211471D01*
X146287140Y-85173222D01*
X146263818Y-85129590D01*
X146249454Y-85082238D01*
X146244000Y-85026860D01*
X146244000Y-83973140D01*
X146249454Y-83917762D01*
X146263818Y-83870410D01*
X146287140Y-83826778D01*
X146318529Y-83788529D01*
X146356778Y-83757140D01*
X146400410Y-83733818D01*
X146447762Y-83719454D01*
X146503140Y-83714000D01*
X147246860Y-83714000D01*
X147302238Y-83719454D01*
X147302238Y-83719454D01*
G37*
G36*
X145552238Y-83719454D02*
G01*
X145599590Y-83733818D01*
X145643222Y-83757140D01*
X145681471Y-83788529D01*
X145712860Y-83826778D01*
X145736182Y-83870410D01*
X145750546Y-83917762D01*
X145756000Y-83973140D01*
X145756000Y-85026860D01*
X145750546Y-85082238D01*
X145736182Y-85129590D01*
X145712860Y-85173222D01*
X145681471Y-85211471D01*
X145643222Y-85242860D01*
X145599590Y-85266182D01*
X145552238Y-85280546D01*
X145496860Y-85286000D01*
X144753140Y-85286000D01*
X144697762Y-85280546D01*
X144650410Y-85266182D01*
X144606778Y-85242860D01*
X144568529Y-85211471D01*
X144537140Y-85173222D01*
X144513818Y-85129590D01*
X144499454Y-85082238D01*
X144494000Y-85026860D01*
X144494000Y-83973140D01*
X144499454Y-83917762D01*
X144513818Y-83870410D01*
X144537140Y-83826778D01*
X144568529Y-83788529D01*
X144606778Y-83757140D01*
X144650410Y-83733818D01*
X144697762Y-83719454D01*
X144753140Y-83714000D01*
X145496860Y-83714000D01*
X145552238Y-83719454D01*
X145552238Y-83719454D01*
G37*
G36*
X141234928Y-84151764D02*
G01*
X141256009Y-84158160D01*
X141275445Y-84168548D01*
X141292476Y-84182524D01*
X141306452Y-84199555D01*
X141316840Y-84218991D01*
X141323236Y-84240072D01*
X141326000Y-84268140D01*
X141326000Y-84731860D01*
X141323236Y-84759928D01*
X141316840Y-84781009D01*
X141306452Y-84800445D01*
X141292476Y-84817476D01*
X141275445Y-84831452D01*
X141256009Y-84841840D01*
X141234928Y-84848236D01*
X141206860Y-84851000D01*
X139793140Y-84851000D01*
X139765072Y-84848236D01*
X139743991Y-84841840D01*
X139724555Y-84831452D01*
X139707524Y-84817476D01*
X139693548Y-84800445D01*
X139683160Y-84781009D01*
X139676764Y-84759928D01*
X139674000Y-84731860D01*
X139674000Y-84268140D01*
X139676764Y-84240072D01*
X139683160Y-84218991D01*
X139693548Y-84199555D01*
X139707524Y-84182524D01*
X139724555Y-84168548D01*
X139743991Y-84158160D01*
X139765072Y-84151764D01*
X139793140Y-84149000D01*
X141206860Y-84149000D01*
X141234928Y-84151764D01*
X141234928Y-84151764D01*
G37*
G36*
X159931000Y-80944001D02*
G01*
X159933402Y-80968387D01*
X159940515Y-80991836D01*
X159952066Y-81013447D01*
X159967611Y-81032389D01*
X159986553Y-81047934D01*
X160008164Y-81059485D01*
X160031613Y-81066598D01*
X160055999Y-81069000D01*
X160841000Y-81069000D01*
X160841000Y-83931000D01*
X160055999Y-83931000D01*
X160031613Y-83933402D01*
X160008164Y-83940515D01*
X159986553Y-83952066D01*
X159967611Y-83967611D01*
X159952066Y-83986553D01*
X159940515Y-84008164D01*
X159933402Y-84031613D01*
X159931000Y-84055999D01*
X159931000Y-84841000D01*
X157069000Y-84841000D01*
X157069000Y-84055999D01*
X157066598Y-84031613D01*
X157059485Y-84008164D01*
X157047934Y-83986553D01*
X157032389Y-83967611D01*
X157013447Y-83952066D01*
X156991836Y-83940515D01*
X156968387Y-83933402D01*
X156944001Y-83931000D01*
X156159000Y-83931000D01*
X156159000Y-81069000D01*
X156944001Y-81069000D01*
X156968387Y-81066598D01*
X156991836Y-81059485D01*
X157013447Y-81047934D01*
X157032389Y-81032389D01*
X157047934Y-81013447D01*
X157059485Y-80991836D01*
X157066598Y-80968387D01*
X157069000Y-80944001D01*
X157069000Y-80159000D01*
X159931000Y-80159000D01*
X159931000Y-80944001D01*
X159931000Y-80944001D01*
G37*
G36*
X137416656Y-82553394D02*
G01*
X137453656Y-82564618D01*
X137487748Y-82582840D01*
X137517634Y-82607366D01*
X137542160Y-82637252D01*
X137560382Y-82671344D01*
X137571606Y-82708344D01*
X137576000Y-82752956D01*
X137576000Y-83647044D01*
X137571606Y-83691656D01*
X137560382Y-83728656D01*
X137542160Y-83762748D01*
X137517634Y-83792634D01*
X137487748Y-83817160D01*
X137453656Y-83835382D01*
X137416656Y-83846606D01*
X137372044Y-83851000D01*
X135877956Y-83851000D01*
X135833344Y-83846606D01*
X135796344Y-83835382D01*
X135762252Y-83817160D01*
X135732366Y-83792634D01*
X135707840Y-83762748D01*
X135689618Y-83728656D01*
X135678394Y-83691656D01*
X135674000Y-83647044D01*
X135674000Y-82752956D01*
X135678394Y-82708344D01*
X135689618Y-82671344D01*
X135707840Y-82637252D01*
X135732366Y-82607366D01*
X135762252Y-82582840D01*
X135796344Y-82564618D01*
X135833344Y-82553394D01*
X135877956Y-82549000D01*
X137372044Y-82549000D01*
X137416656Y-82553394D01*
X137416656Y-82553394D01*
G37*
G36*
X186609618Y-81212965D02*
G01*
X186642433Y-81222919D01*
X186672665Y-81239079D01*
X186699170Y-81260830D01*
X186720921Y-81287335D01*
X186737081Y-81317567D01*
X186747035Y-81350382D01*
X186751000Y-81390640D01*
X186751000Y-82109360D01*
X186747035Y-82149618D01*
X186737081Y-82182433D01*
X186720921Y-82212665D01*
X186699170Y-82239170D01*
X186672665Y-82260921D01*
X186642433Y-82277081D01*
X186609618Y-82287035D01*
X186569360Y-82291000D01*
X185980640Y-82291000D01*
X185940382Y-82287035D01*
X185907567Y-82277081D01*
X185877335Y-82260921D01*
X185850830Y-82239170D01*
X185829079Y-82212665D01*
X185812919Y-82182433D01*
X185802965Y-82149618D01*
X185799000Y-82109360D01*
X185799000Y-81390640D01*
X185802965Y-81350382D01*
X185812919Y-81317567D01*
X185829079Y-81287335D01*
X185850830Y-81260830D01*
X185877335Y-81239079D01*
X185907567Y-81222919D01*
X185940382Y-81212965D01*
X185980640Y-81209000D01*
X186569360Y-81209000D01*
X186609618Y-81212965D01*
X186609618Y-81212965D01*
G37*
G36*
X185059618Y-81212965D02*
G01*
X185092433Y-81222919D01*
X185122665Y-81239079D01*
X185149170Y-81260830D01*
X185170921Y-81287335D01*
X185187081Y-81317567D01*
X185197035Y-81350382D01*
X185201000Y-81390640D01*
X185201000Y-82109360D01*
X185197035Y-82149618D01*
X185187081Y-82182433D01*
X185170921Y-82212665D01*
X185149170Y-82239170D01*
X185122665Y-82260921D01*
X185092433Y-82277081D01*
X185059618Y-82287035D01*
X185019360Y-82291000D01*
X184430640Y-82291000D01*
X184390382Y-82287035D01*
X184357567Y-82277081D01*
X184327335Y-82260921D01*
X184300830Y-82239170D01*
X184279079Y-82212665D01*
X184262919Y-82182433D01*
X184252965Y-82149618D01*
X184249000Y-82109360D01*
X184249000Y-81390640D01*
X184252965Y-81350382D01*
X184262919Y-81317567D01*
X184279079Y-81287335D01*
X184300830Y-81260830D01*
X184327335Y-81239079D01*
X184357567Y-81222919D01*
X184390382Y-81212965D01*
X184430640Y-81209000D01*
X185019360Y-81209000D01*
X185059618Y-81212965D01*
X185059618Y-81212965D01*
G37*
G36*
X168109618Y-81212965D02*
G01*
X168142433Y-81222919D01*
X168172665Y-81239079D01*
X168199170Y-81260830D01*
X168220921Y-81287335D01*
X168237081Y-81317567D01*
X168247035Y-81350382D01*
X168251000Y-81390640D01*
X168251000Y-82109360D01*
X168247035Y-82149618D01*
X168237081Y-82182433D01*
X168220921Y-82212665D01*
X168199170Y-82239170D01*
X168172665Y-82260921D01*
X168142433Y-82277081D01*
X168109618Y-82287035D01*
X168069360Y-82291000D01*
X167480640Y-82291000D01*
X167440382Y-82287035D01*
X167407567Y-82277081D01*
X167377335Y-82260921D01*
X167350830Y-82239170D01*
X167329079Y-82212665D01*
X167312919Y-82182433D01*
X167302965Y-82149618D01*
X167299000Y-82109360D01*
X167299000Y-81390640D01*
X167302965Y-81350382D01*
X167312919Y-81317567D01*
X167329079Y-81287335D01*
X167350830Y-81260830D01*
X167377335Y-81239079D01*
X167407567Y-81222919D01*
X167440382Y-81212965D01*
X167480640Y-81209000D01*
X168069360Y-81209000D01*
X168109618Y-81212965D01*
X168109618Y-81212965D01*
G37*
G36*
X166559618Y-81212965D02*
G01*
X166592433Y-81222919D01*
X166622665Y-81239079D01*
X166649170Y-81260830D01*
X166670921Y-81287335D01*
X166687081Y-81317567D01*
X166697035Y-81350382D01*
X166701000Y-81390640D01*
X166701000Y-82109360D01*
X166697035Y-82149618D01*
X166687081Y-82182433D01*
X166670921Y-82212665D01*
X166649170Y-82239170D01*
X166622665Y-82260921D01*
X166592433Y-82277081D01*
X166559618Y-82287035D01*
X166519360Y-82291000D01*
X165930640Y-82291000D01*
X165890382Y-82287035D01*
X165857567Y-82277081D01*
X165827335Y-82260921D01*
X165800830Y-82239170D01*
X165779079Y-82212665D01*
X165762919Y-82182433D01*
X165752965Y-82149618D01*
X165749000Y-82109360D01*
X165749000Y-81390640D01*
X165752965Y-81350382D01*
X165762919Y-81317567D01*
X165779079Y-81287335D01*
X165800830Y-81260830D01*
X165827335Y-81239079D01*
X165857567Y-81222919D01*
X165890382Y-81212965D01*
X165930640Y-81209000D01*
X166519360Y-81209000D01*
X166559618Y-81212965D01*
X166559618Y-81212965D01*
G37*
G36*
X149609618Y-81212965D02*
G01*
X149642433Y-81222919D01*
X149672665Y-81239079D01*
X149699170Y-81260830D01*
X149720921Y-81287335D01*
X149737081Y-81317567D01*
X149747035Y-81350382D01*
X149751000Y-81390640D01*
X149751000Y-82109360D01*
X149747035Y-82149618D01*
X149737081Y-82182433D01*
X149720921Y-82212665D01*
X149699170Y-82239170D01*
X149672665Y-82260921D01*
X149642433Y-82277081D01*
X149609618Y-82287035D01*
X149569360Y-82291000D01*
X148980640Y-82291000D01*
X148940382Y-82287035D01*
X148907567Y-82277081D01*
X148877335Y-82260921D01*
X148850830Y-82239170D01*
X148829079Y-82212665D01*
X148812919Y-82182433D01*
X148802965Y-82149618D01*
X148799000Y-82109360D01*
X148799000Y-81390640D01*
X148802965Y-81350382D01*
X148812919Y-81317567D01*
X148829079Y-81287335D01*
X148850830Y-81260830D01*
X148877335Y-81239079D01*
X148907567Y-81222919D01*
X148940382Y-81212965D01*
X148980640Y-81209000D01*
X149569360Y-81209000D01*
X149609618Y-81212965D01*
X149609618Y-81212965D01*
G37*
G36*
X148059618Y-81212965D02*
G01*
X148092433Y-81222919D01*
X148122665Y-81239079D01*
X148149170Y-81260830D01*
X148170921Y-81287335D01*
X148187081Y-81317567D01*
X148197035Y-81350382D01*
X148201000Y-81390640D01*
X148201000Y-82109360D01*
X148197035Y-82149618D01*
X148187081Y-82182433D01*
X148170921Y-82212665D01*
X148149170Y-82239170D01*
X148122665Y-82260921D01*
X148092433Y-82277081D01*
X148059618Y-82287035D01*
X148019360Y-82291000D01*
X147430640Y-82291000D01*
X147390382Y-82287035D01*
X147357567Y-82277081D01*
X147327335Y-82260921D01*
X147300830Y-82239170D01*
X147279079Y-82212665D01*
X147262919Y-82182433D01*
X147252965Y-82149618D01*
X147249000Y-82109360D01*
X147249000Y-81390640D01*
X147252965Y-81350382D01*
X147262919Y-81317567D01*
X147279079Y-81287335D01*
X147300830Y-81260830D01*
X147327335Y-81239079D01*
X147357567Y-81222919D01*
X147390382Y-81212965D01*
X147430640Y-81209000D01*
X148019360Y-81209000D01*
X148059618Y-81212965D01*
X148059618Y-81212965D01*
G37*
G36*
X137331694Y-78878633D02*
G01*
X137504095Y-78930931D01*
X137662983Y-79015858D01*
X137802249Y-79130151D01*
X137916542Y-79269417D01*
X138001469Y-79428305D01*
X138053767Y-79600706D01*
X138071425Y-79780000D01*
X138053767Y-79959294D01*
X138001469Y-80131695D01*
X137916542Y-80290583D01*
X137802249Y-80429849D01*
X137662983Y-80544142D01*
X137504095Y-80629069D01*
X137331694Y-80681367D01*
X137197331Y-80694600D01*
X136802669Y-80694600D01*
X136668306Y-80681367D01*
X136495905Y-80629069D01*
X136337017Y-80544142D01*
X136197751Y-80429849D01*
X136083458Y-80290583D01*
X135998531Y-80131695D01*
X135946233Y-79959294D01*
X135928575Y-79780000D01*
X135946233Y-79600706D01*
X135998531Y-79428305D01*
X136083458Y-79269417D01*
X136197751Y-79130151D01*
X136337017Y-79015858D01*
X136495905Y-78930931D01*
X136668306Y-78878633D01*
X136802669Y-78865400D01*
X137197331Y-78865400D01*
X137331694Y-78878633D01*
X137331694Y-78878633D01*
G37*
G36*
X149609618Y-79462965D02*
G01*
X149642433Y-79472919D01*
X149672665Y-79489079D01*
X149699170Y-79510830D01*
X149720921Y-79537335D01*
X149737081Y-79567567D01*
X149747035Y-79600382D01*
X149751000Y-79640640D01*
X149751000Y-80359360D01*
X149747035Y-80399618D01*
X149737081Y-80432433D01*
X149720921Y-80462665D01*
X149699170Y-80489170D01*
X149672665Y-80510921D01*
X149642433Y-80527081D01*
X149609618Y-80537035D01*
X149569360Y-80541000D01*
X148980640Y-80541000D01*
X148940382Y-80537035D01*
X148907567Y-80527081D01*
X148877335Y-80510921D01*
X148850830Y-80489170D01*
X148829079Y-80462665D01*
X148812919Y-80432433D01*
X148802965Y-80399618D01*
X148799000Y-80359360D01*
X148799000Y-79640640D01*
X148802965Y-79600382D01*
X148812919Y-79567567D01*
X148829079Y-79537335D01*
X148850830Y-79510830D01*
X148877335Y-79489079D01*
X148907567Y-79472919D01*
X148940382Y-79462965D01*
X148980640Y-79459000D01*
X149569360Y-79459000D01*
X149609618Y-79462965D01*
X149609618Y-79462965D01*
G37*
G36*
X148059618Y-79462965D02*
G01*
X148092433Y-79472919D01*
X148122665Y-79489079D01*
X148149170Y-79510830D01*
X148170921Y-79537335D01*
X148187081Y-79567567D01*
X148197035Y-79600382D01*
X148201000Y-79640640D01*
X148201000Y-80359360D01*
X148197035Y-80399618D01*
X148187081Y-80432433D01*
X148170921Y-80462665D01*
X148149170Y-80489170D01*
X148122665Y-80510921D01*
X148092433Y-80527081D01*
X148059618Y-80537035D01*
X148019360Y-80541000D01*
X147430640Y-80541000D01*
X147390382Y-80537035D01*
X147357567Y-80527081D01*
X147327335Y-80510921D01*
X147300830Y-80489170D01*
X147279079Y-80462665D01*
X147262919Y-80432433D01*
X147252965Y-80399618D01*
X147249000Y-80359360D01*
X147249000Y-79640640D01*
X147252965Y-79600382D01*
X147262919Y-79567567D01*
X147279079Y-79537335D01*
X147300830Y-79510830D01*
X147327335Y-79489079D01*
X147357567Y-79472919D01*
X147390382Y-79462965D01*
X147430640Y-79459000D01*
X148019360Y-79459000D01*
X148059618Y-79462965D01*
X148059618Y-79462965D01*
G37*
G36*
X168109618Y-79462965D02*
G01*
X168142433Y-79472919D01*
X168172665Y-79489079D01*
X168199170Y-79510830D01*
X168220921Y-79537335D01*
X168237081Y-79567567D01*
X168247035Y-79600382D01*
X168251000Y-79640640D01*
X168251000Y-80359360D01*
X168247035Y-80399618D01*
X168237081Y-80432433D01*
X168220921Y-80462665D01*
X168199170Y-80489170D01*
X168172665Y-80510921D01*
X168142433Y-80527081D01*
X168109618Y-80537035D01*
X168069360Y-80541000D01*
X167480640Y-80541000D01*
X167440382Y-80537035D01*
X167407567Y-80527081D01*
X167377335Y-80510921D01*
X167350830Y-80489170D01*
X167329079Y-80462665D01*
X167312919Y-80432433D01*
X167302965Y-80399618D01*
X167299000Y-80359360D01*
X167299000Y-79640640D01*
X167302965Y-79600382D01*
X167312919Y-79567567D01*
X167329079Y-79537335D01*
X167350830Y-79510830D01*
X167377335Y-79489079D01*
X167407567Y-79472919D01*
X167440382Y-79462965D01*
X167480640Y-79459000D01*
X168069360Y-79459000D01*
X168109618Y-79462965D01*
X168109618Y-79462965D01*
G37*
G36*
X185059618Y-79462965D02*
G01*
X185092433Y-79472919D01*
X185122665Y-79489079D01*
X185149170Y-79510830D01*
X185170921Y-79537335D01*
X185187081Y-79567567D01*
X185197035Y-79600382D01*
X185201000Y-79640640D01*
X185201000Y-80359360D01*
X185197035Y-80399618D01*
X185187081Y-80432433D01*
X185170921Y-80462665D01*
X185149170Y-80489170D01*
X185122665Y-80510921D01*
X185092433Y-80527081D01*
X185059618Y-80537035D01*
X185019360Y-80541000D01*
X184430640Y-80541000D01*
X184390382Y-80537035D01*
X184357567Y-80527081D01*
X184327335Y-80510921D01*
X184300830Y-80489170D01*
X184279079Y-80462665D01*
X184262919Y-80432433D01*
X184252965Y-80399618D01*
X184249000Y-80359360D01*
X184249000Y-79640640D01*
X184252965Y-79600382D01*
X184262919Y-79567567D01*
X184279079Y-79537335D01*
X184300830Y-79510830D01*
X184327335Y-79489079D01*
X184357567Y-79472919D01*
X184390382Y-79462965D01*
X184430640Y-79459000D01*
X185019360Y-79459000D01*
X185059618Y-79462965D01*
X185059618Y-79462965D01*
G37*
G36*
X186609618Y-79462965D02*
G01*
X186642433Y-79472919D01*
X186672665Y-79489079D01*
X186699170Y-79510830D01*
X186720921Y-79537335D01*
X186737081Y-79567567D01*
X186747035Y-79600382D01*
X186751000Y-79640640D01*
X186751000Y-80359360D01*
X186747035Y-80399618D01*
X186737081Y-80432433D01*
X186720921Y-80462665D01*
X186699170Y-80489170D01*
X186672665Y-80510921D01*
X186642433Y-80527081D01*
X186609618Y-80537035D01*
X186569360Y-80541000D01*
X185980640Y-80541000D01*
X185940382Y-80537035D01*
X185907567Y-80527081D01*
X185877335Y-80510921D01*
X185850830Y-80489170D01*
X185829079Y-80462665D01*
X185812919Y-80432433D01*
X185802965Y-80399618D01*
X185799000Y-80359360D01*
X185799000Y-79640640D01*
X185802965Y-79600382D01*
X185812919Y-79567567D01*
X185829079Y-79537335D01*
X185850830Y-79510830D01*
X185877335Y-79489079D01*
X185907567Y-79472919D01*
X185940382Y-79462965D01*
X185980640Y-79459000D01*
X186569360Y-79459000D01*
X186609618Y-79462965D01*
X186609618Y-79462965D01*
G37*
G36*
X166559618Y-79462965D02*
G01*
X166592433Y-79472919D01*
X166622665Y-79489079D01*
X166649170Y-79510830D01*
X166670921Y-79537335D01*
X166687081Y-79567567D01*
X166697035Y-79600382D01*
X166701000Y-79640640D01*
X166701000Y-80359360D01*
X166697035Y-80399618D01*
X166687081Y-80432433D01*
X166670921Y-80462665D01*
X166649170Y-80489170D01*
X166622665Y-80510921D01*
X166592433Y-80527081D01*
X166559618Y-80537035D01*
X166519360Y-80541000D01*
X165930640Y-80541000D01*
X165890382Y-80537035D01*
X165857567Y-80527081D01*
X165827335Y-80510921D01*
X165800830Y-80489170D01*
X165779079Y-80462665D01*
X165762919Y-80432433D01*
X165752965Y-80399618D01*
X165749000Y-80359360D01*
X165749000Y-79640640D01*
X165752965Y-79600382D01*
X165762919Y-79567567D01*
X165779079Y-79537335D01*
X165800830Y-79510830D01*
X165827335Y-79489079D01*
X165857567Y-79472919D01*
X165890382Y-79462965D01*
X165930640Y-79459000D01*
X166519360Y-79459000D01*
X166559618Y-79462965D01*
X166559618Y-79462965D01*
G37*
G36*
X172155536Y-79468301D02*
G01*
X172191622Y-79479248D01*
X172224892Y-79497031D01*
X172254044Y-79520956D01*
X172277969Y-79550108D01*
X172295752Y-79583378D01*
X172306699Y-79619464D01*
X172311000Y-79663138D01*
X172311000Y-80336862D01*
X172306699Y-80380536D01*
X172295752Y-80416622D01*
X172277969Y-80449892D01*
X172254044Y-80479044D01*
X172224892Y-80502969D01*
X172191622Y-80520752D01*
X172155536Y-80531699D01*
X172111862Y-80536000D01*
X171488138Y-80536000D01*
X171444464Y-80531699D01*
X171408378Y-80520752D01*
X171375108Y-80502969D01*
X171345956Y-80479044D01*
X171322031Y-80449892D01*
X171304248Y-80416622D01*
X171293301Y-80380536D01*
X171289000Y-80336862D01*
X171289000Y-79663138D01*
X171293301Y-79619464D01*
X171304248Y-79583378D01*
X171322031Y-79550108D01*
X171345956Y-79520956D01*
X171375108Y-79497031D01*
X171408378Y-79479248D01*
X171444464Y-79468301D01*
X171488138Y-79464000D01*
X172111862Y-79464000D01*
X172155536Y-79468301D01*
X172155536Y-79468301D01*
G37*
G36*
X170605536Y-79468301D02*
G01*
X170641622Y-79479248D01*
X170674892Y-79497031D01*
X170704044Y-79520956D01*
X170727969Y-79550108D01*
X170745752Y-79583378D01*
X170756699Y-79619464D01*
X170761000Y-79663138D01*
X170761000Y-80336862D01*
X170756699Y-80380536D01*
X170745752Y-80416622D01*
X170727969Y-80449892D01*
X170704044Y-80479044D01*
X170674892Y-80502969D01*
X170641622Y-80520752D01*
X170605536Y-80531699D01*
X170561862Y-80536000D01*
X169938138Y-80536000D01*
X169894464Y-80531699D01*
X169858378Y-80520752D01*
X169825108Y-80502969D01*
X169795956Y-80479044D01*
X169772031Y-80449892D01*
X169754248Y-80416622D01*
X169743301Y-80380536D01*
X169739000Y-80336862D01*
X169739000Y-79663138D01*
X169743301Y-79619464D01*
X169754248Y-79583378D01*
X169772031Y-79550108D01*
X169795956Y-79520956D01*
X169825108Y-79497031D01*
X169858378Y-79479248D01*
X169894464Y-79468301D01*
X169938138Y-79464000D01*
X170561862Y-79464000D01*
X170605536Y-79468301D01*
X170605536Y-79468301D01*
G37*
G36*
X190630536Y-79468301D02*
G01*
X190666622Y-79479248D01*
X190699892Y-79497031D01*
X190729044Y-79520956D01*
X190752969Y-79550108D01*
X190770752Y-79583378D01*
X190781699Y-79619464D01*
X190786000Y-79663138D01*
X190786000Y-80336862D01*
X190781699Y-80380536D01*
X190770752Y-80416622D01*
X190752969Y-80449892D01*
X190729044Y-80479044D01*
X190699892Y-80502969D01*
X190666622Y-80520752D01*
X190630536Y-80531699D01*
X190586862Y-80536000D01*
X189963138Y-80536000D01*
X189919464Y-80531699D01*
X189883378Y-80520752D01*
X189850108Y-80502969D01*
X189820956Y-80479044D01*
X189797031Y-80449892D01*
X189779248Y-80416622D01*
X189768301Y-80380536D01*
X189764000Y-80336862D01*
X189764000Y-79663138D01*
X189768301Y-79619464D01*
X189779248Y-79583378D01*
X189797031Y-79550108D01*
X189820956Y-79520956D01*
X189850108Y-79497031D01*
X189883378Y-79479248D01*
X189919464Y-79468301D01*
X189963138Y-79464000D01*
X190586862Y-79464000D01*
X190630536Y-79468301D01*
X190630536Y-79468301D01*
G37*
G36*
X189080536Y-79468301D02*
G01*
X189116622Y-79479248D01*
X189149892Y-79497031D01*
X189179044Y-79520956D01*
X189202969Y-79550108D01*
X189220752Y-79583378D01*
X189231699Y-79619464D01*
X189236000Y-79663138D01*
X189236000Y-80336862D01*
X189231699Y-80380536D01*
X189220752Y-80416622D01*
X189202969Y-80449892D01*
X189179044Y-80479044D01*
X189149892Y-80502969D01*
X189116622Y-80520752D01*
X189080536Y-80531699D01*
X189036862Y-80536000D01*
X188413138Y-80536000D01*
X188369464Y-80531699D01*
X188333378Y-80520752D01*
X188300108Y-80502969D01*
X188270956Y-80479044D01*
X188247031Y-80449892D01*
X188229248Y-80416622D01*
X188218301Y-80380536D01*
X188214000Y-80336862D01*
X188214000Y-79663138D01*
X188218301Y-79619464D01*
X188229248Y-79583378D01*
X188247031Y-79550108D01*
X188270956Y-79520956D01*
X188300108Y-79497031D01*
X188333378Y-79479248D01*
X188369464Y-79468301D01*
X188413138Y-79464000D01*
X189036862Y-79464000D01*
X189080536Y-79468301D01*
X189080536Y-79468301D01*
G37*
G36*
X153630536Y-79468301D02*
G01*
X153666622Y-79479248D01*
X153699892Y-79497031D01*
X153729044Y-79520956D01*
X153752969Y-79550108D01*
X153770752Y-79583378D01*
X153781699Y-79619464D01*
X153786000Y-79663138D01*
X153786000Y-80336862D01*
X153781699Y-80380536D01*
X153770752Y-80416622D01*
X153752969Y-80449892D01*
X153729044Y-80479044D01*
X153699892Y-80502969D01*
X153666622Y-80520752D01*
X153630536Y-80531699D01*
X153586862Y-80536000D01*
X152963138Y-80536000D01*
X152919464Y-80531699D01*
X152883378Y-80520752D01*
X152850108Y-80502969D01*
X152820956Y-80479044D01*
X152797031Y-80449892D01*
X152779248Y-80416622D01*
X152768301Y-80380536D01*
X152764000Y-80336862D01*
X152764000Y-79663138D01*
X152768301Y-79619464D01*
X152779248Y-79583378D01*
X152797031Y-79550108D01*
X152820956Y-79520956D01*
X152850108Y-79497031D01*
X152883378Y-79479248D01*
X152919464Y-79468301D01*
X152963138Y-79464000D01*
X153586862Y-79464000D01*
X153630536Y-79468301D01*
X153630536Y-79468301D01*
G37*
G36*
X152080536Y-79468301D02*
G01*
X152116622Y-79479248D01*
X152149892Y-79497031D01*
X152179044Y-79520956D01*
X152202969Y-79550108D01*
X152220752Y-79583378D01*
X152231699Y-79619464D01*
X152236000Y-79663138D01*
X152236000Y-80336862D01*
X152231699Y-80380536D01*
X152220752Y-80416622D01*
X152202969Y-80449892D01*
X152179044Y-80479044D01*
X152149892Y-80502969D01*
X152116622Y-80520752D01*
X152080536Y-80531699D01*
X152036862Y-80536000D01*
X151413138Y-80536000D01*
X151369464Y-80531699D01*
X151333378Y-80520752D01*
X151300108Y-80502969D01*
X151270956Y-80479044D01*
X151247031Y-80449892D01*
X151229248Y-80416622D01*
X151218301Y-80380536D01*
X151214000Y-80336862D01*
X151214000Y-79663138D01*
X151218301Y-79619464D01*
X151229248Y-79583378D01*
X151247031Y-79550108D01*
X151270956Y-79520956D01*
X151300108Y-79497031D01*
X151333378Y-79479248D01*
X151369464Y-79468301D01*
X151413138Y-79464000D01*
X152036862Y-79464000D01*
X152080536Y-79468301D01*
X152080536Y-79468301D01*
G37*
G36*
X137331694Y-76338633D02*
G01*
X137504095Y-76390931D01*
X137662983Y-76475858D01*
X137802249Y-76590151D01*
X137916542Y-76729417D01*
X138001469Y-76888305D01*
X138053767Y-77060706D01*
X138071425Y-77240000D01*
X138053767Y-77419294D01*
X138001469Y-77591695D01*
X137916542Y-77750583D01*
X137802249Y-77889849D01*
X137662983Y-78004142D01*
X137504095Y-78089069D01*
X137331694Y-78141367D01*
X137197331Y-78154600D01*
X136802669Y-78154600D01*
X136668306Y-78141367D01*
X136495905Y-78089069D01*
X136337017Y-78004142D01*
X136197751Y-77889849D01*
X136083458Y-77750583D01*
X135998531Y-77591695D01*
X135946233Y-77419294D01*
X135928575Y-77240000D01*
X135946233Y-77060706D01*
X135998531Y-76888305D01*
X136083458Y-76729417D01*
X136197751Y-76590151D01*
X136337017Y-76475858D01*
X136495905Y-76390931D01*
X136668306Y-76338633D01*
X136802669Y-76325400D01*
X137197331Y-76325400D01*
X137331694Y-76338633D01*
X137331694Y-76338633D01*
G37*
G36*
X149486000Y-77511000D02*
G01*
X148784000Y-77511000D01*
X148784000Y-75439000D01*
X149486000Y-75439000D01*
X149486000Y-77511000D01*
X149486000Y-77511000D01*
G37*
G36*
X148216000Y-77511000D02*
G01*
X147514000Y-77511000D01*
X147514000Y-75439000D01*
X148216000Y-75439000D01*
X148216000Y-77511000D01*
X148216000Y-77511000D01*
G37*
G36*
X146946000Y-77511000D02*
G01*
X146244000Y-77511000D01*
X146244000Y-75439000D01*
X146946000Y-75439000D01*
X146946000Y-77511000D01*
X146946000Y-77511000D01*
G37*
G36*
X145676000Y-77511000D02*
G01*
X144974000Y-77511000D01*
X144974000Y-75439000D01*
X145676000Y-75439000D01*
X145676000Y-77511000D01*
X145676000Y-77511000D01*
G37*
G36*
X144406000Y-77511000D02*
G01*
X143704000Y-77511000D01*
X143704000Y-75439000D01*
X144406000Y-75439000D01*
X144406000Y-77511000D01*
X144406000Y-77511000D01*
G37*
G36*
X182676000Y-77511000D02*
G01*
X181974000Y-77511000D01*
X181974000Y-75439000D01*
X182676000Y-75439000D01*
X182676000Y-77511000D01*
X182676000Y-77511000D01*
G37*
G36*
X181406000Y-77511000D02*
G01*
X180704000Y-77511000D01*
X180704000Y-75439000D01*
X181406000Y-75439000D01*
X181406000Y-77511000D01*
X181406000Y-77511000D01*
G37*
G36*
X183946000Y-77511000D02*
G01*
X183244000Y-77511000D01*
X183244000Y-75439000D01*
X183946000Y-75439000D01*
X183946000Y-77511000D01*
X183946000Y-77511000D01*
G37*
G36*
X185216000Y-77511000D02*
G01*
X184514000Y-77511000D01*
X184514000Y-75439000D01*
X185216000Y-75439000D01*
X185216000Y-77511000D01*
X185216000Y-77511000D01*
G37*
G36*
X186486000Y-77511000D02*
G01*
X185784000Y-77511000D01*
X185784000Y-75439000D01*
X186486000Y-75439000D01*
X186486000Y-77511000D01*
X186486000Y-77511000D01*
G37*
G36*
X187756000Y-77511000D02*
G01*
X187054000Y-77511000D01*
X187054000Y-75439000D01*
X187756000Y-75439000D01*
X187756000Y-77511000D01*
X187756000Y-77511000D01*
G37*
G36*
X189026000Y-77511000D02*
G01*
X188324000Y-77511000D01*
X188324000Y-75439000D01*
X189026000Y-75439000D01*
X189026000Y-77511000D01*
X189026000Y-77511000D01*
G37*
G36*
X190296000Y-77511000D02*
G01*
X189594000Y-77511000D01*
X189594000Y-75439000D01*
X190296000Y-75439000D01*
X190296000Y-77511000D01*
X190296000Y-77511000D01*
G37*
G36*
X162906000Y-77511000D02*
G01*
X162204000Y-77511000D01*
X162204000Y-75439000D01*
X162906000Y-75439000D01*
X162906000Y-77511000D01*
X162906000Y-77511000D01*
G37*
G36*
X164176000Y-77511000D02*
G01*
X163474000Y-77511000D01*
X163474000Y-75439000D01*
X164176000Y-75439000D01*
X164176000Y-77511000D01*
X164176000Y-77511000D01*
G37*
G36*
X165446000Y-77511000D02*
G01*
X164744000Y-77511000D01*
X164744000Y-75439000D01*
X165446000Y-75439000D01*
X165446000Y-77511000D01*
X165446000Y-77511000D01*
G37*
G36*
X166716000Y-77511000D02*
G01*
X166014000Y-77511000D01*
X166014000Y-75439000D01*
X166716000Y-75439000D01*
X166716000Y-77511000D01*
X166716000Y-77511000D01*
G37*
G36*
X167986000Y-77511000D02*
G01*
X167284000Y-77511000D01*
X167284000Y-75439000D01*
X167986000Y-75439000D01*
X167986000Y-77511000D01*
X167986000Y-77511000D01*
G37*
G36*
X169256000Y-77511000D02*
G01*
X168554000Y-77511000D01*
X168554000Y-75439000D01*
X169256000Y-75439000D01*
X169256000Y-77511000D01*
X169256000Y-77511000D01*
G37*
G36*
X150756000Y-77511000D02*
G01*
X150054000Y-77511000D01*
X150054000Y-75439000D01*
X150756000Y-75439000D01*
X150756000Y-77511000D01*
X150756000Y-77511000D01*
G37*
G36*
X171796000Y-77511000D02*
G01*
X171094000Y-77511000D01*
X171094000Y-75439000D01*
X171796000Y-75439000D01*
X171796000Y-77511000D01*
X171796000Y-77511000D01*
G37*
G36*
X170526000Y-77511000D02*
G01*
X169824000Y-77511000D01*
X169824000Y-75439000D01*
X170526000Y-75439000D01*
X170526000Y-77511000D01*
X170526000Y-77511000D01*
G37*
G36*
X152026000Y-77511000D02*
G01*
X151324000Y-77511000D01*
X151324000Y-75439000D01*
X152026000Y-75439000D01*
X152026000Y-77511000D01*
X152026000Y-77511000D01*
G37*
G36*
X153296000Y-77511000D02*
G01*
X152594000Y-77511000D01*
X152594000Y-75439000D01*
X153296000Y-75439000D01*
X153296000Y-77511000D01*
X153296000Y-77511000D01*
G37*
G36*
X137331694Y-73798633D02*
G01*
X137504095Y-73850931D01*
X137662983Y-73935858D01*
X137802249Y-74050151D01*
X137916542Y-74189417D01*
X138001469Y-74348305D01*
X138053767Y-74520706D01*
X138071425Y-74700000D01*
X138053767Y-74879294D01*
X138001469Y-75051695D01*
X137916542Y-75210583D01*
X137802249Y-75349849D01*
X137662983Y-75464142D01*
X137504095Y-75549069D01*
X137331694Y-75601367D01*
X137197331Y-75614600D01*
X136802669Y-75614600D01*
X136668306Y-75601367D01*
X136495905Y-75549069D01*
X136337017Y-75464142D01*
X136197751Y-75349849D01*
X136083458Y-75210583D01*
X135998531Y-75051695D01*
X135946233Y-74879294D01*
X135928575Y-74700000D01*
X135946233Y-74520706D01*
X135998531Y-74348305D01*
X136083458Y-74189417D01*
X136197751Y-74050151D01*
X136337017Y-73935858D01*
X136495905Y-73850931D01*
X136668306Y-73798633D01*
X136802669Y-73785400D01*
X137197331Y-73785400D01*
X137331694Y-73798633D01*
X137331694Y-73798633D01*
G37*
G36*
X155580536Y-74468301D02*
G01*
X155616622Y-74479248D01*
X155649892Y-74497031D01*
X155679044Y-74520956D01*
X155702969Y-74550108D01*
X155720752Y-74583378D01*
X155731699Y-74619464D01*
X155736000Y-74663138D01*
X155736000Y-75336862D01*
X155731699Y-75380536D01*
X155720752Y-75416622D01*
X155702969Y-75449892D01*
X155679044Y-75479044D01*
X155649892Y-75502969D01*
X155616622Y-75520752D01*
X155580536Y-75531699D01*
X155536862Y-75536000D01*
X154913138Y-75536000D01*
X154869464Y-75531699D01*
X154833378Y-75520752D01*
X154800108Y-75502969D01*
X154770956Y-75479044D01*
X154747031Y-75449892D01*
X154729248Y-75416622D01*
X154718301Y-75380536D01*
X154714000Y-75336862D01*
X154714000Y-74663138D01*
X154718301Y-74619464D01*
X154729248Y-74583378D01*
X154747031Y-74550108D01*
X154770956Y-74520956D01*
X154800108Y-74497031D01*
X154833378Y-74479248D01*
X154869464Y-74468301D01*
X154913138Y-74464000D01*
X155536862Y-74464000D01*
X155580536Y-74468301D01*
X155580536Y-74468301D01*
G37*
G36*
X157130536Y-74468301D02*
G01*
X157166622Y-74479248D01*
X157199892Y-74497031D01*
X157229044Y-74520956D01*
X157252969Y-74550108D01*
X157270752Y-74583378D01*
X157281699Y-74619464D01*
X157286000Y-74663138D01*
X157286000Y-75336862D01*
X157281699Y-75380536D01*
X157270752Y-75416622D01*
X157252969Y-75449892D01*
X157229044Y-75479044D01*
X157199892Y-75502969D01*
X157166622Y-75520752D01*
X157130536Y-75531699D01*
X157086862Y-75536000D01*
X156463138Y-75536000D01*
X156419464Y-75531699D01*
X156383378Y-75520752D01*
X156350108Y-75502969D01*
X156320956Y-75479044D01*
X156297031Y-75449892D01*
X156279248Y-75416622D01*
X156268301Y-75380536D01*
X156264000Y-75336862D01*
X156264000Y-74663138D01*
X156268301Y-74619464D01*
X156279248Y-74583378D01*
X156297031Y-74550108D01*
X156320956Y-74520956D01*
X156350108Y-74497031D01*
X156383378Y-74479248D01*
X156419464Y-74468301D01*
X156463138Y-74464000D01*
X157086862Y-74464000D01*
X157130536Y-74468301D01*
X157130536Y-74468301D01*
G37*
G36*
X174080536Y-74468301D02*
G01*
X174116622Y-74479248D01*
X174149892Y-74497031D01*
X174179044Y-74520956D01*
X174202969Y-74550108D01*
X174220752Y-74583378D01*
X174231699Y-74619464D01*
X174236000Y-74663138D01*
X174236000Y-75336862D01*
X174231699Y-75380536D01*
X174220752Y-75416622D01*
X174202969Y-75449892D01*
X174179044Y-75479044D01*
X174149892Y-75502969D01*
X174116622Y-75520752D01*
X174080536Y-75531699D01*
X174036862Y-75536000D01*
X173413138Y-75536000D01*
X173369464Y-75531699D01*
X173333378Y-75520752D01*
X173300108Y-75502969D01*
X173270956Y-75479044D01*
X173247031Y-75449892D01*
X173229248Y-75416622D01*
X173218301Y-75380536D01*
X173214000Y-75336862D01*
X173214000Y-74663138D01*
X173218301Y-74619464D01*
X173229248Y-74583378D01*
X173247031Y-74550108D01*
X173270956Y-74520956D01*
X173300108Y-74497031D01*
X173333378Y-74479248D01*
X173369464Y-74468301D01*
X173413138Y-74464000D01*
X174036862Y-74464000D01*
X174080536Y-74468301D01*
X174080536Y-74468301D01*
G37*
G36*
X175630536Y-74468301D02*
G01*
X175666622Y-74479248D01*
X175699892Y-74497031D01*
X175729044Y-74520956D01*
X175752969Y-74550108D01*
X175770752Y-74583378D01*
X175781699Y-74619464D01*
X175786000Y-74663138D01*
X175786000Y-75336862D01*
X175781699Y-75380536D01*
X175770752Y-75416622D01*
X175752969Y-75449892D01*
X175729044Y-75479044D01*
X175699892Y-75502969D01*
X175666622Y-75520752D01*
X175630536Y-75531699D01*
X175586862Y-75536000D01*
X174963138Y-75536000D01*
X174919464Y-75531699D01*
X174883378Y-75520752D01*
X174850108Y-75502969D01*
X174820956Y-75479044D01*
X174797031Y-75449892D01*
X174779248Y-75416622D01*
X174768301Y-75380536D01*
X174764000Y-75336862D01*
X174764000Y-74663138D01*
X174768301Y-74619464D01*
X174779248Y-74583378D01*
X174797031Y-74550108D01*
X174820956Y-74520956D01*
X174850108Y-74497031D01*
X174883378Y-74479248D01*
X174919464Y-74468301D01*
X174963138Y-74464000D01*
X175586862Y-74464000D01*
X175630536Y-74468301D01*
X175630536Y-74468301D01*
G37*
G36*
X192580536Y-74468301D02*
G01*
X192616622Y-74479248D01*
X192649892Y-74497031D01*
X192679044Y-74520956D01*
X192702969Y-74550108D01*
X192720752Y-74583378D01*
X192731699Y-74619464D01*
X192736000Y-74663138D01*
X192736000Y-75336862D01*
X192731699Y-75380536D01*
X192720752Y-75416622D01*
X192702969Y-75449892D01*
X192679044Y-75479044D01*
X192649892Y-75502969D01*
X192616622Y-75520752D01*
X192580536Y-75531699D01*
X192536862Y-75536000D01*
X191913138Y-75536000D01*
X191869464Y-75531699D01*
X191833378Y-75520752D01*
X191800108Y-75502969D01*
X191770956Y-75479044D01*
X191747031Y-75449892D01*
X191729248Y-75416622D01*
X191718301Y-75380536D01*
X191714000Y-75336862D01*
X191714000Y-74663138D01*
X191718301Y-74619464D01*
X191729248Y-74583378D01*
X191747031Y-74550108D01*
X191770956Y-74520956D01*
X191800108Y-74497031D01*
X191833378Y-74479248D01*
X191869464Y-74468301D01*
X191913138Y-74464000D01*
X192536862Y-74464000D01*
X192580536Y-74468301D01*
X192580536Y-74468301D01*
G37*
G36*
X194130536Y-74468301D02*
G01*
X194166622Y-74479248D01*
X194199892Y-74497031D01*
X194229044Y-74520956D01*
X194252969Y-74550108D01*
X194270752Y-74583378D01*
X194281699Y-74619464D01*
X194286000Y-74663138D01*
X194286000Y-75336862D01*
X194281699Y-75380536D01*
X194270752Y-75416622D01*
X194252969Y-75449892D01*
X194229044Y-75479044D01*
X194199892Y-75502969D01*
X194166622Y-75520752D01*
X194130536Y-75531699D01*
X194086862Y-75536000D01*
X193463138Y-75536000D01*
X193419464Y-75531699D01*
X193383378Y-75520752D01*
X193350108Y-75502969D01*
X193320956Y-75479044D01*
X193297031Y-75449892D01*
X193279248Y-75416622D01*
X193268301Y-75380536D01*
X193264000Y-75336862D01*
X193264000Y-74663138D01*
X193268301Y-74619464D01*
X193279248Y-74583378D01*
X193297031Y-74550108D01*
X193320956Y-74520956D01*
X193350108Y-74497031D01*
X193383378Y-74479248D01*
X193419464Y-74468301D01*
X193463138Y-74464000D01*
X194086862Y-74464000D01*
X194130536Y-74468301D01*
X194130536Y-74468301D01*
G37*
G36*
X155580536Y-72468301D02*
G01*
X155616622Y-72479248D01*
X155649892Y-72497031D01*
X155679044Y-72520956D01*
X155702969Y-72550108D01*
X155720752Y-72583378D01*
X155731699Y-72619464D01*
X155736000Y-72663138D01*
X155736000Y-73336862D01*
X155731699Y-73380536D01*
X155720752Y-73416622D01*
X155702969Y-73449892D01*
X155679044Y-73479044D01*
X155649892Y-73502969D01*
X155616622Y-73520752D01*
X155580536Y-73531699D01*
X155536862Y-73536000D01*
X154913138Y-73536000D01*
X154869464Y-73531699D01*
X154833378Y-73520752D01*
X154800108Y-73502969D01*
X154770956Y-73479044D01*
X154747031Y-73449892D01*
X154729248Y-73416622D01*
X154718301Y-73380536D01*
X154714000Y-73336862D01*
X154714000Y-72663138D01*
X154718301Y-72619464D01*
X154729248Y-72583378D01*
X154747031Y-72550108D01*
X154770956Y-72520956D01*
X154800108Y-72497031D01*
X154833378Y-72479248D01*
X154869464Y-72468301D01*
X154913138Y-72464000D01*
X155536862Y-72464000D01*
X155580536Y-72468301D01*
X155580536Y-72468301D01*
G37*
G36*
X157130536Y-72468301D02*
G01*
X157166622Y-72479248D01*
X157199892Y-72497031D01*
X157229044Y-72520956D01*
X157252969Y-72550108D01*
X157270752Y-72583378D01*
X157281699Y-72619464D01*
X157286000Y-72663138D01*
X157286000Y-73336862D01*
X157281699Y-73380536D01*
X157270752Y-73416622D01*
X157252969Y-73449892D01*
X157229044Y-73479044D01*
X157199892Y-73502969D01*
X157166622Y-73520752D01*
X157130536Y-73531699D01*
X157086862Y-73536000D01*
X156463138Y-73536000D01*
X156419464Y-73531699D01*
X156383378Y-73520752D01*
X156350108Y-73502969D01*
X156320956Y-73479044D01*
X156297031Y-73449892D01*
X156279248Y-73416622D01*
X156268301Y-73380536D01*
X156264000Y-73336862D01*
X156264000Y-72663138D01*
X156268301Y-72619464D01*
X156279248Y-72583378D01*
X156297031Y-72550108D01*
X156320956Y-72520956D01*
X156350108Y-72497031D01*
X156383378Y-72479248D01*
X156419464Y-72468301D01*
X156463138Y-72464000D01*
X157086862Y-72464000D01*
X157130536Y-72468301D01*
X157130536Y-72468301D01*
G37*
G36*
X174080536Y-72468301D02*
G01*
X174116622Y-72479248D01*
X174149892Y-72497031D01*
X174179044Y-72520956D01*
X174202969Y-72550108D01*
X174220752Y-72583378D01*
X174231699Y-72619464D01*
X174236000Y-72663138D01*
X174236000Y-73336862D01*
X174231699Y-73380536D01*
X174220752Y-73416622D01*
X174202969Y-73449892D01*
X174179044Y-73479044D01*
X174149892Y-73502969D01*
X174116622Y-73520752D01*
X174080536Y-73531699D01*
X174036862Y-73536000D01*
X173413138Y-73536000D01*
X173369464Y-73531699D01*
X173333378Y-73520752D01*
X173300108Y-73502969D01*
X173270956Y-73479044D01*
X173247031Y-73449892D01*
X173229248Y-73416622D01*
X173218301Y-73380536D01*
X173214000Y-73336862D01*
X173214000Y-72663138D01*
X173218301Y-72619464D01*
X173229248Y-72583378D01*
X173247031Y-72550108D01*
X173270956Y-72520956D01*
X173300108Y-72497031D01*
X173333378Y-72479248D01*
X173369464Y-72468301D01*
X173413138Y-72464000D01*
X174036862Y-72464000D01*
X174080536Y-72468301D01*
X174080536Y-72468301D01*
G37*
G36*
X175630536Y-72468301D02*
G01*
X175666622Y-72479248D01*
X175699892Y-72497031D01*
X175729044Y-72520956D01*
X175752969Y-72550108D01*
X175770752Y-72583378D01*
X175781699Y-72619464D01*
X175786000Y-72663138D01*
X175786000Y-73336862D01*
X175781699Y-73380536D01*
X175770752Y-73416622D01*
X175752969Y-73449892D01*
X175729044Y-73479044D01*
X175699892Y-73502969D01*
X175666622Y-73520752D01*
X175630536Y-73531699D01*
X175586862Y-73536000D01*
X174963138Y-73536000D01*
X174919464Y-73531699D01*
X174883378Y-73520752D01*
X174850108Y-73502969D01*
X174820956Y-73479044D01*
X174797031Y-73449892D01*
X174779248Y-73416622D01*
X174768301Y-73380536D01*
X174764000Y-73336862D01*
X174764000Y-72663138D01*
X174768301Y-72619464D01*
X174779248Y-72583378D01*
X174797031Y-72550108D01*
X174820956Y-72520956D01*
X174850108Y-72497031D01*
X174883378Y-72479248D01*
X174919464Y-72468301D01*
X174963138Y-72464000D01*
X175586862Y-72464000D01*
X175630536Y-72468301D01*
X175630536Y-72468301D01*
G37*
G36*
X192580536Y-72468301D02*
G01*
X192616622Y-72479248D01*
X192649892Y-72497031D01*
X192679044Y-72520956D01*
X192702969Y-72550108D01*
X192720752Y-72583378D01*
X192731699Y-72619464D01*
X192736000Y-72663138D01*
X192736000Y-73336862D01*
X192731699Y-73380536D01*
X192720752Y-73416622D01*
X192702969Y-73449892D01*
X192679044Y-73479044D01*
X192649892Y-73502969D01*
X192616622Y-73520752D01*
X192580536Y-73531699D01*
X192536862Y-73536000D01*
X191913138Y-73536000D01*
X191869464Y-73531699D01*
X191833378Y-73520752D01*
X191800108Y-73502969D01*
X191770956Y-73479044D01*
X191747031Y-73449892D01*
X191729248Y-73416622D01*
X191718301Y-73380536D01*
X191714000Y-73336862D01*
X191714000Y-72663138D01*
X191718301Y-72619464D01*
X191729248Y-72583378D01*
X191747031Y-72550108D01*
X191770956Y-72520956D01*
X191800108Y-72497031D01*
X191833378Y-72479248D01*
X191869464Y-72468301D01*
X191913138Y-72464000D01*
X192536862Y-72464000D01*
X192580536Y-72468301D01*
X192580536Y-72468301D01*
G37*
G36*
X194130536Y-72468301D02*
G01*
X194166622Y-72479248D01*
X194199892Y-72497031D01*
X194229044Y-72520956D01*
X194252969Y-72550108D01*
X194270752Y-72583378D01*
X194281699Y-72619464D01*
X194286000Y-72663138D01*
X194286000Y-73336862D01*
X194281699Y-73380536D01*
X194270752Y-73416622D01*
X194252969Y-73449892D01*
X194229044Y-73479044D01*
X194199892Y-73502969D01*
X194166622Y-73520752D01*
X194130536Y-73531699D01*
X194086862Y-73536000D01*
X193463138Y-73536000D01*
X193419464Y-73531699D01*
X193383378Y-73520752D01*
X193350108Y-73502969D01*
X193320956Y-73479044D01*
X193297031Y-73449892D01*
X193279248Y-73416622D01*
X193268301Y-73380536D01*
X193264000Y-73336862D01*
X193264000Y-72663138D01*
X193268301Y-72619464D01*
X193279248Y-72583378D01*
X193297031Y-72550108D01*
X193320956Y-72520956D01*
X193350108Y-72497031D01*
X193383378Y-72479248D01*
X193419464Y-72468301D01*
X193463138Y-72464000D01*
X194086862Y-72464000D01*
X194130536Y-72468301D01*
X194130536Y-72468301D01*
G37*
G36*
X137331694Y-71258633D02*
G01*
X137504095Y-71310931D01*
X137662983Y-71395858D01*
X137802249Y-71510151D01*
X137916542Y-71649417D01*
X138001469Y-71808305D01*
X138053767Y-71980706D01*
X138071425Y-72160000D01*
X138053767Y-72339294D01*
X138001469Y-72511695D01*
X137916542Y-72670583D01*
X137802249Y-72809849D01*
X137662983Y-72924142D01*
X137504095Y-73009069D01*
X137331694Y-73061367D01*
X137197331Y-73074600D01*
X136802669Y-73074600D01*
X136668306Y-73061367D01*
X136495905Y-73009069D01*
X136337017Y-72924142D01*
X136197751Y-72809849D01*
X136083458Y-72670583D01*
X135998531Y-72511695D01*
X135946233Y-72339294D01*
X135928575Y-72160000D01*
X135946233Y-71980706D01*
X135998531Y-71808305D01*
X136083458Y-71649417D01*
X136197751Y-71510151D01*
X136337017Y-71395858D01*
X136495905Y-71310931D01*
X136668306Y-71258633D01*
X136802669Y-71245400D01*
X137197331Y-71245400D01*
X137331694Y-71258633D01*
X137331694Y-71258633D01*
G37*
G36*
X183946000Y-72561000D02*
G01*
X183244000Y-72561000D01*
X183244000Y-70489000D01*
X183946000Y-70489000D01*
X183946000Y-72561000D01*
X183946000Y-72561000D01*
G37*
G36*
X185216000Y-72561000D02*
G01*
X184514000Y-72561000D01*
X184514000Y-70489000D01*
X185216000Y-70489000D01*
X185216000Y-72561000D01*
X185216000Y-72561000D01*
G37*
G36*
X186486000Y-72561000D02*
G01*
X185784000Y-72561000D01*
X185784000Y-70489000D01*
X186486000Y-70489000D01*
X186486000Y-72561000D01*
X186486000Y-72561000D01*
G37*
G36*
X187756000Y-72561000D02*
G01*
X187054000Y-72561000D01*
X187054000Y-70489000D01*
X187756000Y-70489000D01*
X187756000Y-72561000D01*
X187756000Y-72561000D01*
G37*
G36*
X171796000Y-72561000D02*
G01*
X171094000Y-72561000D01*
X171094000Y-70489000D01*
X171796000Y-70489000D01*
X171796000Y-72561000D01*
X171796000Y-72561000D01*
G37*
G36*
X170526000Y-72561000D02*
G01*
X169824000Y-72561000D01*
X169824000Y-70489000D01*
X170526000Y-70489000D01*
X170526000Y-72561000D01*
X170526000Y-72561000D01*
G37*
G36*
X169256000Y-72561000D02*
G01*
X168554000Y-72561000D01*
X168554000Y-70489000D01*
X169256000Y-70489000D01*
X169256000Y-72561000D01*
X169256000Y-72561000D01*
G37*
G36*
X167986000Y-72561000D02*
G01*
X167284000Y-72561000D01*
X167284000Y-70489000D01*
X167986000Y-70489000D01*
X167986000Y-72561000D01*
X167986000Y-72561000D01*
G37*
G36*
X166716000Y-72561000D02*
G01*
X166014000Y-72561000D01*
X166014000Y-70489000D01*
X166716000Y-70489000D01*
X166716000Y-72561000D01*
X166716000Y-72561000D01*
G37*
G36*
X165446000Y-72561000D02*
G01*
X164744000Y-72561000D01*
X164744000Y-70489000D01*
X165446000Y-70489000D01*
X165446000Y-72561000D01*
X165446000Y-72561000D01*
G37*
G36*
X164176000Y-72561000D02*
G01*
X163474000Y-72561000D01*
X163474000Y-70489000D01*
X164176000Y-70489000D01*
X164176000Y-72561000D01*
X164176000Y-72561000D01*
G37*
G36*
X162906000Y-72561000D02*
G01*
X162204000Y-72561000D01*
X162204000Y-70489000D01*
X162906000Y-70489000D01*
X162906000Y-72561000D01*
X162906000Y-72561000D01*
G37*
G36*
X189026000Y-72561000D02*
G01*
X188324000Y-72561000D01*
X188324000Y-70489000D01*
X189026000Y-70489000D01*
X189026000Y-72561000D01*
X189026000Y-72561000D01*
G37*
G36*
X144406000Y-72561000D02*
G01*
X143704000Y-72561000D01*
X143704000Y-70489000D01*
X144406000Y-70489000D01*
X144406000Y-72561000D01*
X144406000Y-72561000D01*
G37*
G36*
X181406000Y-72561000D02*
G01*
X180704000Y-72561000D01*
X180704000Y-70489000D01*
X181406000Y-70489000D01*
X181406000Y-72561000D01*
X181406000Y-72561000D01*
G37*
G36*
X190296000Y-72561000D02*
G01*
X189594000Y-72561000D01*
X189594000Y-70489000D01*
X190296000Y-70489000D01*
X190296000Y-72561000D01*
X190296000Y-72561000D01*
G37*
G36*
X182676000Y-72561000D02*
G01*
X181974000Y-72561000D01*
X181974000Y-70489000D01*
X182676000Y-70489000D01*
X182676000Y-72561000D01*
X182676000Y-72561000D01*
G37*
G36*
X153296000Y-72561000D02*
G01*
X152594000Y-72561000D01*
X152594000Y-70489000D01*
X153296000Y-70489000D01*
X153296000Y-72561000D01*
X153296000Y-72561000D01*
G37*
G36*
X152026000Y-72561000D02*
G01*
X151324000Y-72561000D01*
X151324000Y-70489000D01*
X152026000Y-70489000D01*
X152026000Y-72561000D01*
X152026000Y-72561000D01*
G37*
G36*
X150756000Y-72561000D02*
G01*
X150054000Y-72561000D01*
X150054000Y-70489000D01*
X150756000Y-70489000D01*
X150756000Y-72561000D01*
X150756000Y-72561000D01*
G37*
G36*
X149486000Y-72561000D02*
G01*
X148784000Y-72561000D01*
X148784000Y-70489000D01*
X149486000Y-70489000D01*
X149486000Y-72561000D01*
X149486000Y-72561000D01*
G37*
G36*
X148216000Y-72561000D02*
G01*
X147514000Y-72561000D01*
X147514000Y-70489000D01*
X148216000Y-70489000D01*
X148216000Y-72561000D01*
X148216000Y-72561000D01*
G37*
G36*
X145676000Y-72561000D02*
G01*
X144974000Y-72561000D01*
X144974000Y-70489000D01*
X145676000Y-70489000D01*
X145676000Y-72561000D01*
X145676000Y-72561000D01*
G37*
G36*
X146946000Y-72561000D02*
G01*
X146244000Y-72561000D01*
X146244000Y-70489000D01*
X146946000Y-70489000D01*
X146946000Y-72561000D01*
X146946000Y-72561000D01*
G37*
G36*
X137331694Y-68718633D02*
G01*
X137504095Y-68770931D01*
X137662983Y-68855858D01*
X137802249Y-68970151D01*
X137916542Y-69109417D01*
X138001469Y-69268305D01*
X138053767Y-69440706D01*
X138071425Y-69620000D01*
X138053767Y-69799294D01*
X138001469Y-69971695D01*
X137916542Y-70130583D01*
X137802249Y-70269849D01*
X137662983Y-70384142D01*
X137504095Y-70469069D01*
X137331694Y-70521367D01*
X137197331Y-70534600D01*
X136802669Y-70534600D01*
X136668306Y-70521367D01*
X136495905Y-70469069D01*
X136337017Y-70384142D01*
X136197751Y-70269849D01*
X136083458Y-70130583D01*
X135998531Y-69971695D01*
X135946233Y-69799294D01*
X135928575Y-69620000D01*
X135946233Y-69440706D01*
X135998531Y-69268305D01*
X136083458Y-69109417D01*
X136197751Y-68970151D01*
X136337017Y-68855858D01*
X136495905Y-68770931D01*
X136668306Y-68718633D01*
X136802669Y-68705400D01*
X137197331Y-68705400D01*
X137331694Y-68718633D01*
X137331694Y-68718633D01*
G37*
G36*
X189130536Y-67968301D02*
G01*
X189166622Y-67979248D01*
X189199892Y-67997031D01*
X189229044Y-68020956D01*
X189252969Y-68050108D01*
X189270752Y-68083378D01*
X189281699Y-68119464D01*
X189286000Y-68163138D01*
X189286000Y-68836862D01*
X189281699Y-68880536D01*
X189270752Y-68916622D01*
X189252969Y-68949892D01*
X189229044Y-68979044D01*
X189199892Y-69002969D01*
X189166622Y-69020752D01*
X189130536Y-69031699D01*
X189086862Y-69036000D01*
X188463138Y-69036000D01*
X188419464Y-69031699D01*
X188383378Y-69020752D01*
X188350108Y-69002969D01*
X188320956Y-68979044D01*
X188297031Y-68949892D01*
X188279248Y-68916622D01*
X188268301Y-68880536D01*
X188264000Y-68836862D01*
X188264000Y-68163138D01*
X188268301Y-68119464D01*
X188279248Y-68083378D01*
X188297031Y-68050108D01*
X188320956Y-68020956D01*
X188350108Y-67997031D01*
X188383378Y-67979248D01*
X188419464Y-67968301D01*
X188463138Y-67964000D01*
X189086862Y-67964000D01*
X189130536Y-67968301D01*
X189130536Y-67968301D01*
G37*
G36*
X187580536Y-67968301D02*
G01*
X187616622Y-67979248D01*
X187649892Y-67997031D01*
X187679044Y-68020956D01*
X187702969Y-68050108D01*
X187720752Y-68083378D01*
X187731699Y-68119464D01*
X187736000Y-68163138D01*
X187736000Y-68836862D01*
X187731699Y-68880536D01*
X187720752Y-68916622D01*
X187702969Y-68949892D01*
X187679044Y-68979044D01*
X187649892Y-69002969D01*
X187616622Y-69020752D01*
X187580536Y-69031699D01*
X187536862Y-69036000D01*
X186913138Y-69036000D01*
X186869464Y-69031699D01*
X186833378Y-69020752D01*
X186800108Y-69002969D01*
X186770956Y-68979044D01*
X186747031Y-68949892D01*
X186729248Y-68916622D01*
X186718301Y-68880536D01*
X186714000Y-68836862D01*
X186714000Y-68163138D01*
X186718301Y-68119464D01*
X186729248Y-68083378D01*
X186747031Y-68050108D01*
X186770956Y-68020956D01*
X186800108Y-67997031D01*
X186833378Y-67979248D01*
X186869464Y-67968301D01*
X186913138Y-67964000D01*
X187536862Y-67964000D01*
X187580536Y-67968301D01*
X187580536Y-67968301D01*
G37*
G36*
X184130536Y-67968301D02*
G01*
X184166622Y-67979248D01*
X184199892Y-67997031D01*
X184229044Y-68020956D01*
X184252969Y-68050108D01*
X184270752Y-68083378D01*
X184281699Y-68119464D01*
X184286000Y-68163138D01*
X184286000Y-68836862D01*
X184281699Y-68880536D01*
X184270752Y-68916622D01*
X184252969Y-68949892D01*
X184229044Y-68979044D01*
X184199892Y-69002969D01*
X184166622Y-69020752D01*
X184130536Y-69031699D01*
X184086862Y-69036000D01*
X183463138Y-69036000D01*
X183419464Y-69031699D01*
X183383378Y-69020752D01*
X183350108Y-69002969D01*
X183320956Y-68979044D01*
X183297031Y-68949892D01*
X183279248Y-68916622D01*
X183268301Y-68880536D01*
X183264000Y-68836862D01*
X183264000Y-68163138D01*
X183268301Y-68119464D01*
X183279248Y-68083378D01*
X183297031Y-68050108D01*
X183320956Y-68020956D01*
X183350108Y-67997031D01*
X183383378Y-67979248D01*
X183419464Y-67968301D01*
X183463138Y-67964000D01*
X184086862Y-67964000D01*
X184130536Y-67968301D01*
X184130536Y-67968301D01*
G37*
G36*
X182580536Y-67968301D02*
G01*
X182616622Y-67979248D01*
X182649892Y-67997031D01*
X182679044Y-68020956D01*
X182702969Y-68050108D01*
X182720752Y-68083378D01*
X182731699Y-68119464D01*
X182736000Y-68163138D01*
X182736000Y-68836862D01*
X182731699Y-68880536D01*
X182720752Y-68916622D01*
X182702969Y-68949892D01*
X182679044Y-68979044D01*
X182649892Y-69002969D01*
X182616622Y-69020752D01*
X182580536Y-69031699D01*
X182536862Y-69036000D01*
X181913138Y-69036000D01*
X181869464Y-69031699D01*
X181833378Y-69020752D01*
X181800108Y-69002969D01*
X181770956Y-68979044D01*
X181747031Y-68949892D01*
X181729248Y-68916622D01*
X181718301Y-68880536D01*
X181714000Y-68836862D01*
X181714000Y-68163138D01*
X181718301Y-68119464D01*
X181729248Y-68083378D01*
X181747031Y-68050108D01*
X181770956Y-68020956D01*
X181800108Y-67997031D01*
X181833378Y-67979248D01*
X181869464Y-67968301D01*
X181913138Y-67964000D01*
X182536862Y-67964000D01*
X182580536Y-67968301D01*
X182580536Y-67968301D01*
G37*
G36*
X170630536Y-67968301D02*
G01*
X170666622Y-67979248D01*
X170699892Y-67997031D01*
X170729044Y-68020956D01*
X170752969Y-68050108D01*
X170770752Y-68083378D01*
X170781699Y-68119464D01*
X170786000Y-68163138D01*
X170786000Y-68836862D01*
X170781699Y-68880536D01*
X170770752Y-68916622D01*
X170752969Y-68949892D01*
X170729044Y-68979044D01*
X170699892Y-69002969D01*
X170666622Y-69020752D01*
X170630536Y-69031699D01*
X170586862Y-69036000D01*
X169963138Y-69036000D01*
X169919464Y-69031699D01*
X169883378Y-69020752D01*
X169850108Y-69002969D01*
X169820956Y-68979044D01*
X169797031Y-68949892D01*
X169779248Y-68916622D01*
X169768301Y-68880536D01*
X169764000Y-68836862D01*
X169764000Y-68163138D01*
X169768301Y-68119464D01*
X169779248Y-68083378D01*
X169797031Y-68050108D01*
X169820956Y-68020956D01*
X169850108Y-67997031D01*
X169883378Y-67979248D01*
X169919464Y-67968301D01*
X169963138Y-67964000D01*
X170586862Y-67964000D01*
X170630536Y-67968301D01*
X170630536Y-67968301D01*
G37*
G36*
X169080536Y-67968301D02*
G01*
X169116622Y-67979248D01*
X169149892Y-67997031D01*
X169179044Y-68020956D01*
X169202969Y-68050108D01*
X169220752Y-68083378D01*
X169231699Y-68119464D01*
X169236000Y-68163138D01*
X169236000Y-68836862D01*
X169231699Y-68880536D01*
X169220752Y-68916622D01*
X169202969Y-68949892D01*
X169179044Y-68979044D01*
X169149892Y-69002969D01*
X169116622Y-69020752D01*
X169080536Y-69031699D01*
X169036862Y-69036000D01*
X168413138Y-69036000D01*
X168369464Y-69031699D01*
X168333378Y-69020752D01*
X168300108Y-69002969D01*
X168270956Y-68979044D01*
X168247031Y-68949892D01*
X168229248Y-68916622D01*
X168218301Y-68880536D01*
X168214000Y-68836862D01*
X168214000Y-68163138D01*
X168218301Y-68119464D01*
X168229248Y-68083378D01*
X168247031Y-68050108D01*
X168270956Y-68020956D01*
X168300108Y-67997031D01*
X168333378Y-67979248D01*
X168369464Y-67968301D01*
X168413138Y-67964000D01*
X169036862Y-67964000D01*
X169080536Y-67968301D01*
X169080536Y-67968301D01*
G37*
G36*
X165630536Y-67968301D02*
G01*
X165666622Y-67979248D01*
X165699892Y-67997031D01*
X165729044Y-68020956D01*
X165752969Y-68050108D01*
X165770752Y-68083378D01*
X165781699Y-68119464D01*
X165786000Y-68163138D01*
X165786000Y-68836862D01*
X165781699Y-68880536D01*
X165770752Y-68916622D01*
X165752969Y-68949892D01*
X165729044Y-68979044D01*
X165699892Y-69002969D01*
X165666622Y-69020752D01*
X165630536Y-69031699D01*
X165586862Y-69036000D01*
X164963138Y-69036000D01*
X164919464Y-69031699D01*
X164883378Y-69020752D01*
X164850108Y-69002969D01*
X164820956Y-68979044D01*
X164797031Y-68949892D01*
X164779248Y-68916622D01*
X164768301Y-68880536D01*
X164764000Y-68836862D01*
X164764000Y-68163138D01*
X164768301Y-68119464D01*
X164779248Y-68083378D01*
X164797031Y-68050108D01*
X164820956Y-68020956D01*
X164850108Y-67997031D01*
X164883378Y-67979248D01*
X164919464Y-67968301D01*
X164963138Y-67964000D01*
X165586862Y-67964000D01*
X165630536Y-67968301D01*
X165630536Y-67968301D01*
G37*
G36*
X164080536Y-67968301D02*
G01*
X164116622Y-67979248D01*
X164149892Y-67997031D01*
X164179044Y-68020956D01*
X164202969Y-68050108D01*
X164220752Y-68083378D01*
X164231699Y-68119464D01*
X164236000Y-68163138D01*
X164236000Y-68836862D01*
X164231699Y-68880536D01*
X164220752Y-68916622D01*
X164202969Y-68949892D01*
X164179044Y-68979044D01*
X164149892Y-69002969D01*
X164116622Y-69020752D01*
X164080536Y-69031699D01*
X164036862Y-69036000D01*
X163413138Y-69036000D01*
X163369464Y-69031699D01*
X163333378Y-69020752D01*
X163300108Y-69002969D01*
X163270956Y-68979044D01*
X163247031Y-68949892D01*
X163229248Y-68916622D01*
X163218301Y-68880536D01*
X163214000Y-68836862D01*
X163214000Y-68163138D01*
X163218301Y-68119464D01*
X163229248Y-68083378D01*
X163247031Y-68050108D01*
X163270956Y-68020956D01*
X163300108Y-67997031D01*
X163333378Y-67979248D01*
X163369464Y-67968301D01*
X163413138Y-67964000D01*
X164036862Y-67964000D01*
X164080536Y-67968301D01*
X164080536Y-67968301D01*
G37*
G36*
X152130536Y-67968301D02*
G01*
X152166622Y-67979248D01*
X152199892Y-67997031D01*
X152229044Y-68020956D01*
X152252969Y-68050108D01*
X152270752Y-68083378D01*
X152281699Y-68119464D01*
X152286000Y-68163138D01*
X152286000Y-68836862D01*
X152281699Y-68880536D01*
X152270752Y-68916622D01*
X152252969Y-68949892D01*
X152229044Y-68979044D01*
X152199892Y-69002969D01*
X152166622Y-69020752D01*
X152130536Y-69031699D01*
X152086862Y-69036000D01*
X151463138Y-69036000D01*
X151419464Y-69031699D01*
X151383378Y-69020752D01*
X151350108Y-69002969D01*
X151320956Y-68979044D01*
X151297031Y-68949892D01*
X151279248Y-68916622D01*
X151268301Y-68880536D01*
X151264000Y-68836862D01*
X151264000Y-68163138D01*
X151268301Y-68119464D01*
X151279248Y-68083378D01*
X151297031Y-68050108D01*
X151320956Y-68020956D01*
X151350108Y-67997031D01*
X151383378Y-67979248D01*
X151419464Y-67968301D01*
X151463138Y-67964000D01*
X152086862Y-67964000D01*
X152130536Y-67968301D01*
X152130536Y-67968301D01*
G37*
G36*
X150580536Y-67968301D02*
G01*
X150616622Y-67979248D01*
X150649892Y-67997031D01*
X150679044Y-68020956D01*
X150702969Y-68050108D01*
X150720752Y-68083378D01*
X150731699Y-68119464D01*
X150736000Y-68163138D01*
X150736000Y-68836862D01*
X150731699Y-68880536D01*
X150720752Y-68916622D01*
X150702969Y-68949892D01*
X150679044Y-68979044D01*
X150649892Y-69002969D01*
X150616622Y-69020752D01*
X150580536Y-69031699D01*
X150536862Y-69036000D01*
X149913138Y-69036000D01*
X149869464Y-69031699D01*
X149833378Y-69020752D01*
X149800108Y-69002969D01*
X149770956Y-68979044D01*
X149747031Y-68949892D01*
X149729248Y-68916622D01*
X149718301Y-68880536D01*
X149714000Y-68836862D01*
X149714000Y-68163138D01*
X149718301Y-68119464D01*
X149729248Y-68083378D01*
X149747031Y-68050108D01*
X149770956Y-68020956D01*
X149800108Y-67997031D01*
X149833378Y-67979248D01*
X149869464Y-67968301D01*
X149913138Y-67964000D01*
X150536862Y-67964000D01*
X150580536Y-67968301D01*
X150580536Y-67968301D01*
G37*
G36*
X147130536Y-67968301D02*
G01*
X147166622Y-67979248D01*
X147199892Y-67997031D01*
X147229044Y-68020956D01*
X147252969Y-68050108D01*
X147270752Y-68083378D01*
X147281699Y-68119464D01*
X147286000Y-68163138D01*
X147286000Y-68836862D01*
X147281699Y-68880536D01*
X147270752Y-68916622D01*
X147252969Y-68949892D01*
X147229044Y-68979044D01*
X147199892Y-69002969D01*
X147166622Y-69020752D01*
X147130536Y-69031699D01*
X147086862Y-69036000D01*
X146463138Y-69036000D01*
X146419464Y-69031699D01*
X146383378Y-69020752D01*
X146350108Y-69002969D01*
X146320956Y-68979044D01*
X146297031Y-68949892D01*
X146279248Y-68916622D01*
X146268301Y-68880536D01*
X146264000Y-68836862D01*
X146264000Y-68163138D01*
X146268301Y-68119464D01*
X146279248Y-68083378D01*
X146297031Y-68050108D01*
X146320956Y-68020956D01*
X146350108Y-67997031D01*
X146383378Y-67979248D01*
X146419464Y-67968301D01*
X146463138Y-67964000D01*
X147086862Y-67964000D01*
X147130536Y-67968301D01*
X147130536Y-67968301D01*
G37*
G36*
X145580536Y-67968301D02*
G01*
X145616622Y-67979248D01*
X145649892Y-67997031D01*
X145679044Y-68020956D01*
X145702969Y-68050108D01*
X145720752Y-68083378D01*
X145731699Y-68119464D01*
X145736000Y-68163138D01*
X145736000Y-68836862D01*
X145731699Y-68880536D01*
X145720752Y-68916622D01*
X145702969Y-68949892D01*
X145679044Y-68979044D01*
X145649892Y-69002969D01*
X145616622Y-69020752D01*
X145580536Y-69031699D01*
X145536862Y-69036000D01*
X144913138Y-69036000D01*
X144869464Y-69031699D01*
X144833378Y-69020752D01*
X144800108Y-69002969D01*
X144770956Y-68979044D01*
X144747031Y-68949892D01*
X144729248Y-68916622D01*
X144718301Y-68880536D01*
X144714000Y-68836862D01*
X144714000Y-68163138D01*
X144718301Y-68119464D01*
X144729248Y-68083378D01*
X144747031Y-68050108D01*
X144770956Y-68020956D01*
X144800108Y-67997031D01*
X144833378Y-67979248D01*
X144869464Y-67968301D01*
X144913138Y-67964000D01*
X145536862Y-67964000D01*
X145580536Y-67968301D01*
X145580536Y-67968301D01*
G37*
G36*
X137331694Y-66178633D02*
G01*
X137504095Y-66230931D01*
X137662983Y-66315858D01*
X137802249Y-66430151D01*
X137916542Y-66569417D01*
X138001469Y-66728305D01*
X138053767Y-66900706D01*
X138071425Y-67080000D01*
X138053767Y-67259294D01*
X138001469Y-67431695D01*
X137916542Y-67590583D01*
X137802249Y-67729849D01*
X137662983Y-67844142D01*
X137504095Y-67929069D01*
X137331694Y-67981367D01*
X137197331Y-67994600D01*
X136802669Y-67994600D01*
X136668306Y-67981367D01*
X136495905Y-67929069D01*
X136337017Y-67844142D01*
X136197751Y-67729849D01*
X136083458Y-67590583D01*
X135998531Y-67431695D01*
X135946233Y-67259294D01*
X135928575Y-67080000D01*
X135946233Y-66900706D01*
X135998531Y-66728305D01*
X136083458Y-66569417D01*
X136197751Y-66430151D01*
X136337017Y-66315858D01*
X136495905Y-66230931D01*
X136668306Y-66178633D01*
X136802669Y-66165400D01*
X137197331Y-66165400D01*
X137331694Y-66178633D01*
X137331694Y-66178633D01*
G37*
G36*
X147380536Y-66268301D02*
G01*
X147416622Y-66279248D01*
X147449892Y-66297031D01*
X147479044Y-66320956D01*
X147502969Y-66350108D01*
X147520752Y-66383378D01*
X147531699Y-66419464D01*
X147536000Y-66463138D01*
X147536000Y-67086862D01*
X147531699Y-67130536D01*
X147520752Y-67166622D01*
X147502969Y-67199892D01*
X147479044Y-67229044D01*
X147449892Y-67252969D01*
X147416622Y-67270752D01*
X147380536Y-67281699D01*
X147336862Y-67286000D01*
X146663138Y-67286000D01*
X146619464Y-67281699D01*
X146583378Y-67270752D01*
X146550108Y-67252969D01*
X146520956Y-67229044D01*
X146497031Y-67199892D01*
X146479248Y-67166622D01*
X146468301Y-67130536D01*
X146464000Y-67086862D01*
X146464000Y-66463138D01*
X146468301Y-66419464D01*
X146479248Y-66383378D01*
X146497031Y-66350108D01*
X146520956Y-66320956D01*
X146550108Y-66297031D01*
X146583378Y-66279248D01*
X146619464Y-66268301D01*
X146663138Y-66264000D01*
X147336862Y-66264000D01*
X147380536Y-66268301D01*
X147380536Y-66268301D01*
G37*
G36*
X165880536Y-66268301D02*
G01*
X165916622Y-66279248D01*
X165949892Y-66297031D01*
X165979044Y-66320956D01*
X166002969Y-66350108D01*
X166020752Y-66383378D01*
X166031699Y-66419464D01*
X166036000Y-66463138D01*
X166036000Y-67086862D01*
X166031699Y-67130536D01*
X166020752Y-67166622D01*
X166002969Y-67199892D01*
X165979044Y-67229044D01*
X165949892Y-67252969D01*
X165916622Y-67270752D01*
X165880536Y-67281699D01*
X165836862Y-67286000D01*
X165163138Y-67286000D01*
X165119464Y-67281699D01*
X165083378Y-67270752D01*
X165050108Y-67252969D01*
X165020956Y-67229044D01*
X164997031Y-67199892D01*
X164979248Y-67166622D01*
X164968301Y-67130536D01*
X164964000Y-67086862D01*
X164964000Y-66463138D01*
X164968301Y-66419464D01*
X164979248Y-66383378D01*
X164997031Y-66350108D01*
X165020956Y-66320956D01*
X165050108Y-66297031D01*
X165083378Y-66279248D01*
X165119464Y-66268301D01*
X165163138Y-66264000D01*
X165836862Y-66264000D01*
X165880536Y-66268301D01*
X165880536Y-66268301D01*
G37*
G36*
X184380536Y-66268301D02*
G01*
X184416622Y-66279248D01*
X184449892Y-66297031D01*
X184479044Y-66320956D01*
X184502969Y-66350108D01*
X184520752Y-66383378D01*
X184531699Y-66419464D01*
X184536000Y-66463138D01*
X184536000Y-67086862D01*
X184531699Y-67130536D01*
X184520752Y-67166622D01*
X184502969Y-67199892D01*
X184479044Y-67229044D01*
X184449892Y-67252969D01*
X184416622Y-67270752D01*
X184380536Y-67281699D01*
X184336862Y-67286000D01*
X183663138Y-67286000D01*
X183619464Y-67281699D01*
X183583378Y-67270752D01*
X183550108Y-67252969D01*
X183520956Y-67229044D01*
X183497031Y-67199892D01*
X183479248Y-67166622D01*
X183468301Y-67130536D01*
X183464000Y-67086862D01*
X183464000Y-66463138D01*
X183468301Y-66419464D01*
X183479248Y-66383378D01*
X183497031Y-66350108D01*
X183520956Y-66320956D01*
X183550108Y-66297031D01*
X183583378Y-66279248D01*
X183619464Y-66268301D01*
X183663138Y-66264000D01*
X184336862Y-66264000D01*
X184380536Y-66268301D01*
X184380536Y-66268301D01*
G37*
G36*
X182399618Y-66302965D02*
G01*
X182432433Y-66312919D01*
X182462665Y-66329079D01*
X182489170Y-66350830D01*
X182510921Y-66377335D01*
X182527081Y-66407567D01*
X182537035Y-66440382D01*
X182541000Y-66480640D01*
X182541000Y-67069360D01*
X182537035Y-67109618D01*
X182527081Y-67142433D01*
X182510921Y-67172665D01*
X182489170Y-67199170D01*
X182462665Y-67220921D01*
X182432433Y-67237081D01*
X182399618Y-67247035D01*
X182359360Y-67251000D01*
X181640640Y-67251000D01*
X181600382Y-67247035D01*
X181567567Y-67237081D01*
X181537335Y-67220921D01*
X181510830Y-67199170D01*
X181489079Y-67172665D01*
X181472919Y-67142433D01*
X181462965Y-67109618D01*
X181459000Y-67069360D01*
X181459000Y-66480640D01*
X181462965Y-66440382D01*
X181472919Y-66407567D01*
X181489079Y-66377335D01*
X181510830Y-66350830D01*
X181537335Y-66329079D01*
X181567567Y-66312919D01*
X181600382Y-66302965D01*
X181640640Y-66299000D01*
X182359360Y-66299000D01*
X182399618Y-66302965D01*
X182399618Y-66302965D01*
G37*
G36*
X189399618Y-66302965D02*
G01*
X189432433Y-66312919D01*
X189462665Y-66329079D01*
X189489170Y-66350830D01*
X189510921Y-66377335D01*
X189527081Y-66407567D01*
X189537035Y-66440382D01*
X189541000Y-66480640D01*
X189541000Y-67069360D01*
X189537035Y-67109618D01*
X189527081Y-67142433D01*
X189510921Y-67172665D01*
X189489170Y-67199170D01*
X189462665Y-67220921D01*
X189432433Y-67237081D01*
X189399618Y-67247035D01*
X189359360Y-67251000D01*
X188640640Y-67251000D01*
X188600382Y-67247035D01*
X188567567Y-67237081D01*
X188537335Y-67220921D01*
X188510830Y-67199170D01*
X188489079Y-67172665D01*
X188472919Y-67142433D01*
X188462965Y-67109618D01*
X188459000Y-67069360D01*
X188459000Y-66480640D01*
X188462965Y-66440382D01*
X188472919Y-66407567D01*
X188489079Y-66377335D01*
X188510830Y-66350830D01*
X188537335Y-66329079D01*
X188567567Y-66312919D01*
X188600382Y-66302965D01*
X188640640Y-66299000D01*
X189359360Y-66299000D01*
X189399618Y-66302965D01*
X189399618Y-66302965D01*
G37*
G36*
X187399618Y-66302965D02*
G01*
X187432433Y-66312919D01*
X187462665Y-66329079D01*
X187489170Y-66350830D01*
X187510921Y-66377335D01*
X187527081Y-66407567D01*
X187537035Y-66440382D01*
X187541000Y-66480640D01*
X187541000Y-67069360D01*
X187537035Y-67109618D01*
X187527081Y-67142433D01*
X187510921Y-67172665D01*
X187489170Y-67199170D01*
X187462665Y-67220921D01*
X187432433Y-67237081D01*
X187399618Y-67247035D01*
X187359360Y-67251000D01*
X186640640Y-67251000D01*
X186600382Y-67247035D01*
X186567567Y-67237081D01*
X186537335Y-67220921D01*
X186510830Y-67199170D01*
X186489079Y-67172665D01*
X186472919Y-67142433D01*
X186462965Y-67109618D01*
X186459000Y-67069360D01*
X186459000Y-66480640D01*
X186462965Y-66440382D01*
X186472919Y-66407567D01*
X186489079Y-66377335D01*
X186510830Y-66350830D01*
X186537335Y-66329079D01*
X186567567Y-66312919D01*
X186600382Y-66302965D01*
X186640640Y-66299000D01*
X187359360Y-66299000D01*
X187399618Y-66302965D01*
X187399618Y-66302965D01*
G37*
G36*
X170899618Y-66302965D02*
G01*
X170932433Y-66312919D01*
X170962665Y-66329079D01*
X170989170Y-66350830D01*
X171010921Y-66377335D01*
X171027081Y-66407567D01*
X171037035Y-66440382D01*
X171041000Y-66480640D01*
X171041000Y-67069360D01*
X171037035Y-67109618D01*
X171027081Y-67142433D01*
X171010921Y-67172665D01*
X170989170Y-67199170D01*
X170962665Y-67220921D01*
X170932433Y-67237081D01*
X170899618Y-67247035D01*
X170859360Y-67251000D01*
X170140640Y-67251000D01*
X170100382Y-67247035D01*
X170067567Y-67237081D01*
X170037335Y-67220921D01*
X170010830Y-67199170D01*
X169989079Y-67172665D01*
X169972919Y-67142433D01*
X169962965Y-67109618D01*
X169959000Y-67069360D01*
X169959000Y-66480640D01*
X169962965Y-66440382D01*
X169972919Y-66407567D01*
X169989079Y-66377335D01*
X170010830Y-66350830D01*
X170037335Y-66329079D01*
X170067567Y-66312919D01*
X170100382Y-66302965D01*
X170140640Y-66299000D01*
X170859360Y-66299000D01*
X170899618Y-66302965D01*
X170899618Y-66302965D01*
G37*
G36*
X168899618Y-66302965D02*
G01*
X168932433Y-66312919D01*
X168962665Y-66329079D01*
X168989170Y-66350830D01*
X169010921Y-66377335D01*
X169027081Y-66407567D01*
X169037035Y-66440382D01*
X169041000Y-66480640D01*
X169041000Y-67069360D01*
X169037035Y-67109618D01*
X169027081Y-67142433D01*
X169010921Y-67172665D01*
X168989170Y-67199170D01*
X168962665Y-67220921D01*
X168932433Y-67237081D01*
X168899618Y-67247035D01*
X168859360Y-67251000D01*
X168140640Y-67251000D01*
X168100382Y-67247035D01*
X168067567Y-67237081D01*
X168037335Y-67220921D01*
X168010830Y-67199170D01*
X167989079Y-67172665D01*
X167972919Y-67142433D01*
X167962965Y-67109618D01*
X167959000Y-67069360D01*
X167959000Y-66480640D01*
X167962965Y-66440382D01*
X167972919Y-66407567D01*
X167989079Y-66377335D01*
X168010830Y-66350830D01*
X168037335Y-66329079D01*
X168067567Y-66312919D01*
X168100382Y-66302965D01*
X168140640Y-66299000D01*
X168859360Y-66299000D01*
X168899618Y-66302965D01*
X168899618Y-66302965D01*
G37*
G36*
X163899618Y-66302965D02*
G01*
X163932433Y-66312919D01*
X163962665Y-66329079D01*
X163989170Y-66350830D01*
X164010921Y-66377335D01*
X164027081Y-66407567D01*
X164037035Y-66440382D01*
X164041000Y-66480640D01*
X164041000Y-67069360D01*
X164037035Y-67109618D01*
X164027081Y-67142433D01*
X164010921Y-67172665D01*
X163989170Y-67199170D01*
X163962665Y-67220921D01*
X163932433Y-67237081D01*
X163899618Y-67247035D01*
X163859360Y-67251000D01*
X163140640Y-67251000D01*
X163100382Y-67247035D01*
X163067567Y-67237081D01*
X163037335Y-67220921D01*
X163010830Y-67199170D01*
X162989079Y-67172665D01*
X162972919Y-67142433D01*
X162962965Y-67109618D01*
X162959000Y-67069360D01*
X162959000Y-66480640D01*
X162962965Y-66440382D01*
X162972919Y-66407567D01*
X162989079Y-66377335D01*
X163010830Y-66350830D01*
X163037335Y-66329079D01*
X163067567Y-66312919D01*
X163100382Y-66302965D01*
X163140640Y-66299000D01*
X163859360Y-66299000D01*
X163899618Y-66302965D01*
X163899618Y-66302965D01*
G37*
G36*
X152399618Y-66302965D02*
G01*
X152432433Y-66312919D01*
X152462665Y-66329079D01*
X152489170Y-66350830D01*
X152510921Y-66377335D01*
X152527081Y-66407567D01*
X152537035Y-66440382D01*
X152541000Y-66480640D01*
X152541000Y-67069360D01*
X152537035Y-67109618D01*
X152527081Y-67142433D01*
X152510921Y-67172665D01*
X152489170Y-67199170D01*
X152462665Y-67220921D01*
X152432433Y-67237081D01*
X152399618Y-67247035D01*
X152359360Y-67251000D01*
X151640640Y-67251000D01*
X151600382Y-67247035D01*
X151567567Y-67237081D01*
X151537335Y-67220921D01*
X151510830Y-67199170D01*
X151489079Y-67172665D01*
X151472919Y-67142433D01*
X151462965Y-67109618D01*
X151459000Y-67069360D01*
X151459000Y-66480640D01*
X151462965Y-66440382D01*
X151472919Y-66407567D01*
X151489079Y-66377335D01*
X151510830Y-66350830D01*
X151537335Y-66329079D01*
X151567567Y-66312919D01*
X151600382Y-66302965D01*
X151640640Y-66299000D01*
X152359360Y-66299000D01*
X152399618Y-66302965D01*
X152399618Y-66302965D01*
G37*
G36*
X150399618Y-66302965D02*
G01*
X150432433Y-66312919D01*
X150462665Y-66329079D01*
X150489170Y-66350830D01*
X150510921Y-66377335D01*
X150527081Y-66407567D01*
X150537035Y-66440382D01*
X150541000Y-66480640D01*
X150541000Y-67069360D01*
X150537035Y-67109618D01*
X150527081Y-67142433D01*
X150510921Y-67172665D01*
X150489170Y-67199170D01*
X150462665Y-67220921D01*
X150432433Y-67237081D01*
X150399618Y-67247035D01*
X150359360Y-67251000D01*
X149640640Y-67251000D01*
X149600382Y-67247035D01*
X149567567Y-67237081D01*
X149537335Y-67220921D01*
X149510830Y-67199170D01*
X149489079Y-67172665D01*
X149472919Y-67142433D01*
X149462965Y-67109618D01*
X149459000Y-67069360D01*
X149459000Y-66480640D01*
X149462965Y-66440382D01*
X149472919Y-66407567D01*
X149489079Y-66377335D01*
X149510830Y-66350830D01*
X149537335Y-66329079D01*
X149567567Y-66312919D01*
X149600382Y-66302965D01*
X149640640Y-66299000D01*
X150359360Y-66299000D01*
X150399618Y-66302965D01*
X150399618Y-66302965D01*
G37*
G36*
X145399618Y-66302965D02*
G01*
X145432433Y-66312919D01*
X145462665Y-66329079D01*
X145489170Y-66350830D01*
X145510921Y-66377335D01*
X145527081Y-66407567D01*
X145537035Y-66440382D01*
X145541000Y-66480640D01*
X145541000Y-67069360D01*
X145537035Y-67109618D01*
X145527081Y-67142433D01*
X145510921Y-67172665D01*
X145489170Y-67199170D01*
X145462665Y-67220921D01*
X145432433Y-67237081D01*
X145399618Y-67247035D01*
X145359360Y-67251000D01*
X144640640Y-67251000D01*
X144600382Y-67247035D01*
X144567567Y-67237081D01*
X144537335Y-67220921D01*
X144510830Y-67199170D01*
X144489079Y-67172665D01*
X144472919Y-67142433D01*
X144462965Y-67109618D01*
X144459000Y-67069360D01*
X144459000Y-66480640D01*
X144462965Y-66440382D01*
X144472919Y-66407567D01*
X144489079Y-66377335D01*
X144510830Y-66350830D01*
X144537335Y-66329079D01*
X144567567Y-66312919D01*
X144600382Y-66302965D01*
X144640640Y-66299000D01*
X145359360Y-66299000D01*
X145399618Y-66302965D01*
X145399618Y-66302965D01*
G37*
G36*
X184380536Y-64718301D02*
G01*
X184416622Y-64729248D01*
X184449892Y-64747031D01*
X184479044Y-64770956D01*
X184502969Y-64800108D01*
X184520752Y-64833378D01*
X184531699Y-64869464D01*
X184536000Y-64913138D01*
X184536000Y-65536862D01*
X184531699Y-65580536D01*
X184520752Y-65616622D01*
X184502969Y-65649892D01*
X184479044Y-65679044D01*
X184449892Y-65702969D01*
X184416622Y-65720752D01*
X184380536Y-65731699D01*
X184336862Y-65736000D01*
X183663138Y-65736000D01*
X183619464Y-65731699D01*
X183583378Y-65720752D01*
X183550108Y-65702969D01*
X183520956Y-65679044D01*
X183497031Y-65649892D01*
X183479248Y-65616622D01*
X183468301Y-65580536D01*
X183464000Y-65536862D01*
X183464000Y-64913138D01*
X183468301Y-64869464D01*
X183479248Y-64833378D01*
X183497031Y-64800108D01*
X183520956Y-64770956D01*
X183550108Y-64747031D01*
X183583378Y-64729248D01*
X183619464Y-64718301D01*
X183663138Y-64714000D01*
X184336862Y-64714000D01*
X184380536Y-64718301D01*
X184380536Y-64718301D01*
G37*
G36*
X165880536Y-64718301D02*
G01*
X165916622Y-64729248D01*
X165949892Y-64747031D01*
X165979044Y-64770956D01*
X166002969Y-64800108D01*
X166020752Y-64833378D01*
X166031699Y-64869464D01*
X166036000Y-64913138D01*
X166036000Y-65536862D01*
X166031699Y-65580536D01*
X166020752Y-65616622D01*
X166002969Y-65649892D01*
X165979044Y-65679044D01*
X165949892Y-65702969D01*
X165916622Y-65720752D01*
X165880536Y-65731699D01*
X165836862Y-65736000D01*
X165163138Y-65736000D01*
X165119464Y-65731699D01*
X165083378Y-65720752D01*
X165050108Y-65702969D01*
X165020956Y-65679044D01*
X164997031Y-65649892D01*
X164979248Y-65616622D01*
X164968301Y-65580536D01*
X164964000Y-65536862D01*
X164964000Y-64913138D01*
X164968301Y-64869464D01*
X164979248Y-64833378D01*
X164997031Y-64800108D01*
X165020956Y-64770956D01*
X165050108Y-64747031D01*
X165083378Y-64729248D01*
X165119464Y-64718301D01*
X165163138Y-64714000D01*
X165836862Y-64714000D01*
X165880536Y-64718301D01*
X165880536Y-64718301D01*
G37*
G36*
X147380536Y-64718301D02*
G01*
X147416622Y-64729248D01*
X147449892Y-64747031D01*
X147479044Y-64770956D01*
X147502969Y-64800108D01*
X147520752Y-64833378D01*
X147531699Y-64869464D01*
X147536000Y-64913138D01*
X147536000Y-65536862D01*
X147531699Y-65580536D01*
X147520752Y-65616622D01*
X147502969Y-65649892D01*
X147479044Y-65679044D01*
X147449892Y-65702969D01*
X147416622Y-65720752D01*
X147380536Y-65731699D01*
X147336862Y-65736000D01*
X146663138Y-65736000D01*
X146619464Y-65731699D01*
X146583378Y-65720752D01*
X146550108Y-65702969D01*
X146520956Y-65679044D01*
X146497031Y-65649892D01*
X146479248Y-65616622D01*
X146468301Y-65580536D01*
X146464000Y-65536862D01*
X146464000Y-64913138D01*
X146468301Y-64869464D01*
X146479248Y-64833378D01*
X146497031Y-64800108D01*
X146520956Y-64770956D01*
X146550108Y-64747031D01*
X146583378Y-64729248D01*
X146619464Y-64718301D01*
X146663138Y-64714000D01*
X147336862Y-64714000D01*
X147380536Y-64718301D01*
X147380536Y-64718301D01*
G37*
G36*
X145399618Y-64752965D02*
G01*
X145432433Y-64762919D01*
X145462665Y-64779079D01*
X145489170Y-64800830D01*
X145510921Y-64827335D01*
X145527081Y-64857567D01*
X145537035Y-64890382D01*
X145541000Y-64930640D01*
X145541000Y-65519360D01*
X145537035Y-65559618D01*
X145527081Y-65592433D01*
X145510921Y-65622665D01*
X145489170Y-65649170D01*
X145462665Y-65670921D01*
X145432433Y-65687081D01*
X145399618Y-65697035D01*
X145359360Y-65701000D01*
X144640640Y-65701000D01*
X144600382Y-65697035D01*
X144567567Y-65687081D01*
X144537335Y-65670921D01*
X144510830Y-65649170D01*
X144489079Y-65622665D01*
X144472919Y-65592433D01*
X144462965Y-65559618D01*
X144459000Y-65519360D01*
X144459000Y-64930640D01*
X144462965Y-64890382D01*
X144472919Y-64857567D01*
X144489079Y-64827335D01*
X144510830Y-64800830D01*
X144537335Y-64779079D01*
X144567567Y-64762919D01*
X144600382Y-64752965D01*
X144640640Y-64749000D01*
X145359360Y-64749000D01*
X145399618Y-64752965D01*
X145399618Y-64752965D01*
G37*
G36*
X187399618Y-64752965D02*
G01*
X187432433Y-64762919D01*
X187462665Y-64779079D01*
X187489170Y-64800830D01*
X187510921Y-64827335D01*
X187527081Y-64857567D01*
X187537035Y-64890382D01*
X187541000Y-64930640D01*
X187541000Y-65519360D01*
X187537035Y-65559618D01*
X187527081Y-65592433D01*
X187510921Y-65622665D01*
X187489170Y-65649170D01*
X187462665Y-65670921D01*
X187432433Y-65687081D01*
X187399618Y-65697035D01*
X187359360Y-65701000D01*
X186640640Y-65701000D01*
X186600382Y-65697035D01*
X186567567Y-65687081D01*
X186537335Y-65670921D01*
X186510830Y-65649170D01*
X186489079Y-65622665D01*
X186472919Y-65592433D01*
X186462965Y-65559618D01*
X186459000Y-65519360D01*
X186459000Y-64930640D01*
X186462965Y-64890382D01*
X186472919Y-64857567D01*
X186489079Y-64827335D01*
X186510830Y-64800830D01*
X186537335Y-64779079D01*
X186567567Y-64762919D01*
X186600382Y-64752965D01*
X186640640Y-64749000D01*
X187359360Y-64749000D01*
X187399618Y-64752965D01*
X187399618Y-64752965D01*
G37*
G36*
X163899618Y-64752965D02*
G01*
X163932433Y-64762919D01*
X163962665Y-64779079D01*
X163989170Y-64800830D01*
X164010921Y-64827335D01*
X164027081Y-64857567D01*
X164037035Y-64890382D01*
X164041000Y-64930640D01*
X164041000Y-65519360D01*
X164037035Y-65559618D01*
X164027081Y-65592433D01*
X164010921Y-65622665D01*
X163989170Y-65649170D01*
X163962665Y-65670921D01*
X163932433Y-65687081D01*
X163899618Y-65697035D01*
X163859360Y-65701000D01*
X163140640Y-65701000D01*
X163100382Y-65697035D01*
X163067567Y-65687081D01*
X163037335Y-65670921D01*
X163010830Y-65649170D01*
X162989079Y-65622665D01*
X162972919Y-65592433D01*
X162962965Y-65559618D01*
X162959000Y-65519360D01*
X162959000Y-64930640D01*
X162962965Y-64890382D01*
X162972919Y-64857567D01*
X162989079Y-64827335D01*
X163010830Y-64800830D01*
X163037335Y-64779079D01*
X163067567Y-64762919D01*
X163100382Y-64752965D01*
X163140640Y-64749000D01*
X163859360Y-64749000D01*
X163899618Y-64752965D01*
X163899618Y-64752965D01*
G37*
G36*
X189399618Y-64752965D02*
G01*
X189432433Y-64762919D01*
X189462665Y-64779079D01*
X189489170Y-64800830D01*
X189510921Y-64827335D01*
X189527081Y-64857567D01*
X189537035Y-64890382D01*
X189541000Y-64930640D01*
X189541000Y-65519360D01*
X189537035Y-65559618D01*
X189527081Y-65592433D01*
X189510921Y-65622665D01*
X189489170Y-65649170D01*
X189462665Y-65670921D01*
X189432433Y-65687081D01*
X189399618Y-65697035D01*
X189359360Y-65701000D01*
X188640640Y-65701000D01*
X188600382Y-65697035D01*
X188567567Y-65687081D01*
X188537335Y-65670921D01*
X188510830Y-65649170D01*
X188489079Y-65622665D01*
X188472919Y-65592433D01*
X188462965Y-65559618D01*
X188459000Y-65519360D01*
X188459000Y-64930640D01*
X188462965Y-64890382D01*
X188472919Y-64857567D01*
X188489079Y-64827335D01*
X188510830Y-64800830D01*
X188537335Y-64779079D01*
X188567567Y-64762919D01*
X188600382Y-64752965D01*
X188640640Y-64749000D01*
X189359360Y-64749000D01*
X189399618Y-64752965D01*
X189399618Y-64752965D01*
G37*
G36*
X182399618Y-64752965D02*
G01*
X182432433Y-64762919D01*
X182462665Y-64779079D01*
X182489170Y-64800830D01*
X182510921Y-64827335D01*
X182527081Y-64857567D01*
X182537035Y-64890382D01*
X182541000Y-64930640D01*
X182541000Y-65519360D01*
X182537035Y-65559618D01*
X182527081Y-65592433D01*
X182510921Y-65622665D01*
X182489170Y-65649170D01*
X182462665Y-65670921D01*
X182432433Y-65687081D01*
X182399618Y-65697035D01*
X182359360Y-65701000D01*
X181640640Y-65701000D01*
X181600382Y-65697035D01*
X181567567Y-65687081D01*
X181537335Y-65670921D01*
X181510830Y-65649170D01*
X181489079Y-65622665D01*
X181472919Y-65592433D01*
X181462965Y-65559618D01*
X181459000Y-65519360D01*
X181459000Y-64930640D01*
X181462965Y-64890382D01*
X181472919Y-64857567D01*
X181489079Y-64827335D01*
X181510830Y-64800830D01*
X181537335Y-64779079D01*
X181567567Y-64762919D01*
X181600382Y-64752965D01*
X181640640Y-64749000D01*
X182359360Y-64749000D01*
X182399618Y-64752965D01*
X182399618Y-64752965D01*
G37*
G36*
X150399618Y-64752965D02*
G01*
X150432433Y-64762919D01*
X150462665Y-64779079D01*
X150489170Y-64800830D01*
X150510921Y-64827335D01*
X150527081Y-64857567D01*
X150537035Y-64890382D01*
X150541000Y-64930640D01*
X150541000Y-65519360D01*
X150537035Y-65559618D01*
X150527081Y-65592433D01*
X150510921Y-65622665D01*
X150489170Y-65649170D01*
X150462665Y-65670921D01*
X150432433Y-65687081D01*
X150399618Y-65697035D01*
X150359360Y-65701000D01*
X149640640Y-65701000D01*
X149600382Y-65697035D01*
X149567567Y-65687081D01*
X149537335Y-65670921D01*
X149510830Y-65649170D01*
X149489079Y-65622665D01*
X149472919Y-65592433D01*
X149462965Y-65559618D01*
X149459000Y-65519360D01*
X149459000Y-64930640D01*
X149462965Y-64890382D01*
X149472919Y-64857567D01*
X149489079Y-64827335D01*
X149510830Y-64800830D01*
X149537335Y-64779079D01*
X149567567Y-64762919D01*
X149600382Y-64752965D01*
X149640640Y-64749000D01*
X150359360Y-64749000D01*
X150399618Y-64752965D01*
X150399618Y-64752965D01*
G37*
G36*
X152399618Y-64752965D02*
G01*
X152432433Y-64762919D01*
X152462665Y-64779079D01*
X152489170Y-64800830D01*
X152510921Y-64827335D01*
X152527081Y-64857567D01*
X152537035Y-64890382D01*
X152541000Y-64930640D01*
X152541000Y-65519360D01*
X152537035Y-65559618D01*
X152527081Y-65592433D01*
X152510921Y-65622665D01*
X152489170Y-65649170D01*
X152462665Y-65670921D01*
X152432433Y-65687081D01*
X152399618Y-65697035D01*
X152359360Y-65701000D01*
X151640640Y-65701000D01*
X151600382Y-65697035D01*
X151567567Y-65687081D01*
X151537335Y-65670921D01*
X151510830Y-65649170D01*
X151489079Y-65622665D01*
X151472919Y-65592433D01*
X151462965Y-65559618D01*
X151459000Y-65519360D01*
X151459000Y-64930640D01*
X151462965Y-64890382D01*
X151472919Y-64857567D01*
X151489079Y-64827335D01*
X151510830Y-64800830D01*
X151537335Y-64779079D01*
X151567567Y-64762919D01*
X151600382Y-64752965D01*
X151640640Y-64749000D01*
X152359360Y-64749000D01*
X152399618Y-64752965D01*
X152399618Y-64752965D01*
G37*
G36*
X170899618Y-64752965D02*
G01*
X170932433Y-64762919D01*
X170962665Y-64779079D01*
X170989170Y-64800830D01*
X171010921Y-64827335D01*
X171027081Y-64857567D01*
X171037035Y-64890382D01*
X171041000Y-64930640D01*
X171041000Y-65519360D01*
X171037035Y-65559618D01*
X171027081Y-65592433D01*
X171010921Y-65622665D01*
X170989170Y-65649170D01*
X170962665Y-65670921D01*
X170932433Y-65687081D01*
X170899618Y-65697035D01*
X170859360Y-65701000D01*
X170140640Y-65701000D01*
X170100382Y-65697035D01*
X170067567Y-65687081D01*
X170037335Y-65670921D01*
X170010830Y-65649170D01*
X169989079Y-65622665D01*
X169972919Y-65592433D01*
X169962965Y-65559618D01*
X169959000Y-65519360D01*
X169959000Y-64930640D01*
X169962965Y-64890382D01*
X169972919Y-64857567D01*
X169989079Y-64827335D01*
X170010830Y-64800830D01*
X170037335Y-64779079D01*
X170067567Y-64762919D01*
X170100382Y-64752965D01*
X170140640Y-64749000D01*
X170859360Y-64749000D01*
X170899618Y-64752965D01*
X170899618Y-64752965D01*
G37*
G36*
X168899618Y-64752965D02*
G01*
X168932433Y-64762919D01*
X168962665Y-64779079D01*
X168989170Y-64800830D01*
X169010921Y-64827335D01*
X169027081Y-64857567D01*
X169037035Y-64890382D01*
X169041000Y-64930640D01*
X169041000Y-65519360D01*
X169037035Y-65559618D01*
X169027081Y-65592433D01*
X169010921Y-65622665D01*
X168989170Y-65649170D01*
X168962665Y-65670921D01*
X168932433Y-65687081D01*
X168899618Y-65697035D01*
X168859360Y-65701000D01*
X168140640Y-65701000D01*
X168100382Y-65697035D01*
X168067567Y-65687081D01*
X168037335Y-65670921D01*
X168010830Y-65649170D01*
X167989079Y-65622665D01*
X167972919Y-65592433D01*
X167962965Y-65559618D01*
X167959000Y-65519360D01*
X167959000Y-64930640D01*
X167962965Y-64890382D01*
X167972919Y-64857567D01*
X167989079Y-64827335D01*
X168010830Y-64800830D01*
X168037335Y-64779079D01*
X168067567Y-64762919D01*
X168100382Y-64752965D01*
X168140640Y-64749000D01*
X168859360Y-64749000D01*
X168899618Y-64752965D01*
X168899618Y-64752965D01*
G37*
G36*
X137331694Y-63638633D02*
G01*
X137504095Y-63690931D01*
X137662983Y-63775858D01*
X137802249Y-63890151D01*
X137916542Y-64029417D01*
X138001469Y-64188305D01*
X138053767Y-64360706D01*
X138071425Y-64540000D01*
X138053767Y-64719294D01*
X138001469Y-64891695D01*
X137916542Y-65050583D01*
X137802249Y-65189849D01*
X137662983Y-65304142D01*
X137504095Y-65389069D01*
X137331694Y-65441367D01*
X137197331Y-65454600D01*
X136802669Y-65454600D01*
X136668306Y-65441367D01*
X136495905Y-65389069D01*
X136337017Y-65304142D01*
X136197751Y-65189849D01*
X136083458Y-65050583D01*
X135998531Y-64891695D01*
X135946233Y-64719294D01*
X135928575Y-64540000D01*
X135946233Y-64360706D01*
X135998531Y-64188305D01*
X136083458Y-64029417D01*
X136197751Y-63890151D01*
X136337017Y-63775858D01*
X136495905Y-63690931D01*
X136668306Y-63638633D01*
X136802669Y-63625400D01*
X137197331Y-63625400D01*
X137331694Y-63638633D01*
X137331694Y-63638633D01*
G37*
G36*
X143599294Y-60946233D02*
G01*
X143771695Y-60998531D01*
X143930583Y-61083458D01*
X144069849Y-61197751D01*
X144184142Y-61337017D01*
X144269069Y-61495906D01*
X144321367Y-61668307D01*
X144334600Y-61802670D01*
X144334600Y-62197331D01*
X144321367Y-62331694D01*
X144269069Y-62504095D01*
X144184142Y-62662983D01*
X144069849Y-62802249D01*
X143930583Y-62916542D01*
X143771694Y-63001469D01*
X143599293Y-63053767D01*
X143420000Y-63071425D01*
X143240706Y-63053767D01*
X143068305Y-63001469D01*
X142909417Y-62916542D01*
X142770151Y-62802249D01*
X142655858Y-62662983D01*
X142570931Y-62504094D01*
X142518633Y-62331693D01*
X142505400Y-62197330D01*
X142505400Y-61802669D01*
X142518633Y-61668306D01*
X142570931Y-61495905D01*
X142655858Y-61337018D01*
X142770152Y-61197751D01*
X142909418Y-61083458D01*
X143068306Y-60998531D01*
X143240707Y-60946233D01*
X143420000Y-60928575D01*
X143599294Y-60946233D01*
X143599294Y-60946233D01*
G37*
G36*
X146139294Y-60946233D02*
G01*
X146311695Y-60998531D01*
X146470583Y-61083458D01*
X146609849Y-61197751D01*
X146724142Y-61337017D01*
X146809069Y-61495906D01*
X146861367Y-61668307D01*
X146874600Y-61802670D01*
X146874600Y-62197331D01*
X146861367Y-62331694D01*
X146809069Y-62504095D01*
X146724142Y-62662983D01*
X146609849Y-62802249D01*
X146470583Y-62916542D01*
X146311694Y-63001469D01*
X146139293Y-63053767D01*
X145960000Y-63071425D01*
X145780706Y-63053767D01*
X145608305Y-63001469D01*
X145449417Y-62916542D01*
X145310151Y-62802249D01*
X145195858Y-62662983D01*
X145110931Y-62504094D01*
X145058633Y-62331693D01*
X145045400Y-62197330D01*
X145045400Y-61802669D01*
X145058633Y-61668306D01*
X145110931Y-61495905D01*
X145195858Y-61337018D01*
X145310152Y-61197751D01*
X145449418Y-61083458D01*
X145608306Y-60998531D01*
X145780707Y-60946233D01*
X145960000Y-60928575D01*
X146139294Y-60946233D01*
X146139294Y-60946233D01*
G37*
G36*
X148679294Y-60946233D02*
G01*
X148851695Y-60998531D01*
X149010583Y-61083458D01*
X149149849Y-61197751D01*
X149264142Y-61337017D01*
X149349069Y-61495906D01*
X149401367Y-61668307D01*
X149414600Y-61802670D01*
X149414600Y-62197331D01*
X149401367Y-62331694D01*
X149349069Y-62504095D01*
X149264142Y-62662983D01*
X149149849Y-62802249D01*
X149010583Y-62916542D01*
X148851694Y-63001469D01*
X148679293Y-63053767D01*
X148500000Y-63071425D01*
X148320706Y-63053767D01*
X148148305Y-63001469D01*
X147989417Y-62916542D01*
X147850151Y-62802249D01*
X147735858Y-62662983D01*
X147650931Y-62504094D01*
X147598633Y-62331693D01*
X147585400Y-62197330D01*
X147585400Y-61802669D01*
X147598633Y-61668306D01*
X147650931Y-61495905D01*
X147735858Y-61337018D01*
X147850152Y-61197751D01*
X147989418Y-61083458D01*
X148148306Y-60998531D01*
X148320707Y-60946233D01*
X148500000Y-60928575D01*
X148679294Y-60946233D01*
X148679294Y-60946233D01*
G37*
G36*
X151219294Y-60946233D02*
G01*
X151391695Y-60998531D01*
X151550583Y-61083458D01*
X151689849Y-61197751D01*
X151804142Y-61337017D01*
X151889069Y-61495906D01*
X151941367Y-61668307D01*
X151954600Y-61802670D01*
X151954600Y-62197331D01*
X151941367Y-62331694D01*
X151889069Y-62504095D01*
X151804142Y-62662983D01*
X151689849Y-62802249D01*
X151550583Y-62916542D01*
X151391694Y-63001469D01*
X151219293Y-63053767D01*
X151040000Y-63071425D01*
X150860706Y-63053767D01*
X150688305Y-63001469D01*
X150529417Y-62916542D01*
X150390151Y-62802249D01*
X150275858Y-62662983D01*
X150190931Y-62504094D01*
X150138633Y-62331693D01*
X150125400Y-62197330D01*
X150125400Y-61802669D01*
X150138633Y-61668306D01*
X150190931Y-61495905D01*
X150275858Y-61337018D01*
X150390152Y-61197751D01*
X150529418Y-61083458D01*
X150688306Y-60998531D01*
X150860707Y-60946233D01*
X151040000Y-60928575D01*
X151219294Y-60946233D01*
X151219294Y-60946233D01*
G37*
G36*
X180599294Y-60946233D02*
G01*
X180771695Y-60998531D01*
X180930583Y-61083458D01*
X181069849Y-61197751D01*
X181184142Y-61337017D01*
X181269069Y-61495906D01*
X181321367Y-61668307D01*
X181334600Y-61802670D01*
X181334600Y-62197331D01*
X181321367Y-62331694D01*
X181269069Y-62504095D01*
X181184142Y-62662983D01*
X181069849Y-62802249D01*
X180930583Y-62916542D01*
X180771694Y-63001469D01*
X180599293Y-63053767D01*
X180420000Y-63071425D01*
X180240706Y-63053767D01*
X180068305Y-63001469D01*
X179909417Y-62916542D01*
X179770151Y-62802249D01*
X179655858Y-62662983D01*
X179570931Y-62504094D01*
X179518633Y-62331693D01*
X179505400Y-62197330D01*
X179505400Y-61802669D01*
X179518633Y-61668306D01*
X179570931Y-61495905D01*
X179655858Y-61337018D01*
X179770152Y-61197751D01*
X179909418Y-61083458D01*
X180068306Y-60998531D01*
X180240707Y-60946233D01*
X180420000Y-60928575D01*
X180599294Y-60946233D01*
X180599294Y-60946233D01*
G37*
G36*
X172259294Y-60946233D02*
G01*
X172431695Y-60998531D01*
X172590583Y-61083458D01*
X172729849Y-61197751D01*
X172844142Y-61337017D01*
X172929069Y-61495906D01*
X172981367Y-61668307D01*
X172994600Y-61802670D01*
X172994600Y-62197331D01*
X172981367Y-62331694D01*
X172929069Y-62504095D01*
X172844142Y-62662983D01*
X172729849Y-62802249D01*
X172590583Y-62916542D01*
X172431694Y-63001469D01*
X172259293Y-63053767D01*
X172080000Y-63071425D01*
X171900706Y-63053767D01*
X171728305Y-63001469D01*
X171569417Y-62916542D01*
X171430151Y-62802249D01*
X171315858Y-62662983D01*
X171230931Y-62504094D01*
X171178633Y-62331693D01*
X171165400Y-62197330D01*
X171165400Y-61802669D01*
X171178633Y-61668306D01*
X171230931Y-61495905D01*
X171315858Y-61337018D01*
X171430152Y-61197751D01*
X171569418Y-61083458D01*
X171728306Y-60998531D01*
X171900707Y-60946233D01*
X172080000Y-60928575D01*
X172259294Y-60946233D01*
X172259294Y-60946233D01*
G37*
G36*
X169719294Y-60946233D02*
G01*
X169891695Y-60998531D01*
X170050583Y-61083458D01*
X170189849Y-61197751D01*
X170304142Y-61337017D01*
X170389069Y-61495906D01*
X170441367Y-61668307D01*
X170454600Y-61802670D01*
X170454600Y-62197331D01*
X170441367Y-62331694D01*
X170389069Y-62504095D01*
X170304142Y-62662983D01*
X170189849Y-62802249D01*
X170050583Y-62916542D01*
X169891694Y-63001469D01*
X169719293Y-63053767D01*
X169540000Y-63071425D01*
X169360706Y-63053767D01*
X169188305Y-63001469D01*
X169029417Y-62916542D01*
X168890151Y-62802249D01*
X168775858Y-62662983D01*
X168690931Y-62504094D01*
X168638633Y-62331693D01*
X168625400Y-62197330D01*
X168625400Y-61802669D01*
X168638633Y-61668306D01*
X168690931Y-61495905D01*
X168775858Y-61337018D01*
X168890152Y-61197751D01*
X169029418Y-61083458D01*
X169188306Y-60998531D01*
X169360707Y-60946233D01*
X169540000Y-60928575D01*
X169719294Y-60946233D01*
X169719294Y-60946233D01*
G37*
G36*
X167179294Y-60946233D02*
G01*
X167351695Y-60998531D01*
X167510583Y-61083458D01*
X167649849Y-61197751D01*
X167764142Y-61337017D01*
X167849069Y-61495906D01*
X167901367Y-61668307D01*
X167914600Y-61802670D01*
X167914600Y-62197331D01*
X167901367Y-62331694D01*
X167849069Y-62504095D01*
X167764142Y-62662983D01*
X167649849Y-62802249D01*
X167510583Y-62916542D01*
X167351694Y-63001469D01*
X167179293Y-63053767D01*
X167000000Y-63071425D01*
X166820706Y-63053767D01*
X166648305Y-63001469D01*
X166489417Y-62916542D01*
X166350151Y-62802249D01*
X166235858Y-62662983D01*
X166150931Y-62504094D01*
X166098633Y-62331693D01*
X166085400Y-62197330D01*
X166085400Y-61802669D01*
X166098633Y-61668306D01*
X166150931Y-61495905D01*
X166235858Y-61337018D01*
X166350152Y-61197751D01*
X166489418Y-61083458D01*
X166648306Y-60998531D01*
X166820707Y-60946233D01*
X167000000Y-60928575D01*
X167179294Y-60946233D01*
X167179294Y-60946233D01*
G37*
G36*
X164639294Y-60946233D02*
G01*
X164811695Y-60998531D01*
X164970583Y-61083458D01*
X165109849Y-61197751D01*
X165224142Y-61337017D01*
X165309069Y-61495906D01*
X165361367Y-61668307D01*
X165374600Y-61802670D01*
X165374600Y-62197331D01*
X165361367Y-62331694D01*
X165309069Y-62504095D01*
X165224142Y-62662983D01*
X165109849Y-62802249D01*
X164970583Y-62916542D01*
X164811694Y-63001469D01*
X164639293Y-63053767D01*
X164460000Y-63071425D01*
X164280706Y-63053767D01*
X164108305Y-63001469D01*
X163949417Y-62916542D01*
X163810151Y-62802249D01*
X163695858Y-62662983D01*
X163610931Y-62504094D01*
X163558633Y-62331693D01*
X163545400Y-62197330D01*
X163545400Y-61802669D01*
X163558633Y-61668306D01*
X163610931Y-61495905D01*
X163695858Y-61337018D01*
X163810152Y-61197751D01*
X163949418Y-61083458D01*
X164108306Y-60998531D01*
X164280707Y-60946233D01*
X164460000Y-60928575D01*
X164639294Y-60946233D01*
X164639294Y-60946233D01*
G37*
G36*
X162099294Y-60946233D02*
G01*
X162271695Y-60998531D01*
X162430583Y-61083458D01*
X162569849Y-61197751D01*
X162684142Y-61337017D01*
X162769069Y-61495906D01*
X162821367Y-61668307D01*
X162834600Y-61802670D01*
X162834600Y-62197331D01*
X162821367Y-62331694D01*
X162769069Y-62504095D01*
X162684142Y-62662983D01*
X162569849Y-62802249D01*
X162430583Y-62916542D01*
X162271694Y-63001469D01*
X162099293Y-63053767D01*
X161920000Y-63071425D01*
X161740706Y-63053767D01*
X161568305Y-63001469D01*
X161409417Y-62916542D01*
X161270151Y-62802249D01*
X161155858Y-62662983D01*
X161070931Y-62504094D01*
X161018633Y-62331693D01*
X161005400Y-62197330D01*
X161005400Y-61802669D01*
X161018633Y-61668306D01*
X161070931Y-61495905D01*
X161155858Y-61337018D01*
X161270152Y-61197751D01*
X161409418Y-61083458D01*
X161568306Y-60998531D01*
X161740707Y-60946233D01*
X161920000Y-60928575D01*
X162099294Y-60946233D01*
X162099294Y-60946233D01*
G37*
G36*
X183139294Y-60946233D02*
G01*
X183311695Y-60998531D01*
X183470583Y-61083458D01*
X183609849Y-61197751D01*
X183724142Y-61337017D01*
X183809069Y-61495906D01*
X183861367Y-61668307D01*
X183874600Y-61802670D01*
X183874600Y-62197331D01*
X183861367Y-62331694D01*
X183809069Y-62504095D01*
X183724142Y-62662983D01*
X183609849Y-62802249D01*
X183470583Y-62916542D01*
X183311694Y-63001469D01*
X183139293Y-63053767D01*
X182960000Y-63071425D01*
X182780706Y-63053767D01*
X182608305Y-63001469D01*
X182449417Y-62916542D01*
X182310151Y-62802249D01*
X182195858Y-62662983D01*
X182110931Y-62504094D01*
X182058633Y-62331693D01*
X182045400Y-62197330D01*
X182045400Y-61802669D01*
X182058633Y-61668306D01*
X182110931Y-61495905D01*
X182195858Y-61337018D01*
X182310152Y-61197751D01*
X182449418Y-61083458D01*
X182608306Y-60998531D01*
X182780707Y-60946233D01*
X182960000Y-60928575D01*
X183139294Y-60946233D01*
X183139294Y-60946233D01*
G37*
G36*
X185679294Y-60946233D02*
G01*
X185851695Y-60998531D01*
X186010583Y-61083458D01*
X186149849Y-61197751D01*
X186264142Y-61337017D01*
X186349069Y-61495906D01*
X186401367Y-61668307D01*
X186414600Y-61802670D01*
X186414600Y-62197331D01*
X186401367Y-62331694D01*
X186349069Y-62504095D01*
X186264142Y-62662983D01*
X186149849Y-62802249D01*
X186010583Y-62916542D01*
X185851694Y-63001469D01*
X185679293Y-63053767D01*
X185500000Y-63071425D01*
X185320706Y-63053767D01*
X185148305Y-63001469D01*
X184989417Y-62916542D01*
X184850151Y-62802249D01*
X184735858Y-62662983D01*
X184650931Y-62504094D01*
X184598633Y-62331693D01*
X184585400Y-62197330D01*
X184585400Y-61802669D01*
X184598633Y-61668306D01*
X184650931Y-61495905D01*
X184735858Y-61337018D01*
X184850152Y-61197751D01*
X184989418Y-61083458D01*
X185148306Y-60998531D01*
X185320707Y-60946233D01*
X185500000Y-60928575D01*
X185679294Y-60946233D01*
X185679294Y-60946233D01*
G37*
G36*
X188219294Y-60946233D02*
G01*
X188391695Y-60998531D01*
X188550583Y-61083458D01*
X188689849Y-61197751D01*
X188804142Y-61337017D01*
X188889069Y-61495906D01*
X188941367Y-61668307D01*
X188954600Y-61802670D01*
X188954600Y-62197331D01*
X188941367Y-62331694D01*
X188889069Y-62504095D01*
X188804142Y-62662983D01*
X188689849Y-62802249D01*
X188550583Y-62916542D01*
X188391694Y-63001469D01*
X188219293Y-63053767D01*
X188040000Y-63071425D01*
X187860706Y-63053767D01*
X187688305Y-63001469D01*
X187529417Y-62916542D01*
X187390151Y-62802249D01*
X187275858Y-62662983D01*
X187190931Y-62504094D01*
X187138633Y-62331693D01*
X187125400Y-62197330D01*
X187125400Y-61802669D01*
X187138633Y-61668306D01*
X187190931Y-61495905D01*
X187275858Y-61337018D01*
X187390152Y-61197751D01*
X187529418Y-61083458D01*
X187688306Y-60998531D01*
X187860707Y-60946233D01*
X188040000Y-60928575D01*
X188219294Y-60946233D01*
X188219294Y-60946233D01*
G37*
G36*
X190759294Y-60946233D02*
G01*
X190931695Y-60998531D01*
X191090583Y-61083458D01*
X191229849Y-61197751D01*
X191344142Y-61337017D01*
X191429069Y-61495906D01*
X191481367Y-61668307D01*
X191494600Y-61802670D01*
X191494600Y-62197331D01*
X191481367Y-62331694D01*
X191429069Y-62504095D01*
X191344142Y-62662983D01*
X191229849Y-62802249D01*
X191090583Y-62916542D01*
X190931694Y-63001469D01*
X190759293Y-63053767D01*
X190580000Y-63071425D01*
X190400706Y-63053767D01*
X190228305Y-63001469D01*
X190069417Y-62916542D01*
X189930151Y-62802249D01*
X189815858Y-62662983D01*
X189730931Y-62504094D01*
X189678633Y-62331693D01*
X189665400Y-62197330D01*
X189665400Y-61802669D01*
X189678633Y-61668306D01*
X189730931Y-61495905D01*
X189815858Y-61337018D01*
X189930152Y-61197751D01*
X190069418Y-61083458D01*
X190228306Y-60998531D01*
X190400707Y-60946233D01*
X190580000Y-60928575D01*
X190759294Y-60946233D01*
X190759294Y-60946233D01*
G37*
G36*
X153759294Y-60946233D02*
G01*
X153931695Y-60998531D01*
X154090583Y-61083458D01*
X154229849Y-61197751D01*
X154344142Y-61337017D01*
X154429069Y-61495906D01*
X154481367Y-61668307D01*
X154494600Y-61802670D01*
X154494600Y-62197331D01*
X154481367Y-62331694D01*
X154429069Y-62504095D01*
X154344142Y-62662983D01*
X154229849Y-62802249D01*
X154090583Y-62916542D01*
X153931694Y-63001469D01*
X153759293Y-63053767D01*
X153580000Y-63071425D01*
X153400706Y-63053767D01*
X153228305Y-63001469D01*
X153069417Y-62916542D01*
X152930151Y-62802249D01*
X152815858Y-62662983D01*
X152730931Y-62504094D01*
X152678633Y-62331693D01*
X152665400Y-62197330D01*
X152665400Y-61802669D01*
X152678633Y-61668306D01*
X152730931Y-61495905D01*
X152815858Y-61337018D01*
X152930152Y-61197751D01*
X153069418Y-61083458D01*
X153228306Y-60998531D01*
X153400707Y-60946233D01*
X153580000Y-60928575D01*
X153759294Y-60946233D01*
X153759294Y-60946233D01*
G37*
G36*
X175534600Y-63067000D02*
G01*
X173705400Y-63067000D01*
X173705400Y-60933000D01*
X175534600Y-60933000D01*
X175534600Y-63067000D01*
X175534600Y-63067000D01*
G37*
G36*
X157034600Y-63067000D02*
G01*
X155205400Y-63067000D01*
X155205400Y-60933000D01*
X157034600Y-60933000D01*
X157034600Y-63067000D01*
X157034600Y-63067000D01*
G37*
G36*
X194034600Y-63067000D02*
G01*
X192205400Y-63067000D01*
X192205400Y-60933000D01*
X194034600Y-60933000D01*
X194034600Y-63067000D01*
X194034600Y-63067000D01*
G37*
G36*
X138067000Y-62914600D02*
G01*
X135933000Y-62914600D01*
X135933000Y-61085400D01*
X138067000Y-61085400D01*
X138067000Y-62914600D01*
X138067000Y-62914600D01*
G37*
M02*
