G04 #@! TF.GenerationSoftware,KiCad,Pcbnew,(5.1.0-0)*
G04 #@! TF.CreationDate,2019-05-28T11:35:41+09:30*
G04 #@! TF.ProjectId,triax-loadwing,74726961-782d-46c6-9f61-6477696e672e,V1.0*
G04 #@! TF.SameCoordinates,Original*
G04 #@! TF.FileFunction,Other,Comment*
%FSLAX46Y46*%
G04 Gerber Fmt 4.6, Leading zero omitted, Abs format (unit mm)*
G04 Created by KiCad (PCBNEW (5.1.0-0)) date 2019-05-28 11:35:41*
%MOMM*%
%LPD*%
G04 APERTURE LIST*
%ADD10C,0.150000*%
%ADD11C,0.400000*%
G04 APERTURE END LIST*
D10*
X129247620Y-70809523D02*
X129247620Y-71428571D01*
X128866667Y-71095238D01*
X128866667Y-71238095D01*
X128819048Y-71333333D01*
X128771429Y-71380952D01*
X128676191Y-71428571D01*
X128438096Y-71428571D01*
X128342858Y-71380952D01*
X128295239Y-71333333D01*
X128247620Y-71238095D01*
X128247620Y-70952380D01*
X128295239Y-70857142D01*
X128342858Y-70809523D01*
X129247620Y-72047619D02*
X129247620Y-72142857D01*
X129200001Y-72238095D01*
X129152381Y-72285714D01*
X129057143Y-72333333D01*
X128866667Y-72380952D01*
X128628572Y-72380952D01*
X128438096Y-72333333D01*
X128342858Y-72285714D01*
X128295239Y-72238095D01*
X128247620Y-72142857D01*
X128247620Y-72047619D01*
X128295239Y-71952380D01*
X128342858Y-71904761D01*
X128438096Y-71857142D01*
X128628572Y-71809523D01*
X128866667Y-71809523D01*
X129057143Y-71857142D01*
X129152381Y-71904761D01*
X129200001Y-71952380D01*
X129247620Y-72047619D01*
X128342858Y-72809523D02*
X128295239Y-72857142D01*
X128247620Y-72809523D01*
X128295239Y-72761904D01*
X128342858Y-72809523D01*
X128247620Y-72809523D01*
X129247620Y-73476190D02*
X129247620Y-73571428D01*
X129200001Y-73666666D01*
X129152381Y-73714285D01*
X129057143Y-73761904D01*
X128866667Y-73809523D01*
X128628572Y-73809523D01*
X128438096Y-73761904D01*
X128342858Y-73714285D01*
X128295239Y-73666666D01*
X128247620Y-73571428D01*
X128247620Y-73476190D01*
X128295239Y-73380952D01*
X128342858Y-73333333D01*
X128438096Y-73285714D01*
X128628572Y-73238095D01*
X128866667Y-73238095D01*
X129057143Y-73285714D01*
X129152381Y-73333333D01*
X129200001Y-73380952D01*
X129247620Y-73476190D01*
X129247620Y-74428571D02*
X129247620Y-74523809D01*
X129200001Y-74619047D01*
X129152381Y-74666666D01*
X129057143Y-74714285D01*
X128866667Y-74761904D01*
X128628572Y-74761904D01*
X128438096Y-74714285D01*
X128342858Y-74666666D01*
X128295239Y-74619047D01*
X128247620Y-74523809D01*
X128247620Y-74428571D01*
X128295239Y-74333333D01*
X128342858Y-74285714D01*
X128438096Y-74238095D01*
X128628572Y-74190476D01*
X128866667Y-74190476D01*
X129057143Y-74238095D01*
X129152381Y-74285714D01*
X129200001Y-74333333D01*
X129247620Y-74428571D01*
X129247620Y-75380952D02*
X129247620Y-75476190D01*
X129200001Y-75571428D01*
X129152381Y-75619047D01*
X129057143Y-75666666D01*
X128866667Y-75714285D01*
X128628572Y-75714285D01*
X128438096Y-75666666D01*
X128342858Y-75619047D01*
X128295239Y-75571428D01*
X128247620Y-75476190D01*
X128247620Y-75380952D01*
X128295239Y-75285714D01*
X128342858Y-75238095D01*
X128438096Y-75190476D01*
X128628572Y-75142857D01*
X128866667Y-75142857D01*
X129057143Y-75190476D01*
X129152381Y-75238095D01*
X129200001Y-75285714D01*
X129247620Y-75380952D01*
X128247620Y-76904761D02*
X128914286Y-76904761D01*
X128819048Y-76904761D02*
X128866667Y-76952380D01*
X128914286Y-77047619D01*
X128914286Y-77190476D01*
X128866667Y-77285714D01*
X128771429Y-77333333D01*
X128247620Y-77333333D01*
X128771429Y-77333333D02*
X128866667Y-77380952D01*
X128914286Y-77476190D01*
X128914286Y-77619047D01*
X128866667Y-77714285D01*
X128771429Y-77761904D01*
X128247620Y-77761904D01*
X128247620Y-78238095D02*
X128914286Y-78238095D01*
X128819048Y-78238095D02*
X128866667Y-78285714D01*
X128914286Y-78380952D01*
X128914286Y-78523809D01*
X128866667Y-78619047D01*
X128771429Y-78666666D01*
X128247620Y-78666666D01*
X128771429Y-78666666D02*
X128866667Y-78714285D01*
X128914286Y-78809523D01*
X128914286Y-78952380D01*
X128866667Y-79047619D01*
X128771429Y-79095238D01*
X128247620Y-79095238D01*
X130000001Y-60000000D02*
X130000001Y-90000000D01*
X135000000Y-60000000D02*
X129413580Y-60000000D01*
X135000000Y-90000000D02*
X129413580Y-90000000D01*
X130000001Y-90000000D02*
X129413580Y-88873496D01*
X130000001Y-90000000D02*
X130586422Y-88873496D01*
X130000001Y-60000000D02*
X129413580Y-61126504D01*
X130000001Y-60000000D02*
X130586422Y-61126504D01*
X161333333Y-53152380D02*
X161142857Y-53152380D01*
X161047619Y-53200000D01*
X161000000Y-53247619D01*
X160904761Y-53390476D01*
X160857142Y-53580952D01*
X160857142Y-53961904D01*
X160904761Y-54057142D01*
X160952380Y-54104761D01*
X161047619Y-54152380D01*
X161238095Y-54152380D01*
X161333333Y-54104761D01*
X161380952Y-54057142D01*
X161428571Y-53961904D01*
X161428571Y-53723809D01*
X161380952Y-53628571D01*
X161333333Y-53580952D01*
X161238095Y-53533333D01*
X161047619Y-53533333D01*
X160952380Y-53580952D01*
X160904761Y-53628571D01*
X160857142Y-53723809D01*
X162047619Y-53152380D02*
X162142857Y-53152380D01*
X162238095Y-53200000D01*
X162285714Y-53247619D01*
X162333333Y-53342857D01*
X162380952Y-53533333D01*
X162380952Y-53771428D01*
X162333333Y-53961904D01*
X162285714Y-54057142D01*
X162238095Y-54104761D01*
X162142857Y-54152380D01*
X162047619Y-54152380D01*
X161952380Y-54104761D01*
X161904761Y-54057142D01*
X161857142Y-53961904D01*
X161809523Y-53771428D01*
X161809523Y-53533333D01*
X161857142Y-53342857D01*
X161904761Y-53247619D01*
X161952380Y-53200000D01*
X162047619Y-53152380D01*
X162809523Y-54057142D02*
X162857142Y-54104761D01*
X162809523Y-54152380D01*
X162761904Y-54104761D01*
X162809523Y-54057142D01*
X162809523Y-54152380D01*
X163476190Y-53152380D02*
X163571428Y-53152380D01*
X163666666Y-53200000D01*
X163714285Y-53247619D01*
X163761904Y-53342857D01*
X163809523Y-53533333D01*
X163809523Y-53771428D01*
X163761904Y-53961904D01*
X163714285Y-54057142D01*
X163666666Y-54104761D01*
X163571428Y-54152380D01*
X163476190Y-54152380D01*
X163380952Y-54104761D01*
X163333333Y-54057142D01*
X163285714Y-53961904D01*
X163238095Y-53771428D01*
X163238095Y-53533333D01*
X163285714Y-53342857D01*
X163333333Y-53247619D01*
X163380952Y-53200000D01*
X163476190Y-53152380D01*
X164428571Y-53152380D02*
X164523809Y-53152380D01*
X164619047Y-53200000D01*
X164666666Y-53247619D01*
X164714285Y-53342857D01*
X164761904Y-53533333D01*
X164761904Y-53771428D01*
X164714285Y-53961904D01*
X164666666Y-54057142D01*
X164619047Y-54104761D01*
X164523809Y-54152380D01*
X164428571Y-54152380D01*
X164333333Y-54104761D01*
X164285714Y-54057142D01*
X164238095Y-53961904D01*
X164190476Y-53771428D01*
X164190476Y-53533333D01*
X164238095Y-53342857D01*
X164285714Y-53247619D01*
X164333333Y-53200000D01*
X164428571Y-53152380D01*
X165380952Y-53152380D02*
X165476190Y-53152380D01*
X165571428Y-53200000D01*
X165619047Y-53247619D01*
X165666666Y-53342857D01*
X165714285Y-53533333D01*
X165714285Y-53771428D01*
X165666666Y-53961904D01*
X165619047Y-54057142D01*
X165571428Y-54104761D01*
X165476190Y-54152380D01*
X165380952Y-54152380D01*
X165285714Y-54104761D01*
X165238095Y-54057142D01*
X165190476Y-53961904D01*
X165142857Y-53771428D01*
X165142857Y-53533333D01*
X165190476Y-53342857D01*
X165238095Y-53247619D01*
X165285714Y-53200000D01*
X165380952Y-53152380D01*
X166904761Y-54152380D02*
X166904761Y-53485714D01*
X166904761Y-53580952D02*
X166952380Y-53533333D01*
X167047619Y-53485714D01*
X167190476Y-53485714D01*
X167285714Y-53533333D01*
X167333333Y-53628571D01*
X167333333Y-54152380D01*
X167333333Y-53628571D02*
X167380952Y-53533333D01*
X167476190Y-53485714D01*
X167619047Y-53485714D01*
X167714285Y-53533333D01*
X167761904Y-53628571D01*
X167761904Y-54152380D01*
X168238095Y-54152380D02*
X168238095Y-53485714D01*
X168238095Y-53580952D02*
X168285714Y-53533333D01*
X168380952Y-53485714D01*
X168523809Y-53485714D01*
X168619047Y-53533333D01*
X168666666Y-53628571D01*
X168666666Y-54152380D01*
X168666666Y-53628571D02*
X168714285Y-53533333D01*
X168809523Y-53485714D01*
X168952380Y-53485714D01*
X169047619Y-53533333D01*
X169095238Y-53628571D01*
X169095238Y-54152380D01*
X135000000Y-55000000D02*
X195000000Y-55000000D01*
X135000000Y-60000000D02*
X135000000Y-54413579D01*
X195000000Y-60000000D02*
X195000000Y-54413579D01*
X195000000Y-55000000D02*
X193873496Y-55586421D01*
X195000000Y-55000000D02*
X193873496Y-54413579D01*
X135000000Y-55000000D02*
X136126504Y-55586421D01*
X135000000Y-55000000D02*
X136126504Y-54413579D01*
D11*
X206502857Y-52057142D02*
X206788571Y-52152380D01*
X206883809Y-52247619D01*
X206979047Y-52438095D01*
X206979047Y-52723809D01*
X206883809Y-52914285D01*
X206788571Y-53009523D01*
X206598095Y-53104761D01*
X205836190Y-53104761D01*
X205836190Y-51104761D01*
X206502857Y-51104761D01*
X206693333Y-51200000D01*
X206788571Y-51295238D01*
X206883809Y-51485714D01*
X206883809Y-51676190D01*
X206788571Y-51866666D01*
X206693333Y-51961904D01*
X206502857Y-52057142D01*
X205836190Y-52057142D01*
X208121904Y-53104761D02*
X207931428Y-53009523D01*
X207836190Y-52914285D01*
X207740952Y-52723809D01*
X207740952Y-52152380D01*
X207836190Y-51961904D01*
X207931428Y-51866666D01*
X208121904Y-51771428D01*
X208407619Y-51771428D01*
X208598095Y-51866666D01*
X208693333Y-51961904D01*
X208788571Y-52152380D01*
X208788571Y-52723809D01*
X208693333Y-52914285D01*
X208598095Y-53009523D01*
X208407619Y-53104761D01*
X208121904Y-53104761D01*
X210502857Y-53104761D02*
X210502857Y-52057142D01*
X210407619Y-51866666D01*
X210217142Y-51771428D01*
X209836190Y-51771428D01*
X209645714Y-51866666D01*
X210502857Y-53009523D02*
X210312380Y-53104761D01*
X209836190Y-53104761D01*
X209645714Y-53009523D01*
X209550476Y-52819047D01*
X209550476Y-52628571D01*
X209645714Y-52438095D01*
X209836190Y-52342857D01*
X210312380Y-52342857D01*
X210502857Y-52247619D01*
X211455238Y-53104761D02*
X211455238Y-51771428D01*
X211455238Y-52152380D02*
X211550476Y-51961904D01*
X211645714Y-51866666D01*
X211836190Y-51771428D01*
X212026666Y-51771428D01*
X213550476Y-53104761D02*
X213550476Y-51104761D01*
X213550476Y-53009523D02*
X213360000Y-53104761D01*
X212979047Y-53104761D01*
X212788571Y-53009523D01*
X212693333Y-52914285D01*
X212598095Y-52723809D01*
X212598095Y-52152380D01*
X212693333Y-51961904D01*
X212788571Y-51866666D01*
X212979047Y-51771428D01*
X213360000Y-51771428D01*
X213550476Y-51866666D01*
X215931428Y-53009523D02*
X216217142Y-53104761D01*
X216693333Y-53104761D01*
X216883809Y-53009523D01*
X216979047Y-52914285D01*
X217074285Y-52723809D01*
X217074285Y-52533333D01*
X216979047Y-52342857D01*
X216883809Y-52247619D01*
X216693333Y-52152380D01*
X216312380Y-52057142D01*
X216121904Y-51961904D01*
X216026666Y-51866666D01*
X215931428Y-51676190D01*
X215931428Y-51485714D01*
X216026666Y-51295238D01*
X216121904Y-51200000D01*
X216312380Y-51104761D01*
X216788571Y-51104761D01*
X217074285Y-51200000D01*
X217645714Y-51771428D02*
X218407619Y-51771428D01*
X217931428Y-51104761D02*
X217931428Y-52819047D01*
X218026666Y-53009523D01*
X218217142Y-53104761D01*
X218407619Y-53104761D01*
X219931428Y-53104761D02*
X219931428Y-52057142D01*
X219836190Y-51866666D01*
X219645714Y-51771428D01*
X219264761Y-51771428D01*
X219074285Y-51866666D01*
X219931428Y-53009523D02*
X219740952Y-53104761D01*
X219264761Y-53104761D01*
X219074285Y-53009523D01*
X218979047Y-52819047D01*
X218979047Y-52628571D01*
X219074285Y-52438095D01*
X219264761Y-52342857D01*
X219740952Y-52342857D01*
X219931428Y-52247619D01*
X221740952Y-53009523D02*
X221550476Y-53104761D01*
X221169523Y-53104761D01*
X220979047Y-53009523D01*
X220883809Y-52914285D01*
X220788571Y-52723809D01*
X220788571Y-52152380D01*
X220883809Y-51961904D01*
X220979047Y-51866666D01*
X221169523Y-51771428D01*
X221550476Y-51771428D01*
X221740952Y-51866666D01*
X222598095Y-53104761D02*
X222598095Y-51104761D01*
X222788571Y-52342857D02*
X223360000Y-53104761D01*
X223360000Y-51771428D02*
X222598095Y-52533333D01*
X225074285Y-51771428D02*
X225074285Y-53104761D01*
X224217142Y-51771428D02*
X224217142Y-52819047D01*
X224312380Y-53009523D01*
X224502857Y-53104761D01*
X224788571Y-53104761D01*
X224979047Y-53009523D01*
X225074285Y-52914285D01*
X226026666Y-51771428D02*
X226026666Y-53771428D01*
X226026666Y-51866666D02*
X226217142Y-51771428D01*
X226598095Y-51771428D01*
X226788571Y-51866666D01*
X226883809Y-51961904D01*
X226979047Y-52152380D01*
X226979047Y-52723809D01*
X226883809Y-52914285D01*
X226788571Y-53009523D01*
X226598095Y-53104761D01*
X226217142Y-53104761D01*
X226026666Y-53009523D01*
X205740952Y-58095238D02*
X205836190Y-58000000D01*
X206026666Y-57904761D01*
X206502857Y-57904761D01*
X206693333Y-58000000D01*
X206788571Y-58095238D01*
X206883809Y-58285714D01*
X206883809Y-58476190D01*
X206788571Y-58761904D01*
X205645714Y-59904761D01*
X206883809Y-59904761D01*
X207740952Y-59142857D02*
X209264761Y-59142857D01*
X210502857Y-59904761D02*
X210312380Y-59809523D01*
X210217142Y-59619047D01*
X210217142Y-57904761D01*
X212121904Y-59904761D02*
X212121904Y-58857142D01*
X212026666Y-58666666D01*
X211836190Y-58571428D01*
X211455238Y-58571428D01*
X211264761Y-58666666D01*
X212121904Y-59809523D02*
X211931428Y-59904761D01*
X211455238Y-59904761D01*
X211264761Y-59809523D01*
X211169523Y-59619047D01*
X211169523Y-59428571D01*
X211264761Y-59238095D01*
X211455238Y-59142857D01*
X211931428Y-59142857D01*
X212121904Y-59047619D01*
X212883809Y-58571428D02*
X213360000Y-59904761D01*
X213836190Y-58571428D02*
X213360000Y-59904761D01*
X213169523Y-60380952D01*
X213074285Y-60476190D01*
X212883809Y-60571428D01*
X215360000Y-59809523D02*
X215169523Y-59904761D01*
X214788571Y-59904761D01*
X214598095Y-59809523D01*
X214502857Y-59619047D01*
X214502857Y-58857142D01*
X214598095Y-58666666D01*
X214788571Y-58571428D01*
X215169523Y-58571428D01*
X215360000Y-58666666D01*
X215455238Y-58857142D01*
X215455238Y-59047619D01*
X214502857Y-59238095D01*
X216312380Y-59904761D02*
X216312380Y-58571428D01*
X216312380Y-58952380D02*
X216407619Y-58761904D01*
X216502857Y-58666666D01*
X216693333Y-58571428D01*
X216883809Y-58571428D01*
X217645714Y-59809523D02*
X217645714Y-59904761D01*
X217550476Y-60095238D01*
X217455238Y-60190476D01*
X221074285Y-59904761D02*
X219931428Y-59904761D01*
X220502857Y-59904761D02*
X220502857Y-57904761D01*
X220312380Y-58190476D01*
X220121904Y-58380952D01*
X219931428Y-58476190D01*
X221931428Y-59714285D02*
X222026666Y-59809523D01*
X221931428Y-59904761D01*
X221836190Y-59809523D01*
X221931428Y-59714285D01*
X221931428Y-59904761D01*
X223740952Y-57904761D02*
X223360000Y-57904761D01*
X223169523Y-58000000D01*
X223074285Y-58095238D01*
X222883809Y-58380952D01*
X222788571Y-58761904D01*
X222788571Y-59523809D01*
X222883809Y-59714285D01*
X222979047Y-59809523D01*
X223169523Y-59904761D01*
X223550476Y-59904761D01*
X223740952Y-59809523D01*
X223836190Y-59714285D01*
X223931428Y-59523809D01*
X223931428Y-59047619D01*
X223836190Y-58857142D01*
X223740952Y-58761904D01*
X223550476Y-58666666D01*
X223169523Y-58666666D01*
X222979047Y-58761904D01*
X222883809Y-58857142D01*
X222788571Y-59047619D01*
X224788571Y-59904761D02*
X224788571Y-58571428D01*
X224788571Y-58761904D02*
X224883809Y-58666666D01*
X225074285Y-58571428D01*
X225360000Y-58571428D01*
X225550476Y-58666666D01*
X225645714Y-58857142D01*
X225645714Y-59904761D01*
X225645714Y-58857142D02*
X225740952Y-58666666D01*
X225931428Y-58571428D01*
X226217142Y-58571428D01*
X226407619Y-58666666D01*
X226502857Y-58857142D01*
X226502857Y-59904761D01*
X227455238Y-59904761D02*
X227455238Y-58571428D01*
X227455238Y-58761904D02*
X227550476Y-58666666D01*
X227740952Y-58571428D01*
X228026666Y-58571428D01*
X228217142Y-58666666D01*
X228312380Y-58857142D01*
X228312380Y-59904761D01*
X228312380Y-58857142D02*
X228407619Y-58666666D01*
X228598095Y-58571428D01*
X228883809Y-58571428D01*
X229074285Y-58666666D01*
X229169523Y-58857142D01*
X229169523Y-59904761D01*
X231360000Y-58571428D02*
X232121904Y-58571428D01*
X231645714Y-57904761D02*
X231645714Y-59619047D01*
X231740952Y-59809523D01*
X231931428Y-59904761D01*
X232121904Y-59904761D01*
X232788571Y-59904761D02*
X232788571Y-57904761D01*
X233645714Y-59904761D02*
X233645714Y-58857142D01*
X233550476Y-58666666D01*
X233360000Y-58571428D01*
X233074285Y-58571428D01*
X232883809Y-58666666D01*
X232788571Y-58761904D01*
X234598095Y-59904761D02*
X234598095Y-58571428D01*
X234598095Y-57904761D02*
X234502857Y-58000000D01*
X234598095Y-58095238D01*
X234693333Y-58000000D01*
X234598095Y-57904761D01*
X234598095Y-58095238D01*
X236407619Y-59809523D02*
X236217142Y-59904761D01*
X235836190Y-59904761D01*
X235645714Y-59809523D01*
X235550476Y-59714285D01*
X235455238Y-59523809D01*
X235455238Y-58952380D01*
X235550476Y-58761904D01*
X235645714Y-58666666D01*
X235836190Y-58571428D01*
X236217142Y-58571428D01*
X236407619Y-58666666D01*
X237264761Y-59904761D02*
X237264761Y-57904761D01*
X237455238Y-59142857D02*
X238026666Y-59904761D01*
X238026666Y-58571428D02*
X237264761Y-59333333D01*
X206693333Y-61304761D02*
X206312380Y-61304761D01*
X206121904Y-61400000D01*
X206026666Y-61495238D01*
X205836190Y-61780952D01*
X205740952Y-62161904D01*
X205740952Y-62923809D01*
X205836190Y-63114285D01*
X205931428Y-63209523D01*
X206121904Y-63304761D01*
X206502857Y-63304761D01*
X206693333Y-63209523D01*
X206788571Y-63114285D01*
X206883809Y-62923809D01*
X206883809Y-62447619D01*
X206788571Y-62257142D01*
X206693333Y-62161904D01*
X206502857Y-62066666D01*
X206121904Y-62066666D01*
X205931428Y-62161904D01*
X205836190Y-62257142D01*
X205740952Y-62447619D01*
X208121904Y-61304761D02*
X208312380Y-61304761D01*
X208502857Y-61400000D01*
X208598095Y-61495238D01*
X208693333Y-61685714D01*
X208788571Y-62066666D01*
X208788571Y-62542857D01*
X208693333Y-62923809D01*
X208598095Y-63114285D01*
X208502857Y-63209523D01*
X208312380Y-63304761D01*
X208121904Y-63304761D01*
X207931428Y-63209523D01*
X207836190Y-63114285D01*
X207740952Y-62923809D01*
X207645714Y-62542857D01*
X207645714Y-62066666D01*
X207740952Y-61685714D01*
X207836190Y-61495238D01*
X207931428Y-61400000D01*
X208121904Y-61304761D01*
X210979047Y-63304761D02*
X212026666Y-61971428D01*
X210979047Y-61971428D02*
X212026666Y-63304761D01*
X214121904Y-61304761D02*
X215360000Y-61304761D01*
X214693333Y-62066666D01*
X214979047Y-62066666D01*
X215169523Y-62161904D01*
X215264761Y-62257142D01*
X215360000Y-62447619D01*
X215360000Y-62923809D01*
X215264761Y-63114285D01*
X215169523Y-63209523D01*
X214979047Y-63304761D01*
X214407619Y-63304761D01*
X214217142Y-63209523D01*
X214121904Y-63114285D01*
X216598095Y-61304761D02*
X216788571Y-61304761D01*
X216979047Y-61400000D01*
X217074285Y-61495238D01*
X217169523Y-61685714D01*
X217264761Y-62066666D01*
X217264761Y-62542857D01*
X217169523Y-62923809D01*
X217074285Y-63114285D01*
X216979047Y-63209523D01*
X216788571Y-63304761D01*
X216598095Y-63304761D01*
X216407619Y-63209523D01*
X216312380Y-63114285D01*
X216217142Y-62923809D01*
X216121904Y-62542857D01*
X216121904Y-62066666D01*
X216217142Y-61685714D01*
X216312380Y-61495238D01*
X216407619Y-61400000D01*
X216598095Y-61304761D01*
X219645714Y-63304761D02*
X219645714Y-61971428D01*
X219645714Y-62161904D02*
X219740952Y-62066666D01*
X219931428Y-61971428D01*
X220217142Y-61971428D01*
X220407619Y-62066666D01*
X220502857Y-62257142D01*
X220502857Y-63304761D01*
X220502857Y-62257142D02*
X220598095Y-62066666D01*
X220788571Y-61971428D01*
X221074285Y-61971428D01*
X221264761Y-62066666D01*
X221360000Y-62257142D01*
X221360000Y-63304761D01*
X222312380Y-63304761D02*
X222312380Y-61971428D01*
X222312380Y-62161904D02*
X222407619Y-62066666D01*
X222598095Y-61971428D01*
X222883809Y-61971428D01*
X223074285Y-62066666D01*
X223169523Y-62257142D01*
X223169523Y-63304761D01*
X223169523Y-62257142D02*
X223264761Y-62066666D01*
X223455238Y-61971428D01*
X223740952Y-61971428D01*
X223931428Y-62066666D01*
X224026666Y-62257142D01*
X224026666Y-63304761D01*
X226407619Y-63209523D02*
X226598095Y-63304761D01*
X226979047Y-63304761D01*
X227169523Y-63209523D01*
X227264761Y-63019047D01*
X227264761Y-62923809D01*
X227169523Y-62733333D01*
X226979047Y-62638095D01*
X226693333Y-62638095D01*
X226502857Y-62542857D01*
X226407619Y-62352380D01*
X226407619Y-62257142D01*
X226502857Y-62066666D01*
X226693333Y-61971428D01*
X226979047Y-61971428D01*
X227169523Y-62066666D01*
X228121904Y-63304761D02*
X228121904Y-61971428D01*
X228121904Y-61304761D02*
X228026666Y-61400000D01*
X228121904Y-61495238D01*
X228217142Y-61400000D01*
X228121904Y-61304761D01*
X228121904Y-61495238D01*
X228883809Y-61971428D02*
X229931428Y-61971428D01*
X228883809Y-63304761D01*
X229931428Y-63304761D01*
X231455238Y-63209523D02*
X231264761Y-63304761D01*
X230883809Y-63304761D01*
X230693333Y-63209523D01*
X230598095Y-63019047D01*
X230598095Y-62257142D01*
X230693333Y-62066666D01*
X230883809Y-61971428D01*
X231264761Y-61971428D01*
X231455238Y-62066666D01*
X231550476Y-62257142D01*
X231550476Y-62447619D01*
X230598095Y-62638095D01*
X205645714Y-68104761D02*
X206883809Y-68104761D01*
X206217142Y-68866666D01*
X206502857Y-68866666D01*
X206693333Y-68961904D01*
X206788571Y-69057142D01*
X206883809Y-69247619D01*
X206883809Y-69723809D01*
X206788571Y-69914285D01*
X206693333Y-70009523D01*
X206502857Y-70104761D01*
X205931428Y-70104761D01*
X205740952Y-70009523D01*
X205645714Y-69914285D01*
X208693333Y-68104761D02*
X207740952Y-68104761D01*
X207645714Y-69057142D01*
X207740952Y-68961904D01*
X207931428Y-68866666D01*
X208407619Y-68866666D01*
X208598095Y-68961904D01*
X208693333Y-69057142D01*
X208788571Y-69247619D01*
X208788571Y-69723809D01*
X208693333Y-69914285D01*
X208598095Y-70009523D01*
X208407619Y-70104761D01*
X207931428Y-70104761D01*
X207740952Y-70009523D01*
X207645714Y-69914285D01*
X210502857Y-68771428D02*
X210502857Y-70104761D01*
X209645714Y-68771428D02*
X209645714Y-69819047D01*
X209740952Y-70009523D01*
X209931428Y-70104761D01*
X210217142Y-70104761D01*
X210407619Y-70009523D01*
X210502857Y-69914285D01*
X211455238Y-70104761D02*
X211455238Y-68771428D01*
X211455238Y-68961904D02*
X211550476Y-68866666D01*
X211740952Y-68771428D01*
X212026666Y-68771428D01*
X212217142Y-68866666D01*
X212312380Y-69057142D01*
X212312380Y-70104761D01*
X212312380Y-69057142D02*
X212407619Y-68866666D01*
X212598095Y-68771428D01*
X212883809Y-68771428D01*
X213074285Y-68866666D01*
X213169523Y-69057142D01*
X213169523Y-70104761D01*
X216217142Y-70866666D02*
X216121904Y-70771428D01*
X215931428Y-70485714D01*
X215836190Y-70295238D01*
X215740952Y-70009523D01*
X215645714Y-69533333D01*
X215645714Y-69152380D01*
X215740952Y-68676190D01*
X215836190Y-68390476D01*
X215931428Y-68200000D01*
X216121904Y-67914285D01*
X216217142Y-67819047D01*
X218026666Y-70104761D02*
X216883809Y-70104761D01*
X217455238Y-70104761D02*
X217455238Y-68104761D01*
X217264761Y-68390476D01*
X217074285Y-68580952D01*
X216883809Y-68676190D01*
X219169523Y-70104761D02*
X218979047Y-70009523D01*
X218883809Y-69914285D01*
X218788571Y-69723809D01*
X218788571Y-69152380D01*
X218883809Y-68961904D01*
X218979047Y-68866666D01*
X219169523Y-68771428D01*
X219455238Y-68771428D01*
X219645714Y-68866666D01*
X219740952Y-68961904D01*
X219836190Y-69152380D01*
X219836190Y-69723809D01*
X219740952Y-69914285D01*
X219645714Y-70009523D01*
X219455238Y-70104761D01*
X219169523Y-70104761D01*
X220502857Y-68771428D02*
X221550476Y-68771428D01*
X220502857Y-70104761D01*
X221550476Y-70104761D01*
X222121904Y-70866666D02*
X222217142Y-70771428D01*
X222407619Y-70485714D01*
X222502857Y-70295238D01*
X222598095Y-70009523D01*
X222693333Y-69533333D01*
X222693333Y-69152380D01*
X222598095Y-68676190D01*
X222502857Y-68390476D01*
X222407619Y-68200000D01*
X222217142Y-67914285D01*
X222121904Y-67819047D01*
X226026666Y-70009523D02*
X225836190Y-70104761D01*
X225455238Y-70104761D01*
X225264761Y-70009523D01*
X225169523Y-69914285D01*
X225074285Y-69723809D01*
X225074285Y-69152380D01*
X225169523Y-68961904D01*
X225264761Y-68866666D01*
X225455238Y-68771428D01*
X225836190Y-68771428D01*
X226026666Y-68866666D01*
X227169523Y-70104761D02*
X226979047Y-70009523D01*
X226883809Y-69914285D01*
X226788571Y-69723809D01*
X226788571Y-69152380D01*
X226883809Y-68961904D01*
X226979047Y-68866666D01*
X227169523Y-68771428D01*
X227455238Y-68771428D01*
X227645714Y-68866666D01*
X227740952Y-68961904D01*
X227836190Y-69152380D01*
X227836190Y-69723809D01*
X227740952Y-69914285D01*
X227645714Y-70009523D01*
X227455238Y-70104761D01*
X227169523Y-70104761D01*
X228693333Y-68771428D02*
X228693333Y-70771428D01*
X228693333Y-68866666D02*
X228883809Y-68771428D01*
X229264761Y-68771428D01*
X229455238Y-68866666D01*
X229550476Y-68961904D01*
X229645714Y-69152380D01*
X229645714Y-69723809D01*
X229550476Y-69914285D01*
X229455238Y-70009523D01*
X229264761Y-70104761D01*
X228883809Y-70104761D01*
X228693333Y-70009523D01*
X230502857Y-68771428D02*
X230502857Y-70771428D01*
X230502857Y-68866666D02*
X230693333Y-68771428D01*
X231074285Y-68771428D01*
X231264761Y-68866666D01*
X231360000Y-68961904D01*
X231455238Y-69152380D01*
X231455238Y-69723809D01*
X231360000Y-69914285D01*
X231264761Y-70009523D01*
X231074285Y-70104761D01*
X230693333Y-70104761D01*
X230502857Y-70009523D01*
X233074285Y-70009523D02*
X232883809Y-70104761D01*
X232502857Y-70104761D01*
X232312380Y-70009523D01*
X232217142Y-69819047D01*
X232217142Y-69057142D01*
X232312380Y-68866666D01*
X232502857Y-68771428D01*
X232883809Y-68771428D01*
X233074285Y-68866666D01*
X233169523Y-69057142D01*
X233169523Y-69247619D01*
X232217142Y-69438095D01*
X234026666Y-70104761D02*
X234026666Y-68771428D01*
X234026666Y-69152380D02*
X234121904Y-68961904D01*
X234217142Y-68866666D01*
X234407619Y-68771428D01*
X234598095Y-68771428D01*
X237074285Y-70104761D02*
X236883809Y-70009523D01*
X236788571Y-69819047D01*
X236788571Y-68104761D01*
X238693333Y-70104761D02*
X238693333Y-69057142D01*
X238598095Y-68866666D01*
X238407619Y-68771428D01*
X238026666Y-68771428D01*
X237836190Y-68866666D01*
X238693333Y-70009523D02*
X238502857Y-70104761D01*
X238026666Y-70104761D01*
X237836190Y-70009523D01*
X237740952Y-69819047D01*
X237740952Y-69628571D01*
X237836190Y-69438095D01*
X238026666Y-69342857D01*
X238502857Y-69342857D01*
X238693333Y-69247619D01*
X239455238Y-68771428D02*
X239931428Y-70104761D01*
X240407619Y-68771428D02*
X239931428Y-70104761D01*
X239740952Y-70580952D01*
X239645714Y-70676190D01*
X239455238Y-70771428D01*
X241931428Y-70009523D02*
X241740952Y-70104761D01*
X241360000Y-70104761D01*
X241169523Y-70009523D01*
X241074285Y-69819047D01*
X241074285Y-69057142D01*
X241169523Y-68866666D01*
X241360000Y-68771428D01*
X241740952Y-68771428D01*
X241931428Y-68866666D01*
X242026666Y-69057142D01*
X242026666Y-69247619D01*
X241074285Y-69438095D01*
X242883809Y-70104761D02*
X242883809Y-68771428D01*
X242883809Y-69152380D02*
X242979047Y-68961904D01*
X243074285Y-68866666D01*
X243264761Y-68771428D01*
X243455238Y-68771428D01*
X244026666Y-70009523D02*
X244217142Y-70104761D01*
X244598095Y-70104761D01*
X244788571Y-70009523D01*
X244883809Y-69819047D01*
X244883809Y-69723809D01*
X244788571Y-69533333D01*
X244598095Y-69438095D01*
X244312380Y-69438095D01*
X244121904Y-69342857D01*
X244026666Y-69152380D01*
X244026666Y-69057142D01*
X244121904Y-68866666D01*
X244312380Y-68771428D01*
X244598095Y-68771428D01*
X244788571Y-68866666D01*
X205836190Y-72457142D02*
X206502857Y-72457142D01*
X206788571Y-73504761D02*
X205836190Y-73504761D01*
X205836190Y-71504761D01*
X206788571Y-71504761D01*
X207645714Y-73504761D02*
X207645714Y-71504761D01*
X208788571Y-73504761D01*
X208788571Y-71504761D01*
X209740952Y-73504761D02*
X209740952Y-71504761D01*
X211740952Y-71600000D02*
X211550476Y-71504761D01*
X211264761Y-71504761D01*
X210979047Y-71600000D01*
X210788571Y-71790476D01*
X210693333Y-71980952D01*
X210598095Y-72361904D01*
X210598095Y-72647619D01*
X210693333Y-73028571D01*
X210788571Y-73219047D01*
X210979047Y-73409523D01*
X211264761Y-73504761D01*
X211455238Y-73504761D01*
X211740952Y-73409523D01*
X211836190Y-73314285D01*
X211836190Y-72647619D01*
X211455238Y-72647619D01*
X214121904Y-73409523D02*
X214312380Y-73504761D01*
X214693333Y-73504761D01*
X214883809Y-73409523D01*
X214979047Y-73219047D01*
X214979047Y-73123809D01*
X214883809Y-72933333D01*
X214693333Y-72838095D01*
X214407619Y-72838095D01*
X214217142Y-72742857D01*
X214121904Y-72552380D01*
X214121904Y-72457142D01*
X214217142Y-72266666D01*
X214407619Y-72171428D01*
X214693333Y-72171428D01*
X214883809Y-72266666D01*
X216693333Y-72171428D02*
X216693333Y-73504761D01*
X215836190Y-72171428D02*
X215836190Y-73219047D01*
X215931428Y-73409523D01*
X216121904Y-73504761D01*
X216407619Y-73504761D01*
X216598095Y-73409523D01*
X216693333Y-73314285D01*
X217645714Y-73504761D02*
X217645714Y-72171428D01*
X217645714Y-72552380D02*
X217740952Y-72361904D01*
X217836190Y-72266666D01*
X218026666Y-72171428D01*
X218217142Y-72171428D01*
X218598095Y-72171428D02*
X219360000Y-72171428D01*
X218883809Y-73504761D02*
X218883809Y-71790476D01*
X218979047Y-71600000D01*
X219169523Y-71504761D01*
X219360000Y-71504761D01*
X220883809Y-73504761D02*
X220883809Y-72457142D01*
X220788571Y-72266666D01*
X220598095Y-72171428D01*
X220217142Y-72171428D01*
X220026666Y-72266666D01*
X220883809Y-73409523D02*
X220693333Y-73504761D01*
X220217142Y-73504761D01*
X220026666Y-73409523D01*
X219931428Y-73219047D01*
X219931428Y-73028571D01*
X220026666Y-72838095D01*
X220217142Y-72742857D01*
X220693333Y-72742857D01*
X220883809Y-72647619D01*
X222693333Y-73409523D02*
X222502857Y-73504761D01*
X222121904Y-73504761D01*
X221931428Y-73409523D01*
X221836190Y-73314285D01*
X221740952Y-73123809D01*
X221740952Y-72552380D01*
X221836190Y-72361904D01*
X221931428Y-72266666D01*
X222121904Y-72171428D01*
X222502857Y-72171428D01*
X222693333Y-72266666D01*
X224312380Y-73409523D02*
X224121904Y-73504761D01*
X223740952Y-73504761D01*
X223550476Y-73409523D01*
X223455238Y-73219047D01*
X223455238Y-72457142D01*
X223550476Y-72266666D01*
X223740952Y-72171428D01*
X224121904Y-72171428D01*
X224312380Y-72266666D01*
X224407619Y-72457142D01*
X224407619Y-72647619D01*
X223455238Y-72838095D01*
X226502857Y-72171428D02*
X227264761Y-72171428D01*
X226788571Y-73504761D02*
X226788571Y-71790476D01*
X226883809Y-71600000D01*
X227074285Y-71504761D01*
X227264761Y-71504761D01*
X227931428Y-73504761D02*
X227931428Y-72171428D01*
X227931428Y-71504761D02*
X227836190Y-71600000D01*
X227931428Y-71695238D01*
X228026666Y-71600000D01*
X227931428Y-71504761D01*
X227931428Y-71695238D01*
X228883809Y-72171428D02*
X228883809Y-73504761D01*
X228883809Y-72361904D02*
X228979047Y-72266666D01*
X229169523Y-72171428D01*
X229455238Y-72171428D01*
X229645714Y-72266666D01*
X229740952Y-72457142D01*
X229740952Y-73504761D01*
X230693333Y-73504761D02*
X230693333Y-72171428D01*
X230693333Y-71504761D02*
X230598095Y-71600000D01*
X230693333Y-71695238D01*
X230788571Y-71600000D01*
X230693333Y-71504761D01*
X230693333Y-71695238D01*
X231550476Y-73409523D02*
X231740952Y-73504761D01*
X232121904Y-73504761D01*
X232312380Y-73409523D01*
X232407619Y-73219047D01*
X232407619Y-73123809D01*
X232312380Y-72933333D01*
X232121904Y-72838095D01*
X231836190Y-72838095D01*
X231645714Y-72742857D01*
X231550476Y-72552380D01*
X231550476Y-72457142D01*
X231645714Y-72266666D01*
X231836190Y-72171428D01*
X232121904Y-72171428D01*
X232312380Y-72266666D01*
X233264761Y-73504761D02*
X233264761Y-71504761D01*
X234121904Y-73504761D02*
X234121904Y-72457142D01*
X234026666Y-72266666D01*
X233836190Y-72171428D01*
X233550476Y-72171428D01*
X233360000Y-72266666D01*
X233264761Y-72361904D01*
X205645714Y-74904761D02*
X206121904Y-76904761D01*
X206502857Y-75476190D01*
X206883809Y-76904761D01*
X207360000Y-74904761D01*
X208121904Y-76904761D02*
X208121904Y-74904761D01*
X208979047Y-76904761D02*
X208979047Y-75857142D01*
X208883809Y-75666666D01*
X208693333Y-75571428D01*
X208407619Y-75571428D01*
X208217142Y-75666666D01*
X208121904Y-75761904D01*
X209931428Y-76904761D02*
X209931428Y-75571428D01*
X209931428Y-74904761D02*
X209836190Y-75000000D01*
X209931428Y-75095238D01*
X210026666Y-75000000D01*
X209931428Y-74904761D01*
X209931428Y-75095238D01*
X210598095Y-75571428D02*
X211360000Y-75571428D01*
X210883809Y-74904761D02*
X210883809Y-76619047D01*
X210979047Y-76809523D01*
X211169523Y-76904761D01*
X211360000Y-76904761D01*
X212788571Y-76809523D02*
X212598095Y-76904761D01*
X212217142Y-76904761D01*
X212026666Y-76809523D01*
X211931428Y-76619047D01*
X211931428Y-75857142D01*
X212026666Y-75666666D01*
X212217142Y-75571428D01*
X212598095Y-75571428D01*
X212788571Y-75666666D01*
X212883809Y-75857142D01*
X212883809Y-76047619D01*
X211931428Y-76238095D01*
X215169523Y-76809523D02*
X215360000Y-76904761D01*
X215740952Y-76904761D01*
X215931428Y-76809523D01*
X216026666Y-76619047D01*
X216026666Y-76523809D01*
X215931428Y-76333333D01*
X215740952Y-76238095D01*
X215455238Y-76238095D01*
X215264761Y-76142857D01*
X215169523Y-75952380D01*
X215169523Y-75857142D01*
X215264761Y-75666666D01*
X215455238Y-75571428D01*
X215740952Y-75571428D01*
X215931428Y-75666666D01*
X216883809Y-76904761D02*
X216883809Y-75571428D01*
X216883809Y-74904761D02*
X216788571Y-75000000D01*
X216883809Y-75095238D01*
X216979047Y-75000000D01*
X216883809Y-74904761D01*
X216883809Y-75095238D01*
X218121904Y-76904761D02*
X217931428Y-76809523D01*
X217836190Y-76619047D01*
X217836190Y-74904761D01*
X218883809Y-76904761D02*
X218883809Y-74904761D01*
X219074285Y-76142857D02*
X219645714Y-76904761D01*
X219645714Y-75571428D02*
X218883809Y-76333333D01*
X220407619Y-76809523D02*
X220598095Y-76904761D01*
X220979047Y-76904761D01*
X221169523Y-76809523D01*
X221264761Y-76619047D01*
X221264761Y-76523809D01*
X221169523Y-76333333D01*
X220979047Y-76238095D01*
X220693333Y-76238095D01*
X220502857Y-76142857D01*
X220407619Y-75952380D01*
X220407619Y-75857142D01*
X220502857Y-75666666D01*
X220693333Y-75571428D01*
X220979047Y-75571428D01*
X221169523Y-75666666D01*
X222979047Y-76809523D02*
X222788571Y-76904761D01*
X222407619Y-76904761D01*
X222217142Y-76809523D01*
X222121904Y-76714285D01*
X222026666Y-76523809D01*
X222026666Y-75952380D01*
X222121904Y-75761904D01*
X222217142Y-75666666D01*
X222407619Y-75571428D01*
X222788571Y-75571428D01*
X222979047Y-75666666D01*
X223836190Y-76904761D02*
X223836190Y-75571428D01*
X223836190Y-75952380D02*
X223931428Y-75761904D01*
X224026666Y-75666666D01*
X224217142Y-75571428D01*
X224407619Y-75571428D01*
X225836190Y-76809523D02*
X225645714Y-76904761D01*
X225264761Y-76904761D01*
X225074285Y-76809523D01*
X224979047Y-76619047D01*
X224979047Y-75857142D01*
X225074285Y-75666666D01*
X225264761Y-75571428D01*
X225645714Y-75571428D01*
X225836190Y-75666666D01*
X225931428Y-75857142D01*
X225931428Y-76047619D01*
X224979047Y-76238095D01*
X227550476Y-76809523D02*
X227360000Y-76904761D01*
X226979047Y-76904761D01*
X226788571Y-76809523D01*
X226693333Y-76619047D01*
X226693333Y-75857142D01*
X226788571Y-75666666D01*
X226979047Y-75571428D01*
X227360000Y-75571428D01*
X227550476Y-75666666D01*
X227645714Y-75857142D01*
X227645714Y-76047619D01*
X226693333Y-76238095D01*
X228502857Y-75571428D02*
X228502857Y-76904761D01*
X228502857Y-75761904D02*
X228598095Y-75666666D01*
X228788571Y-75571428D01*
X229074285Y-75571428D01*
X229264761Y-75666666D01*
X229360000Y-75857142D01*
X229360000Y-76904761D01*
X206502857Y-79257142D02*
X206788571Y-79352380D01*
X206883809Y-79447619D01*
X206979047Y-79638095D01*
X206979047Y-79923809D01*
X206883809Y-80114285D01*
X206788571Y-80209523D01*
X206598095Y-80304761D01*
X205836190Y-80304761D01*
X205836190Y-78304761D01*
X206502857Y-78304761D01*
X206693333Y-78400000D01*
X206788571Y-78495238D01*
X206883809Y-78685714D01*
X206883809Y-78876190D01*
X206788571Y-79066666D01*
X206693333Y-79161904D01*
X206502857Y-79257142D01*
X205836190Y-79257142D01*
X208121904Y-80304761D02*
X207931428Y-80209523D01*
X207836190Y-80019047D01*
X207836190Y-78304761D01*
X209740952Y-78971428D02*
X209740952Y-80304761D01*
X208883809Y-78971428D02*
X208883809Y-80019047D01*
X208979047Y-80209523D01*
X209169523Y-80304761D01*
X209455238Y-80304761D01*
X209645714Y-80209523D01*
X209740952Y-80114285D01*
X211455238Y-80209523D02*
X211264761Y-80304761D01*
X210883809Y-80304761D01*
X210693333Y-80209523D01*
X210598095Y-80019047D01*
X210598095Y-79257142D01*
X210693333Y-79066666D01*
X210883809Y-78971428D01*
X211264761Y-78971428D01*
X211455238Y-79066666D01*
X211550476Y-79257142D01*
X211550476Y-79447619D01*
X210598095Y-79638095D01*
X213836190Y-80209523D02*
X214026666Y-80304761D01*
X214407619Y-80304761D01*
X214598095Y-80209523D01*
X214693333Y-80019047D01*
X214693333Y-79923809D01*
X214598095Y-79733333D01*
X214407619Y-79638095D01*
X214121904Y-79638095D01*
X213931428Y-79542857D01*
X213836190Y-79352380D01*
X213836190Y-79257142D01*
X213931428Y-79066666D01*
X214121904Y-78971428D01*
X214407619Y-78971428D01*
X214598095Y-79066666D01*
X215836190Y-80304761D02*
X215645714Y-80209523D01*
X215550476Y-80114285D01*
X215455238Y-79923809D01*
X215455238Y-79352380D01*
X215550476Y-79161904D01*
X215645714Y-79066666D01*
X215836190Y-78971428D01*
X216121904Y-78971428D01*
X216312380Y-79066666D01*
X216407619Y-79161904D01*
X216502857Y-79352380D01*
X216502857Y-79923809D01*
X216407619Y-80114285D01*
X216312380Y-80209523D01*
X216121904Y-80304761D01*
X215836190Y-80304761D01*
X217645714Y-80304761D02*
X217455238Y-80209523D01*
X217360000Y-80019047D01*
X217360000Y-78304761D01*
X219264761Y-80304761D02*
X219264761Y-78304761D01*
X219264761Y-80209523D02*
X219074285Y-80304761D01*
X218693333Y-80304761D01*
X218502857Y-80209523D01*
X218407619Y-80114285D01*
X218312380Y-79923809D01*
X218312380Y-79352380D01*
X218407619Y-79161904D01*
X218502857Y-79066666D01*
X218693333Y-78971428D01*
X219074285Y-78971428D01*
X219264761Y-79066666D01*
X220979047Y-80209523D02*
X220788571Y-80304761D01*
X220407619Y-80304761D01*
X220217142Y-80209523D01*
X220121904Y-80019047D01*
X220121904Y-79257142D01*
X220217142Y-79066666D01*
X220407619Y-78971428D01*
X220788571Y-78971428D01*
X220979047Y-79066666D01*
X221074285Y-79257142D01*
X221074285Y-79447619D01*
X220121904Y-79638095D01*
X221931428Y-80304761D02*
X221931428Y-78971428D01*
X221931428Y-79352380D02*
X222026666Y-79161904D01*
X222121904Y-79066666D01*
X222312380Y-78971428D01*
X222502857Y-78971428D01*
X223169523Y-80304761D02*
X223169523Y-78971428D01*
X223169523Y-79161904D02*
X223264761Y-79066666D01*
X223455238Y-78971428D01*
X223740952Y-78971428D01*
X223931428Y-79066666D01*
X224026666Y-79257142D01*
X224026666Y-80304761D01*
X224026666Y-79257142D02*
X224121904Y-79066666D01*
X224312380Y-78971428D01*
X224598095Y-78971428D01*
X224788571Y-79066666D01*
X224883809Y-79257142D01*
X224883809Y-80304761D01*
X226693333Y-80304761D02*
X226693333Y-79257142D01*
X226598095Y-79066666D01*
X226407619Y-78971428D01*
X226026666Y-78971428D01*
X225836190Y-79066666D01*
X226693333Y-80209523D02*
X226502857Y-80304761D01*
X226026666Y-80304761D01*
X225836190Y-80209523D01*
X225740952Y-80019047D01*
X225740952Y-79828571D01*
X225836190Y-79638095D01*
X226026666Y-79542857D01*
X226502857Y-79542857D01*
X226693333Y-79447619D01*
X227550476Y-80209523D02*
X227740952Y-80304761D01*
X228121904Y-80304761D01*
X228312380Y-80209523D01*
X228407619Y-80019047D01*
X228407619Y-79923809D01*
X228312380Y-79733333D01*
X228121904Y-79638095D01*
X227836190Y-79638095D01*
X227645714Y-79542857D01*
X227550476Y-79352380D01*
X227550476Y-79257142D01*
X227645714Y-79066666D01*
X227836190Y-78971428D01*
X228121904Y-78971428D01*
X228312380Y-79066666D01*
X229264761Y-80304761D02*
X229264761Y-78304761D01*
X229455238Y-79542857D02*
X230026666Y-80304761D01*
X230026666Y-78971428D02*
X229264761Y-79733333D01*
X205836190Y-87104761D02*
X205836190Y-85104761D01*
X206502857Y-86533333D01*
X207169523Y-85104761D01*
X207169523Y-87104761D01*
X208121904Y-87104761D02*
X208121904Y-85771428D01*
X208121904Y-85104761D02*
X208026666Y-85200000D01*
X208121904Y-85295238D01*
X208217142Y-85200000D01*
X208121904Y-85104761D01*
X208121904Y-85295238D01*
X209074285Y-85771428D02*
X209074285Y-87104761D01*
X209074285Y-85961904D02*
X209169523Y-85866666D01*
X209360000Y-85771428D01*
X209645714Y-85771428D01*
X209836190Y-85866666D01*
X209931428Y-86057142D01*
X209931428Y-87104761D01*
X212217142Y-85771428D02*
X212693333Y-87104761D01*
X213169523Y-85771428D01*
X213931428Y-87104761D02*
X213931428Y-85771428D01*
X213931428Y-85104761D02*
X213836190Y-85200000D01*
X213931428Y-85295238D01*
X214026666Y-85200000D01*
X213931428Y-85104761D01*
X213931428Y-85295238D01*
X215740952Y-87104761D02*
X215740952Y-86057142D01*
X215645714Y-85866666D01*
X215455238Y-85771428D01*
X215074285Y-85771428D01*
X214883809Y-85866666D01*
X215740952Y-87009523D02*
X215550476Y-87104761D01*
X215074285Y-87104761D01*
X214883809Y-87009523D01*
X214788571Y-86819047D01*
X214788571Y-86628571D01*
X214883809Y-86438095D01*
X215074285Y-86342857D01*
X215550476Y-86342857D01*
X215740952Y-86247619D01*
X219074285Y-87104761D02*
X219074285Y-85104761D01*
X219074285Y-87009523D02*
X218883809Y-87104761D01*
X218502857Y-87104761D01*
X218312380Y-87009523D01*
X218217142Y-86914285D01*
X218121904Y-86723809D01*
X218121904Y-86152380D01*
X218217142Y-85961904D01*
X218312380Y-85866666D01*
X218502857Y-85771428D01*
X218883809Y-85771428D01*
X219074285Y-85866666D01*
X220026666Y-87104761D02*
X220026666Y-85771428D01*
X220026666Y-86152380D02*
X220121904Y-85961904D01*
X220217142Y-85866666D01*
X220407619Y-85771428D01*
X220598095Y-85771428D01*
X221264761Y-87104761D02*
X221264761Y-85771428D01*
X221264761Y-85104761D02*
X221169523Y-85200000D01*
X221264761Y-85295238D01*
X221360000Y-85200000D01*
X221264761Y-85104761D01*
X221264761Y-85295238D01*
X222502857Y-87104761D02*
X222312380Y-87009523D01*
X222217142Y-86819047D01*
X222217142Y-85104761D01*
X223550476Y-87104761D02*
X223360000Y-87009523D01*
X223264761Y-86819047D01*
X223264761Y-85104761D01*
X224312380Y-86914285D02*
X224407619Y-87009523D01*
X224312380Y-87104761D01*
X224217142Y-87009523D01*
X224312380Y-86914285D01*
X224312380Y-87104761D01*
X224312380Y-85866666D02*
X224407619Y-85961904D01*
X224312380Y-86057142D01*
X224217142Y-85961904D01*
X224312380Y-85866666D01*
X224312380Y-86057142D01*
X227169523Y-85104761D02*
X227360000Y-85104761D01*
X227550476Y-85200000D01*
X227645714Y-85295238D01*
X227740952Y-85485714D01*
X227836190Y-85866666D01*
X227836190Y-86342857D01*
X227740952Y-86723809D01*
X227645714Y-86914285D01*
X227550476Y-87009523D01*
X227360000Y-87104761D01*
X227169523Y-87104761D01*
X226979047Y-87009523D01*
X226883809Y-86914285D01*
X226788571Y-86723809D01*
X226693333Y-86342857D01*
X226693333Y-85866666D01*
X226788571Y-85485714D01*
X226883809Y-85295238D01*
X226979047Y-85200000D01*
X227169523Y-85104761D01*
X228693333Y-86914285D02*
X228788571Y-87009523D01*
X228693333Y-87104761D01*
X228598095Y-87009523D01*
X228693333Y-86914285D01*
X228693333Y-87104761D01*
X230502857Y-85771428D02*
X230502857Y-87104761D01*
X230026666Y-85009523D02*
X229550476Y-86438095D01*
X230788571Y-86438095D01*
X231550476Y-87104761D02*
X231550476Y-85771428D01*
X231550476Y-85961904D02*
X231645714Y-85866666D01*
X231836190Y-85771428D01*
X232121904Y-85771428D01*
X232312380Y-85866666D01*
X232407619Y-86057142D01*
X232407619Y-87104761D01*
X232407619Y-86057142D02*
X232502857Y-85866666D01*
X232693333Y-85771428D01*
X232979047Y-85771428D01*
X233169523Y-85866666D01*
X233264761Y-86057142D01*
X233264761Y-87104761D01*
X234217142Y-87104761D02*
X234217142Y-85771428D01*
X234217142Y-85961904D02*
X234312380Y-85866666D01*
X234502857Y-85771428D01*
X234788571Y-85771428D01*
X234979047Y-85866666D01*
X235074285Y-86057142D01*
X235074285Y-87104761D01*
X235074285Y-86057142D02*
X235169523Y-85866666D01*
X235360000Y-85771428D01*
X235645714Y-85771428D01*
X235836190Y-85866666D01*
X235931428Y-86057142D01*
X235931428Y-87104761D01*
X205836190Y-90504761D02*
X205836190Y-88504761D01*
X206502857Y-89933333D01*
X207169523Y-88504761D01*
X207169523Y-90504761D01*
X208121904Y-90504761D02*
X208121904Y-89171428D01*
X208121904Y-88504761D02*
X208026666Y-88600000D01*
X208121904Y-88695238D01*
X208217142Y-88600000D01*
X208121904Y-88504761D01*
X208121904Y-88695238D01*
X209074285Y-89171428D02*
X209074285Y-90504761D01*
X209074285Y-89361904D02*
X209169523Y-89266666D01*
X209360000Y-89171428D01*
X209645714Y-89171428D01*
X209836190Y-89266666D01*
X209931428Y-89457142D01*
X209931428Y-90504761D01*
X212121904Y-89171428D02*
X212883809Y-89171428D01*
X212407619Y-88504761D02*
X212407619Y-90219047D01*
X212502857Y-90409523D01*
X212693333Y-90504761D01*
X212883809Y-90504761D01*
X213550476Y-90504761D02*
X213550476Y-89171428D01*
X213550476Y-89552380D02*
X213645714Y-89361904D01*
X213740952Y-89266666D01*
X213931428Y-89171428D01*
X214121904Y-89171428D01*
X215645714Y-90504761D02*
X215645714Y-89457142D01*
X215550476Y-89266666D01*
X215360000Y-89171428D01*
X214979047Y-89171428D01*
X214788571Y-89266666D01*
X215645714Y-90409523D02*
X215455238Y-90504761D01*
X214979047Y-90504761D01*
X214788571Y-90409523D01*
X214693333Y-90219047D01*
X214693333Y-90028571D01*
X214788571Y-89838095D01*
X214979047Y-89742857D01*
X215455238Y-89742857D01*
X215645714Y-89647619D01*
X217455238Y-90409523D02*
X217264761Y-90504761D01*
X216883809Y-90504761D01*
X216693333Y-90409523D01*
X216598095Y-90314285D01*
X216502857Y-90123809D01*
X216502857Y-89552380D01*
X216598095Y-89361904D01*
X216693333Y-89266666D01*
X216883809Y-89171428D01*
X217264761Y-89171428D01*
X217455238Y-89266666D01*
X218312380Y-90504761D02*
X218312380Y-88504761D01*
X218502857Y-89742857D02*
X219074285Y-90504761D01*
X219074285Y-89171428D02*
X218312380Y-89933333D01*
X221169523Y-89171428D02*
X221931428Y-89171428D01*
X221455238Y-88504761D02*
X221455238Y-90219047D01*
X221550476Y-90409523D01*
X221740952Y-90504761D01*
X221931428Y-90504761D01*
X222598095Y-90504761D02*
X222598095Y-88504761D01*
X223455238Y-90504761D02*
X223455238Y-89457142D01*
X223360000Y-89266666D01*
X223169523Y-89171428D01*
X222883809Y-89171428D01*
X222693333Y-89266666D01*
X222598095Y-89361904D01*
X224407619Y-90504761D02*
X224407619Y-89171428D01*
X224407619Y-88504761D02*
X224312380Y-88600000D01*
X224407619Y-88695238D01*
X224502857Y-88600000D01*
X224407619Y-88504761D01*
X224407619Y-88695238D01*
X226217142Y-90409523D02*
X226026666Y-90504761D01*
X225645714Y-90504761D01*
X225455238Y-90409523D01*
X225360000Y-90314285D01*
X225264761Y-90123809D01*
X225264761Y-89552380D01*
X225360000Y-89361904D01*
X225455238Y-89266666D01*
X225645714Y-89171428D01*
X226026666Y-89171428D01*
X226217142Y-89266666D01*
X227074285Y-90504761D02*
X227074285Y-88504761D01*
X227264761Y-89742857D02*
X227836190Y-90504761D01*
X227836190Y-89171428D02*
X227074285Y-89933333D01*
X228693333Y-89171428D02*
X228693333Y-90504761D01*
X228693333Y-89361904D02*
X228788571Y-89266666D01*
X228979047Y-89171428D01*
X229264761Y-89171428D01*
X229455238Y-89266666D01*
X229550476Y-89457142D01*
X229550476Y-90504761D01*
X231264761Y-90409523D02*
X231074285Y-90504761D01*
X230693333Y-90504761D01*
X230502857Y-90409523D01*
X230407619Y-90219047D01*
X230407619Y-89457142D01*
X230502857Y-89266666D01*
X230693333Y-89171428D01*
X231074285Y-89171428D01*
X231264761Y-89266666D01*
X231360000Y-89457142D01*
X231360000Y-89647619D01*
X230407619Y-89838095D01*
X232121904Y-90409523D02*
X232312380Y-90504761D01*
X232693333Y-90504761D01*
X232883809Y-90409523D01*
X232979047Y-90219047D01*
X232979047Y-90123809D01*
X232883809Y-89933333D01*
X232693333Y-89838095D01*
X232407619Y-89838095D01*
X232217142Y-89742857D01*
X232121904Y-89552380D01*
X232121904Y-89457142D01*
X232217142Y-89266666D01*
X232407619Y-89171428D01*
X232693333Y-89171428D01*
X232883809Y-89266666D01*
X233740952Y-90409523D02*
X233931428Y-90504761D01*
X234312380Y-90504761D01*
X234502857Y-90409523D01*
X234598095Y-90219047D01*
X234598095Y-90123809D01*
X234502857Y-89933333D01*
X234312380Y-89838095D01*
X234026666Y-89838095D01*
X233836190Y-89742857D01*
X233740952Y-89552380D01*
X233740952Y-89457142D01*
X233836190Y-89266666D01*
X234026666Y-89171428D01*
X234312380Y-89171428D01*
X234502857Y-89266666D01*
X235455238Y-90314285D02*
X235550476Y-90409523D01*
X235455238Y-90504761D01*
X235360000Y-90409523D01*
X235455238Y-90314285D01*
X235455238Y-90504761D01*
X235455238Y-89266666D02*
X235550476Y-89361904D01*
X235455238Y-89457142D01*
X235360000Y-89361904D01*
X235455238Y-89266666D01*
X235455238Y-89457142D01*
X238312380Y-88504761D02*
X238502857Y-88504761D01*
X238693333Y-88600000D01*
X238788571Y-88695238D01*
X238883809Y-88885714D01*
X238979047Y-89266666D01*
X238979047Y-89742857D01*
X238883809Y-90123809D01*
X238788571Y-90314285D01*
X238693333Y-90409523D01*
X238502857Y-90504761D01*
X238312380Y-90504761D01*
X238121904Y-90409523D01*
X238026666Y-90314285D01*
X237931428Y-90123809D01*
X237836190Y-89742857D01*
X237836190Y-89266666D01*
X237931428Y-88885714D01*
X238026666Y-88695238D01*
X238121904Y-88600000D01*
X238312380Y-88504761D01*
X239836190Y-90314285D02*
X239931428Y-90409523D01*
X239836190Y-90504761D01*
X239740952Y-90409523D01*
X239836190Y-90314285D01*
X239836190Y-90504761D01*
X240693333Y-88695238D02*
X240788571Y-88600000D01*
X240979047Y-88504761D01*
X241455238Y-88504761D01*
X241645714Y-88600000D01*
X241740952Y-88695238D01*
X241836190Y-88885714D01*
X241836190Y-89076190D01*
X241740952Y-89361904D01*
X240598095Y-90504761D01*
X241836190Y-90504761D01*
X243645714Y-88504761D02*
X242693333Y-88504761D01*
X242598095Y-89457142D01*
X242693333Y-89361904D01*
X242883809Y-89266666D01*
X243360000Y-89266666D01*
X243550476Y-89361904D01*
X243645714Y-89457142D01*
X243740952Y-89647619D01*
X243740952Y-90123809D01*
X243645714Y-90314285D01*
X243550476Y-90409523D01*
X243360000Y-90504761D01*
X242883809Y-90504761D01*
X242693333Y-90409523D01*
X242598095Y-90314285D01*
X244598095Y-90504761D02*
X244598095Y-89171428D01*
X244598095Y-89361904D02*
X244693333Y-89266666D01*
X244883809Y-89171428D01*
X245169523Y-89171428D01*
X245360000Y-89266666D01*
X245455238Y-89457142D01*
X245455238Y-90504761D01*
X245455238Y-89457142D02*
X245550476Y-89266666D01*
X245740952Y-89171428D01*
X246026666Y-89171428D01*
X246217142Y-89266666D01*
X246312380Y-89457142D01*
X246312380Y-90504761D01*
X247264761Y-90504761D02*
X247264761Y-89171428D01*
X247264761Y-89361904D02*
X247360000Y-89266666D01*
X247550476Y-89171428D01*
X247836190Y-89171428D01*
X248026666Y-89266666D01*
X248121904Y-89457142D01*
X248121904Y-90504761D01*
X248121904Y-89457142D02*
X248217142Y-89266666D01*
X248407619Y-89171428D01*
X248693333Y-89171428D01*
X248883809Y-89266666D01*
X248979047Y-89457142D01*
X248979047Y-90504761D01*
X205836190Y-93904761D02*
X205836190Y-91904761D01*
X206502857Y-93333333D01*
X207169523Y-91904761D01*
X207169523Y-93904761D01*
X208121904Y-93904761D02*
X208121904Y-92571428D01*
X208121904Y-91904761D02*
X208026666Y-92000000D01*
X208121904Y-92095238D01*
X208217142Y-92000000D01*
X208121904Y-91904761D01*
X208121904Y-92095238D01*
X209074285Y-92571428D02*
X209074285Y-93904761D01*
X209074285Y-92761904D02*
X209169523Y-92666666D01*
X209360000Y-92571428D01*
X209645714Y-92571428D01*
X209836190Y-92666666D01*
X209931428Y-92857142D01*
X209931428Y-93904761D01*
X213264761Y-93809523D02*
X213074285Y-93904761D01*
X212693333Y-93904761D01*
X212502857Y-93809523D01*
X212407619Y-93714285D01*
X212312380Y-93523809D01*
X212312380Y-92952380D01*
X212407619Y-92761904D01*
X212502857Y-92666666D01*
X212693333Y-92571428D01*
X213074285Y-92571428D01*
X213264761Y-92666666D01*
X214407619Y-93904761D02*
X214217142Y-93809523D01*
X214121904Y-93619047D01*
X214121904Y-91904761D01*
X215931428Y-93809523D02*
X215740952Y-93904761D01*
X215360000Y-93904761D01*
X215169523Y-93809523D01*
X215074285Y-93619047D01*
X215074285Y-92857142D01*
X215169523Y-92666666D01*
X215360000Y-92571428D01*
X215740952Y-92571428D01*
X215931428Y-92666666D01*
X216026666Y-92857142D01*
X216026666Y-93047619D01*
X215074285Y-93238095D01*
X217740952Y-93904761D02*
X217740952Y-92857142D01*
X217645714Y-92666666D01*
X217455238Y-92571428D01*
X217074285Y-92571428D01*
X216883809Y-92666666D01*
X217740952Y-93809523D02*
X217550476Y-93904761D01*
X217074285Y-93904761D01*
X216883809Y-93809523D01*
X216788571Y-93619047D01*
X216788571Y-93428571D01*
X216883809Y-93238095D01*
X217074285Y-93142857D01*
X217550476Y-93142857D01*
X217740952Y-93047619D01*
X218693333Y-93904761D02*
X218693333Y-92571428D01*
X218693333Y-92952380D02*
X218788571Y-92761904D01*
X218883809Y-92666666D01*
X219074285Y-92571428D01*
X219264761Y-92571428D01*
X220788571Y-93904761D02*
X220788571Y-92857142D01*
X220693333Y-92666666D01*
X220502857Y-92571428D01*
X220121904Y-92571428D01*
X219931428Y-92666666D01*
X220788571Y-93809523D02*
X220598095Y-93904761D01*
X220121904Y-93904761D01*
X219931428Y-93809523D01*
X219836190Y-93619047D01*
X219836190Y-93428571D01*
X219931428Y-93238095D01*
X220121904Y-93142857D01*
X220598095Y-93142857D01*
X220788571Y-93047619D01*
X221740952Y-92571428D02*
X221740952Y-93904761D01*
X221740952Y-92761904D02*
X221836190Y-92666666D01*
X222026666Y-92571428D01*
X222312380Y-92571428D01*
X222502857Y-92666666D01*
X222598095Y-92857142D01*
X222598095Y-93904761D01*
X224407619Y-93809523D02*
X224217142Y-93904761D01*
X223836190Y-93904761D01*
X223645714Y-93809523D01*
X223550476Y-93714285D01*
X223455238Y-93523809D01*
X223455238Y-92952380D01*
X223550476Y-92761904D01*
X223645714Y-92666666D01*
X223836190Y-92571428D01*
X224217142Y-92571428D01*
X224407619Y-92666666D01*
X226026666Y-93809523D02*
X225836190Y-93904761D01*
X225455238Y-93904761D01*
X225264761Y-93809523D01*
X225169523Y-93619047D01*
X225169523Y-92857142D01*
X225264761Y-92666666D01*
X225455238Y-92571428D01*
X225836190Y-92571428D01*
X226026666Y-92666666D01*
X226121904Y-92857142D01*
X226121904Y-93047619D01*
X225169523Y-93238095D01*
X226979047Y-93714285D02*
X227074285Y-93809523D01*
X226979047Y-93904761D01*
X226883809Y-93809523D01*
X226979047Y-93714285D01*
X226979047Y-93904761D01*
X226979047Y-92666666D02*
X227074285Y-92761904D01*
X226979047Y-92857142D01*
X226883809Y-92761904D01*
X226979047Y-92666666D01*
X226979047Y-92857142D01*
X229836190Y-91904761D02*
X230026666Y-91904761D01*
X230217142Y-92000000D01*
X230312380Y-92095238D01*
X230407619Y-92285714D01*
X230502857Y-92666666D01*
X230502857Y-93142857D01*
X230407619Y-93523809D01*
X230312380Y-93714285D01*
X230217142Y-93809523D01*
X230026666Y-93904761D01*
X229836190Y-93904761D01*
X229645714Y-93809523D01*
X229550476Y-93714285D01*
X229455238Y-93523809D01*
X229360000Y-93142857D01*
X229360000Y-92666666D01*
X229455238Y-92285714D01*
X229550476Y-92095238D01*
X229645714Y-92000000D01*
X229836190Y-91904761D01*
X231360000Y-93714285D02*
X231455238Y-93809523D01*
X231360000Y-93904761D01*
X231264761Y-93809523D01*
X231360000Y-93714285D01*
X231360000Y-93904761D01*
X232217142Y-92095238D02*
X232312380Y-92000000D01*
X232502857Y-91904761D01*
X232979047Y-91904761D01*
X233169523Y-92000000D01*
X233264761Y-92095238D01*
X233360000Y-92285714D01*
X233360000Y-92476190D01*
X233264761Y-92761904D01*
X232121904Y-93904761D01*
X233360000Y-93904761D01*
X235169523Y-91904761D02*
X234217142Y-91904761D01*
X234121904Y-92857142D01*
X234217142Y-92761904D01*
X234407619Y-92666666D01*
X234883809Y-92666666D01*
X235074285Y-92761904D01*
X235169523Y-92857142D01*
X235264761Y-93047619D01*
X235264761Y-93523809D01*
X235169523Y-93714285D01*
X235074285Y-93809523D01*
X234883809Y-93904761D01*
X234407619Y-93904761D01*
X234217142Y-93809523D01*
X234121904Y-93714285D01*
X236121904Y-93904761D02*
X236121904Y-92571428D01*
X236121904Y-92761904D02*
X236217142Y-92666666D01*
X236407619Y-92571428D01*
X236693333Y-92571428D01*
X236883809Y-92666666D01*
X236979047Y-92857142D01*
X236979047Y-93904761D01*
X236979047Y-92857142D02*
X237074285Y-92666666D01*
X237264761Y-92571428D01*
X237550476Y-92571428D01*
X237740952Y-92666666D01*
X237836190Y-92857142D01*
X237836190Y-93904761D01*
X238788571Y-93904761D02*
X238788571Y-92571428D01*
X238788571Y-92761904D02*
X238883809Y-92666666D01*
X239074285Y-92571428D01*
X239360000Y-92571428D01*
X239550476Y-92666666D01*
X239645714Y-92857142D01*
X239645714Y-93904761D01*
X239645714Y-92857142D02*
X239740952Y-92666666D01*
X239931428Y-92571428D01*
X240217142Y-92571428D01*
X240407619Y-92666666D01*
X240502857Y-92857142D01*
X240502857Y-93904761D01*
M02*
