M48
; DRILL file {KiCad (5.1.0-0)} date Tuesday, 28 May 2019 at 11:35:51 am
; FORMAT={-:-/ absolute / metric / decimal}
; #@! TF.CreationDate,2019-05-28T11:35:51+09:30
; #@! TF.GenerationSoftware,Kicad,Pcbnew,(5.1.0-0)
; #@! TF.FileFunction,Plated,1,2,PTH
FMAT,2
METRIC
T1C0.400
T2C1.016
%
G90
G05
T1
X138.1Y-81.5
X138.3Y-82.7
X142.12Y-86.225
X142.9Y-75.1
X143.0Y-73.4
X143.0Y-83.6
X143.575Y-86.725
X143.8Y-66.9
X143.816Y-74.175
X144.0Y-69.6
X144.0Y-79.3
X145.75Y-78.5
X146.5Y-81.7
X148.9Y-85.4
X151.4Y-73.4
X151.4Y-81.4
X152.5Y-74.0
X153.165Y-74.84
X153.7Y-81.4
X155.5Y-83.75
X156.2Y-77.5
X158.2Y-73.0
X158.2Y-75.0
X158.75Y-79.5
X161.25Y-87.5
X161.5Y-85.2
X162.2Y-66.8
X162.5Y-69.6
X163.6Y-78.8
X164.6Y-81.7
X165.9Y-87.1
X168.6Y-86.7
X170.0Y-85.9
X170.3Y-81.6
X173.3Y-80.5
X173.4Y-86.9
X174.1Y-87.8
X174.2Y-86.1
X174.7Y-79.1
X176.6Y-73.0
X176.6Y-75.0
X179.0Y-84.8
X179.5Y-86.9
X180.6Y-66.9
X181.0Y-69.6
X181.1Y-78.5
X183.2Y-80.0
X188.7Y-81.4
X191.75Y-80.0
X191.75Y-84.75
X193.8Y-76.5
T2
X143.42Y-62.0
X145.96Y-62.0
X148.5Y-62.0
X151.04Y-62.0
X153.58Y-62.0
X156.12Y-62.0
X180.42Y-62.0
X182.96Y-62.0
X185.5Y-62.0
X188.04Y-62.0
X190.58Y-62.0
X193.12Y-62.0
X137.0Y-62.0
X137.0Y-64.54
X137.0Y-67.08
X137.0Y-69.62
X137.0Y-72.16
X137.0Y-74.7
X137.0Y-77.24
X137.0Y-79.78
X161.92Y-62.0
X164.46Y-62.0
X167.0Y-62.0
X169.54Y-62.0
X172.08Y-62.0
X174.62Y-62.0
T0
M30
