G04 #@! TF.GenerationSoftware,KiCad,Pcbnew,(5.1.0-0)*
G04 #@! TF.CreationDate,2019-05-28T11:35:41+09:30*
G04 #@! TF.ProjectId,triax-loadwing,74726961-782d-46c6-9f61-6477696e672e,V1.0*
G04 #@! TF.SameCoordinates,Original*
G04 #@! TF.FileFunction,Copper,L2,Bot*
G04 #@! TF.FilePolarity,Positive*
%FSLAX46Y46*%
G04 Gerber Fmt 4.6, Leading zero omitted, Abs format (unit mm)*
G04 Created by KiCad (PCBNEW (5.1.0-0)) date 2019-05-28 11:35:41*
%MOMM*%
%LPD*%
G04 APERTURE LIST*
%ADD10O,2.032000X1.727200*%
%ADD11R,2.032000X1.727200*%
%ADD12O,1.727200X2.032000*%
%ADD13R,1.727200X2.032000*%
%ADD14C,0.800000*%
%ADD15C,0.250000*%
%ADD16C,0.254000*%
G04 APERTURE END LIST*
D10*
X137000000Y-79780000D03*
X137000000Y-77240000D03*
X137000000Y-74700000D03*
X137000000Y-72160000D03*
X137000000Y-69620000D03*
X137000000Y-67080000D03*
X137000000Y-64540000D03*
D11*
X137000000Y-62000000D03*
D12*
X143420000Y-62000000D03*
X145960000Y-62000000D03*
X148500000Y-62000000D03*
X151040000Y-62000000D03*
X153580000Y-62000000D03*
D13*
X156120000Y-62000000D03*
D12*
X161920000Y-62000000D03*
X164460000Y-62000000D03*
X167000000Y-62000000D03*
X169540000Y-62000000D03*
X172080000Y-62000000D03*
D13*
X174620000Y-62000000D03*
D12*
X180420000Y-62000000D03*
X182960000Y-62000000D03*
X185500000Y-62000000D03*
X188040000Y-62000000D03*
X190580000Y-62000000D03*
D13*
X193120000Y-62000000D03*
D14*
X161250000Y-87500000D03*
X158750000Y-79500000D03*
X179500000Y-86900000D03*
X143000000Y-83600000D03*
X176600000Y-75000000D03*
X176600000Y-73000000D03*
X193800000Y-76500000D03*
X181100000Y-78500000D03*
X181000000Y-69600000D03*
X162500000Y-69600000D03*
X158200000Y-73000000D03*
X158200000Y-75000000D03*
X144000000Y-69600000D03*
X191750000Y-84750000D03*
X191750000Y-80000000D03*
X144000000Y-79300000D03*
X153700000Y-81400000D03*
X143800000Y-66900000D03*
X162200000Y-66800000D03*
X180600000Y-66900000D03*
X148900000Y-85400000D03*
X173300000Y-80500000D03*
X163600004Y-78800000D03*
X183200000Y-80000000D03*
X188700000Y-81400000D03*
X151400000Y-81400000D03*
X146500000Y-81700000D03*
X170300000Y-81600000D03*
X164600000Y-81700000D03*
X165900000Y-87100000D03*
X174100000Y-87800000D03*
X173400000Y-86900000D03*
X168599996Y-86700000D03*
X155500000Y-83750000D03*
X174200000Y-86100000D03*
X170000000Y-85900000D03*
X161500000Y-85200000D03*
X174700008Y-79100000D03*
X143816231Y-74174990D03*
X152500000Y-74000000D03*
X142900006Y-75100000D03*
X156200000Y-77500000D03*
X153165100Y-74839780D03*
X145750000Y-78500000D03*
X143000000Y-73400000D03*
X151400000Y-73400000D03*
X179000000Y-84800000D03*
X138100000Y-81500000D03*
X143575000Y-86725000D03*
X138300000Y-82700000D03*
X142120000Y-86225000D03*
D15*
X183765685Y-80000000D02*
X183200000Y-80000000D01*
X187300000Y-80000000D02*
X183765685Y-80000000D01*
X188700000Y-81400000D02*
X187300000Y-80000000D01*
X151100000Y-81700000D02*
X151400000Y-81400000D01*
X146500000Y-81700000D02*
X151100000Y-81700000D01*
X170200000Y-81700000D02*
X170300000Y-81600000D01*
X164600000Y-81700000D02*
X170200000Y-81700000D01*
X167600000Y-87100000D02*
X168300000Y-87800000D01*
X168300000Y-87800000D02*
X174100000Y-87800000D01*
X165900000Y-87100000D02*
X167600000Y-87100000D01*
X168799996Y-86900000D02*
X168599996Y-86700000D01*
X173400000Y-86900000D02*
X168799996Y-86900000D01*
X174000000Y-85900000D02*
X174200000Y-86100000D01*
X170000000Y-85900000D02*
X174000000Y-85900000D01*
X160050000Y-83750000D02*
X161500000Y-85200000D01*
X155500000Y-83750000D02*
X160050000Y-83750000D01*
X137525010Y-74174990D02*
X143816231Y-74174990D01*
X137000000Y-74700000D02*
X137525010Y-74174990D01*
X172300008Y-76700000D02*
X174300009Y-78700001D01*
X156200000Y-76700000D02*
X172300008Y-76700000D01*
X174300009Y-78700001D02*
X174700008Y-79100000D01*
X153500000Y-74000000D02*
X156200000Y-76700000D01*
X152500000Y-74000000D02*
X153500000Y-74000000D01*
X142600006Y-74800000D02*
X142900006Y-75100000D01*
X137060000Y-77240000D02*
X139500000Y-74800000D01*
X139500000Y-74800000D02*
X142600006Y-74800000D01*
X137000000Y-77240000D02*
X137060000Y-77240000D01*
X156200000Y-77500000D02*
X153539780Y-74839780D01*
X153539780Y-74839780D02*
X153165100Y-74839780D01*
X145250000Y-78000000D02*
X145750000Y-78500000D01*
X138800000Y-78000000D02*
X145250000Y-78000000D01*
X137020000Y-79780000D02*
X138800000Y-78000000D01*
X137000000Y-79780000D02*
X137020000Y-79780000D01*
X138240000Y-73400000D02*
X143000000Y-73400000D01*
X137000000Y-72160000D02*
X138240000Y-73400000D01*
X151400000Y-74100000D02*
X151400000Y-73400000D01*
X155600000Y-78300000D02*
X151400000Y-74100000D01*
X179000000Y-84500000D02*
X171700000Y-77200000D01*
X179000000Y-84800000D02*
X179000000Y-84500000D01*
X157700000Y-77200000D02*
X156600000Y-78300000D01*
X171700000Y-77200000D02*
X157700000Y-77200000D01*
X156600000Y-78300000D02*
X155600000Y-78300000D01*
X138200000Y-81600000D02*
X138100000Y-81500000D01*
X138600000Y-81600000D02*
X138200000Y-81600000D01*
X143575000Y-86575000D02*
X138600000Y-81600000D01*
X143575000Y-86725000D02*
X143575000Y-86575000D01*
X138900000Y-82700000D02*
X138300000Y-82700000D01*
X142120000Y-85920000D02*
X138900000Y-82700000D01*
X142120000Y-86225000D02*
X142120000Y-85920000D01*
D16*
G36*
X142639221Y-60679080D02*
G01*
X142426256Y-60853855D01*
X142251480Y-61066820D01*
X142121610Y-61309789D01*
X142041637Y-61573426D01*
X142021400Y-61778894D01*
X142021400Y-62221105D01*
X142041637Y-62426573D01*
X142121610Y-62690210D01*
X142251480Y-62933179D01*
X142426255Y-63146144D01*
X142639220Y-63320920D01*
X142882189Y-63450790D01*
X143145826Y-63530763D01*
X143420000Y-63557767D01*
X143694173Y-63530763D01*
X143957810Y-63450790D01*
X144200779Y-63320920D01*
X144413744Y-63146145D01*
X144588520Y-62933180D01*
X144690000Y-62743324D01*
X144791480Y-62933179D01*
X144966255Y-63146144D01*
X145179220Y-63320920D01*
X145422189Y-63450790D01*
X145685826Y-63530763D01*
X145960000Y-63557767D01*
X146234173Y-63530763D01*
X146497810Y-63450790D01*
X146740779Y-63320920D01*
X146953744Y-63146145D01*
X147128520Y-62933180D01*
X147234431Y-62735035D01*
X147293244Y-62862111D01*
X147454889Y-63083901D01*
X147656697Y-63269894D01*
X147890913Y-63412942D01*
X148148536Y-63507548D01*
X148156678Y-63508207D01*
X148373000Y-63410858D01*
X148373000Y-62127000D01*
X148353000Y-62127000D01*
X148353000Y-61873000D01*
X148373000Y-61873000D01*
X148373000Y-61853000D01*
X148627000Y-61853000D01*
X148627000Y-61873000D01*
X148647000Y-61873000D01*
X148647000Y-62127000D01*
X148627000Y-62127000D01*
X148627000Y-63410858D01*
X148843322Y-63508207D01*
X148851464Y-63507548D01*
X149109087Y-63412942D01*
X149343303Y-63269894D01*
X149545111Y-63083901D01*
X149706756Y-62862111D01*
X149765569Y-62735034D01*
X149871480Y-62933179D01*
X150046255Y-63146144D01*
X150259220Y-63320920D01*
X150502189Y-63450790D01*
X150765826Y-63530763D01*
X151040000Y-63557767D01*
X151314173Y-63530763D01*
X151577810Y-63450790D01*
X151820779Y-63320920D01*
X152033744Y-63146145D01*
X152208520Y-62933180D01*
X152310000Y-62743324D01*
X152411480Y-62933179D01*
X152586255Y-63146144D01*
X152799220Y-63320920D01*
X153042189Y-63450790D01*
X153305826Y-63530763D01*
X153580000Y-63557767D01*
X153854173Y-63530763D01*
X154117810Y-63450790D01*
X154360779Y-63320920D01*
X154573744Y-63146145D01*
X154718812Y-62969379D01*
X154718812Y-63016000D01*
X154729142Y-63120878D01*
X154759733Y-63221726D01*
X154809412Y-63314668D01*
X154876268Y-63396132D01*
X154957732Y-63462988D01*
X155050674Y-63512667D01*
X155151522Y-63543258D01*
X155256400Y-63553588D01*
X156983600Y-63553588D01*
X157088478Y-63543258D01*
X157189326Y-63512667D01*
X157282268Y-63462988D01*
X157363732Y-63396132D01*
X157430588Y-63314668D01*
X157480267Y-63221726D01*
X157510858Y-63120878D01*
X157521188Y-63016000D01*
X157521188Y-60984000D01*
X157510858Y-60879122D01*
X157480267Y-60778274D01*
X157430588Y-60685332D01*
X157363732Y-60603868D01*
X157310279Y-60560000D01*
X161362003Y-60560000D01*
X161139221Y-60679080D01*
X160926256Y-60853855D01*
X160751480Y-61066820D01*
X160621610Y-61309789D01*
X160541637Y-61573426D01*
X160521400Y-61778894D01*
X160521400Y-62221105D01*
X160541637Y-62426573D01*
X160621610Y-62690210D01*
X160751480Y-62933179D01*
X160926255Y-63146144D01*
X161139220Y-63320920D01*
X161382189Y-63450790D01*
X161645826Y-63530763D01*
X161920000Y-63557767D01*
X162194173Y-63530763D01*
X162457810Y-63450790D01*
X162700779Y-63320920D01*
X162913744Y-63146145D01*
X163088520Y-62933180D01*
X163190000Y-62743324D01*
X163291480Y-62933179D01*
X163466255Y-63146144D01*
X163679220Y-63320920D01*
X163922189Y-63450790D01*
X164185826Y-63530763D01*
X164460000Y-63557767D01*
X164734173Y-63530763D01*
X164997810Y-63450790D01*
X165240779Y-63320920D01*
X165453744Y-63146145D01*
X165628520Y-62933180D01*
X165734431Y-62735035D01*
X165793244Y-62862111D01*
X165954889Y-63083901D01*
X166156697Y-63269894D01*
X166390913Y-63412942D01*
X166648536Y-63507548D01*
X166656678Y-63508207D01*
X166873000Y-63410858D01*
X166873000Y-62127000D01*
X166853000Y-62127000D01*
X166853000Y-61873000D01*
X166873000Y-61873000D01*
X166873000Y-61853000D01*
X167127000Y-61853000D01*
X167127000Y-61873000D01*
X167147000Y-61873000D01*
X167147000Y-62127000D01*
X167127000Y-62127000D01*
X167127000Y-63410858D01*
X167343322Y-63508207D01*
X167351464Y-63507548D01*
X167609087Y-63412942D01*
X167843303Y-63269894D01*
X168045111Y-63083901D01*
X168206756Y-62862111D01*
X168265569Y-62735034D01*
X168371480Y-62933179D01*
X168546255Y-63146144D01*
X168759220Y-63320920D01*
X169002189Y-63450790D01*
X169265826Y-63530763D01*
X169540000Y-63557767D01*
X169814173Y-63530763D01*
X170077810Y-63450790D01*
X170320779Y-63320920D01*
X170533744Y-63146145D01*
X170708520Y-62933180D01*
X170810000Y-62743324D01*
X170911480Y-62933179D01*
X171086255Y-63146144D01*
X171299220Y-63320920D01*
X171542189Y-63450790D01*
X171805826Y-63530763D01*
X172080000Y-63557767D01*
X172354173Y-63530763D01*
X172617810Y-63450790D01*
X172860779Y-63320920D01*
X173073744Y-63146145D01*
X173218812Y-62969379D01*
X173218812Y-63016000D01*
X173229142Y-63120878D01*
X173259733Y-63221726D01*
X173309412Y-63314668D01*
X173376268Y-63396132D01*
X173457732Y-63462988D01*
X173550674Y-63512667D01*
X173651522Y-63543258D01*
X173756400Y-63553588D01*
X175483600Y-63553588D01*
X175588478Y-63543258D01*
X175689326Y-63512667D01*
X175782268Y-63462988D01*
X175863732Y-63396132D01*
X175930588Y-63314668D01*
X175980267Y-63221726D01*
X176010858Y-63120878D01*
X176021188Y-63016000D01*
X176021188Y-60984000D01*
X176010858Y-60879122D01*
X175980267Y-60778274D01*
X175930588Y-60685332D01*
X175863732Y-60603868D01*
X175810279Y-60560000D01*
X179862003Y-60560000D01*
X179639221Y-60679080D01*
X179426256Y-60853855D01*
X179251480Y-61066820D01*
X179121610Y-61309789D01*
X179041637Y-61573426D01*
X179021400Y-61778894D01*
X179021400Y-62221105D01*
X179041637Y-62426573D01*
X179121610Y-62690210D01*
X179251480Y-62933179D01*
X179426255Y-63146144D01*
X179639220Y-63320920D01*
X179882189Y-63450790D01*
X180145826Y-63530763D01*
X180420000Y-63557767D01*
X180694173Y-63530763D01*
X180957810Y-63450790D01*
X181200779Y-63320920D01*
X181413744Y-63146145D01*
X181588520Y-62933180D01*
X181690000Y-62743324D01*
X181791480Y-62933179D01*
X181966255Y-63146144D01*
X182179220Y-63320920D01*
X182422189Y-63450790D01*
X182685826Y-63530763D01*
X182960000Y-63557767D01*
X183234173Y-63530763D01*
X183497810Y-63450790D01*
X183740779Y-63320920D01*
X183953744Y-63146145D01*
X184128520Y-62933180D01*
X184234431Y-62735035D01*
X184293244Y-62862111D01*
X184454889Y-63083901D01*
X184656697Y-63269894D01*
X184890913Y-63412942D01*
X185148536Y-63507548D01*
X185156678Y-63508207D01*
X185373000Y-63410858D01*
X185373000Y-62127000D01*
X185353000Y-62127000D01*
X185353000Y-61873000D01*
X185373000Y-61873000D01*
X185373000Y-61853000D01*
X185627000Y-61853000D01*
X185627000Y-61873000D01*
X185647000Y-61873000D01*
X185647000Y-62127000D01*
X185627000Y-62127000D01*
X185627000Y-63410858D01*
X185843322Y-63508207D01*
X185851464Y-63507548D01*
X186109087Y-63412942D01*
X186343303Y-63269894D01*
X186545111Y-63083901D01*
X186706756Y-62862111D01*
X186765569Y-62735034D01*
X186871480Y-62933179D01*
X187046255Y-63146144D01*
X187259220Y-63320920D01*
X187502189Y-63450790D01*
X187765826Y-63530763D01*
X188040000Y-63557767D01*
X188314173Y-63530763D01*
X188577810Y-63450790D01*
X188820779Y-63320920D01*
X189033744Y-63146145D01*
X189208520Y-62933180D01*
X189310000Y-62743324D01*
X189411480Y-62933179D01*
X189586255Y-63146144D01*
X189799220Y-63320920D01*
X190042189Y-63450790D01*
X190305826Y-63530763D01*
X190580000Y-63557767D01*
X190854173Y-63530763D01*
X191117810Y-63450790D01*
X191360779Y-63320920D01*
X191573744Y-63146145D01*
X191718812Y-62969379D01*
X191718812Y-63016000D01*
X191729142Y-63120878D01*
X191759733Y-63221726D01*
X191809412Y-63314668D01*
X191876268Y-63396132D01*
X191957732Y-63462988D01*
X192050674Y-63512667D01*
X192151522Y-63543258D01*
X192256400Y-63553588D01*
X193983600Y-63553588D01*
X194088478Y-63543258D01*
X194189326Y-63512667D01*
X194282268Y-63462988D01*
X194363732Y-63396132D01*
X194430588Y-63314668D01*
X194440001Y-63297058D01*
X194440000Y-89440000D01*
X135560000Y-89440000D01*
X135560000Y-80337998D01*
X135679080Y-80560780D01*
X135853855Y-80773745D01*
X136066820Y-80948520D01*
X136309789Y-81078390D01*
X136573426Y-81158363D01*
X136778894Y-81178600D01*
X137221092Y-81178600D01*
X137200932Y-81227271D01*
X137165000Y-81407911D01*
X137165000Y-81592089D01*
X137200932Y-81772729D01*
X137271414Y-81942889D01*
X137373738Y-82096028D01*
X137496811Y-82219101D01*
X137471414Y-82257111D01*
X137400932Y-82427271D01*
X137365000Y-82607911D01*
X137365000Y-82792089D01*
X137400932Y-82972729D01*
X137471414Y-83142889D01*
X137573738Y-83296028D01*
X137703972Y-83426262D01*
X137857111Y-83528586D01*
X138027271Y-83599068D01*
X138207911Y-83635000D01*
X138392089Y-83635000D01*
X138572729Y-83599068D01*
X138742889Y-83528586D01*
X138774251Y-83507631D01*
X141220593Y-85953974D01*
X141185000Y-86132911D01*
X141185000Y-86317089D01*
X141220932Y-86497729D01*
X141291414Y-86667889D01*
X141393738Y-86821028D01*
X141523972Y-86951262D01*
X141677111Y-87053586D01*
X141847271Y-87124068D01*
X142027911Y-87160000D01*
X142212089Y-87160000D01*
X142392729Y-87124068D01*
X142562889Y-87053586D01*
X142672477Y-86980362D01*
X142675932Y-86997729D01*
X142746414Y-87167889D01*
X142848738Y-87321028D01*
X142978972Y-87451262D01*
X143132111Y-87553586D01*
X143302271Y-87624068D01*
X143482911Y-87660000D01*
X143667089Y-87660000D01*
X143847729Y-87624068D01*
X144017889Y-87553586D01*
X144171028Y-87451262D01*
X144301262Y-87321028D01*
X144403586Y-87167889D01*
X144469850Y-87007911D01*
X164965000Y-87007911D01*
X164965000Y-87192089D01*
X165000932Y-87372729D01*
X165071414Y-87542889D01*
X165173738Y-87696028D01*
X165303972Y-87826262D01*
X165457111Y-87928586D01*
X165627271Y-87999068D01*
X165807911Y-88035000D01*
X165992089Y-88035000D01*
X166172729Y-87999068D01*
X166342889Y-87928586D01*
X166496028Y-87826262D01*
X166562290Y-87760000D01*
X167326620Y-87760000D01*
X167810388Y-88243769D01*
X167831052Y-88268948D01*
X167931550Y-88351425D01*
X168046207Y-88412710D01*
X168170617Y-88450450D01*
X168267581Y-88460000D01*
X168267590Y-88460000D01*
X168299999Y-88463192D01*
X168332408Y-88460000D01*
X173437710Y-88460000D01*
X173503972Y-88526262D01*
X173657111Y-88628586D01*
X173827271Y-88699068D01*
X174007911Y-88735000D01*
X174192089Y-88735000D01*
X174372729Y-88699068D01*
X174542889Y-88628586D01*
X174696028Y-88526262D01*
X174826262Y-88396028D01*
X174928586Y-88242889D01*
X174999068Y-88072729D01*
X175035000Y-87892089D01*
X175035000Y-87707911D01*
X174999068Y-87527271D01*
X174928586Y-87357111D01*
X174826262Y-87203972D01*
X174696028Y-87073738D01*
X174542889Y-86971414D01*
X174541191Y-86970711D01*
X174642889Y-86928586D01*
X174796028Y-86826262D01*
X174926262Y-86696028D01*
X175028586Y-86542889D01*
X175099068Y-86372729D01*
X175135000Y-86192089D01*
X175135000Y-86007911D01*
X175099068Y-85827271D01*
X175028586Y-85657111D01*
X174926262Y-85503972D01*
X174796028Y-85373738D01*
X174642889Y-85271414D01*
X174472729Y-85200932D01*
X174292089Y-85165000D01*
X174107911Y-85165000D01*
X173927271Y-85200932D01*
X173832952Y-85240000D01*
X170662290Y-85240000D01*
X170596028Y-85173738D01*
X170442889Y-85071414D01*
X170272729Y-85000932D01*
X170092089Y-84965000D01*
X169907911Y-84965000D01*
X169727271Y-85000932D01*
X169557111Y-85071414D01*
X169403972Y-85173738D01*
X169273738Y-85303972D01*
X169171414Y-85457111D01*
X169100932Y-85627271D01*
X169065000Y-85807911D01*
X169065000Y-85886191D01*
X169042885Y-85871414D01*
X168872725Y-85800932D01*
X168692085Y-85765000D01*
X168507907Y-85765000D01*
X168327267Y-85800932D01*
X168157107Y-85871414D01*
X168003968Y-85973738D01*
X167873734Y-86103972D01*
X167771410Y-86257111D01*
X167700928Y-86427271D01*
X167697128Y-86446373D01*
X167632419Y-86440000D01*
X167632409Y-86440000D01*
X167600000Y-86436808D01*
X167567591Y-86440000D01*
X166562290Y-86440000D01*
X166496028Y-86373738D01*
X166342889Y-86271414D01*
X166172729Y-86200932D01*
X165992089Y-86165000D01*
X165807911Y-86165000D01*
X165627271Y-86200932D01*
X165457111Y-86271414D01*
X165303972Y-86373738D01*
X165173738Y-86503972D01*
X165071414Y-86657111D01*
X165000932Y-86827271D01*
X164965000Y-87007911D01*
X144469850Y-87007911D01*
X144474068Y-86997729D01*
X144510000Y-86817089D01*
X144510000Y-86632911D01*
X144474068Y-86452271D01*
X144403586Y-86282111D01*
X144301262Y-86128972D01*
X144171028Y-85998738D01*
X144017889Y-85896414D01*
X143847729Y-85825932D01*
X143737359Y-85803978D01*
X141591292Y-83657911D01*
X154565000Y-83657911D01*
X154565000Y-83842089D01*
X154600932Y-84022729D01*
X154671414Y-84192889D01*
X154773738Y-84346028D01*
X154903972Y-84476262D01*
X155057111Y-84578586D01*
X155227271Y-84649068D01*
X155407911Y-84685000D01*
X155592089Y-84685000D01*
X155772729Y-84649068D01*
X155942889Y-84578586D01*
X156096028Y-84476262D01*
X156162290Y-84410000D01*
X159776620Y-84410000D01*
X160565000Y-85198381D01*
X160565000Y-85292089D01*
X160600932Y-85472729D01*
X160671414Y-85642889D01*
X160773738Y-85796028D01*
X160903972Y-85926262D01*
X161057111Y-86028586D01*
X161227271Y-86099068D01*
X161407911Y-86135000D01*
X161592089Y-86135000D01*
X161772729Y-86099068D01*
X161942889Y-86028586D01*
X162096028Y-85926262D01*
X162226262Y-85796028D01*
X162328586Y-85642889D01*
X162399068Y-85472729D01*
X162435000Y-85292089D01*
X162435000Y-85107911D01*
X162399068Y-84927271D01*
X162328586Y-84757111D01*
X162226262Y-84603972D01*
X162096028Y-84473738D01*
X161942889Y-84371414D01*
X161772729Y-84300932D01*
X161592089Y-84265000D01*
X161498381Y-84265000D01*
X160539616Y-83306236D01*
X160518948Y-83281052D01*
X160418450Y-83198575D01*
X160303793Y-83137290D01*
X160179383Y-83099550D01*
X160082419Y-83090000D01*
X160082409Y-83090000D01*
X160050000Y-83086808D01*
X160017591Y-83090000D01*
X156162290Y-83090000D01*
X156096028Y-83023738D01*
X155942889Y-82921414D01*
X155772729Y-82850932D01*
X155592089Y-82815000D01*
X155407911Y-82815000D01*
X155227271Y-82850932D01*
X155057111Y-82921414D01*
X154903972Y-83023738D01*
X154773738Y-83153972D01*
X154671414Y-83307111D01*
X154600932Y-83477271D01*
X154565000Y-83657911D01*
X141591292Y-83657911D01*
X139541292Y-81607911D01*
X145565000Y-81607911D01*
X145565000Y-81792089D01*
X145600932Y-81972729D01*
X145671414Y-82142889D01*
X145773738Y-82296028D01*
X145903972Y-82426262D01*
X146057111Y-82528586D01*
X146227271Y-82599068D01*
X146407911Y-82635000D01*
X146592089Y-82635000D01*
X146772729Y-82599068D01*
X146942889Y-82528586D01*
X147096028Y-82426262D01*
X147162290Y-82360000D01*
X151067591Y-82360000D01*
X151100000Y-82363192D01*
X151132409Y-82360000D01*
X151132419Y-82360000D01*
X151229383Y-82350450D01*
X151291243Y-82331685D01*
X151307911Y-82335000D01*
X151492089Y-82335000D01*
X151672729Y-82299068D01*
X151842889Y-82228586D01*
X151996028Y-82126262D01*
X152126262Y-81996028D01*
X152228586Y-81842889D01*
X152299068Y-81672729D01*
X152311961Y-81607911D01*
X163665000Y-81607911D01*
X163665000Y-81792089D01*
X163700932Y-81972729D01*
X163771414Y-82142889D01*
X163873738Y-82296028D01*
X164003972Y-82426262D01*
X164157111Y-82528586D01*
X164327271Y-82599068D01*
X164507911Y-82635000D01*
X164692089Y-82635000D01*
X164872729Y-82599068D01*
X165042889Y-82528586D01*
X165196028Y-82426262D01*
X165262290Y-82360000D01*
X169754465Y-82360000D01*
X169857111Y-82428586D01*
X170027271Y-82499068D01*
X170207911Y-82535000D01*
X170392089Y-82535000D01*
X170572729Y-82499068D01*
X170742889Y-82428586D01*
X170896028Y-82326262D01*
X171026262Y-82196028D01*
X171128586Y-82042889D01*
X171199068Y-81872729D01*
X171235000Y-81692089D01*
X171235000Y-81507911D01*
X171199068Y-81327271D01*
X171128586Y-81157111D01*
X171026262Y-81003972D01*
X170896028Y-80873738D01*
X170742889Y-80771414D01*
X170572729Y-80700932D01*
X170392089Y-80665000D01*
X170207911Y-80665000D01*
X170027271Y-80700932D01*
X169857111Y-80771414D01*
X169703972Y-80873738D01*
X169573738Y-81003972D01*
X169549665Y-81040000D01*
X165262290Y-81040000D01*
X165196028Y-80973738D01*
X165042889Y-80871414D01*
X164872729Y-80800932D01*
X164692089Y-80765000D01*
X164507911Y-80765000D01*
X164327271Y-80800932D01*
X164157111Y-80871414D01*
X164003972Y-80973738D01*
X163873738Y-81103972D01*
X163771414Y-81257111D01*
X163700932Y-81427271D01*
X163665000Y-81607911D01*
X152311961Y-81607911D01*
X152335000Y-81492089D01*
X152335000Y-81307911D01*
X152299068Y-81127271D01*
X152228586Y-80957111D01*
X152126262Y-80803972D01*
X151996028Y-80673738D01*
X151842889Y-80571414D01*
X151672729Y-80500932D01*
X151492089Y-80465000D01*
X151307911Y-80465000D01*
X151127271Y-80500932D01*
X150957111Y-80571414D01*
X150803972Y-80673738D01*
X150673738Y-80803972D01*
X150571414Y-80957111D01*
X150537081Y-81040000D01*
X147162290Y-81040000D01*
X147096028Y-80973738D01*
X146942889Y-80871414D01*
X146772729Y-80800932D01*
X146592089Y-80765000D01*
X146407911Y-80765000D01*
X146227271Y-80800932D01*
X146057111Y-80871414D01*
X145903972Y-80973738D01*
X145773738Y-81103972D01*
X145671414Y-81257111D01*
X145600932Y-81427271D01*
X145565000Y-81607911D01*
X139541292Y-81607911D01*
X139089616Y-81156236D01*
X139068948Y-81131052D01*
X138968450Y-81048575D01*
X138897567Y-81010687D01*
X138826262Y-80903972D01*
X138696028Y-80773738D01*
X138542889Y-80671414D01*
X138372729Y-80600932D01*
X138299863Y-80586438D01*
X138320920Y-80560780D01*
X138450790Y-80317811D01*
X138530763Y-80054174D01*
X138557767Y-79780000D01*
X138530763Y-79505826D01*
X138460193Y-79273187D01*
X139073381Y-78660000D01*
X144828509Y-78660000D01*
X144850932Y-78772729D01*
X144921414Y-78942889D01*
X145023738Y-79096028D01*
X145153972Y-79226262D01*
X145307111Y-79328586D01*
X145477271Y-79399068D01*
X145657911Y-79435000D01*
X145842089Y-79435000D01*
X146022729Y-79399068D01*
X146192889Y-79328586D01*
X146346028Y-79226262D01*
X146476262Y-79096028D01*
X146578586Y-78942889D01*
X146649068Y-78772729D01*
X146685000Y-78592089D01*
X146685000Y-78407911D01*
X146649068Y-78227271D01*
X146578586Y-78057111D01*
X146476262Y-77903972D01*
X146346028Y-77773738D01*
X146192889Y-77671414D01*
X146022729Y-77600932D01*
X145842089Y-77565000D01*
X145748380Y-77565000D01*
X145739616Y-77556236D01*
X145718948Y-77531052D01*
X145618450Y-77448575D01*
X145503793Y-77387290D01*
X145379383Y-77349550D01*
X145282419Y-77340000D01*
X145282409Y-77340000D01*
X145250000Y-77336808D01*
X145217591Y-77340000D01*
X138832408Y-77340000D01*
X138799999Y-77336808D01*
X138767590Y-77340000D01*
X138767581Y-77340000D01*
X138670617Y-77349550D01*
X138546207Y-77387290D01*
X138543096Y-77388953D01*
X138557767Y-77240000D01*
X138530763Y-76965826D01*
X138469503Y-76763877D01*
X139773381Y-75460000D01*
X142037087Y-75460000D01*
X142071420Y-75542889D01*
X142173744Y-75696028D01*
X142303978Y-75826262D01*
X142457117Y-75928586D01*
X142627277Y-75999068D01*
X142807917Y-76035000D01*
X142992095Y-76035000D01*
X143172735Y-75999068D01*
X143342895Y-75928586D01*
X143496034Y-75826262D01*
X143626268Y-75696028D01*
X143728592Y-75542889D01*
X143799074Y-75372729D01*
X143835006Y-75192089D01*
X143835006Y-75109990D01*
X143908320Y-75109990D01*
X144088960Y-75074058D01*
X144259120Y-75003576D01*
X144412259Y-74901252D01*
X144542493Y-74771018D01*
X144644817Y-74617879D01*
X144715299Y-74447719D01*
X144751231Y-74267079D01*
X144751231Y-74082901D01*
X144715299Y-73902261D01*
X144644817Y-73732101D01*
X144542493Y-73578962D01*
X144412259Y-73448728D01*
X144259120Y-73346404D01*
X144166189Y-73307911D01*
X150465000Y-73307911D01*
X150465000Y-73492089D01*
X150500932Y-73672729D01*
X150571414Y-73842889D01*
X150673738Y-73996028D01*
X150740000Y-74062290D01*
X150740000Y-74067591D01*
X150736808Y-74100000D01*
X150740000Y-74132409D01*
X150740000Y-74132418D01*
X150749550Y-74229382D01*
X150786190Y-74350166D01*
X150787290Y-74353792D01*
X150848575Y-74468450D01*
X150850939Y-74471330D01*
X150931052Y-74568948D01*
X150956236Y-74589616D01*
X155110388Y-78743769D01*
X155131052Y-78768948D01*
X155231550Y-78851425D01*
X155346207Y-78912710D01*
X155470617Y-78950450D01*
X155567581Y-78960000D01*
X155567591Y-78960000D01*
X155600000Y-78963192D01*
X155632409Y-78960000D01*
X156567591Y-78960000D01*
X156600000Y-78963192D01*
X156632409Y-78960000D01*
X156632419Y-78960000D01*
X156729383Y-78950450D01*
X156853793Y-78912710D01*
X156968450Y-78851425D01*
X157068948Y-78768948D01*
X157089616Y-78743764D01*
X157973381Y-77860000D01*
X171426620Y-77860000D01*
X178099764Y-84533145D01*
X178065000Y-84707911D01*
X178065000Y-84892089D01*
X178100932Y-85072729D01*
X178171414Y-85242889D01*
X178273738Y-85396028D01*
X178403972Y-85526262D01*
X178557111Y-85628586D01*
X178727271Y-85699068D01*
X178907911Y-85735000D01*
X179092089Y-85735000D01*
X179272729Y-85699068D01*
X179442889Y-85628586D01*
X179596028Y-85526262D01*
X179726262Y-85396028D01*
X179828586Y-85242889D01*
X179899068Y-85072729D01*
X179935000Y-84892089D01*
X179935000Y-84707911D01*
X179899068Y-84527271D01*
X179828586Y-84357111D01*
X179726262Y-84203972D01*
X179596028Y-84073738D01*
X179442889Y-83971414D01*
X179377859Y-83944478D01*
X175341292Y-79907911D01*
X182265000Y-79907911D01*
X182265000Y-80092089D01*
X182300932Y-80272729D01*
X182371414Y-80442889D01*
X182473738Y-80596028D01*
X182603972Y-80726262D01*
X182757111Y-80828586D01*
X182927271Y-80899068D01*
X183107911Y-80935000D01*
X183292089Y-80935000D01*
X183472729Y-80899068D01*
X183642889Y-80828586D01*
X183796028Y-80726262D01*
X183862290Y-80660000D01*
X187026620Y-80660000D01*
X187765000Y-81398381D01*
X187765000Y-81492089D01*
X187800932Y-81672729D01*
X187871414Y-81842889D01*
X187973738Y-81996028D01*
X188103972Y-82126262D01*
X188257111Y-82228586D01*
X188427271Y-82299068D01*
X188607911Y-82335000D01*
X188792089Y-82335000D01*
X188972729Y-82299068D01*
X189142889Y-82228586D01*
X189296028Y-82126262D01*
X189426262Y-81996028D01*
X189528586Y-81842889D01*
X189599068Y-81672729D01*
X189635000Y-81492089D01*
X189635000Y-81307911D01*
X189599068Y-81127271D01*
X189528586Y-80957111D01*
X189426262Y-80803972D01*
X189296028Y-80673738D01*
X189142889Y-80571414D01*
X188972729Y-80500932D01*
X188792089Y-80465000D01*
X188698381Y-80465000D01*
X187789616Y-79556236D01*
X187768948Y-79531052D01*
X187668450Y-79448575D01*
X187553793Y-79387290D01*
X187429383Y-79349550D01*
X187332419Y-79340000D01*
X187332409Y-79340000D01*
X187300000Y-79336808D01*
X187267591Y-79340000D01*
X183862290Y-79340000D01*
X183796028Y-79273738D01*
X183642889Y-79171414D01*
X183472729Y-79100932D01*
X183292089Y-79065000D01*
X183107911Y-79065000D01*
X182927271Y-79100932D01*
X182757111Y-79171414D01*
X182603972Y-79273738D01*
X182473738Y-79403972D01*
X182371414Y-79557111D01*
X182300932Y-79727271D01*
X182265000Y-79907911D01*
X175341292Y-79907911D01*
X175274220Y-79840839D01*
X175296036Y-79826262D01*
X175426270Y-79696028D01*
X175528594Y-79542889D01*
X175599076Y-79372729D01*
X175635008Y-79192089D01*
X175635008Y-79007911D01*
X175599076Y-78827271D01*
X175528594Y-78657111D01*
X175426270Y-78503972D01*
X175296036Y-78373738D01*
X175142897Y-78271414D01*
X174972737Y-78200932D01*
X174792097Y-78165000D01*
X174698389Y-78165000D01*
X172789624Y-76256236D01*
X172768956Y-76231052D01*
X172668458Y-76148575D01*
X172553801Y-76087290D01*
X172429391Y-76049550D01*
X172332427Y-76040000D01*
X172332417Y-76040000D01*
X172300008Y-76036808D01*
X172267599Y-76040000D01*
X156473381Y-76040000D01*
X153989616Y-73556236D01*
X153968948Y-73531052D01*
X153868450Y-73448575D01*
X153753793Y-73387290D01*
X153629383Y-73349550D01*
X153532419Y-73340000D01*
X153532409Y-73340000D01*
X153500000Y-73336808D01*
X153467591Y-73340000D01*
X153162290Y-73340000D01*
X153096028Y-73273738D01*
X152942889Y-73171414D01*
X152772729Y-73100932D01*
X152592089Y-73065000D01*
X152407911Y-73065000D01*
X152283523Y-73089743D01*
X152228586Y-72957111D01*
X152126262Y-72803972D01*
X151996028Y-72673738D01*
X151842889Y-72571414D01*
X151672729Y-72500932D01*
X151492089Y-72465000D01*
X151307911Y-72465000D01*
X151127271Y-72500932D01*
X150957111Y-72571414D01*
X150803972Y-72673738D01*
X150673738Y-72803972D01*
X150571414Y-72957111D01*
X150500932Y-73127271D01*
X150465000Y-73307911D01*
X144166189Y-73307911D01*
X144088960Y-73275922D01*
X143922032Y-73242718D01*
X143899068Y-73127271D01*
X143828586Y-72957111D01*
X143726262Y-72803972D01*
X143596028Y-72673738D01*
X143442889Y-72571414D01*
X143272729Y-72500932D01*
X143092089Y-72465000D01*
X142907911Y-72465000D01*
X142727271Y-72500932D01*
X142557111Y-72571414D01*
X142403972Y-72673738D01*
X142337710Y-72740000D01*
X138513381Y-72740000D01*
X138455538Y-72682158D01*
X138530763Y-72434174D01*
X138557767Y-72160000D01*
X138530763Y-71885826D01*
X138450790Y-71622189D01*
X138320920Y-71379220D01*
X138146145Y-71166255D01*
X137933180Y-70991480D01*
X137743325Y-70890000D01*
X137933180Y-70788520D01*
X138146145Y-70613745D01*
X138320920Y-70400780D01*
X138450790Y-70157811D01*
X138530763Y-69894174D01*
X138557767Y-69620000D01*
X138530763Y-69345826D01*
X138450790Y-69082189D01*
X138320920Y-68839220D01*
X138146145Y-68626255D01*
X137933180Y-68451480D01*
X137743325Y-68350000D01*
X137933180Y-68248520D01*
X138146145Y-68073745D01*
X138320920Y-67860780D01*
X138450790Y-67617811D01*
X138530763Y-67354174D01*
X138557767Y-67080000D01*
X138530763Y-66805826D01*
X138450790Y-66542189D01*
X138320920Y-66299220D01*
X138146145Y-66086255D01*
X137933180Y-65911480D01*
X137743325Y-65810000D01*
X137933180Y-65708520D01*
X138146145Y-65533745D01*
X138320920Y-65320780D01*
X138450790Y-65077811D01*
X138530763Y-64814174D01*
X138557767Y-64540000D01*
X138530763Y-64265826D01*
X138450790Y-64002189D01*
X138320920Y-63759220D01*
X138146145Y-63546255D01*
X137969185Y-63401029D01*
X138016000Y-63401189D01*
X138120878Y-63390859D01*
X138221726Y-63360267D01*
X138314668Y-63310589D01*
X138396133Y-63243733D01*
X138462989Y-63162268D01*
X138512667Y-63069326D01*
X138543259Y-62968478D01*
X138553589Y-62863600D01*
X138551000Y-62260750D01*
X138417250Y-62127000D01*
X137127000Y-62127000D01*
X137127000Y-62147000D01*
X136873000Y-62147000D01*
X136873000Y-62127000D01*
X136853000Y-62127000D01*
X136853000Y-61873000D01*
X136873000Y-61873000D01*
X136873000Y-60735150D01*
X137127000Y-60735150D01*
X137127000Y-61873000D01*
X138417250Y-61873000D01*
X138551000Y-61739250D01*
X138553589Y-61136400D01*
X138543259Y-61031522D01*
X138512667Y-60930674D01*
X138462989Y-60837732D01*
X138396133Y-60756267D01*
X138314668Y-60689411D01*
X138221726Y-60639733D01*
X138120878Y-60609141D01*
X138016000Y-60598811D01*
X137260750Y-60601400D01*
X137127000Y-60735150D01*
X136873000Y-60735150D01*
X136739250Y-60601400D01*
X135984000Y-60598811D01*
X135879122Y-60609141D01*
X135778274Y-60639733D01*
X135685332Y-60689411D01*
X135603867Y-60756267D01*
X135560000Y-60809720D01*
X135560000Y-60560000D01*
X142862003Y-60560000D01*
X142639221Y-60679080D01*
X142639221Y-60679080D01*
G37*
X142639221Y-60679080D02*
X142426256Y-60853855D01*
X142251480Y-61066820D01*
X142121610Y-61309789D01*
X142041637Y-61573426D01*
X142021400Y-61778894D01*
X142021400Y-62221105D01*
X142041637Y-62426573D01*
X142121610Y-62690210D01*
X142251480Y-62933179D01*
X142426255Y-63146144D01*
X142639220Y-63320920D01*
X142882189Y-63450790D01*
X143145826Y-63530763D01*
X143420000Y-63557767D01*
X143694173Y-63530763D01*
X143957810Y-63450790D01*
X144200779Y-63320920D01*
X144413744Y-63146145D01*
X144588520Y-62933180D01*
X144690000Y-62743324D01*
X144791480Y-62933179D01*
X144966255Y-63146144D01*
X145179220Y-63320920D01*
X145422189Y-63450790D01*
X145685826Y-63530763D01*
X145960000Y-63557767D01*
X146234173Y-63530763D01*
X146497810Y-63450790D01*
X146740779Y-63320920D01*
X146953744Y-63146145D01*
X147128520Y-62933180D01*
X147234431Y-62735035D01*
X147293244Y-62862111D01*
X147454889Y-63083901D01*
X147656697Y-63269894D01*
X147890913Y-63412942D01*
X148148536Y-63507548D01*
X148156678Y-63508207D01*
X148373000Y-63410858D01*
X148373000Y-62127000D01*
X148353000Y-62127000D01*
X148353000Y-61873000D01*
X148373000Y-61873000D01*
X148373000Y-61853000D01*
X148627000Y-61853000D01*
X148627000Y-61873000D01*
X148647000Y-61873000D01*
X148647000Y-62127000D01*
X148627000Y-62127000D01*
X148627000Y-63410858D01*
X148843322Y-63508207D01*
X148851464Y-63507548D01*
X149109087Y-63412942D01*
X149343303Y-63269894D01*
X149545111Y-63083901D01*
X149706756Y-62862111D01*
X149765569Y-62735034D01*
X149871480Y-62933179D01*
X150046255Y-63146144D01*
X150259220Y-63320920D01*
X150502189Y-63450790D01*
X150765826Y-63530763D01*
X151040000Y-63557767D01*
X151314173Y-63530763D01*
X151577810Y-63450790D01*
X151820779Y-63320920D01*
X152033744Y-63146145D01*
X152208520Y-62933180D01*
X152310000Y-62743324D01*
X152411480Y-62933179D01*
X152586255Y-63146144D01*
X152799220Y-63320920D01*
X153042189Y-63450790D01*
X153305826Y-63530763D01*
X153580000Y-63557767D01*
X153854173Y-63530763D01*
X154117810Y-63450790D01*
X154360779Y-63320920D01*
X154573744Y-63146145D01*
X154718812Y-62969379D01*
X154718812Y-63016000D01*
X154729142Y-63120878D01*
X154759733Y-63221726D01*
X154809412Y-63314668D01*
X154876268Y-63396132D01*
X154957732Y-63462988D01*
X155050674Y-63512667D01*
X155151522Y-63543258D01*
X155256400Y-63553588D01*
X156983600Y-63553588D01*
X157088478Y-63543258D01*
X157189326Y-63512667D01*
X157282268Y-63462988D01*
X157363732Y-63396132D01*
X157430588Y-63314668D01*
X157480267Y-63221726D01*
X157510858Y-63120878D01*
X157521188Y-63016000D01*
X157521188Y-60984000D01*
X157510858Y-60879122D01*
X157480267Y-60778274D01*
X157430588Y-60685332D01*
X157363732Y-60603868D01*
X157310279Y-60560000D01*
X161362003Y-60560000D01*
X161139221Y-60679080D01*
X160926256Y-60853855D01*
X160751480Y-61066820D01*
X160621610Y-61309789D01*
X160541637Y-61573426D01*
X160521400Y-61778894D01*
X160521400Y-62221105D01*
X160541637Y-62426573D01*
X160621610Y-62690210D01*
X160751480Y-62933179D01*
X160926255Y-63146144D01*
X161139220Y-63320920D01*
X161382189Y-63450790D01*
X161645826Y-63530763D01*
X161920000Y-63557767D01*
X162194173Y-63530763D01*
X162457810Y-63450790D01*
X162700779Y-63320920D01*
X162913744Y-63146145D01*
X163088520Y-62933180D01*
X163190000Y-62743324D01*
X163291480Y-62933179D01*
X163466255Y-63146144D01*
X163679220Y-63320920D01*
X163922189Y-63450790D01*
X164185826Y-63530763D01*
X164460000Y-63557767D01*
X164734173Y-63530763D01*
X164997810Y-63450790D01*
X165240779Y-63320920D01*
X165453744Y-63146145D01*
X165628520Y-62933180D01*
X165734431Y-62735035D01*
X165793244Y-62862111D01*
X165954889Y-63083901D01*
X166156697Y-63269894D01*
X166390913Y-63412942D01*
X166648536Y-63507548D01*
X166656678Y-63508207D01*
X166873000Y-63410858D01*
X166873000Y-62127000D01*
X166853000Y-62127000D01*
X166853000Y-61873000D01*
X166873000Y-61873000D01*
X166873000Y-61853000D01*
X167127000Y-61853000D01*
X167127000Y-61873000D01*
X167147000Y-61873000D01*
X167147000Y-62127000D01*
X167127000Y-62127000D01*
X167127000Y-63410858D01*
X167343322Y-63508207D01*
X167351464Y-63507548D01*
X167609087Y-63412942D01*
X167843303Y-63269894D01*
X168045111Y-63083901D01*
X168206756Y-62862111D01*
X168265569Y-62735034D01*
X168371480Y-62933179D01*
X168546255Y-63146144D01*
X168759220Y-63320920D01*
X169002189Y-63450790D01*
X169265826Y-63530763D01*
X169540000Y-63557767D01*
X169814173Y-63530763D01*
X170077810Y-63450790D01*
X170320779Y-63320920D01*
X170533744Y-63146145D01*
X170708520Y-62933180D01*
X170810000Y-62743324D01*
X170911480Y-62933179D01*
X171086255Y-63146144D01*
X171299220Y-63320920D01*
X171542189Y-63450790D01*
X171805826Y-63530763D01*
X172080000Y-63557767D01*
X172354173Y-63530763D01*
X172617810Y-63450790D01*
X172860779Y-63320920D01*
X173073744Y-63146145D01*
X173218812Y-62969379D01*
X173218812Y-63016000D01*
X173229142Y-63120878D01*
X173259733Y-63221726D01*
X173309412Y-63314668D01*
X173376268Y-63396132D01*
X173457732Y-63462988D01*
X173550674Y-63512667D01*
X173651522Y-63543258D01*
X173756400Y-63553588D01*
X175483600Y-63553588D01*
X175588478Y-63543258D01*
X175689326Y-63512667D01*
X175782268Y-63462988D01*
X175863732Y-63396132D01*
X175930588Y-63314668D01*
X175980267Y-63221726D01*
X176010858Y-63120878D01*
X176021188Y-63016000D01*
X176021188Y-60984000D01*
X176010858Y-60879122D01*
X175980267Y-60778274D01*
X175930588Y-60685332D01*
X175863732Y-60603868D01*
X175810279Y-60560000D01*
X179862003Y-60560000D01*
X179639221Y-60679080D01*
X179426256Y-60853855D01*
X179251480Y-61066820D01*
X179121610Y-61309789D01*
X179041637Y-61573426D01*
X179021400Y-61778894D01*
X179021400Y-62221105D01*
X179041637Y-62426573D01*
X179121610Y-62690210D01*
X179251480Y-62933179D01*
X179426255Y-63146144D01*
X179639220Y-63320920D01*
X179882189Y-63450790D01*
X180145826Y-63530763D01*
X180420000Y-63557767D01*
X180694173Y-63530763D01*
X180957810Y-63450790D01*
X181200779Y-63320920D01*
X181413744Y-63146145D01*
X181588520Y-62933180D01*
X181690000Y-62743324D01*
X181791480Y-62933179D01*
X181966255Y-63146144D01*
X182179220Y-63320920D01*
X182422189Y-63450790D01*
X182685826Y-63530763D01*
X182960000Y-63557767D01*
X183234173Y-63530763D01*
X183497810Y-63450790D01*
X183740779Y-63320920D01*
X183953744Y-63146145D01*
X184128520Y-62933180D01*
X184234431Y-62735035D01*
X184293244Y-62862111D01*
X184454889Y-63083901D01*
X184656697Y-63269894D01*
X184890913Y-63412942D01*
X185148536Y-63507548D01*
X185156678Y-63508207D01*
X185373000Y-63410858D01*
X185373000Y-62127000D01*
X185353000Y-62127000D01*
X185353000Y-61873000D01*
X185373000Y-61873000D01*
X185373000Y-61853000D01*
X185627000Y-61853000D01*
X185627000Y-61873000D01*
X185647000Y-61873000D01*
X185647000Y-62127000D01*
X185627000Y-62127000D01*
X185627000Y-63410858D01*
X185843322Y-63508207D01*
X185851464Y-63507548D01*
X186109087Y-63412942D01*
X186343303Y-63269894D01*
X186545111Y-63083901D01*
X186706756Y-62862111D01*
X186765569Y-62735034D01*
X186871480Y-62933179D01*
X187046255Y-63146144D01*
X187259220Y-63320920D01*
X187502189Y-63450790D01*
X187765826Y-63530763D01*
X188040000Y-63557767D01*
X188314173Y-63530763D01*
X188577810Y-63450790D01*
X188820779Y-63320920D01*
X189033744Y-63146145D01*
X189208520Y-62933180D01*
X189310000Y-62743324D01*
X189411480Y-62933179D01*
X189586255Y-63146144D01*
X189799220Y-63320920D01*
X190042189Y-63450790D01*
X190305826Y-63530763D01*
X190580000Y-63557767D01*
X190854173Y-63530763D01*
X191117810Y-63450790D01*
X191360779Y-63320920D01*
X191573744Y-63146145D01*
X191718812Y-62969379D01*
X191718812Y-63016000D01*
X191729142Y-63120878D01*
X191759733Y-63221726D01*
X191809412Y-63314668D01*
X191876268Y-63396132D01*
X191957732Y-63462988D01*
X192050674Y-63512667D01*
X192151522Y-63543258D01*
X192256400Y-63553588D01*
X193983600Y-63553588D01*
X194088478Y-63543258D01*
X194189326Y-63512667D01*
X194282268Y-63462988D01*
X194363732Y-63396132D01*
X194430588Y-63314668D01*
X194440001Y-63297058D01*
X194440000Y-89440000D01*
X135560000Y-89440000D01*
X135560000Y-80337998D01*
X135679080Y-80560780D01*
X135853855Y-80773745D01*
X136066820Y-80948520D01*
X136309789Y-81078390D01*
X136573426Y-81158363D01*
X136778894Y-81178600D01*
X137221092Y-81178600D01*
X137200932Y-81227271D01*
X137165000Y-81407911D01*
X137165000Y-81592089D01*
X137200932Y-81772729D01*
X137271414Y-81942889D01*
X137373738Y-82096028D01*
X137496811Y-82219101D01*
X137471414Y-82257111D01*
X137400932Y-82427271D01*
X137365000Y-82607911D01*
X137365000Y-82792089D01*
X137400932Y-82972729D01*
X137471414Y-83142889D01*
X137573738Y-83296028D01*
X137703972Y-83426262D01*
X137857111Y-83528586D01*
X138027271Y-83599068D01*
X138207911Y-83635000D01*
X138392089Y-83635000D01*
X138572729Y-83599068D01*
X138742889Y-83528586D01*
X138774251Y-83507631D01*
X141220593Y-85953974D01*
X141185000Y-86132911D01*
X141185000Y-86317089D01*
X141220932Y-86497729D01*
X141291414Y-86667889D01*
X141393738Y-86821028D01*
X141523972Y-86951262D01*
X141677111Y-87053586D01*
X141847271Y-87124068D01*
X142027911Y-87160000D01*
X142212089Y-87160000D01*
X142392729Y-87124068D01*
X142562889Y-87053586D01*
X142672477Y-86980362D01*
X142675932Y-86997729D01*
X142746414Y-87167889D01*
X142848738Y-87321028D01*
X142978972Y-87451262D01*
X143132111Y-87553586D01*
X143302271Y-87624068D01*
X143482911Y-87660000D01*
X143667089Y-87660000D01*
X143847729Y-87624068D01*
X144017889Y-87553586D01*
X144171028Y-87451262D01*
X144301262Y-87321028D01*
X144403586Y-87167889D01*
X144469850Y-87007911D01*
X164965000Y-87007911D01*
X164965000Y-87192089D01*
X165000932Y-87372729D01*
X165071414Y-87542889D01*
X165173738Y-87696028D01*
X165303972Y-87826262D01*
X165457111Y-87928586D01*
X165627271Y-87999068D01*
X165807911Y-88035000D01*
X165992089Y-88035000D01*
X166172729Y-87999068D01*
X166342889Y-87928586D01*
X166496028Y-87826262D01*
X166562290Y-87760000D01*
X167326620Y-87760000D01*
X167810388Y-88243769D01*
X167831052Y-88268948D01*
X167931550Y-88351425D01*
X168046207Y-88412710D01*
X168170617Y-88450450D01*
X168267581Y-88460000D01*
X168267590Y-88460000D01*
X168299999Y-88463192D01*
X168332408Y-88460000D01*
X173437710Y-88460000D01*
X173503972Y-88526262D01*
X173657111Y-88628586D01*
X173827271Y-88699068D01*
X174007911Y-88735000D01*
X174192089Y-88735000D01*
X174372729Y-88699068D01*
X174542889Y-88628586D01*
X174696028Y-88526262D01*
X174826262Y-88396028D01*
X174928586Y-88242889D01*
X174999068Y-88072729D01*
X175035000Y-87892089D01*
X175035000Y-87707911D01*
X174999068Y-87527271D01*
X174928586Y-87357111D01*
X174826262Y-87203972D01*
X174696028Y-87073738D01*
X174542889Y-86971414D01*
X174541191Y-86970711D01*
X174642889Y-86928586D01*
X174796028Y-86826262D01*
X174926262Y-86696028D01*
X175028586Y-86542889D01*
X175099068Y-86372729D01*
X175135000Y-86192089D01*
X175135000Y-86007911D01*
X175099068Y-85827271D01*
X175028586Y-85657111D01*
X174926262Y-85503972D01*
X174796028Y-85373738D01*
X174642889Y-85271414D01*
X174472729Y-85200932D01*
X174292089Y-85165000D01*
X174107911Y-85165000D01*
X173927271Y-85200932D01*
X173832952Y-85240000D01*
X170662290Y-85240000D01*
X170596028Y-85173738D01*
X170442889Y-85071414D01*
X170272729Y-85000932D01*
X170092089Y-84965000D01*
X169907911Y-84965000D01*
X169727271Y-85000932D01*
X169557111Y-85071414D01*
X169403972Y-85173738D01*
X169273738Y-85303972D01*
X169171414Y-85457111D01*
X169100932Y-85627271D01*
X169065000Y-85807911D01*
X169065000Y-85886191D01*
X169042885Y-85871414D01*
X168872725Y-85800932D01*
X168692085Y-85765000D01*
X168507907Y-85765000D01*
X168327267Y-85800932D01*
X168157107Y-85871414D01*
X168003968Y-85973738D01*
X167873734Y-86103972D01*
X167771410Y-86257111D01*
X167700928Y-86427271D01*
X167697128Y-86446373D01*
X167632419Y-86440000D01*
X167632409Y-86440000D01*
X167600000Y-86436808D01*
X167567591Y-86440000D01*
X166562290Y-86440000D01*
X166496028Y-86373738D01*
X166342889Y-86271414D01*
X166172729Y-86200932D01*
X165992089Y-86165000D01*
X165807911Y-86165000D01*
X165627271Y-86200932D01*
X165457111Y-86271414D01*
X165303972Y-86373738D01*
X165173738Y-86503972D01*
X165071414Y-86657111D01*
X165000932Y-86827271D01*
X164965000Y-87007911D01*
X144469850Y-87007911D01*
X144474068Y-86997729D01*
X144510000Y-86817089D01*
X144510000Y-86632911D01*
X144474068Y-86452271D01*
X144403586Y-86282111D01*
X144301262Y-86128972D01*
X144171028Y-85998738D01*
X144017889Y-85896414D01*
X143847729Y-85825932D01*
X143737359Y-85803978D01*
X141591292Y-83657911D01*
X154565000Y-83657911D01*
X154565000Y-83842089D01*
X154600932Y-84022729D01*
X154671414Y-84192889D01*
X154773738Y-84346028D01*
X154903972Y-84476262D01*
X155057111Y-84578586D01*
X155227271Y-84649068D01*
X155407911Y-84685000D01*
X155592089Y-84685000D01*
X155772729Y-84649068D01*
X155942889Y-84578586D01*
X156096028Y-84476262D01*
X156162290Y-84410000D01*
X159776620Y-84410000D01*
X160565000Y-85198381D01*
X160565000Y-85292089D01*
X160600932Y-85472729D01*
X160671414Y-85642889D01*
X160773738Y-85796028D01*
X160903972Y-85926262D01*
X161057111Y-86028586D01*
X161227271Y-86099068D01*
X161407911Y-86135000D01*
X161592089Y-86135000D01*
X161772729Y-86099068D01*
X161942889Y-86028586D01*
X162096028Y-85926262D01*
X162226262Y-85796028D01*
X162328586Y-85642889D01*
X162399068Y-85472729D01*
X162435000Y-85292089D01*
X162435000Y-85107911D01*
X162399068Y-84927271D01*
X162328586Y-84757111D01*
X162226262Y-84603972D01*
X162096028Y-84473738D01*
X161942889Y-84371414D01*
X161772729Y-84300932D01*
X161592089Y-84265000D01*
X161498381Y-84265000D01*
X160539616Y-83306236D01*
X160518948Y-83281052D01*
X160418450Y-83198575D01*
X160303793Y-83137290D01*
X160179383Y-83099550D01*
X160082419Y-83090000D01*
X160082409Y-83090000D01*
X160050000Y-83086808D01*
X160017591Y-83090000D01*
X156162290Y-83090000D01*
X156096028Y-83023738D01*
X155942889Y-82921414D01*
X155772729Y-82850932D01*
X155592089Y-82815000D01*
X155407911Y-82815000D01*
X155227271Y-82850932D01*
X155057111Y-82921414D01*
X154903972Y-83023738D01*
X154773738Y-83153972D01*
X154671414Y-83307111D01*
X154600932Y-83477271D01*
X154565000Y-83657911D01*
X141591292Y-83657911D01*
X139541292Y-81607911D01*
X145565000Y-81607911D01*
X145565000Y-81792089D01*
X145600932Y-81972729D01*
X145671414Y-82142889D01*
X145773738Y-82296028D01*
X145903972Y-82426262D01*
X146057111Y-82528586D01*
X146227271Y-82599068D01*
X146407911Y-82635000D01*
X146592089Y-82635000D01*
X146772729Y-82599068D01*
X146942889Y-82528586D01*
X147096028Y-82426262D01*
X147162290Y-82360000D01*
X151067591Y-82360000D01*
X151100000Y-82363192D01*
X151132409Y-82360000D01*
X151132419Y-82360000D01*
X151229383Y-82350450D01*
X151291243Y-82331685D01*
X151307911Y-82335000D01*
X151492089Y-82335000D01*
X151672729Y-82299068D01*
X151842889Y-82228586D01*
X151996028Y-82126262D01*
X152126262Y-81996028D01*
X152228586Y-81842889D01*
X152299068Y-81672729D01*
X152311961Y-81607911D01*
X163665000Y-81607911D01*
X163665000Y-81792089D01*
X163700932Y-81972729D01*
X163771414Y-82142889D01*
X163873738Y-82296028D01*
X164003972Y-82426262D01*
X164157111Y-82528586D01*
X164327271Y-82599068D01*
X164507911Y-82635000D01*
X164692089Y-82635000D01*
X164872729Y-82599068D01*
X165042889Y-82528586D01*
X165196028Y-82426262D01*
X165262290Y-82360000D01*
X169754465Y-82360000D01*
X169857111Y-82428586D01*
X170027271Y-82499068D01*
X170207911Y-82535000D01*
X170392089Y-82535000D01*
X170572729Y-82499068D01*
X170742889Y-82428586D01*
X170896028Y-82326262D01*
X171026262Y-82196028D01*
X171128586Y-82042889D01*
X171199068Y-81872729D01*
X171235000Y-81692089D01*
X171235000Y-81507911D01*
X171199068Y-81327271D01*
X171128586Y-81157111D01*
X171026262Y-81003972D01*
X170896028Y-80873738D01*
X170742889Y-80771414D01*
X170572729Y-80700932D01*
X170392089Y-80665000D01*
X170207911Y-80665000D01*
X170027271Y-80700932D01*
X169857111Y-80771414D01*
X169703972Y-80873738D01*
X169573738Y-81003972D01*
X169549665Y-81040000D01*
X165262290Y-81040000D01*
X165196028Y-80973738D01*
X165042889Y-80871414D01*
X164872729Y-80800932D01*
X164692089Y-80765000D01*
X164507911Y-80765000D01*
X164327271Y-80800932D01*
X164157111Y-80871414D01*
X164003972Y-80973738D01*
X163873738Y-81103972D01*
X163771414Y-81257111D01*
X163700932Y-81427271D01*
X163665000Y-81607911D01*
X152311961Y-81607911D01*
X152335000Y-81492089D01*
X152335000Y-81307911D01*
X152299068Y-81127271D01*
X152228586Y-80957111D01*
X152126262Y-80803972D01*
X151996028Y-80673738D01*
X151842889Y-80571414D01*
X151672729Y-80500932D01*
X151492089Y-80465000D01*
X151307911Y-80465000D01*
X151127271Y-80500932D01*
X150957111Y-80571414D01*
X150803972Y-80673738D01*
X150673738Y-80803972D01*
X150571414Y-80957111D01*
X150537081Y-81040000D01*
X147162290Y-81040000D01*
X147096028Y-80973738D01*
X146942889Y-80871414D01*
X146772729Y-80800932D01*
X146592089Y-80765000D01*
X146407911Y-80765000D01*
X146227271Y-80800932D01*
X146057111Y-80871414D01*
X145903972Y-80973738D01*
X145773738Y-81103972D01*
X145671414Y-81257111D01*
X145600932Y-81427271D01*
X145565000Y-81607911D01*
X139541292Y-81607911D01*
X139089616Y-81156236D01*
X139068948Y-81131052D01*
X138968450Y-81048575D01*
X138897567Y-81010687D01*
X138826262Y-80903972D01*
X138696028Y-80773738D01*
X138542889Y-80671414D01*
X138372729Y-80600932D01*
X138299863Y-80586438D01*
X138320920Y-80560780D01*
X138450790Y-80317811D01*
X138530763Y-80054174D01*
X138557767Y-79780000D01*
X138530763Y-79505826D01*
X138460193Y-79273187D01*
X139073381Y-78660000D01*
X144828509Y-78660000D01*
X144850932Y-78772729D01*
X144921414Y-78942889D01*
X145023738Y-79096028D01*
X145153972Y-79226262D01*
X145307111Y-79328586D01*
X145477271Y-79399068D01*
X145657911Y-79435000D01*
X145842089Y-79435000D01*
X146022729Y-79399068D01*
X146192889Y-79328586D01*
X146346028Y-79226262D01*
X146476262Y-79096028D01*
X146578586Y-78942889D01*
X146649068Y-78772729D01*
X146685000Y-78592089D01*
X146685000Y-78407911D01*
X146649068Y-78227271D01*
X146578586Y-78057111D01*
X146476262Y-77903972D01*
X146346028Y-77773738D01*
X146192889Y-77671414D01*
X146022729Y-77600932D01*
X145842089Y-77565000D01*
X145748380Y-77565000D01*
X145739616Y-77556236D01*
X145718948Y-77531052D01*
X145618450Y-77448575D01*
X145503793Y-77387290D01*
X145379383Y-77349550D01*
X145282419Y-77340000D01*
X145282409Y-77340000D01*
X145250000Y-77336808D01*
X145217591Y-77340000D01*
X138832408Y-77340000D01*
X138799999Y-77336808D01*
X138767590Y-77340000D01*
X138767581Y-77340000D01*
X138670617Y-77349550D01*
X138546207Y-77387290D01*
X138543096Y-77388953D01*
X138557767Y-77240000D01*
X138530763Y-76965826D01*
X138469503Y-76763877D01*
X139773381Y-75460000D01*
X142037087Y-75460000D01*
X142071420Y-75542889D01*
X142173744Y-75696028D01*
X142303978Y-75826262D01*
X142457117Y-75928586D01*
X142627277Y-75999068D01*
X142807917Y-76035000D01*
X142992095Y-76035000D01*
X143172735Y-75999068D01*
X143342895Y-75928586D01*
X143496034Y-75826262D01*
X143626268Y-75696028D01*
X143728592Y-75542889D01*
X143799074Y-75372729D01*
X143835006Y-75192089D01*
X143835006Y-75109990D01*
X143908320Y-75109990D01*
X144088960Y-75074058D01*
X144259120Y-75003576D01*
X144412259Y-74901252D01*
X144542493Y-74771018D01*
X144644817Y-74617879D01*
X144715299Y-74447719D01*
X144751231Y-74267079D01*
X144751231Y-74082901D01*
X144715299Y-73902261D01*
X144644817Y-73732101D01*
X144542493Y-73578962D01*
X144412259Y-73448728D01*
X144259120Y-73346404D01*
X144166189Y-73307911D01*
X150465000Y-73307911D01*
X150465000Y-73492089D01*
X150500932Y-73672729D01*
X150571414Y-73842889D01*
X150673738Y-73996028D01*
X150740000Y-74062290D01*
X150740000Y-74067591D01*
X150736808Y-74100000D01*
X150740000Y-74132409D01*
X150740000Y-74132418D01*
X150749550Y-74229382D01*
X150786190Y-74350166D01*
X150787290Y-74353792D01*
X150848575Y-74468450D01*
X150850939Y-74471330D01*
X150931052Y-74568948D01*
X150956236Y-74589616D01*
X155110388Y-78743769D01*
X155131052Y-78768948D01*
X155231550Y-78851425D01*
X155346207Y-78912710D01*
X155470617Y-78950450D01*
X155567581Y-78960000D01*
X155567591Y-78960000D01*
X155600000Y-78963192D01*
X155632409Y-78960000D01*
X156567591Y-78960000D01*
X156600000Y-78963192D01*
X156632409Y-78960000D01*
X156632419Y-78960000D01*
X156729383Y-78950450D01*
X156853793Y-78912710D01*
X156968450Y-78851425D01*
X157068948Y-78768948D01*
X157089616Y-78743764D01*
X157973381Y-77860000D01*
X171426620Y-77860000D01*
X178099764Y-84533145D01*
X178065000Y-84707911D01*
X178065000Y-84892089D01*
X178100932Y-85072729D01*
X178171414Y-85242889D01*
X178273738Y-85396028D01*
X178403972Y-85526262D01*
X178557111Y-85628586D01*
X178727271Y-85699068D01*
X178907911Y-85735000D01*
X179092089Y-85735000D01*
X179272729Y-85699068D01*
X179442889Y-85628586D01*
X179596028Y-85526262D01*
X179726262Y-85396028D01*
X179828586Y-85242889D01*
X179899068Y-85072729D01*
X179935000Y-84892089D01*
X179935000Y-84707911D01*
X179899068Y-84527271D01*
X179828586Y-84357111D01*
X179726262Y-84203972D01*
X179596028Y-84073738D01*
X179442889Y-83971414D01*
X179377859Y-83944478D01*
X175341292Y-79907911D01*
X182265000Y-79907911D01*
X182265000Y-80092089D01*
X182300932Y-80272729D01*
X182371414Y-80442889D01*
X182473738Y-80596028D01*
X182603972Y-80726262D01*
X182757111Y-80828586D01*
X182927271Y-80899068D01*
X183107911Y-80935000D01*
X183292089Y-80935000D01*
X183472729Y-80899068D01*
X183642889Y-80828586D01*
X183796028Y-80726262D01*
X183862290Y-80660000D01*
X187026620Y-80660000D01*
X187765000Y-81398381D01*
X187765000Y-81492089D01*
X187800932Y-81672729D01*
X187871414Y-81842889D01*
X187973738Y-81996028D01*
X188103972Y-82126262D01*
X188257111Y-82228586D01*
X188427271Y-82299068D01*
X188607911Y-82335000D01*
X188792089Y-82335000D01*
X188972729Y-82299068D01*
X189142889Y-82228586D01*
X189296028Y-82126262D01*
X189426262Y-81996028D01*
X189528586Y-81842889D01*
X189599068Y-81672729D01*
X189635000Y-81492089D01*
X189635000Y-81307911D01*
X189599068Y-81127271D01*
X189528586Y-80957111D01*
X189426262Y-80803972D01*
X189296028Y-80673738D01*
X189142889Y-80571414D01*
X188972729Y-80500932D01*
X188792089Y-80465000D01*
X188698381Y-80465000D01*
X187789616Y-79556236D01*
X187768948Y-79531052D01*
X187668450Y-79448575D01*
X187553793Y-79387290D01*
X187429383Y-79349550D01*
X187332419Y-79340000D01*
X187332409Y-79340000D01*
X187300000Y-79336808D01*
X187267591Y-79340000D01*
X183862290Y-79340000D01*
X183796028Y-79273738D01*
X183642889Y-79171414D01*
X183472729Y-79100932D01*
X183292089Y-79065000D01*
X183107911Y-79065000D01*
X182927271Y-79100932D01*
X182757111Y-79171414D01*
X182603972Y-79273738D01*
X182473738Y-79403972D01*
X182371414Y-79557111D01*
X182300932Y-79727271D01*
X182265000Y-79907911D01*
X175341292Y-79907911D01*
X175274220Y-79840839D01*
X175296036Y-79826262D01*
X175426270Y-79696028D01*
X175528594Y-79542889D01*
X175599076Y-79372729D01*
X175635008Y-79192089D01*
X175635008Y-79007911D01*
X175599076Y-78827271D01*
X175528594Y-78657111D01*
X175426270Y-78503972D01*
X175296036Y-78373738D01*
X175142897Y-78271414D01*
X174972737Y-78200932D01*
X174792097Y-78165000D01*
X174698389Y-78165000D01*
X172789624Y-76256236D01*
X172768956Y-76231052D01*
X172668458Y-76148575D01*
X172553801Y-76087290D01*
X172429391Y-76049550D01*
X172332427Y-76040000D01*
X172332417Y-76040000D01*
X172300008Y-76036808D01*
X172267599Y-76040000D01*
X156473381Y-76040000D01*
X153989616Y-73556236D01*
X153968948Y-73531052D01*
X153868450Y-73448575D01*
X153753793Y-73387290D01*
X153629383Y-73349550D01*
X153532419Y-73340000D01*
X153532409Y-73340000D01*
X153500000Y-73336808D01*
X153467591Y-73340000D01*
X153162290Y-73340000D01*
X153096028Y-73273738D01*
X152942889Y-73171414D01*
X152772729Y-73100932D01*
X152592089Y-73065000D01*
X152407911Y-73065000D01*
X152283523Y-73089743D01*
X152228586Y-72957111D01*
X152126262Y-72803972D01*
X151996028Y-72673738D01*
X151842889Y-72571414D01*
X151672729Y-72500932D01*
X151492089Y-72465000D01*
X151307911Y-72465000D01*
X151127271Y-72500932D01*
X150957111Y-72571414D01*
X150803972Y-72673738D01*
X150673738Y-72803972D01*
X150571414Y-72957111D01*
X150500932Y-73127271D01*
X150465000Y-73307911D01*
X144166189Y-73307911D01*
X144088960Y-73275922D01*
X143922032Y-73242718D01*
X143899068Y-73127271D01*
X143828586Y-72957111D01*
X143726262Y-72803972D01*
X143596028Y-72673738D01*
X143442889Y-72571414D01*
X143272729Y-72500932D01*
X143092089Y-72465000D01*
X142907911Y-72465000D01*
X142727271Y-72500932D01*
X142557111Y-72571414D01*
X142403972Y-72673738D01*
X142337710Y-72740000D01*
X138513381Y-72740000D01*
X138455538Y-72682158D01*
X138530763Y-72434174D01*
X138557767Y-72160000D01*
X138530763Y-71885826D01*
X138450790Y-71622189D01*
X138320920Y-71379220D01*
X138146145Y-71166255D01*
X137933180Y-70991480D01*
X137743325Y-70890000D01*
X137933180Y-70788520D01*
X138146145Y-70613745D01*
X138320920Y-70400780D01*
X138450790Y-70157811D01*
X138530763Y-69894174D01*
X138557767Y-69620000D01*
X138530763Y-69345826D01*
X138450790Y-69082189D01*
X138320920Y-68839220D01*
X138146145Y-68626255D01*
X137933180Y-68451480D01*
X137743325Y-68350000D01*
X137933180Y-68248520D01*
X138146145Y-68073745D01*
X138320920Y-67860780D01*
X138450790Y-67617811D01*
X138530763Y-67354174D01*
X138557767Y-67080000D01*
X138530763Y-66805826D01*
X138450790Y-66542189D01*
X138320920Y-66299220D01*
X138146145Y-66086255D01*
X137933180Y-65911480D01*
X137743325Y-65810000D01*
X137933180Y-65708520D01*
X138146145Y-65533745D01*
X138320920Y-65320780D01*
X138450790Y-65077811D01*
X138530763Y-64814174D01*
X138557767Y-64540000D01*
X138530763Y-64265826D01*
X138450790Y-64002189D01*
X138320920Y-63759220D01*
X138146145Y-63546255D01*
X137969185Y-63401029D01*
X138016000Y-63401189D01*
X138120878Y-63390859D01*
X138221726Y-63360267D01*
X138314668Y-63310589D01*
X138396133Y-63243733D01*
X138462989Y-63162268D01*
X138512667Y-63069326D01*
X138543259Y-62968478D01*
X138553589Y-62863600D01*
X138551000Y-62260750D01*
X138417250Y-62127000D01*
X137127000Y-62127000D01*
X137127000Y-62147000D01*
X136873000Y-62147000D01*
X136873000Y-62127000D01*
X136853000Y-62127000D01*
X136853000Y-61873000D01*
X136873000Y-61873000D01*
X136873000Y-60735150D01*
X137127000Y-60735150D01*
X137127000Y-61873000D01*
X138417250Y-61873000D01*
X138551000Y-61739250D01*
X138553589Y-61136400D01*
X138543259Y-61031522D01*
X138512667Y-60930674D01*
X138462989Y-60837732D01*
X138396133Y-60756267D01*
X138314668Y-60689411D01*
X138221726Y-60639733D01*
X138120878Y-60609141D01*
X138016000Y-60598811D01*
X137260750Y-60601400D01*
X137127000Y-60735150D01*
X136873000Y-60735150D01*
X136739250Y-60601400D01*
X135984000Y-60598811D01*
X135879122Y-60609141D01*
X135778274Y-60639733D01*
X135685332Y-60689411D01*
X135603867Y-60756267D01*
X135560000Y-60809720D01*
X135560000Y-60560000D01*
X142862003Y-60560000D01*
X142639221Y-60679080D01*
M02*
